<svg width="1000" height="1000" id="mySVG"><circle cx="586.3014209263408" cy="396.2641527048672" r="1" fill="#0f3d28"></circle><circle cx="504.25327535293206" cy="406.49585032231585" r="4" fill="#05140d"></circle><circle cx="881.2430656495153" cy="431.1088781009752" r="3" fill="#99e6c3"></circle><circle cx="443.4528556797301" cy="465.36874659798923" r="3" fill="#1c1c1c"></circle><circle cx="596.9470742638755" cy="608.924093157971" r="5" fill="#0f3d28"></circle><circle cx="455.0561480317868" cy="484.25739298420496" r="3" fill="#05140d"></circle><circle cx="397.086445156885" cy="448.30239857599304" r="3" fill="#05140d"></circle><circle cx="587.8871649474878" cy="493.1668759961714" r="3" fill="#05140d"></circle><circle cx="473.44051884004966" cy="390.1046163603378" r="3" fill="#05140d"></circle><circle cx="328.7693668087486" cy="606.8798799789581" r="1" fill="#248f5e"></circle><circle cx="416.16736459531063" cy="570.9031525317489" r="4" fill="#05140d"></circle><circle cx="662.9063151629905" cy="679.8864995327931" r="3" fill="#47d193"></circle><circle cx="401.4798048551046" cy="535.5781773770359" r="1" fill="#0f3d28"></circle><circle cx="306.2143700429252" cy="504.15553867951024" r="1" fill="#196643"></circle><circle cx="351.92241481090406" cy="420.7720920580626" r="3" fill="#196643"></circle><circle cx="443.8448345356552" cy="630.1703928276834" r="5" fill="#0f3d28"></circle><circle cx="584.4348578094156" cy="693.6349666463618" r="2" fill="#248f5e"></circle><circle cx="566.6088245727475" cy="718.1637554257209" r="3" fill="#248f5e"></circle><circle cx="579.0291397318608" cy="574.2837031209733" r="1" fill="#05140d"></circle><circle cx="331.1668013707256" cy="540.2104100310336" r="1" fill="#196643"></circle><circle cx="604.1866069818977" cy="342.6789440057956" r="1" fill="#196643"></circle><circle cx="697.8696814727745" cy="613.4720342863734" r="4" fill="#248f5e"></circle><circle cx="572.1121029639963" cy="695.4405586241602" r="1" fill="#248f5e"></circle><circle cx="266.99854376830115" cy="578.3312547145329" r="5" fill="#47d193"></circle><circle cx="499.3499674625517" cy="755.1394789817357" r="1" fill="#47d193"></circle><circle cx="400.290342079457" cy="785.2928055760265" r="5" fill="#47d193"></circle><circle cx="481.8148621683375" cy="494.4048694472376" r="3" fill="#1c1c1c"></circle><circle cx="144.70237163560262" cy="633.802675329297" r="2" fill="#99e6c3"></circle><circle cx="398.7123936826101" cy="643.3747368114616" r="5" fill="#196643"></circle><circle cx="281.437207962498" cy="599.0966293853351" r="5" fill="#248f5e"></circle><circle cx="594.0156360527884" cy="609.9977313823649" r="3" fill="#0f3d28"></circle><circle cx="413.93692553127227" cy="523.9694888378544" r="2" fill="#05140d"></circle><circle cx="581.9121504552006" cy="433.36969575397967" r="5" fill="#05140d"></circle><circle cx="663.427345861287" cy="464.2276755282662" r="1" fill="#196643"></circle><circle cx="496.0215537310944" cy="515.2833768633943" r="5" fill="#1c1c1c"></circle><circle cx="378.32330752454385" cy="411.46067820090207" r="5" fill="#0f3d28"></circle><circle cx="455.20827052656415" cy="361.6406465005432" r="2" fill="#0f3d28"></circle><circle cx="439.4064953599444" cy="400.2599206103494" r="4" fill="#05140d"></circle><circle cx="642.5296494970282" cy="785.4525081186466" r="5" fill="#47d193"></circle><circle cx="367.54449899417" cy="478.4274765663526" r="3" fill="#196643"></circle><circle cx="722.9478915957916" cy="685.102676333262" r="5" fill="#47d193"></circle><circle cx="407.6203022163677" cy="543.3575055660315" r="4" fill="#05140d"></circle><circle cx="667.5263163245417" cy="402.1932654584503" r="3" fill="#196643"></circle><circle cx="222.50510003624305" cy="304.78137402101817" r="1" fill="#47d193"></circle><circle cx="292.5131951153446" cy="751.919634019682" r="5" fill="#99e6c3"></circle><circle cx="414.6158532546235" cy="532.2751185245503" r="3" fill="#05140d"></circle><circle cx="307.57389882994573" cy="463.03142600400406" r="5" fill="#0f3d28"></circle><circle cx="767.0163386983862" cy="661.460780896731" r="5" fill="#47d193"></circle><circle cx="401.8422002295481" cy="288.7189213107109" r="4" fill="#248f5e"></circle><circle cx="344.5274621958633" cy="598.940688914126" r="5" fill="#0f3d28"></circle><circle cx="671.4429602345901" cy="538.3850187261353" r="4" fill="#248f5e"></circle><circle cx="520.336939600924" cy="526.9056107166701" r="3" fill="#1c1c1c"></circle><circle cx="276.2579380386835" cy="657.4436964292784" r="3" fill="#47d193"></circle><circle cx="248.4260163943864" cy="361.2555134567764" r="4" fill="#99e6c3"></circle><circle cx="419.37501019443215" cy="668.2935479022292" r="3" fill="#196643"></circle><circle cx="800.9452681988082" cy="707.6515913437688" r="5" fill="#99e6c3"></circle><circle cx="330.07863130235694" cy="499.05293685366456" r="3" fill="#196643"></circle><circle cx="317.0216826373892" cy="407.5967079128642" r="4" fill="#248f5e"></circle><circle cx="696.7877923308137" cy="559.8266829965714" r="4" fill="#248f5e"></circle><circle cx="472.06018916621144" cy="509.42649579727396" r="1" fill="#1c1c1c"></circle><circle cx="431.62124823541467" cy="416.8412436777492" r="3" fill="#05140d"></circle><circle cx="409.6167255623017" cy="584.2894649055743" r="5" fill="#0f3d28"></circle><circle cx="407.5764499809384" cy="549.5628470135354" r="4" fill="#05140d"></circle><circle cx="574.4806645397921" cy="219.26765005741066" r="4" fill="#47d193"></circle><circle cx="508.45746390497214" cy="665.0923704321057" r="5" fill="#196643"></circle><circle cx="445.6425948731606" cy="432.0090110237393" r="3" fill="#05140d"></circle><circle cx="513.8981808456556" cy="219.10026585948606" r="3" fill="#47d193"></circle><circle cx="433.4064329874361" cy="619.6520600062288" r="1" fill="#0f3d28"></circle><circle cx="389.4206315819355" cy="393.86917533616815" r="1" fill="#196643"></circle><circle cx="451.9824660385835" cy="454.4380635724794" r="4" fill="#1c1c1c"></circle><circle cx="439.19895509590344" cy="352.4300669248106" r="3" fill="#0f3d28"></circle><circle cx="494.27419941794244" cy="579.8870145390188" r="2" fill="#0f3d28"></circle><circle cx="298.00478732284165" cy="482.1632489815694" r="2" fill="#248f5e"></circle><circle cx="482.7023555920953" cy="445.9268150913697" r="2" fill="#1c1c1c"></circle><circle cx="547.2489575357583" cy="677.6308997108209" r="5" fill="#0f3d28"></circle><circle cx="473.02898091336624" cy="270.5564336642616" r="1" fill="#196643"></circle><circle cx="214.83637508895987" cy="465.88716805962366" r="1" fill="#47d193"></circle><circle cx="592.7247648098859" cy="227.68389999265247" r="2" fill="#47d193"></circle><circle cx="571.9176110715338" cy="569.2555813509457" r="5" fill="#05140d"></circle><circle cx="480.06883582738413" cy="524.6956635462562" r="1" fill="#1c1c1c"></circle><circle cx="704.4147412989572" cy="555.8483412321377" r="4" fill="#196643"></circle><circle cx="685.3289484786948" cy="616.0417703583091" r="2" fill="#248f5e"></circle><circle cx="711.51145926645" cy="566.2950464637943" r="4" fill="#248f5e"></circle><circle cx="490.29434697898887" cy="451.1109254195871" r="2" fill="#1c1c1c"></circle><circle cx="268.03964037799466" cy="365.23384100984765" r="1" fill="#2eb879"></circle><circle cx="463.69779482189256" cy="621.8548229745797" r="5" fill="#0f3d28"></circle><circle cx="467.8166719734753" cy="512.8935650353354" r="2" fill="#05140d"></circle><circle cx="477.6745700397731" cy="438.06772493962364" r="4" fill="#05140d"></circle><circle cx="536.5547573624057" cy="395.3928210996396" r="3" fill="#1c1c1c"></circle><circle cx="390.63348664294085" cy="438.1903545736443" r="5" fill="#05140d"></circle><circle cx="561.6508610432343" cy="540.6329236741503" r="4" fill="#1c1c1c"></circle><circle cx="534.5558353373602" cy="605.3563792062981" r="5" fill="#1c1c1c"></circle><circle cx="657.475023584884" cy="843.8225334929348" r="2" fill="#99e6c3"></circle><circle cx="330.4863797910971" cy="378.4735256406444" r="4" fill="#248f5e"></circle><circle cx="587.9467494373868" cy="659.7487387961938" r="2" fill="#196643"></circle><circle cx="442.7563129121706" cy="314.7048461666109" r="3" fill="#196643"></circle><circle cx="219.9895225788054" cy="360.5274596044311" r="3" fill="#47d193"></circle><circle cx="594.1620350327453" cy="768.7722532846086" r="1" fill="#47d193"></circle><circle cx="472.5801614722893" cy="277.67981431530063" r="4" fill="#248f5e"></circle><circle cx="426.17652695302525" cy="531.5527577426406" r="5" fill="#1c1c1c"></circle><circle cx="563.3341352579455" cy="373.9629272084261" r="4" fill="#196643"></circle><circle cx="279.8741877193421" cy="460.16853377595305" r="5" fill="#196643"></circle><circle cx="517.4433558879589" cy="447.96006933845155" r="5" fill="#1c1c1c"></circle><circle cx="322.7497961313045" cy="547.3594870448334" r="5" fill="#196643"></circle><circle cx="765.1020796590535" cy="294.5281839334935" r="2" fill="#99e6c3"></circle><circle cx="477.69591591861337" cy="404.3268829463358" r="1" fill="#05140d"></circle><circle cx="710.9886876926653" cy="562.2007414671415" r="5" fill="#248f5e"></circle><circle cx="654.9014415420662" cy="513.2553457577453" r="3" fill="#0f3d28"></circle><circle cx="380.89781052016076" cy="433.63125145359004" r="1" fill="#0f3d28"></circle><circle cx="513.7672445493381" cy="640.5859637848412" r="2" fill="#0f3d28"></circle><circle cx="601.4219631352304" cy="632.9559949705944" r="1" fill="#196643"></circle><circle cx="523.6433011693981" cy="570.3487897776619" r="3" fill="#1c1c1c"></circle><circle cx="567.2695139257486" cy="499.30572097429484" r="4" fill="#1c1c1c"></circle><circle cx="353.39107031757294" cy="422.66949305219805" r="5" fill="#196643"></circle><circle cx="504.75699537364954" cy="362.374573576226" r="1" fill="#0f3d28"></circle><circle cx="591.3427346128278" cy="323.1490588042801" r="5" fill="#248f5e"></circle><circle cx="738.0459719367897" cy="391.14627789839136" r="4" fill="#2eb879"></circle><circle cx="386.8793607810568" cy="483.1153812778377" r="3" fill="#05140d"></circle><circle cx="424.42259876051116" cy="436.9169374549307" r="1" fill="#05140d"></circle><circle cx="476.65784845985064" cy="460.42103897122735" r="2" fill="#1c1c1c"></circle><circle cx="456.7599307443188" cy="394.1823689233579" r="5" fill="#0f3d28"></circle><circle cx="638.6211540277557" cy="173.75779584800227" r="4" fill="#99e6c3"></circle><circle cx="647.4797954171614" cy="452.35494625245906" r="2" fill="#0f3d28"></circle><circle cx="414.0218274060583" cy="345.02179166211533" r="3" fill="#196643"></circle><circle cx="616.2692722507604" cy="417.8146237759029" r="2" fill="#0f3d28"></circle><circle cx="398.8296524635552" cy="409.63032189965674" r="4" fill="#0f3d28"></circle><circle cx="501.52062136772116" cy="536.7016084781386" r="5" fill="#1c1c1c"></circle><circle cx="604.1106924249918" cy="767.8855888657071" r="4" fill="#47d193"></circle><circle cx="275.10857439576176" cy="471.5449821387052" r="2" fill="#248f5e"></circle><circle cx="586.133992433335" cy="743.8589199864473" r="3" fill="#47d193"></circle><circle cx="616.6890931455946" cy="816.9671772022717" r="2" fill="#47d193"></circle><circle cx="509.32499630464014" cy="544.665935730856" r="3" fill="#1c1c1c"></circle><circle cx="629.2919475709529" cy="474.1911446006724" r="2" fill="#196643"></circle><circle cx="218.99602294829208" cy="280.86294642005186" r="1" fill="#99e6c3"></circle><circle cx="822.5587201284445" cy="552.441307866312" r="3" fill="#99e6c3"></circle><circle cx="778.0404247447975" cy="381.1074425405144" r="3" fill="#47d193"></circle><circle cx="361.5225915536377" cy="528.4275852606389" r="3" fill="#0f3d28"></circle><circle cx="585.953676113245" cy="665.3262179691613" r="5" fill="#196643"></circle><circle cx="566.1337584272744" cy="538.8235754240128" r="4" fill="#05140d"></circle><circle cx="405.2006631873069" cy="604.2018171286504" r="3" fill="#05140d"></circle><circle cx="83.22570900238225" cy="346.7437517073447" r="2" fill="#99e6c3"></circle><circle cx="222.16256386281185" cy="634.6008497834912" r="2" fill="#47d193"></circle><circle cx="480.0818260103498" cy="363.8964406650569" r="3" fill="#0f3d28"></circle><circle cx="373.19874959582285" cy="571.8834142093664" r="5" fill="#196643"></circle><circle cx="380.7091053604289" cy="761.522219274972" r="1" fill="#47d193"></circle><circle cx="532.6388591910351" cy="523.6819261721811" r="5" fill="#1c1c1c"></circle><circle cx="499.90571709882505" cy="723.5327176788043" r="5" fill="#196643"></circle><circle cx="458.13700405596876" cy="532.1632302493364" r="1" fill="#1c1c1c"></circle><circle cx="374.88061503197974" cy="432.05070875390084" r="2" fill="#05140d"></circle><circle cx="430.8537904636686" cy="671.9562476930149" r="3" fill="#196643"></circle><circle cx="341.7889738696963" cy="369.4730142348038" r="1" fill="#248f5e"></circle><circle cx="543.7370377263816" cy="687.9104700687542" r="4" fill="#0f3d28"></circle><circle cx="522.2839055926942" cy="334.41548523070145" r="3" fill="#196643"></circle><circle cx="417.680466950069" cy="602.8048556563921" r="3" fill="#0f3d28"></circle><circle cx="482.9135222668866" cy="519.4280917836978" r="2" fill="#05140d"></circle><circle cx="132.31968114414855" cy="383.7022775764757" r="1" fill="#99e6c3"></circle><circle cx="420.3758438716022" cy="751.5322916714181" r="5" fill="#47d193"></circle><circle cx="686.5190176689991" cy="430.6583247577672" r="4" fill="#196643"></circle><circle cx="582.6805735529433" cy="523.9950381692784" r="4" fill="#05140d"></circle><circle cx="458.03282063349525" cy="298.68268370808386" r="1" fill="#248f5e"></circle><circle cx="452.94863168396154" cy="352.7036716337401" r="3" fill="#196643"></circle><circle cx="719.9908560965116" cy="785.7340982705136" r="5" fill="#99e6c3"></circle><circle cx="452.97856896668327" cy="576.5589615664009" r="2" fill="#05140d"></circle><circle cx="483.7834565462944" cy="536.3027420188064" r="5" fill="#1c1c1c"></circle><circle cx="430.68527047351523" cy="555.0467377546152" r="4" fill="#0f3d28"></circle><circle cx="568.922754963272" cy="429.0629490428616" r="4" fill="#05140d"></circle><circle cx="510.71301037822735" cy="680.8894282772503" r="5" fill="#0f3d28"></circle><circle cx="929.0176827937019" cy="505.85121059586754" r="2" fill="#99e6c3"></circle><circle cx="100.84798789106628" cy="509.7931611793059" r="4" fill="#99e6c3"></circle><circle cx="616.2780734633891" cy="516.2120100905947" r="3" fill="#05140d"></circle><circle cx="580.0794401177587" cy="405.0906448846188" r="4" fill="#0f3d28"></circle><circle cx="203.0261329013838" cy="635.4223443420389" r="2" fill="#47d193"></circle><circle cx="431.22342931285976" cy="473.75837482329007" r="1" fill="#1c1c1c"></circle><circle cx="475.945297202037" cy="297.64235036128787" r="2" fill="#2eb879"></circle><circle cx="205.56255805639836" cy="418.57317477434617" r="3" fill="#47d193"></circle><circle cx="620.4319457268377" cy="365.70047441053714" r="5" fill="#196643"></circle><circle cx="379.0812895566731" cy="559.0658738920423" r="4" fill="#0f3d28"></circle><circle cx="667.272113456863" cy="681.5804222885221" r="3" fill="#2eb879"></circle><circle cx="351.87106630774366" cy="509.5196639446403" r="5" fill="#05140d"></circle><circle cx="595.1527422065535" cy="440.58855721884765" r="2" fill="#05140d"></circle><circle cx="475.47531928386815" cy="333.72436261396604" r="2" fill="#196643"></circle><circle cx="330.40557256456884" cy="341.5731075582741" r="5" fill="#248f5e"></circle><circle cx="466.8462040944158" cy="545.6251189856866" r="2" fill="#1c1c1c"></circle><circle cx="451.0117603601912" cy="341.1355150514038" r="5" fill="#196643"></circle><circle cx="383.92975376441177" cy="604.0433849678898" r="5" fill="#0f3d28"></circle><circle cx="627.8935083640426" cy="446.72093977783857" r="4" fill="#196643"></circle><circle cx="448.29642885445264" cy="435.4546161281403" r="5" fill="#0f3d28"></circle><circle cx="664.3037483334612" cy="450.21457413566753" r="4" fill="#196643"></circle><circle cx="293.84750168066637" cy="503.7849752197081" r="5" fill="#248f5e"></circle><circle cx="606.1324515877694" cy="649.0413905218218" r="4" fill="#196643"></circle><circle cx="591.1050357655116" cy="596.4646568426068" r="2" fill="#0f3d28"></circle><circle cx="573.7656037484729" cy="576.7962627895922" r="1" fill="#05140d"></circle><circle cx="647.6415015825168" cy="672.9924940447042" r="3" fill="#248f5e"></circle><circle cx="517.388087418943" cy="483.93636643982745" r="4" fill="#05140d"></circle><circle cx="412.71117935357574" cy="329.36570213335017" r="2" fill="#196643"></circle><circle cx="396.66620692790093" cy="476.21772091422207" r="1" fill="#05140d"></circle><circle cx="544.5300961248979" cy="574.6486278056168" r="1" fill="#1c1c1c"></circle><circle cx="487.78850205634194" cy="395.0474021344995" r="1" fill="#05140d"></circle><circle cx="707.0060599701264" cy="547.0059373925425" r="5" fill="#248f5e"></circle><circle cx="491.4608106935451" cy="562.2145258284509" r="3" fill="#1c1c1c"></circle><circle cx="599.8357294805315" cy="665.8219320352526" r="4" fill="#196643"></circle><circle cx="632.6260367534616" cy="482.5277440319169" r="1" fill="#0f3d28"></circle><circle cx="418.409301958143" cy="489.51530503258164" r="1" fill="#05140d"></circle><circle cx="532.2476292469407" cy="429.58306748677427" r="2" fill="#1c1c1c"></circle><circle cx="244.9690731212148" cy="552.713667805045" r="1" fill="#47d193"></circle><circle cx="637.8114791020341" cy="363.7192503856435" r="4" fill="#196643"></circle><circle cx="610.2637319857839" cy="545.0581983707195" r="2" fill="#05140d"></circle><circle cx="276.5053036942031" cy="189.48021059508955" r="5" fill="#99e6c3"></circle><circle cx="412.9355072485823" cy="448.2065122744534" r="1" fill="#05140d"></circle><circle cx="526.8564879402957" cy="544.2858141801441" r="1" fill="#1c1c1c"></circle><circle cx="495.22307456902513" cy="907.9649044046463" r="4" fill="#99e6c3"></circle><circle cx="595.4078613729606" cy="540.7679537312353" r="2" fill="#05140d"></circle><circle cx="751.6383976893055" cy="629.3067964156022" r="3" fill="#47d193"></circle><circle cx="358.3047048139467" cy="437.2165883248554" r="5" fill="#0f3d28"></circle><circle cx="523.4585125211702" cy="589.4320929140048" r="5" fill="#05140d"></circle><circle cx="476.4066512387387" cy="466.4066950255768" r="2" fill="#1c1c1c"></circle><circle cx="641.2459728920867" cy="434.8782246436178" r="3" fill="#0f3d28"></circle><circle cx="756.3334617769888" cy="406.1503462832702" r="5" fill="#47d193"></circle><circle cx="444.6534161041672" cy="386.8704152566232" r="3" fill="#0f3d28"></circle><circle cx="313.5923734216916" cy="386.46699942356736" r="3" fill="#2eb879"></circle><circle cx="426.7131808115444" cy="549.4757502057354" r="5" fill="#05140d"></circle><circle cx="485.47942965257806" cy="661.1095259758993" r="2" fill="#196643"></circle><circle cx="348.590717943787" cy="419.42683697569333" r="2" fill="#196643"></circle><circle cx="202.4400480449354" cy="600.3269447609083" r="3" fill="#47d193"></circle><circle cx="500.67778916793094" cy="568.070403985124" r="2" fill="#1c1c1c"></circle><circle cx="646.72549533468" cy="352.67100478356366" r="1" fill="#248f5e"></circle><circle cx="443.40879995924854" cy="544.4751287677018" r="4" fill="#1c1c1c"></circle><circle cx="387.655588689209" cy="492.3043488055249" r="1" fill="#05140d"></circle><circle cx="494.1083030860468" cy="629.3356990589309" r="1" fill="#0f3d28"></circle><circle cx="515.9628106084627" cy="307.35952871252977" r="3" fill="#196643"></circle><circle cx="521.1391719412816" cy="650.5096800272177" r="4" fill="#0f3d28"></circle><circle cx="570.0480306575214" cy="618.8411613396473" r="5" fill="#196643"></circle><circle cx="190.63483503482485" cy="596.0994436320802" r="1" fill="#99e6c3"></circle><circle cx="370.571552857003" cy="654.6383133423581" r="4" fill="#248f5e"></circle><circle cx="587.6648115611074" cy="667.7589875806076" r="1" fill="#196643"></circle><circle cx="425.4560652692534" cy="562.1304806195672" r="5" fill="#05140d"></circle><circle cx="672.9361209818312" cy="404.6722007659748" r="5" fill="#196643"></circle><circle cx="506.1553122931278" cy="558.3657415058279" r="1" fill="#1c1c1c"></circle><circle cx="824.100912809067" cy="738.2601043635592" r="3" fill="#99e6c3"></circle><circle cx="303.8450328464165" cy="543.199395329306" r="3" fill="#248f5e"></circle><circle cx="537.7093404596328" cy="429.5477506969655" r="2" fill="#05140d"></circle><circle cx="590.8640689863637" cy="737.7532935929974" r="5" fill="#2eb879"></circle><circle cx="520.5185478771515" cy="499.2564418985225" r="2" fill="#1c1c1c"></circle><circle cx="567.8221977062074" cy="587.1876985742658" r="2" fill="#05140d"></circle><circle cx="339.58622992065546" cy="590.1016312200327" r="1" fill="#196643"></circle><circle cx="310.6520312834505" cy="549.754726454518" r="3" fill="#196643"></circle><circle cx="863.6725876286962" cy="563.7390133369265" r="4" fill="#99e6c3"></circle><circle cx="304.7594591328749" cy="430.6467153976549" r="4" fill="#196643"></circle><circle cx="423.7080634446169" cy="525.5187458044919" r="2" fill="#05140d"></circle><circle cx="426.8046653843826" cy="405.7901676970314" r="3" fill="#05140d"></circle><circle cx="535.8415048334494" cy="573.1956305099209" r="3" fill="#05140d"></circle><circle cx="461.67317995793627" cy="501.3873086872776" r="4" fill="#1c1c1c"></circle><circle cx="538.7060154765443" cy="419.81776608843626" r="5" fill="#05140d"></circle><circle cx="507.22896760462163" cy="437.3558456085873" r="1" fill="#1c1c1c"></circle><circle cx="414.2158069374319" cy="606.5975763637371" r="5" fill="#0f3d28"></circle><circle cx="290.9465300486472" cy="400.7817298199509" r="5" fill="#248f5e"></circle><circle cx="531.392674512997" cy="230.54427937036172" r="2" fill="#2eb879"></circle><circle cx="572.8038062549535" cy="367.74536419360845" r="4" fill="#0f3d28"></circle><circle cx="452.688625934558" cy="540.9082308995816" r="2" fill="#05140d"></circle><circle cx="567.8398699679527" cy="687.7287694983536" r="4" fill="#196643"></circle><circle cx="529.6952131513658" cy="508.1834065715784" r="4" fill="#05140d"></circle><circle cx="356.1169546861794" cy="684.0459494953242" r="1" fill="#248f5e"></circle><circle cx="408.6838589051314" cy="421.90747682404833" r="3" fill="#0f3d28"></circle><circle cx="310.82352521933683" cy="427.9068421272865" r="1" fill="#248f5e"></circle><circle cx="359.00557884980617" cy="623.9008648589647" r="2" fill="#196643"></circle><circle cx="391.79792667932463" cy="342.84352696398605" r="1" fill="#0f3d28"></circle><circle cx="371.8024799186435" cy="279.2424657652179" r="3" fill="#47d193"></circle><circle cx="413.9350469526834" cy="566.5016937901976" r="5" fill="#05140d"></circle><circle cx="445.72060398604935" cy="549.9122624930206" r="5" fill="#1c1c1c"></circle><circle cx="470.11083624282156" cy="376.0334934830052" r="1" fill="#0f3d28"></circle><circle cx="694.8533031409368" cy="506.64182737705755" r="1" fill="#196643"></circle><circle cx="399.0276212970181" cy="597.0105025328126" r="3" fill="#05140d"></circle><circle cx="225.06657981531987" cy="357.39810082692" r="4" fill="#47d193"></circle><circle cx="565.8004978400782" cy="412.1665893591563" r="4" fill="#05140d"></circle><circle cx="794.6761729719228" cy="657.0527750974295" r="4" fill="#99e6c3"></circle><circle cx="660.9556448821832" cy="582.8389206197869" r="5" fill="#196643"></circle><circle cx="385.68593585217366" cy="561.6268293717635" r="5" fill="#05140d"></circle><circle cx="527.4687604286293" cy="585.7094274897476" r="2" fill="#0f3d28"></circle><circle cx="473.5432034806369" cy="634.0099580451649" r="5" fill="#0f3d28"></circle><circle cx="509.65679137553553" cy="407.1268656185845" r="3" fill="#05140d"></circle><circle cx="643.2030423232507" cy="330.92388385113077" r="1" fill="#248f5e"></circle><circle cx="349.1084980598991" cy="583.8031160941359" r="1" fill="#196643"></circle><circle cx="484.8276079592758" cy="552.193140400882" r="1" fill="#1c1c1c"></circle><circle cx="562.5018341572527" cy="595.9883594443936" r="4" fill="#1c1c1c"></circle><circle cx="606.6787203673753" cy="635.3815207060896" r="2" fill="#196643"></circle><circle cx="559.9372440179144" cy="446.0437838005226" r="4" fill="#05140d"></circle><circle cx="446.05772836662845" cy="423.0395168348156" r="2" fill="#05140d"></circle><circle cx="266.58016598602853" cy="458.0065093997281" r="2" fill="#196643"></circle><circle cx="459.68466562036406" cy="344.91405027784515" r="3" fill="#196643"></circle><circle cx="191.27486479982446" cy="519.2460887243589" r="5" fill="#47d193"></circle><circle cx="518.5266981242539" cy="381.63029471334977" r="1" fill="#05140d"></circle><circle cx="400.9961458013633" cy="523.0425406003038" r="5" fill="#05140d"></circle><circle cx="601.9899685415504" cy="587.0338147961037" r="5" fill="#05140d"></circle><circle cx="542.0152022480617" cy="551.8776021892387" r="5" fill="#05140d"></circle><circle cx="569.9728851833963" cy="417.3205291689526" r="4" fill="#0f3d28"></circle><circle cx="536.7537107040883" cy="561.7474193207557" r="3" fill="#05140d"></circle><circle cx="512.2021399783116" cy="441.08753803797276" r="1" fill="#1c1c1c"></circle><circle cx="559.8609005091207" cy="406.3737808480088" r="4" fill="#05140d"></circle><circle cx="556.7987611015499" cy="307.7649639334138" r="5" fill="#248f5e"></circle><circle cx="273.3592340407246" cy="267.7631548575819" r="4" fill="#99e6c3"></circle><circle cx="571.9115545720997" cy="646.1521312309749" r="5" fill="#0f3d28"></circle><circle cx="611.11713075438" cy="371.23708564817946" r="3" fill="#196643"></circle><circle cx="526.1052943538301" cy="282.7766453509085" r="3" fill="#2eb879"></circle><circle cx="643.4625635554464" cy="455.8635672113297" r="3" fill="#05140d"></circle><circle cx="622.0545397438805" cy="402.69850916962486" r="1" fill="#0f3d28"></circle><circle cx="530.6575213608473" cy="419.285143357061" r="5" fill="#05140d"></circle><circle cx="651.1215375772244" cy="501.68422176270684" r="2" fill="#0f3d28"></circle><circle cx="419.3047417069797" cy="593.1727445746935" r="3" fill="#0f3d28"></circle><circle cx="526.7064226090824" cy="792.3366201928309" r="3" fill="#47d193"></circle><circle cx="477.3245718475059" cy="507.1792468010487" r="4" fill="#1c1c1c"></circle><circle cx="599.7386299458676" cy="278.77407994241054" r="2" fill="#2eb879"></circle><circle cx="404.47292585900016" cy="550.4530663795974" r="4" fill="#0f3d28"></circle><circle cx="448.9848282792225" cy="489.193399064833" r="3" fill="#05140d"></circle><circle cx="514.3271931906734" cy="713.902241275526" r="2" fill="#248f5e"></circle><circle cx="678.0912784777584" cy="705.9211998135928" r="4" fill="#47d193"></circle><circle cx="499.372903853678" cy="316.11658878924413" r="1" fill="#0f3d28"></circle><circle cx="786.8507701704286" cy="661.5123216590764" r="3" fill="#99e6c3"></circle><circle cx="653.9118450937228" cy="493.30517105039655" r="2" fill="#0f3d28"></circle><circle cx="560.0291993870333" cy="512.2801923948485" r="4" fill="#1c1c1c"></circle><circle cx="420.0360119702928" cy="399.7094700150024" r="5" fill="#0f3d28"></circle><circle cx="323.23359653706063" cy="697.6415282289886" r="1" fill="#47d193"></circle><circle cx="609.5706964908301" cy="718.4305677682821" r="2" fill="#47d193"></circle><circle cx="687.1133691984751" cy="668.5172447880747" r="4" fill="#47d193"></circle><circle cx="647.1612589038698" cy="553.7746492374902" r="1" fill="#05140d"></circle><circle cx="448.70048327583044" cy="459.97048020928196" r="2" fill="#1c1c1c"></circle><circle cx="531.9224224009341" cy="623.5957466543229" r="5" fill="#0f3d28"></circle><circle cx="461.2246974327533" cy="316.17781780710436" r="1" fill="#196643"></circle><circle cx="463.32070696236366" cy="645.9021418956748" r="3" fill="#0f3d28"></circle><circle cx="426.30569634975546" cy="321.02105151545106" r="4" fill="#248f5e"></circle><circle cx="547.9380716106936" cy="477.35949651860903" r="1" fill="#05140d"></circle><circle cx="396.9936424854874" cy="627.3668647090675" r="3" fill="#196643"></circle><circle cx="556.6733571655783" cy="424.21566048186367" r="4" fill="#05140d"></circle><circle cx="508.943655114094" cy="492.68575568151886" r="3" fill="#1c1c1c"></circle><circle cx="372.1460250466895" cy="203.31005695669222" r="4" fill="#99e6c3"></circle><circle cx="442.3851660892112" cy="483.76533504270736" r="1" fill="#1c1c1c"></circle><circle cx="381.3696458455346" cy="510.2814049818165" r="4" fill="#05140d"></circle><circle cx="421.38615524571634" cy="282.90230812700634" r="2" fill="#248f5e"></circle><circle cx="609.1733128846979" cy="612.9739781156711" r="1" fill="#0f3d28"></circle><circle cx="599.1708155869908" cy="407.59553011215274" r="2" fill="#0f3d28"></circle><circle cx="597.3834803145382" cy="465.98580333424036" r="1" fill="#05140d"></circle><circle cx="487.7717858768721" cy="731.9379497488055" r="4" fill="#2eb879"></circle><circle cx="301.6075331613837" cy="501.744424625658" r="4" fill="#196643"></circle><circle cx="352.3133683792659" cy="516.8916650672821" r="1" fill="#196643"></circle><circle cx="445.74204282418685" cy="356.16547358602264" r="2" fill="#0f3d28"></circle><circle cx="566.6520952474004" cy="587.0182955065097" r="5" fill="#1c1c1c"></circle><circle cx="360.4925732838236" cy="506.74264050579353" r="2" fill="#0f3d28"></circle><circle cx="749.5589625173748" cy="571.2819653461556" r="5" fill="#47d193"></circle><circle cx="607.5072293254717" cy="724.7985449536668" r="3" fill="#2eb879"></circle><circle cx="394.4873997685455" cy="654.9628854263294" r="1" fill="#248f5e"></circle><circle cx="508.51696549605873" cy="409.7597573208642" r="1" fill="#05140d"></circle><circle cx="343.56101667221293" cy="478.0007874768662" r="2" fill="#0f3d28"></circle><circle cx="369.8718371137734" cy="604.464255682311" r="3" fill="#196643"></circle><circle cx="524.352712729738" cy="420.90238750367644" r="4" fill="#05140d"></circle><circle cx="418.50909404351523" cy="644.0558214836856" r="4" fill="#0f3d28"></circle><circle cx="705.9079497998688" cy="484.75936795410274" r="5" fill="#248f5e"></circle><circle cx="439.82949281763194" cy="963.2471472982047" r="4" fill="#99e6c3"></circle><circle cx="349.309363051636" cy="540.8520898293316" r="3" fill="#0f3d28"></circle><circle cx="449.9428395023629" cy="496.3684998297978" r="1" fill="#1c1c1c"></circle><circle cx="470.60841151831164" cy="432.5061297415758" r="5" fill="#1c1c1c"></circle><circle cx="718.7223194472404" cy="382.7556085241966" r="4" fill="#47d193"></circle><circle cx="532.4811474409623" cy="658.4438911999277" r="3" fill="#196643"></circle><circle cx="470.0323967251802" cy="431.12883196101393" r="2" fill="#1c1c1c"></circle><circle cx="589.2344764485133" cy="348.8454843318615" r="3" fill="#196643"></circle><circle cx="839.6463880843738" cy="487.1501102069009" r="4" fill="#99e6c3"></circle><circle cx="385.86935544442684" cy="321.48310123832306" r="2" fill="#2eb879"></circle><circle cx="658.6053685836196" cy="541.3334887835832" r="5" fill="#196643"></circle><circle cx="533.7780235961336" cy="746.9462765848376" r="2" fill="#47d193"></circle><circle cx="555.007137633553" cy="558.0819507748171" r="2" fill="#1c1c1c"></circle><circle cx="551.6524379993423" cy="501.8830937582603" r="4" fill="#1c1c1c"></circle><circle cx="491.3375317644346" cy="497.37198186035056" r="1" fill="#1c1c1c"></circle><circle cx="722.7228258615405" cy="361.09925995701303" r="1" fill="#47d193"></circle><circle cx="438.00454746917217" cy="436.7092742391441" r="2" fill="#05140d"></circle><circle cx="415.5752216322808" cy="455.838080973215" r="5" fill="#05140d"></circle><circle cx="482.4215151114027" cy="316.1569955571918" r="3" fill="#196643"></circle><circle cx="625.4022396862197" cy="314.8791689773926" r="2" fill="#196643"></circle><circle cx="235.18801559018937" cy="601.7701370814489" r="1" fill="#47d193"></circle><circle cx="516.7373017099629" cy="347.19470993576897" r="1" fill="#0f3d28"></circle><circle cx="572.3990175966414" cy="500.4662243721227" r="3" fill="#05140d"></circle><circle cx="653.4400391991572" cy="438.682565557833" r="1" fill="#196643"></circle><circle cx="232.64067442020507" cy="422.34682550332104" r="2" fill="#47d193"></circle><circle cx="388.07041596927286" cy="581.339086738326" r="1" fill="#05140d"></circle><circle cx="481.04121474727526" cy="553.8448080132317" r="1" fill="#05140d"></circle><circle cx="356.12365656915387" cy="594.12412519189" r="1" fill="#196643"></circle><circle cx="876.4289248206655" cy="445.115801218939" r="4" fill="#99e6c3"></circle><circle cx="378.230543887803" cy="436.0807822350861" r="2" fill="#0f3d28"></circle><circle cx="593.6303006837534" cy="497.25461876394246" r="1" fill="#05140d"></circle><circle cx="639.903333059294" cy="426.5756120185008" r="5" fill="#05140d"></circle><circle cx="580.022957009124" cy="603.3408755004182" r="4" fill="#0f3d28"></circle><circle cx="516.572418095694" cy="390.65981959120745" r="3" fill="#0f3d28"></circle><circle cx="465.0356881232263" cy="614.6279601872279" r="2" fill="#05140d"></circle><circle cx="422.86454252938927" cy="819.9696046246047" r="4" fill="#99e6c3"></circle><circle cx="361.8078083302538" cy="554.6686819614756" r="1" fill="#0f3d28"></circle><circle cx="193.2516703682956" cy="209.53660800592644" r="2" fill="#99e6c3"></circle><circle cx="671.7107532724522" cy="308.08887298459456" r="2" fill="#47d193"></circle><circle cx="612.4088934093878" cy="406.15005172003663" r="4" fill="#0f3d28"></circle><circle cx="578.0759711418248" cy="394.3164030421975" r="3" fill="#0f3d28"></circle><circle cx="543.1086124811367" cy="696.8916862684288" r="1" fill="#248f5e"></circle><circle cx="592.6486206004193" cy="611.4263820159055" r="4" fill="#0f3d28"></circle><circle cx="687.5116897895011" cy="468.44526380997377" r="2" fill="#196643"></circle><circle cx="944.3950637016603" cy="412.1263237882491" r="5" fill="#99e6c3"></circle><circle cx="687.8905268857527" cy="396.78975858035824" r="2" fill="#2eb879"></circle><circle cx="561.6836927103088" cy="657.2794301283539" r="2" fill="#196643"></circle><circle cx="564.7557713403888" cy="147.27979059296473" r="5" fill="#99e6c3"></circle><circle cx="514.0463736340726" cy="345.385862110106" r="4" fill="#0f3d28"></circle><circle cx="405.48408429286087" cy="858.7877125104137" r="5" fill="#99e6c3"></circle><circle cx="494.68048141296873" cy="661.9237037878426" r="5" fill="#196643"></circle><circle cx="435.5753153513175" cy="651.4334501327766" r="4" fill="#196643"></circle><circle cx="613.9204985425735" cy="455.76538592583927" r="4" fill="#05140d"></circle><circle cx="683.2766055737648" cy="310.02776672890406" r="1" fill="#47d193"></circle><circle cx="417.3374690802933" cy="376.99882013001155" r="2" fill="#0f3d28"></circle><circle cx="355.350140425027" cy="496.3099851675272" r="1" fill="#0f3d28"></circle><circle cx="351.0088172558877" cy="351.16839940768443" r="5" fill="#248f5e"></circle><circle cx="400.7875855237008" cy="470.81725106253134" r="3" fill="#1c1c1c"></circle><circle cx="663.292106858294" cy="473.18375565389374" r="1" fill="#248f5e"></circle><circle cx="490.68611222982315" cy="261.11371469784376" r="1" fill="#196643"></circle><circle cx="637.723320112087" cy="226.22739715895779" r="3" fill="#47d193"></circle><circle cx="598.2353051939469" cy="465.6877865167182" r="3" fill="#05140d"></circle><circle cx="322.00543713953437" cy="210.91120364613528" r="1" fill="#99e6c3"></circle><circle cx="264.74326114384553" cy="542.1178208382331" r="5" fill="#2eb879"></circle><circle cx="355.4170724599222" cy="613.4073990219599" r="1" fill="#196643"></circle><circle cx="289.73372323830074" cy="590.0178655567177" r="4" fill="#248f5e"></circle><circle cx="532.1377027888577" cy="631.7686590730591" r="3" fill="#0f3d28"></circle><circle cx="617.9105871305912" cy="340.58144661701795" r="1" fill="#196643"></circle><circle cx="664.1658995481102" cy="455.80497215081607" r="4" fill="#196643"></circle><circle cx="484.06995857543217" cy="475.94794188247585" r="1" fill="#1c1c1c"></circle><circle cx="526.5074874198257" cy="632.5013815933569" r="3" fill="#0f3d28"></circle><circle cx="686.9907009779856" cy="539.5260398829829" r="3" fill="#196643"></circle><circle cx="540.8155795618911" cy="501.71214284696964" r="3" fill="#05140d"></circle><circle cx="398.3024715088309" cy="533.8143636535323" r="2" fill="#05140d"></circle><circle cx="566.4845900935063" cy="558.6764074434685" r="1" fill="#1c1c1c"></circle><circle cx="419.20791355548295" cy="501.4147400355069" r="4" fill="#05140d"></circle><circle cx="838.9326093239396" cy="491.8062826275224" r="1" fill="#99e6c3"></circle><circle cx="537.3582370553281" cy="362.7171559867621" r="3" fill="#05140d"></circle><circle cx="315.86243889186926" cy="705.647600651495" r="5" fill="#47d193"></circle><circle cx="415.0974037030332" cy="695.2633513394294" r="5" fill="#248f5e"></circle><circle cx="573.0288727862248" cy="635.6199960199712" r="5" fill="#0f3d28"></circle><circle cx="377.6217637540167" cy="412.8133708327918" r="1" fill="#0f3d28"></circle><circle cx="453.64630527186847" cy="355.3765151702239" r="3" fill="#0f3d28"></circle><circle cx="627.7805174887828" cy="628.7738686993584" r="4" fill="#196643"></circle><circle cx="548.9230958391687" cy="532.0072783640048" r="1" fill="#1c1c1c"></circle><circle cx="426.53506732712947" cy="779.3224036003026" r="2" fill="#47d193"></circle><circle cx="348.05840011923095" cy="860.8021331185594" r="4" fill="#99e6c3"></circle><circle cx="424.2185013913013" cy="387.63815243321676" r="2" fill="#0f3d28"></circle><circle cx="679.6261684823888" cy="688.4256466423932" r="4" fill="#47d193"></circle><circle cx="536.534527917414" cy="584.0197049617693" r="2" fill="#05140d"></circle><circle cx="551.064069484966" cy="438.91230541874387" r="1" fill="#05140d"></circle><circle cx="636.6303112756376" cy="443.83787918547523" r="5" fill="#0f3d28"></circle><circle cx="581.0278236960261" cy="475.3451565804083" r="3" fill="#05140d"></circle><circle cx="540.864959399404" cy="578.9170920084769" r="3" fill="#0f3d28"></circle><circle cx="492.23639186608835" cy="557.0505128345195" r="4" fill="#05140d"></circle><circle cx="479.31907449498624" cy="645.4749584885928" r="1" fill="#0f3d28"></circle><circle cx="568.4891680496332" cy="763.5898716861509" r="1" fill="#47d193"></circle><circle cx="641.1045408997084" cy="344.8326967428195" r="4" fill="#2eb879"></circle><circle cx="269.2984418173774" cy="467.3233132545384" r="5" fill="#248f5e"></circle><circle cx="631.1254331918257" cy="492.5706920835571" r="1" fill="#0f3d28"></circle><circle cx="628.9699015694898" cy="610.0050967257854" r="1" fill="#196643"></circle><circle cx="595.1092245899922" cy="533.4724967092438" r="3" fill="#0f3d28"></circle><circle cx="540.7216014084191" cy="499.77673738085866" r="5" fill="#1c1c1c"></circle><circle cx="467.9143726096806" cy="344.53191543260886" r="3" fill="#0f3d28"></circle><circle cx="532.9974261878731" cy="399.6526872007867" r="5" fill="#05140d"></circle><circle cx="522.7446078933981" cy="707.4342373176208" r="1" fill="#248f5e"></circle><circle cx="451.55958723354274" cy="647.2291698474456" r="1" fill="#0f3d28"></circle><circle cx="283.44023986621164" cy="571.136590055869" r="1" fill="#248f5e"></circle><circle cx="438.9579659689409" cy="376.08324805910905" r="1" fill="#0f3d28"></circle><circle cx="439.8751003968648" cy="659.5015553075314" r="4" fill="#196643"></circle><circle cx="586.654191904615" cy="285.2332661989034" r="5" fill="#248f5e"></circle><circle cx="199.58003390905247" cy="382.20479345339265" r="5" fill="#47d193"></circle><circle cx="510.1982690933939" cy="394.35724000953377" r="5" fill="#1c1c1c"></circle><circle cx="101.065737136743" cy="432.7051462487347" r="3" fill="#99e6c3"></circle><circle cx="319.38609390853674" cy="336.67785411985324" r="4" fill="#47d193"></circle><circle cx="331.34620004042813" cy="756.708118597695" r="1" fill="#47d193"></circle><circle cx="248.7378190713851" cy="620.1112928699818" r="4" fill="#47d193"></circle><circle cx="283.91859548049706" cy="420.1828084237214" r="2" fill="#248f5e"></circle><circle cx="481.5585556620563" cy="430.24817859573284" r="4" fill="#1c1c1c"></circle><circle cx="668.3179159816032" cy="542.5151951679734" r="4" fill="#196643"></circle><circle cx="279.9980051431698" cy="478.262182008313" r="3" fill="#248f5e"></circle><circle cx="412.12654866451186" cy="354.8674779699896" r="3" fill="#196643"></circle><circle cx="414.1107976351789" cy="468.93032067094236" r="4" fill="#05140d"></circle><circle cx="548.9966009309467" cy="281.19576090207977" r="4" fill="#248f5e"></circle><circle cx="332.3337323350936" cy="379.231356645662" r="5" fill="#2eb879"></circle><circle cx="359.5452978372638" cy="419.25477788778903" r="1" fill="#196643"></circle><circle cx="680.9161345396535" cy="722.2248771719428" r="5" fill="#47d193"></circle><circle cx="393.8785296127218" cy="307.35126398634225" r="4" fill="#2eb879"></circle><circle cx="258.0795471238497" cy="421.1642091533437" r="4" fill="#47d193"></circle><circle cx="588.143067361868" cy="635.2910580029412" r="4" fill="#248f5e"></circle><circle cx="693.8820143124865" cy="594.7404263759104" r="2" fill="#248f5e"></circle><circle cx="669.9139676260495" cy="717.4646821203246" r="1" fill="#47d193"></circle><circle cx="661.681815190802" cy="393.04985410070003" r="3" fill="#248f5e"></circle><circle cx="411.8323944696066" cy="76.20325259678185" r="4" fill="#99e6c3"></circle><circle cx="516.9739197435313" cy="502.5833950211886" r="3" fill="#1c1c1c"></circle><circle cx="693.8953294763799" cy="448.65756500670875" r="5" fill="#248f5e"></circle><circle cx="508.39839673690733" cy="568.8638787001507" r="5" fill="#1c1c1c"></circle><circle cx="444.6018171417072" cy="311.4482812035622" r="5" fill="#196643"></circle><circle cx="484.60207539165395" cy="462.5372675243727" r="4" fill="#1c1c1c"></circle><circle cx="365.55893276632" cy="291.2210521066248" r="5" fill="#2eb879"></circle><circle cx="817.1795428192223" cy="629.0860721536166" r="4" fill="#99e6c3"></circle><circle cx="564.3376524995535" cy="376.3354205388224" r="1" fill="#0f3d28"></circle><circle cx="654.8298604438751" cy="452.5503861498651" r="3" fill="#196643"></circle><circle cx="644.3652970795621" cy="455.4195044219605" r="5" fill="#0f3d28"></circle><circle cx="500.3737204441673" cy="592.2722469889704" r="3" fill="#0f3d28"></circle><circle cx="721.3383742590904" cy="366.5668894701911" r="2" fill="#47d193"></circle><circle cx="431.3080568558514" cy="390.1768915683754" r="5" fill="#196643"></circle><circle cx="422.4712671329067" cy="459.12888868671206" r="3" fill="#05140d"></circle><circle cx="569.9952229471863" cy="550.6571270051644" r="2" fill="#05140d"></circle><circle cx="735.6379573343701" cy="395.45839959197167" r="5" fill="#47d193"></circle><circle cx="423.7520582805609" cy="311.3812309993672" r="4" fill="#2eb879"></circle><circle cx="452.2851886193513" cy="445.46359206416224" r="2" fill="#1c1c1c"></circle><circle cx="716.0387863204027" cy="423.8317799152218" r="1" fill="#196643"></circle><circle cx="526.5068511215145" cy="543.9778937395266" r="3" fill="#1c1c1c"></circle><circle cx="502.4627047168238" cy="429.3629081802153" r="1" fill="#1c1c1c"></circle><circle cx="570.6927835277768" cy="540.6065908244279" r="3" fill="#1c1c1c"></circle><circle cx="322.19942323085286" cy="387.89821672579114" r="4" fill="#248f5e"></circle><circle cx="453.0148864947245" cy="686.7235764475728" r="2" fill="#196643"></circle><circle cx="496.3520763898505" cy="515.6143857507641" r="3" fill="#1c1c1c"></circle><circle cx="218.75111855190517" cy="489.48725019096844" r="5" fill="#47d193"></circle><circle cx="739.4016083181718" cy="650.4263000832602" r="4" fill="#47d193"></circle><circle cx="450.4196917171069" cy="203.76055368051385" r="4" fill="#47d193"></circle><circle cx="572.6243361747215" cy="787.3815130805483" r="3" fill="#47d193"></circle><circle cx="469.241630187486" cy="491.83766463466714" r="4" fill="#05140d"></circle><circle cx="77.35234958745207" cy="534.0563724966951" r="2" fill="#99e6c3"></circle><circle cx="616.8604017371341" cy="578.468729041459" r="3" fill="#0f3d28"></circle><circle cx="526.0981183774745" cy="657.2088712510285" r="3" fill="#0f3d28"></circle><circle cx="725.3185299626925" cy="577.7289038716292" r="2" fill="#248f5e"></circle><circle cx="387.84694029443597" cy="457.807990876244" r="3" fill="#05140d"></circle><circle cx="590.4995263678989" cy="630.793221269555" r="1" fill="#196643"></circle><circle cx="611.63213601842" cy="317.3550795993296" r="4" fill="#248f5e"></circle><circle cx="505.2301161500631" cy="471.1869084851714" r="1" fill="#1c1c1c"></circle><circle cx="595.8442459855859" cy="465.68796240616217" r="2" fill="#05140d"></circle><circle cx="334.61756105674124" cy="327.26994766798947" r="2" fill="#248f5e"></circle><circle cx="493.6340145860948" cy="496.04954285358184" r="1" fill="#1c1c1c"></circle><circle cx="417.62017061883984" cy="467.2041983858421" r="4" fill="#1c1c1c"></circle><circle cx="594.704805797444" cy="368.43191373987884" r="1" fill="#196643"></circle><circle cx="577.7002264529068" cy="817.2144705010585" r="3" fill="#47d193"></circle><circle cx="675.4365324485889" cy="387.06171308025836" r="4" fill="#248f5e"></circle><circle cx="387.023806604945" cy="345.34304296022026" r="5" fill="#248f5e"></circle><circle cx="723.9299974774216" cy="378.77696069245025" r="3" fill="#47d193"></circle><circle cx="541.6141114891622" cy="437.8466362956427" r="3" fill="#1c1c1c"></circle><circle cx="603.6642836279977" cy="596.3709076016868" r="1" fill="#0f3d28"></circle><circle cx="415.29511441442173" cy="523.2968567951016" r="3" fill="#05140d"></circle><circle cx="470.6876609360394" cy="393.3046365898678" r="3" fill="#1c1c1c"></circle><circle cx="413.259867842889" cy="452.8066423531411" r="1" fill="#05140d"></circle><circle cx="483.41943541784906" cy="660.439210970194" r="5" fill="#0f3d28"></circle><circle cx="294.42630910947236" cy="415.08243733078814" r="4" fill="#248f5e"></circle><circle cx="443.8810487587243" cy="427.1021444115444" r="4" fill="#0f3d28"></circle><circle cx="484.8712528688064" cy="284.04247008101675" r="5" fill="#248f5e"></circle><circle cx="744.8335749813318" cy="503.94862489049774" r="5" fill="#2eb879"></circle><circle cx="297.02955035389414" cy="419.5226249889711" r="4" fill="#248f5e"></circle><circle cx="676.4974199375324" cy="573.8668740927892" r="3" fill="#196643"></circle><circle cx="591.4423171699373" cy="349.74648319152567" r="4" fill="#0f3d28"></circle><circle cx="547.9717057019301" cy="506.6899419760621" r="5" fill="#05140d"></circle><circle cx="482.6244948503342" cy="486.19963281076787" r="3" fill="#1c1c1c"></circle><circle cx="410.85067656395927" cy="306.3002391442551" r="3" fill="#248f5e"></circle><circle cx="722.038508143689" cy="522.7446097914997" r="3" fill="#248f5e"></circle><circle cx="184.2603177247039" cy="618.7022775698586" r="5" fill="#99e6c3"></circle><circle cx="430.95545882979445" cy="550.3863238525981" r="4" fill="#05140d"></circle><circle cx="351.1330418617488" cy="327.6252283252147" r="3" fill="#248f5e"></circle><circle cx="575.943244801463" cy="240.4698763544406" r="1" fill="#2eb879"></circle><circle cx="540.4739249155523" cy="513.4026887233551" r="4" fill="#05140d"></circle><circle cx="315.52384100295126" cy="569.5383614437386" r="4" fill="#196643"></circle><circle cx="553.6669292831535" cy="537.379430584942" r="2" fill="#1c1c1c"></circle><circle cx="657.1050317707777" cy="443.8930535109194" r="1" fill="#196643"></circle><circle cx="457.2751939227111" cy="553.430653988015" r="5" fill="#1c1c1c"></circle><circle cx="518.265783594618" cy="480.2610448860642" r="4" fill="#1c1c1c"></circle><circle cx="504.6970296722106" cy="759.5937417501264" r="5" fill="#47d193"></circle><circle cx="769.2559153591408" cy="670.325470431816" r="3" fill="#47d193"></circle><circle cx="476.67068762734925" cy="554.1267125794614" r="4" fill="#05140d"></circle><circle cx="315.59584052864943" cy="778.6930942154611" r="3" fill="#99e6c3"></circle><circle cx="741.3915830640117" cy="746.8596365918279" r="2" fill="#99e6c3"></circle><circle cx="499.0007903055128" cy="387.19641220417645" r="4" fill="#05140d"></circle><circle cx="499.30971914577833" cy="197.2614755774273" r="3" fill="#47d193"></circle><circle cx="536.5711070258124" cy="557.4023458163509" r="1" fill="#1c1c1c"></circle><circle cx="147.26165305125096" cy="225.49172457232385" r="4" fill="#99e6c3"></circle><circle cx="561.6435626601161" cy="513.4287581471176" r="5" fill="#1c1c1c"></circle><circle cx="459.9493787184167" cy="547.4367649271433" r="4" fill="#1c1c1c"></circle><circle cx="303.9827620637188" cy="453.81071130153356" r="5" fill="#248f5e"></circle><circle cx="422.9497134107659" cy="630.529642589072" r="1" fill="#0f3d28"></circle><circle cx="433.7096395170158" cy="485.79502818535053" r="5" fill="#1c1c1c"></circle><circle cx="514.7471121451274" cy="475.888382210327" r="1" fill="#1c1c1c"></circle><circle cx="441.72999194931276" cy="335.01759530512845" r="2" fill="#196643"></circle><circle cx="286.4624882973766" cy="396.1416948561648" r="4" fill="#248f5e"></circle><circle cx="202.00800795251217" cy="473.7695070139121" r="3" fill="#47d193"></circle><circle cx="677.533190456816" cy="381.30305110922717" r="4" fill="#2eb879"></circle><circle cx="646.0081718580335" cy="557.8895781060927" r="5" fill="#0f3d28"></circle><circle cx="522.8019238995846" cy="720.8818115147403" r="3" fill="#248f5e"></circle><circle cx="614.3983710062481" cy="689.0374786446569" r="4" fill="#196643"></circle><circle cx="552.596011782785" cy="614.7361675606536" r="3" fill="#0f3d28"></circle><circle cx="391.5712490844006" cy="552.402892334466" r="4" fill="#0f3d28"></circle><circle cx="508.38881249949645" cy="564.7033878367514" r="3" fill="#05140d"></circle><circle cx="335.5258054626387" cy="703.9412865641177" r="4" fill="#47d193"></circle><circle cx="425.444863656399" cy="646.5928972771574" r="2" fill="#196643"></circle><circle cx="233.9513447572151" cy="380.31201142981104" r="1" fill="#47d193"></circle><circle cx="688.7902823310994" cy="711.793842907853" r="2" fill="#47d193"></circle><circle cx="513.0851436706648" cy="776.9022395237989" r="3" fill="#47d193"></circle><circle cx="240.17938333264868" cy="566.3181676079093" r="4" fill="#47d193"></circle><circle cx="461.42676089447696" cy="478.8128847267951" r="1" fill="#05140d"></circle><circle cx="500.6976043449675" cy="593.3972373610147" r="3" fill="#05140d"></circle><circle cx="483.7077523197768" cy="466.6949083590441" r="5" fill="#05140d"></circle><circle cx="563.8653916467513" cy="518.6259885052506" r="4" fill="#05140d"></circle><circle cx="470.1673179646528" cy="754.3263273244066" r="3" fill="#47d193"></circle><circle cx="476.7978006285246" cy="544.1416646166354" r="1" fill="#05140d"></circle><circle cx="574.1543066548111" cy="616.8300156379543" r="3" fill="#05140d"></circle><circle cx="589.7645475320979" cy="543.467194994517" r="3" fill="#05140d"></circle><circle cx="359.55187514932607" cy="723.0175955177785" r="4" fill="#47d193"></circle><circle cx="406.6436169100872" cy="471.07436672930373" r="4" fill="#05140d"></circle><circle cx="461.3944463384925" cy="693.2342456663691" r="5" fill="#196643"></circle><circle cx="567.6512811649098" cy="629.4029617322801" r="2" fill="#05140d"></circle><circle cx="494.0400376888356" cy="691.9299471518342" r="4" fill="#196643"></circle><circle cx="643.7206835185439" cy="328.7810680125347" r="1" fill="#248f5e"></circle><circle cx="646.6499574629528" cy="255.02994615649234" r="4" fill="#47d193"></circle><circle cx="630.1386368119165" cy="595.125170818699" r="3" fill="#196643"></circle><circle cx="602.1889267128973" cy="564.1866238557996" r="5" fill="#0f3d28"></circle><circle cx="291.77893887239713" cy="525.4433778742188" r="1" fill="#248f5e"></circle><circle cx="593.3692662668252" cy="727.0078312335586" r="4" fill="#47d193"></circle><circle cx="380.74027237034363" cy="379.4250882778259" r="2" fill="#196643"></circle><circle cx="164.00149177883947" cy="744.747049949874" r="5" fill="#99e6c3"></circle><circle cx="493.5898752515469" cy="312.4369766111922" r="1" fill="#248f5e"></circle><circle cx="528.9592548438003" cy="531.1471713490339" r="2" fill="#1c1c1c"></circle><circle cx="357.8741975561029" cy="596.6012343149414" r="2" fill="#196643"></circle><circle cx="631.3716802360572" cy="260.2644754994882" r="1" fill="#47d193"></circle><circle cx="444.0992890415528" cy="440.2078483554374" r="2" fill="#05140d"></circle><circle cx="562.5835087602673" cy="356.58396714529476" r="2" fill="#196643"></circle><circle cx="256.6623479037315" cy="381.8104868368064" r="4" fill="#47d193"></circle><circle cx="523.9327572179964" cy="580.9180967743231" r="1" fill="#05140d"></circle><circle cx="538.9279877708977" cy="250.85508743697963" r="5" fill="#47d193"></circle><circle cx="569.2279878363712" cy="387.8372909615972" r="3" fill="#0f3d28"></circle><circle cx="443.58071005480065" cy="675.3134435857834" r="2" fill="#196643"></circle><circle cx="532.6008158869224" cy="303.04720755691915" r="2" fill="#0f3d28"></circle><circle cx="214.6505186552912" cy="293.25002678356196" r="1" fill="#99e6c3"></circle><circle cx="608.5867471189122" cy="493.0407052732448" r="5" fill="#1c1c1c"></circle><circle cx="498.47442661229417" cy="668.9473614082632" r="3" fill="#196643"></circle><circle cx="222.0161524545852" cy="651.6516418733378" r="1" fill="#99e6c3"></circle><circle cx="497.3212539928901" cy="242.49239660441202" r="4" fill="#47d193"></circle><circle cx="362.58646415631733" cy="290.47717269592977" r="2" fill="#47d193"></circle><circle cx="469.9570678506405" cy="660.4352111253627" r="1" fill="#196643"></circle><circle cx="472.1105803100495" cy="712.2307434799538" r="3" fill="#196643"></circle><circle cx="424.9571269807622" cy="856.2782775117224" r="5" fill="#99e6c3"></circle><circle cx="622.3304822339335" cy="505.3032762919109" r="5" fill="#0f3d28"></circle><circle cx="506.96539849800615" cy="602.5615657412211" r="2" fill="#05140d"></circle><circle cx="451.5697815794809" cy="565.8698596393327" r="5" fill="#05140d"></circle><circle cx="510.76230646953525" cy="368.96510113188657" r="3" fill="#0f3d28"></circle><circle cx="216.42456284266342" cy="405.6044193722054" r="4" fill="#47d193"></circle><circle cx="467.46386380202193" cy="590.5570490635283" r="2" fill="#05140d"></circle><circle cx="781.4384122185454" cy="452.2475980813211" r="2" fill="#47d193"></circle><circle cx="644.1607275179057" cy="235.769315208021" r="2" fill="#47d193"></circle><circle cx="366.10373246959443" cy="726.1069838414348" r="3" fill="#47d193"></circle><circle cx="515.9966303633742" cy="629.6433557393331" r="1" fill="#0f3d28"></circle><circle cx="539.1863820833914" cy="411.54789408051323" r="4" fill="#05140d"></circle><circle cx="601.8098722084881" cy="411.01266848702414" r="2" fill="#0f3d28"></circle><circle cx="429.1681778732769" cy="452.0450125181233" r="3" fill="#05140d"></circle><circle cx="392.7909388841295" cy="611.1717756704832" r="5" fill="#0f3d28"></circle><circle cx="587.5396663289098" cy="535.0537278963443" r="1" fill="#0f3d28"></circle><circle cx="371.8265658323545" cy="536.396005599268" r="2" fill="#0f3d28"></circle><circle cx="560.0012502883824" cy="510.75928432173066" r="2" fill="#05140d"></circle><circle cx="514.8734425273252" cy="197.40210267521002" r="4" fill="#47d193"></circle><circle cx="550.5429616191548" cy="350.46446432791566" r="1" fill="#0f3d28"></circle><circle cx="524.1160736354869" cy="587.5432603119042" r="3" fill="#05140d"></circle><circle cx="256.1500170316134" cy="269.534181346471" r="3" fill="#99e6c3"></circle><circle cx="528.8871957672286" cy="582.0017682574434" r="3" fill="#05140d"></circle><circle cx="622.2558070933001" cy="603.1800321421892" r="2" fill="#0f3d28"></circle><circle cx="675.7876363747209" cy="676.3337510277698" r="5" fill="#47d193"></circle><circle cx="687.279949014115" cy="574.0846192645356" r="3" fill="#196643"></circle><circle cx="647.0334010643671" cy="396.6976741962126" r="3" fill="#196643"></circle><circle cx="179.15133612324826" cy="547.4965053024254" r="4" fill="#99e6c3"></circle><circle cx="512.6732000524056" cy="455.0213063575493" r="4" fill="#05140d"></circle><circle cx="551.0679042833588" cy="532.7324348825176" r="4" fill="#1c1c1c"></circle><circle cx="330.0452502488537" cy="464.9530963267355" r="5" fill="#196643"></circle><circle cx="506.8390859351634" cy="473.66660530840767" r="2" fill="#1c1c1c"></circle><circle cx="581.4913292062029" cy="438.18018894612777" r="2" fill="#05140d"></circle><circle cx="532.9480601885394" cy="571.7261787882486" r="3" fill="#1c1c1c"></circle><circle cx="411.92266589096664" cy="362.07040844401104" r="3" fill="#196643"></circle><circle cx="222.02839145400804" cy="755.5494893514124" r="4" fill="#99e6c3"></circle><circle cx="507.765688870805" cy="449.97780457171285" r="1" fill="#1c1c1c"></circle><circle cx="456.97521016189467" cy="545.4327724716084" r="2" fill="#1c1c1c"></circle><circle cx="792.0574323475473" cy="446.05880538886413" r="5" fill="#47d193"></circle><circle cx="608.5571285587372" cy="264.4867583502909" r="3" fill="#47d193"></circle><circle cx="728.8998767545505" cy="402.4478054950457" r="3" fill="#47d193"></circle><circle cx="268.7096148422075" cy="729.3379507139366" r="5" fill="#47d193"></circle><circle cx="744.8344872309185" cy="558.0795035797858" r="3" fill="#47d193"></circle><circle cx="418.75810999536685" cy="285.4210671290036" r="1" fill="#196643"></circle><circle cx="516.921538814784" cy="681.5046196510656" r="1" fill="#196643"></circle><circle cx="607.0901009210281" cy="381.91113140598566" r="1" fill="#0f3d28"></circle><circle cx="520.656914458688" cy="307.36705090243436" r="1" fill="#196643"></circle><circle cx="496.10267702463517" cy="429.36403404668636" r="5" fill="#1c1c1c"></circle><circle cx="473.1795082033892" cy="557.3023693637671" r="4" fill="#1c1c1c"></circle><circle cx="431.8268722958643" cy="558.7160227519371" r="1" fill="#0f3d28"></circle><circle cx="592.630936240043" cy="395.3086519255461" r="4" fill="#0f3d28"></circle><circle cx="341.0465208613866" cy="418.5447307671407" r="2" fill="#196643"></circle><circle cx="683.7276281441075" cy="577.4505867412058" r="3" fill="#0f3d28"></circle><circle cx="619.1860860074972" cy="515.1114681187657" r="4" fill="#0f3d28"></circle><circle cx="348.1946450839732" cy="643.0032258862818" r="2" fill="#248f5e"></circle><circle cx="439.4135582025844" cy="606.0048124027049" r="4" fill="#196643"></circle><circle cx="778.6827889589088" cy="687.8803290056762" r="3" fill="#99e6c3"></circle><circle cx="621.5838654305637" cy="377.75543360661936" r="4" fill="#196643"></circle><circle cx="502.9908517109456" cy="294.0991679825902" r="1" fill="#248f5e"></circle><circle cx="534.9671505285928" cy="488.4641849034432" r="4" fill="#1c1c1c"></circle><circle cx="605.1806468211623" cy="510.76899506035255" r="4" fill="#05140d"></circle><circle cx="57.26711971326722" cy="596.4986586579653" r="2" fill="#99e6c3"></circle><circle cx="557.8204190151076" cy="614.7205708545364" r="1" fill="#196643"></circle><circle cx="505.89699855507655" cy="549.8665870100186" r="1" fill="#1c1c1c"></circle><circle cx="719.1217609059415" cy="447.8216664041296" r="2" fill="#248f5e"></circle></svg>