<svg width="1000" height="1000" id="mySVG"><circle cx="671.763665488289" cy="475.6085283205954" r="5" fill="#196643"></circle><circle cx="518.6755409353129" cy="435.2412668868725" r="3" fill="#1c1c1c"></circle><circle cx="602.5742494863281" cy="456.18266934423457" r="5" fill="#05140d"></circle><circle cx="633.0054332847003" cy="547.6782887118636" r="3" fill="#0f3d28"></circle><circle cx="412.308597498051" cy="422.5049163998576" r="4" fill="#0f3d28"></circle><circle cx="435.84880724259637" cy="404.8727882696665" r="4" fill="#05140d"></circle><circle cx="473.32377715150386" cy="307.40599479158453" r="2" fill="#196643"></circle><circle cx="461.3747617894326" cy="299.59163285927275" r="3" fill="#248f5e"></circle><circle cx="610.3309003439031" cy="440.40591292647395" r="3" fill="#05140d"></circle><circle cx="609.1937187602359" cy="461.0628849496989" r="3" fill="#05140d"></circle><circle cx="453.8370041970307" cy="576.3228117104777" r="4" fill="#05140d"></circle><circle cx="594.7770244914476" cy="624.4780679237199" r="5" fill="#0f3d28"></circle><circle cx="636.3599921917198" cy="488.96808555095276" r="3" fill="#0f3d28"></circle><circle cx="525.0418591705326" cy="442.2280280915201" r="5" fill="#1c1c1c"></circle><circle cx="484.92952549695667" cy="561.7627234290452" r="5" fill="#05140d"></circle><circle cx="484.5796639579604" cy="646.8211297298587" r="1" fill="#0f3d28"></circle><circle cx="536.8860112813555" cy="371.0578764457199" r="1" fill="#0f3d28"></circle><circle cx="590.2118866690477" cy="426.23140048019235" r="2" fill="#05140d"></circle><circle cx="694.3616451773418" cy="410.8840262479053" r="1" fill="#248f5e"></circle><circle cx="382.10924354261687" cy="497.77004003338016" r="2" fill="#05140d"></circle><circle cx="478.18610120966235" cy="610.3710971120227" r="4" fill="#05140d"></circle><circle cx="470.3584641366481" cy="583.9867396418617" r="3" fill="#1c1c1c"></circle><circle cx="707.9505362704901" cy="573.2576773538982" r="5" fill="#248f5e"></circle><circle cx="367.9592736417751" cy="414.40893079790635" r="2" fill="#0f3d28"></circle><circle cx="633.9433425170155" cy="396.0446935978845" r="5" fill="#196643"></circle><circle cx="490.5060608938664" cy="418.4113216744407" r="5" fill="#05140d"></circle><circle cx="495.52818157999025" cy="493.85025756522055" r="5" fill="#05140d"></circle><circle cx="513.1060669868724" cy="368.58214899326447" r="1" fill="#05140d"></circle><circle cx="487.61724443884924" cy="412.5137560768904" r="3" fill="#1c1c1c"></circle><circle cx="535.7465080316687" cy="716.2235241201769" r="1" fill="#248f5e"></circle><circle cx="351.04304113547533" cy="503.14274340253957" r="4" fill="#196643"></circle><circle cx="434.27283921274915" cy="356.8755417303561" r="3" fill="#196643"></circle><circle cx="482.7543041153104" cy="617.2273780483712" r="1" fill="#05140d"></circle><circle cx="315.16560339028536" cy="555.0581424485174" r="4" fill="#196643"></circle><circle cx="552.5501210136972" cy="439.47144936264914" r="5" fill="#05140d"></circle><circle cx="452.93547571475193" cy="386.8256919032372" r="1" fill="#196643"></circle><circle cx="529.2795187168178" cy="458.72378640968674" r="2" fill="#1c1c1c"></circle><circle cx="419.0505542643124" cy="526.6083433479762" r="3" fill="#0f3d28"></circle><circle cx="476.72472621513776" cy="574.9995903441745" r="1" fill="#05140d"></circle><circle cx="315.74994323440455" cy="540.176853431878" r="5" fill="#196643"></circle><circle cx="420.4208480015849" cy="338.7758267939462" r="4" fill="#196643"></circle><circle cx="499.83070618535066" cy="477.5570406269249" r="3" fill="#1c1c1c"></circle><circle cx="558.0002707117362" cy="365.3235235943598" r="5" fill="#0f3d28"></circle><circle cx="507.4011802619404" cy="658.3715144649054" r="4" fill="#0f3d28"></circle><circle cx="276.427345999311" cy="582.7141153467857" r="1" fill="#248f5e"></circle><circle cx="590.7643176472293" cy="486.61687016885463" r="4" fill="#05140d"></circle><circle cx="531.4372310665215" cy="707.0374358861222" r="1" fill="#2eb879"></circle><circle cx="407.2250962398987" cy="362.2311520686221" r="3" fill="#0f3d28"></circle><circle cx="454.8454139171141" cy="554.0226064825943" r="4" fill="#1c1c1c"></circle><circle cx="715.6484213606213" cy="496.07086449931984" r="2" fill="#196643"></circle><circle cx="308.1254863759176" cy="382.5751752197037" r="5" fill="#248f5e"></circle><circle cx="609.6927315909272" cy="398.504322798031" r="2" fill="#0f3d28"></circle><circle cx="556.4503516394624" cy="516.3478948736699" r="5" fill="#05140d"></circle><circle cx="411.07020922128146" cy="357.833861612757" r="3" fill="#196643"></circle><circle cx="473.51860300437306" cy="517.7345071820799" r="5" fill="#05140d"></circle><circle cx="495.0220010316793" cy="530.209720706489" r="2" fill="#1c1c1c"></circle><circle cx="406.6321157285698" cy="410.70666192511266" r="2" fill="#0f3d28"></circle><circle cx="552.7676301534464" cy="357.3429186621172" r="1" fill="#0f3d28"></circle><circle cx="509.3833614465833" cy="751.8195095331787" r="1" fill="#47d193"></circle><circle cx="476.69269734191704" cy="298.78776715903734" r="5" fill="#248f5e"></circle><circle cx="308.7085426222267" cy="539.7291903353296" r="5" fill="#196643"></circle><circle cx="417.3710836005742" cy="495.57745972401233" r="1" fill="#1c1c1c"></circle><circle cx="545.1382975794739" cy="560.0248109242448" r="1" fill="#1c1c1c"></circle><circle cx="650.1911169391509" cy="550.321378258857" r="2" fill="#05140d"></circle><circle cx="506.3722006791948" cy="470.1344908970341" r="4" fill="#05140d"></circle><circle cx="371.4711229365222" cy="569.8812646062544" r="2" fill="#0f3d28"></circle><circle cx="457.6096480482586" cy="651.4581724077336" r="3" fill="#0f3d28"></circle><circle cx="545.5818189888507" cy="555.3862105355289" r="4" fill="#1c1c1c"></circle><circle cx="476.89370272065304" cy="566.5396356034122" r="2" fill="#1c1c1c"></circle><circle cx="327.3700685412014" cy="747.7528674167746" r="1" fill="#99e6c3"></circle><circle cx="526.7741064516072" cy="545.6599477814428" r="5" fill="#05140d"></circle><circle cx="377.217462268707" cy="421.02816752501144" r="4" fill="#0f3d28"></circle><circle cx="526.325660673975" cy="651.7484859995544" r="5" fill="#0f3d28"></circle><circle cx="395.08077439283863" cy="474.8139851775869" r="1" fill="#1c1c1c"></circle><circle cx="480.1982617648452" cy="341.13755201862983" r="2" fill="#0f3d28"></circle><circle cx="557.0688894429346" cy="557.9724057952349" r="2" fill="#05140d"></circle><circle cx="512.9229346795589" cy="521.6824195687287" r="4" fill="#1c1c1c"></circle><circle cx="625.4273923070419" cy="434.0623002966886" r="5" fill="#0f3d28"></circle><circle cx="489.9613724207655" cy="478.6585639485349" r="2" fill="#1c1c1c"></circle><circle cx="319.4342080174108" cy="761.2010823607771" r="5" fill="#47d193"></circle><circle cx="376.70834921976484" cy="328.18716064395784" r="5" fill="#248f5e"></circle><circle cx="553.0607883444676" cy="599.6173151092939" r="1" fill="#05140d"></circle><circle cx="632.2389389539337" cy="622.7512016260157" r="1" fill="#196643"></circle><circle cx="578.1392486426508" cy="468.651053787236" r="4" fill="#05140d"></circle><circle cx="390.93178930471413" cy="488.84058761394147" r="2" fill="#05140d"></circle><circle cx="603.3486023304605" cy="496.2854466115706" r="3" fill="#05140d"></circle><circle cx="517.4045960566218" cy="579.4313370583691" r="3" fill="#05140d"></circle><circle cx="360.4553381409326" cy="636.8021735319487" r="1" fill="#196643"></circle><circle cx="430.75886081407043" cy="568.548215807074" r="5" fill="#1c1c1c"></circle><circle cx="416.54400682351417" cy="379.36211886862657" r="5" fill="#0f3d28"></circle><circle cx="575.936016676251" cy="696.4873530926313" r="4" fill="#248f5e"></circle><circle cx="380.8190765192113" cy="504.6894593433233" r="1" fill="#05140d"></circle><circle cx="434.1156873343858" cy="237.15547537040493" r="4" fill="#47d193"></circle><circle cx="483.3410937075898" cy="498.9066655206861" r="3" fill="#1c1c1c"></circle><circle cx="494.06712065245887" cy="638.8749986546602" r="4" fill="#05140d"></circle><circle cx="523.8379924094796" cy="466.70184189530886" r="2" fill="#1c1c1c"></circle><circle cx="687.9293662923795" cy="515.4702990321289" r="4" fill="#0f3d28"></circle><circle cx="461.0099515539573" cy="600.9562286280166" r="5" fill="#05140d"></circle><circle cx="411.2355139333929" cy="466.9942139953361" r="1" fill="#05140d"></circle><circle cx="486.091944034309" cy="478.56106084916746" r="2" fill="#1c1c1c"></circle><circle cx="543.1611539103235" cy="608.8660490128084" r="2" fill="#05140d"></circle><circle cx="345.44294198785894" cy="569.4053224971431" r="2" fill="#196643"></circle><circle cx="590.8922178341917" cy="593.1115956337744" r="4" fill="#0f3d28"></circle><circle cx="601.6385076958844" cy="394.3871016456198" r="1" fill="#0f3d28"></circle><circle cx="444.73810396966667" cy="655.5025728346466" r="1" fill="#196643"></circle><circle cx="800.3655586284569" cy="578.96219147113" r="3" fill="#47d193"></circle><circle cx="489.5515853983908" cy="374.54482890539816" r="1" fill="#0f3d28"></circle><circle cx="502.08942907173184" cy="459.7752464849468" r="3" fill="#1c1c1c"></circle><circle cx="204.58622863290697" cy="429.75060637599495" r="4" fill="#47d193"></circle><circle cx="370.21009792700977" cy="493.46347929855983" r="3" fill="#0f3d28"></circle><circle cx="402.522816716978" cy="606.6938371554548" r="5" fill="#0f3d28"></circle><circle cx="767.636758282925" cy="407.92422848350304" r="2" fill="#47d193"></circle><circle cx="647.3004988976585" cy="630.817285488594" r="5" fill="#196643"></circle><circle cx="280.9525748938062" cy="368.2310182631047" r="5" fill="#47d193"></circle><circle cx="516.1736570802692" cy="608.3975240462394" r="4" fill="#05140d"></circle><circle cx="615.7934829632596" cy="726.1666204765668" r="5" fill="#47d193"></circle><circle cx="414.08874354160304" cy="508.5898953664352" r="1" fill="#05140d"></circle><circle cx="500.13919710949176" cy="571.3386348891956" r="4" fill="#05140d"></circle><circle cx="404.7754855858744" cy="414.50189380552456" r="5" fill="#196643"></circle><circle cx="370.8959934640926" cy="529.1177437964975" r="1" fill="#0f3d28"></circle><circle cx="327.8501817055718" cy="511.92419163662044" r="4" fill="#196643"></circle><circle cx="425.4925104578581" cy="455.6482671215171" r="1" fill="#05140d"></circle><circle cx="452.0683243371527" cy="400.07222257387485" r="4" fill="#05140d"></circle><circle cx="504.2003649123692" cy="532.5836913930955" r="4" fill="#1c1c1c"></circle><circle cx="573.1710140536765" cy="444.45537384849376" r="3" fill="#05140d"></circle><circle cx="376.9110870909458" cy="467.48115339681124" r="2" fill="#05140d"></circle><circle cx="590.4077102585989" cy="533.2556229330135" r="2" fill="#05140d"></circle><circle cx="554.439671350548" cy="293.52135427783276" r="2" fill="#2eb879"></circle><circle cx="463.6963076001332" cy="627.9851149564859" r="4" fill="#0f3d28"></circle><circle cx="493.06713583109973" cy="402.41927071340115" r="1" fill="#05140d"></circle><circle cx="571.4250341420287" cy="691.7807490749033" r="1" fill="#248f5e"></circle><circle cx="491.0515915770809" cy="415.79647405721244" r="3" fill="#1c1c1c"></circle><circle cx="590.9626643476713" cy="426.97708273795024" r="3" fill="#05140d"></circle><circle cx="574.0057268757041" cy="566.5192432062886" r="3" fill="#05140d"></circle><circle cx="472.491816641362" cy="678.6960804026602" r="4" fill="#196643"></circle><circle cx="605.749399188864" cy="457.9607242846772" r="5" fill="#05140d"></circle><circle cx="491.7901535768912" cy="727.8394017648793" r="2" fill="#2eb879"></circle><circle cx="525.457781444418" cy="472.7259367697324" r="5" fill="#1c1c1c"></circle><circle cx="576.3828545592497" cy="418.6447594820405" r="2" fill="#05140d"></circle><circle cx="356.4353727829185" cy="398.5367952114065" r="2" fill="#0f3d28"></circle><circle cx="491.9940582820684" cy="521.2330890496299" r="4" fill="#1c1c1c"></circle><circle cx="527.7908961564165" cy="492.7423845110829" r="5" fill="#1c1c1c"></circle><circle cx="558.7928277018567" cy="575.8431659047451" r="4" fill="#0f3d28"></circle><circle cx="484.1509889013206" cy="445.51552428133664" r="3" fill="#1c1c1c"></circle><circle cx="545.891328216631" cy="383.47296776874475" r="4" fill="#05140d"></circle><circle cx="378.69606743602543" cy="423.5673941047436" r="3" fill="#0f3d28"></circle><circle cx="688.6439374602787" cy="337.3987136068662" r="3" fill="#47d193"></circle><circle cx="449.06901039142036" cy="488.7333259772293" r="3" fill="#1c1c1c"></circle><circle cx="550.4310964701673" cy="566.0522781720229" r="3" fill="#0f3d28"></circle><circle cx="567.3187844844882" cy="634.626992629911" r="4" fill="#0f3d28"></circle><circle cx="532.6487330538985" cy="600.2919987813107" r="2" fill="#05140d"></circle><circle cx="495.76270818760895" cy="437.0913468234261" r="4" fill="#1c1c1c"></circle><circle cx="543.2387773816129" cy="416.15760757993223" r="3" fill="#05140d"></circle><circle cx="601.5114267780675" cy="505.0594499818256" r="1" fill="#05140d"></circle><circle cx="450.6087992831516" cy="468.2608709335457" r="3" fill="#1c1c1c"></circle><circle cx="433.89085986809243" cy="416.4922086983131" r="5" fill="#05140d"></circle><circle cx="621.8888847833117" cy="693.4398074069762" r="5" fill="#248f5e"></circle><circle cx="526.0027684580251" cy="511.57171783240705" r="4" fill="#1c1c1c"></circle><circle cx="607.7886552209635" cy="657.3590678873021" r="2" fill="#248f5e"></circle><circle cx="630.2238790552719" cy="381.8217519324446" r="2" fill="#0f3d28"></circle><circle cx="383.80761453775517" cy="524.218087302268" r="3" fill="#05140d"></circle><circle cx="598.2600709401728" cy="618.7214462642448" r="4" fill="#0f3d28"></circle><circle cx="494.0864113090128" cy="210.89110235051982" r="1" fill="#47d193"></circle><circle cx="533.4713579539622" cy="482.9784276495378" r="4" fill="#1c1c1c"></circle><circle cx="602.0330584718968" cy="555.5937821853609" r="5" fill="#05140d"></circle><circle cx="637.1216471772641" cy="269.01175373665484" r="2" fill="#47d193"></circle><circle cx="535.0163989855367" cy="476.02405338722815" r="4" fill="#1c1c1c"></circle><circle cx="559.1334769959643" cy="529.4575210310303" r="5" fill="#1c1c1c"></circle><circle cx="503.15697644921175" cy="467.6598646891053" r="1" fill="#1c1c1c"></circle><circle cx="664.6426067760993" cy="441.75067662531694" r="5" fill="#196643"></circle><circle cx="519.307459363418" cy="459.1477430872004" r="1" fill="#05140d"></circle><circle cx="349.9427783955656" cy="329.69014705468044" r="4" fill="#248f5e"></circle><circle cx="416.10785173924654" cy="587.3544275521675" r="1" fill="#05140d"></circle><circle cx="354.6664259651875" cy="546.1090157346807" r="2" fill="#0f3d28"></circle><circle cx="410.4295882577328" cy="509.9804380323886" r="3" fill="#0f3d28"></circle><circle cx="556.8643225325945" cy="600.7425850902068" r="1" fill="#05140d"></circle><circle cx="430.39502203984057" cy="340.6682606963718" r="4" fill="#0f3d28"></circle><circle cx="640.0337524210913" cy="491.75243617093105" r="2" fill="#0f3d28"></circle><circle cx="327.5969250969775" cy="297.1499303597208" r="5" fill="#47d193"></circle><circle cx="641.8932780816232" cy="692.0881271951109" r="2" fill="#248f5e"></circle><circle cx="250.32043167733153" cy="599.0826942628097" r="2" fill="#2eb879"></circle><circle cx="519.6872410248945" cy="516.4537333194044" r="1" fill="#1c1c1c"></circle><circle cx="423.97353397692035" cy="456.09274356940847" r="1" fill="#05140d"></circle><circle cx="516.828471705949" cy="403.87614403688974" r="5" fill="#05140d"></circle><circle cx="683.5215920475794" cy="477.9358071360397" r="5" fill="#0f3d28"></circle><circle cx="414.9991296163378" cy="423.13660357643766" r="1" fill="#05140d"></circle><circle cx="495.6751249253321" cy="489.67013194078805" r="2" fill="#1c1c1c"></circle><circle cx="442.8840765332364" cy="305.59102275123325" r="3" fill="#248f5e"></circle><circle cx="458.1814168433241" cy="539.2138298638117" r="2" fill="#05140d"></circle><circle cx="513.9841215474981" cy="657.868585379171" r="1" fill="#196643"></circle><circle cx="798.4282587691398" cy="390.40639661796195" r="1" fill="#47d193"></circle><circle cx="480.61850041376573" cy="537.8010888185306" r="2" fill="#05140d"></circle><circle cx="368.6470136619303" cy="518.3719583875856" r="5" fill="#0f3d28"></circle><circle cx="486.2223004098046" cy="667.2256825793636" r="2" fill="#196643"></circle><circle cx="549.2861444964277" cy="452.03145872613106" r="1" fill="#05140d"></circle><circle cx="432.7643202628934" cy="439.0224857783279" r="3" fill="#05140d"></circle><circle cx="395.3977400126889" cy="442.28074886751114" r="5" fill="#05140d"></circle><circle cx="506.1184554001602" cy="558.8055568497737" r="5" fill="#1c1c1c"></circle><circle cx="707.0904876051867" cy="504.07015550023425" r="4" fill="#248f5e"></circle><circle cx="449.07984775756756" cy="401.91760694702066" r="3" fill="#05140d"></circle><circle cx="521.088513099148" cy="601.6446939414977" r="3" fill="#05140d"></circle><circle cx="619.8001769334505" cy="344.3797576388132" r="5" fill="#196643"></circle><circle cx="356.44040137716377" cy="555.6166066953172" r="5" fill="#0f3d28"></circle><circle cx="327.3069752495834" cy="421.61567082909545" r="5" fill="#0f3d28"></circle><circle cx="450.2228291180408" cy="507.86504841221415" r="2" fill="#05140d"></circle><circle cx="362.0378862839889" cy="724.4083980193732" r="5" fill="#47d193"></circle><circle cx="529.5636499005988" cy="584.17422604707" r="2" fill="#1c1c1c"></circle><circle cx="432.4353227153483" cy="496.8764931655607" r="2" fill="#05140d"></circle><circle cx="487.80173770703266" cy="595.9788714520383" r="4" fill="#0f3d28"></circle><circle cx="414.27211092509015" cy="495.62042703189894" r="3" fill="#05140d"></circle><circle cx="545.1993088541026" cy="471.170765067313" r="4" fill="#1c1c1c"></circle><circle cx="300.06962455640917" cy="561.4058685019297" r="2" fill="#248f5e"></circle><circle cx="466.54310293911516" cy="537.2801329433736" r="1" fill="#1c1c1c"></circle><circle cx="341.25539720915833" cy="377.9181623678673" r="3" fill="#248f5e"></circle><circle cx="619.1099742206254" cy="735.7066085083999" r="4" fill="#2eb879"></circle><circle cx="377.4095462309083" cy="359.28535203709674" r="3" fill="#196643"></circle><circle cx="468.3398369135463" cy="624.6815893597509" r="3" fill="#196643"></circle><circle cx="436.2750643703679" cy="669.4798025754048" r="1" fill="#248f5e"></circle><circle cx="611.2408876658567" cy="489.6215912808742" r="5" fill="#05140d"></circle><circle cx="614.9894642172516" cy="301.0069574107407" r="1" fill="#248f5e"></circle><circle cx="512.9043253976222" cy="467.55050727243093" r="5" fill="#1c1c1c"></circle><circle cx="566.0157027819289" cy="741.3454067480491" r="4" fill="#47d193"></circle><circle cx="482.69591490977587" cy="560.2268206497964" r="5" fill="#1c1c1c"></circle><circle cx="547.4179820052834" cy="598.2551577308785" r="5" fill="#05140d"></circle><circle cx="564.0783003659416" cy="468.78890334300627" r="2" fill="#1c1c1c"></circle><circle cx="453.5135708187288" cy="540.2512433842613" r="4" fill="#1c1c1c"></circle><circle cx="478.16135180091084" cy="546.946426724402" r="1" fill="#05140d"></circle><circle cx="429.0605366026455" cy="518.8349157848456" r="5" fill="#1c1c1c"></circle><circle cx="461.89941311720514" cy="573.9796704528321" r="4" fill="#0f3d28"></circle><circle cx="427.5232382067902" cy="489.7394383290525" r="4" fill="#1c1c1c"></circle><circle cx="341.17032760633595" cy="700.2901965681367" r="1" fill="#47d193"></circle><circle cx="495.3851830624524" cy="350.2217714549403" r="2" fill="#0f3d28"></circle><circle cx="471.88056790462156" cy="339.8660025851175" r="4" fill="#196643"></circle><circle cx="550.0074608824335" cy="515.4315139552488" r="1" fill="#1c1c1c"></circle><circle cx="404.889154645502" cy="385.5350831492559" r="4" fill="#0f3d28"></circle><circle cx="654.5547698881443" cy="722.8034828694218" r="4" fill="#47d193"></circle><circle cx="551.579379566238" cy="472.8384244610547" r="1" fill="#05140d"></circle><circle cx="661.8705246570007" cy="509.94751914308523" r="5" fill="#196643"></circle><circle cx="386.446475915847" cy="738.3003058213702" r="4" fill="#2eb879"></circle><circle cx="428.28905037218163" cy="431.2106998403193" r="1" fill="#05140d"></circle><circle cx="631.4588406219627" cy="555.105528428383" r="3" fill="#0f3d28"></circle><circle cx="610.2260527351897" cy="471.5856866267657" r="4" fill="#05140d"></circle><circle cx="326.1734335115606" cy="429.19064252594694" r="4" fill="#196643"></circle><circle cx="586.7560401438789" cy="523.3806651400373" r="3" fill="#1c1c1c"></circle><circle cx="534.8515675542536" cy="616.1393264736308" r="1" fill="#196643"></circle><circle cx="431.65017350487756" cy="491.16771202109896" r="3" fill="#1c1c1c"></circle><circle cx="358.8458599927401" cy="553.6929240430447" r="2" fill="#0f3d28"></circle><circle cx="556.5257575039711" cy="634.9312805342722" r="1" fill="#0f3d28"></circle><circle cx="480.6677103513771" cy="552.6883002046443" r="4" fill="#1c1c1c"></circle><circle cx="418.88235157725074" cy="546.4403488027298" r="2" fill="#0f3d28"></circle><circle cx="399.11659410434277" cy="408.41419400170327" r="3" fill="#0f3d28"></circle><circle cx="430.5269635226283" cy="438.3779980116197" r="2" fill="#05140d"></circle><circle cx="319.9812825587578" cy="696.0496675560873" r="3" fill="#2eb879"></circle><circle cx="337.8677556178028" cy="462.68891970030296" r="1" fill="#0f3d28"></circle><circle cx="507.2437731632336" cy="688.8570665472139" r="5" fill="#0f3d28"></circle><circle cx="513.9912369906993" cy="624.381778051459" r="2" fill="#0f3d28"></circle><circle cx="437.7523227612158" cy="479.6178475469454" r="2" fill="#1c1c1c"></circle><circle cx="409.4317121440067" cy="428.00085337763096" r="2" fill="#05140d"></circle><circle cx="556.3097132608805" cy="502.3293488168861" r="4" fill="#1c1c1c"></circle><circle cx="461.65627310820963" cy="526.9943548406009" r="2" fill="#1c1c1c"></circle><circle cx="443.7213877658541" cy="404.8720450869924" r="1" fill="#05140d"></circle><circle cx="439.8654660189666" cy="580.7620604231486" r="5" fill="#05140d"></circle><circle cx="654.3266568874315" cy="488.62579115670667" r="5" fill="#05140d"></circle><circle cx="380.2369172730004" cy="625.2005348769566" r="4" fill="#196643"></circle><circle cx="589.2680992112179" cy="410.1142525253321" r="1" fill="#0f3d28"></circle><circle cx="472.3926670869852" cy="519.6951597541015" r="5" fill="#1c1c1c"></circle><circle cx="582.0404100953224" cy="372.8129040901475" r="1" fill="#0f3d28"></circle><circle cx="549.506174558966" cy="470.45518840448176" r="4" fill="#1c1c1c"></circle><circle cx="575.9976378081245" cy="444.1334627493814" r="5" fill="#05140d"></circle><circle cx="571.2864418019446" cy="524.9898640161081" r="1" fill="#1c1c1c"></circle><circle cx="418.6184584519382" cy="511.27812353785015" r="3" fill="#05140d"></circle><circle cx="439.1273830825411" cy="348.5120999691767" r="5" fill="#196643"></circle><circle cx="583.4034627542324" cy="410.62342480127035" r="4" fill="#196643"></circle><circle cx="539.7322742875955" cy="446.22834275214194" r="5" fill="#1c1c1c"></circle><circle cx="413.6312688215303" cy="500.58274196711693" r="1" fill="#0f3d28"></circle><circle cx="661.303137669761" cy="403.2155425425533" r="2" fill="#196643"></circle><circle cx="410.8693579910055" cy="614.8647297316504" r="4" fill="#0f3d28"></circle><circle cx="527.7597911011846" cy="590.1713580718563" r="3" fill="#05140d"></circle><circle cx="316.1171234554962" cy="312.0287782428106" r="3" fill="#47d193"></circle><circle cx="611.5615994642882" cy="356.0822383684362" r="5" fill="#196643"></circle><circle cx="382.66755448567324" cy="438.34157325667604" r="5" fill="#0f3d28"></circle><circle cx="539.6002796680071" cy="369.35164263413594" r="3" fill="#0f3d28"></circle><circle cx="575.6048959603932" cy="419.87466530048084" r="1" fill="#05140d"></circle><circle cx="351.86093961200055" cy="529.8702278632675" r="2" fill="#0f3d28"></circle><circle cx="432.7644986947211" cy="561.0648353701856" r="3" fill="#05140d"></circle><circle cx="501.9741776328665" cy="580.4442265338853" r="5" fill="#1c1c1c"></circle><circle cx="444.0505963386279" cy="496.89914833176454" r="4" fill="#1c1c1c"></circle><circle cx="601.0976822469529" cy="564.8295521962742" r="2" fill="#05140d"></circle><circle cx="432.57687439636913" cy="444.06091319126" r="2" fill="#05140d"></circle><circle cx="567.175964289127" cy="479.6590959288743" r="4" fill="#1c1c1c"></circle><circle cx="478.80858769496484" cy="657.9711273490475" r="4" fill="#0f3d28"></circle><circle cx="665.5006435124402" cy="480.972653506047" r="2" fill="#196643"></circle><circle cx="312.44268441806645" cy="753.6783161667976" r="3" fill="#47d193"></circle><circle cx="654.3390787965367" cy="538.9351641820381" r="1" fill="#0f3d28"></circle><circle cx="593.7110191695197" cy="539.5558379727752" r="3" fill="#05140d"></circle><circle cx="707.152250161432" cy="427.0905592300885" r="2" fill="#248f5e"></circle><circle cx="582.5977928578369" cy="507.602119752827" r="2" fill="#05140d"></circle><circle cx="388.48182707208383" cy="424.2351065312647" r="1" fill="#0f3d28"></circle><circle cx="351.862554460474" cy="317.160143643967" r="1" fill="#248f5e"></circle><circle cx="540.0479106528409" cy="467.55140684644897" r="4" fill="#05140d"></circle><circle cx="496.7798049740167" cy="489.4826625088772" r="3" fill="#1c1c1c"></circle><circle cx="436.8253640976578" cy="402.48297936651625" r="1" fill="#05140d"></circle><circle cx="644.664941118383" cy="673.1363679540158" r="2" fill="#248f5e"></circle><circle cx="334.30468759331416" cy="495.4135341640373" r="2" fill="#196643"></circle><circle cx="504.1658311377177" cy="513.9319829766356" r="4" fill="#1c1c1c"></circle><circle cx="381.0991316184756" cy="366.93990388436566" r="5" fill="#196643"></circle><circle cx="565.2219563737265" cy="495.249492440431" r="5" fill="#1c1c1c"></circle><circle cx="670.72686226617" cy="528.569061070129" r="2" fill="#196643"></circle><circle cx="593.4519770822749" cy="497.43931749384154" r="5" fill="#05140d"></circle><circle cx="520.0475851902021" cy="534.0965114990966" r="5" fill="#1c1c1c"></circle><circle cx="577.6391427456653" cy="373.1039493716646" r="4" fill="#0f3d28"></circle><circle cx="491.782917562085" cy="482.77564574529833" r="3" fill="#05140d"></circle><circle cx="678.2877888738464" cy="444.1397439467634" r="3" fill="#196643"></circle><circle cx="520.9159951370527" cy="500.97804895736255" r="2" fill="#1c1c1c"></circle><circle cx="418.72839143025016" cy="677.2800910496909" r="1" fill="#196643"></circle><circle cx="725.232336901659" cy="604.0173535392519" r="5" fill="#47d193"></circle><circle cx="477.10571440100017" cy="603.2690815670276" r="5" fill="#05140d"></circle><circle cx="380.24290553287483" cy="574.1607675474002" r="5" fill="#0f3d28"></circle><circle cx="450.3364675441265" cy="349.2477976983473" r="4" fill="#0f3d28"></circle><circle cx="557.2679273608446" cy="456.75208339416" r="1" fill="#1c1c1c"></circle><circle cx="467.11306227677795" cy="520.7278523629107" r="1" fill="#1c1c1c"></circle><circle cx="425.37448237027286" cy="384.4420201172121" r="4" fill="#0f3d28"></circle><circle cx="589.0856395624422" cy="484.17234587843984" r="4" fill="#05140d"></circle><circle cx="430.60837059660406" cy="437.913327788427" r="5" fill="#05140d"></circle><circle cx="560.4843817241394" cy="400.91077979119143" r="3" fill="#05140d"></circle><circle cx="539.0278801391828" cy="587.1363102185343" r="1" fill="#05140d"></circle><circle cx="657.4272355880303" cy="525.2719164213516" r="4" fill="#0f3d28"></circle><circle cx="556.666582375157" cy="624.9470711966997" r="2" fill="#0f3d28"></circle><circle cx="502.21942200946927" cy="649.4979968875781" r="5" fill="#0f3d28"></circle><circle cx="375.69178741592754" cy="634.7012856026855" r="5" fill="#196643"></circle><circle cx="471.60785115362023" cy="562.579164664671" r="4" fill="#1c1c1c"></circle><circle cx="497.4622434616726" cy="405.90560870141144" r="3" fill="#05140d"></circle><circle cx="759.3628564552901" cy="605.2476966692459" r="5" fill="#47d193"></circle><circle cx="533.834208563029" cy="525.5705398095732" r="2" fill="#1c1c1c"></circle><circle cx="339.05340825708174" cy="578.9442284071367" r="4" fill="#196643"></circle><circle cx="594.8214948369348" cy="694.1663588828065" r="1" fill="#248f5e"></circle><circle cx="625.1440997240522" cy="399.0069273362274" r="1" fill="#196643"></circle><circle cx="607.3451255671404" cy="499.43467016561283" r="5" fill="#05140d"></circle><circle cx="360.43959608457476" cy="440.2745789836667" r="5" fill="#0f3d28"></circle><circle cx="339.677443838994" cy="545.2469426066195" r="3" fill="#0f3d28"></circle><circle cx="538.9059234047693" cy="366.23086558864475" r="1" fill="#0f3d28"></circle><circle cx="742.9122965601081" cy="654.1654472363527" r="2" fill="#99e6c3"></circle><circle cx="508.27934093261626" cy="457.58071754551395" r="3" fill="#05140d"></circle><circle cx="357.8642171264639" cy="697.9202081778129" r="5" fill="#47d193"></circle><circle cx="387.8137855856599" cy="509.4222555492656" r="4" fill="#05140d"></circle><circle cx="655.0617288730837" cy="732.7545464747875" r="2" fill="#47d193"></circle><circle cx="603.0946389374469" cy="498.8261112673688" r="1" fill="#05140d"></circle><circle cx="317.1675206843068" cy="474.37551927009713" r="4" fill="#248f5e"></circle><circle cx="373.79434093603817" cy="302.40381363767415" r="1" fill="#248f5e"></circle><circle cx="544.8342282535089" cy="604.3062283760105" r="2" fill="#05140d"></circle><circle cx="795.1446232512662" cy="468.37142126097007" r="5" fill="#47d193"></circle><circle cx="504.86710381619656" cy="471.0890408256056" r="3" fill="#1c1c1c"></circle><circle cx="415.55132868948357" cy="469.23196865313605" r="5" fill="#0f3d28"></circle><circle cx="388.737921667019" cy="530.8025245048649" r="4" fill="#1c1c1c"></circle><circle cx="483.8640196705294" cy="457.65552938176467" r="1" fill="#1c1c1c"></circle><circle cx="621.8204517190909" cy="476.3502909799833" r="1" fill="#0f3d28"></circle><circle cx="508.2391281144032" cy="544.7752692083357" r="5" fill="#05140d"></circle><circle cx="526.5979164966492" cy="504.3115755465603" r="2" fill="#1c1c1c"></circle><circle cx="321.8908821390097" cy="522.3284835287776" r="3" fill="#248f5e"></circle><circle cx="487.28031582657195" cy="483.19341414407086" r="3" fill="#1c1c1c"></circle><circle cx="327.18187543764714" cy="454.8586636126226" r="2" fill="#196643"></circle><circle cx="696.3735030614669" cy="505.8074445024323" r="5" fill="#196643"></circle><circle cx="560.9391567506368" cy="465.990610826115" r="2" fill="#05140d"></circle><circle cx="580.8981035514296" cy="471.5851601178625" r="1" fill="#05140d"></circle><circle cx="321.82719474883527" cy="479.20379676839354" r="4" fill="#196643"></circle><circle cx="526.1195733562516" cy="573.7786292033564" r="5" fill="#05140d"></circle><circle cx="667.3978947635874" cy="436.98781551110545" r="2" fill="#196643"></circle><circle cx="438.9006426400808" cy="455.1094552497114" r="3" fill="#1c1c1c"></circle><circle cx="537.9797852224863" cy="551.0489111244875" r="2" fill="#1c1c1c"></circle><circle cx="658.2971456264736" cy="240.4810809354879" r="4" fill="#99e6c3"></circle><circle cx="564.282180355477" cy="449.613757379857" r="4" fill="#05140d"></circle><circle cx="492.9504291418241" cy="566.4944632552973" r="3" fill="#1c1c1c"></circle><circle cx="528.1907661165577" cy="435.2217372103447" r="3" fill="#1c1c1c"></circle><circle cx="450.3251044395668" cy="364.54130029959003" r="3" fill="#0f3d28"></circle><circle cx="446.4328227059765" cy="390.2437036805465" r="2" fill="#05140d"></circle><circle cx="490.45224625105334" cy="541.9930043457277" r="1" fill="#1c1c1c"></circle><circle cx="276.03660642687777" cy="547.240011773682" r="5" fill="#248f5e"></circle><circle cx="496.8793503559495" cy="411.5384212013921" r="4" fill="#05140d"></circle><circle cx="343.7943624924634" cy="418.5967879269058" r="2" fill="#196643"></circle><circle cx="654.1154607920676" cy="554.5784649531885" r="5" fill="#196643"></circle><circle cx="392.101038099944" cy="394.37130103588174" r="5" fill="#196643"></circle><circle cx="499.3855001523561" cy="396.72039551057304" r="4" fill="#05140d"></circle><circle cx="474.2221852754575" cy="295.226010438837" r="3" fill="#196643"></circle><circle cx="670.6505205997066" cy="445.2060040507585" r="4" fill="#196643"></circle><circle cx="512.8539094487869" cy="460.1801959202936" r="4" fill="#1c1c1c"></circle><circle cx="413.3138006806278" cy="632.9112339004708" r="3" fill="#05140d"></circle><circle cx="474.357025068612" cy="506.30393466796306" r="5" fill="#05140d"></circle><circle cx="473.039353801851" cy="519.6774665431144" r="1" fill="#1c1c1c"></circle><circle cx="450.7840677452226" cy="563.2873549856338" r="3" fill="#05140d"></circle><circle cx="523.8597154243821" cy="494.8364571671743" r="2" fill="#1c1c1c"></circle><circle cx="463.93889246619176" cy="273.40821376721897" r="4" fill="#248f5e"></circle><circle cx="618.6641332189822" cy="548.2550202063461" r="2" fill="#0f3d28"></circle><circle cx="573.7933985744805" cy="408.42418391180996" r="1" fill="#0f3d28"></circle><circle cx="547.9844581359768" cy="458.42725156903214" r="2" fill="#1c1c1c"></circle><circle cx="447.98250621712685" cy="568.6502754253951" r="3" fill="#1c1c1c"></circle><circle cx="488.97132986427744" cy="364.83619310798656" r="2" fill="#0f3d28"></circle><circle cx="489.8554746794787" cy="694.6084141909245" r="1" fill="#196643"></circle><circle cx="501.04501322542274" cy="345.90936479851496" r="4" fill="#0f3d28"></circle><circle cx="563.7793279935202" cy="495.4158739770637" r="2" fill="#1c1c1c"></circle><circle cx="500.0577827423184" cy="540.0781581824126" r="4" fill="#05140d"></circle><circle cx="614.6600954742999" cy="441.4519474318116" r="5" fill="#196643"></circle><circle cx="523.8067154988248" cy="609.3472841476851" r="3" fill="#05140d"></circle><circle cx="522.0302251097181" cy="509.7103744972207" r="4" fill="#1c1c1c"></circle><circle cx="471.94776410049457" cy="489.7233382641091" r="2" fill="#1c1c1c"></circle><circle cx="509.43004542192114" cy="406.7926169052837" r="1" fill="#05140d"></circle><circle cx="388.14697948716497" cy="489.94363128222335" r="3" fill="#05140d"></circle><circle cx="654.5749540213042" cy="450.8214028978104" r="5" fill="#0f3d28"></circle><circle cx="569.2666632101349" cy="431.6442720986687" r="5" fill="#05140d"></circle><circle cx="354.0466247882699" cy="642.1096023488541" r="1" fill="#248f5e"></circle><circle cx="582.3788218738088" cy="633.1803668765184" r="5" fill="#0f3d28"></circle><circle cx="478.4750990766361" cy="554.9702726406445" r="4" fill="#1c1c1c"></circle><circle cx="566.9847630583366" cy="513.0328485774503" r="4" fill="#1c1c1c"></circle><circle cx="505.90451748247074" cy="502.4042609646841" r="4" fill="#1c1c1c"></circle><circle cx="422.80930676460576" cy="369.0132058002448" r="5" fill="#0f3d28"></circle><circle cx="406.9828271250617" cy="420.8998471057313" r="4" fill="#0f3d28"></circle><circle cx="549.6968072960462" cy="390.07520765724837" r="5" fill="#0f3d28"></circle><circle cx="661.0971077571572" cy="613.3427866736159" r="3" fill="#196643"></circle><circle cx="484.71766121996234" cy="623.1728220821706" r="3" fill="#0f3d28"></circle><circle cx="319.90695806974077" cy="479.5383228196405" r="3" fill="#196643"></circle><circle cx="453.541150363826" cy="536.3142343407247" r="3" fill="#1c1c1c"></circle><circle cx="451.52839360106435" cy="344.47422446268956" r="2" fill="#196643"></circle><circle cx="624.0947823389021" cy="403.1133543361241" r="2" fill="#0f3d28"></circle><circle cx="357.59799130456685" cy="504.2798301443567" r="5" fill="#0f3d28"></circle><circle cx="402.08154288426647" cy="483.49292953848806" r="1" fill="#1c1c1c"></circle><circle cx="557.83338392901" cy="304.19842584729497" r="4" fill="#248f5e"></circle><circle cx="601.1794735378055" cy="477.3069134910276" r="4" fill="#05140d"></circle><circle cx="324.7784396877421" cy="585.8934693902738" r="2" fill="#196643"></circle><circle cx="564.8236983490732" cy="403.5848888765561" r="4" fill="#05140d"></circle><circle cx="287.13719566833606" cy="523.2707554852678" r="2" fill="#248f5e"></circle><circle cx="527.1313508247251" cy="441.9728563328798" r="1" fill="#1c1c1c"></circle><circle cx="451.16940741825346" cy="636.7346953831051" r="3" fill="#0f3d28"></circle><circle cx="457.5434276111831" cy="630.1378213662313" r="1" fill="#0f3d28"></circle><circle cx="545.2266159189113" cy="463.0649669164922" r="2" fill="#1c1c1c"></circle><circle cx="457.812859783922" cy="533.9487227856866" r="1" fill="#05140d"></circle><circle cx="590.7728537027992" cy="613.4439526992915" r="4" fill="#0f3d28"></circle><circle cx="472.91483502322757" cy="702.0214344995525" r="2" fill="#196643"></circle><circle cx="557.0616846127123" cy="528.722459419385" r="3" fill="#05140d"></circle><circle cx="542.7813433002101" cy="460.83606934288093" r="1" fill="#05140d"></circle><circle cx="453.5777406537866" cy="460.9148628922431" r="3" fill="#1c1c1c"></circle><circle cx="617.4051053860055" cy="550.8395221250559" r="3" fill="#196643"></circle><circle cx="465.69414378949295" cy="462.81757740324474" r="5" fill="#1c1c1c"></circle><circle cx="427.7653949601478" cy="617.4023463748549" r="1" fill="#0f3d28"></circle><circle cx="594.78999116527" cy="814.0405762947123" r="2" fill="#99e6c3"></circle><circle cx="281.0144751581273" cy="470.41306038909175" r="3" fill="#248f5e"></circle><circle cx="510.8932549428913" cy="298.6654433157348" r="5" fill="#248f5e"></circle><circle cx="544.7282573716695" cy="480.61216451258895" r="4" fill="#1c1c1c"></circle><circle cx="425.1638055891048" cy="542.6222262916989" r="1" fill="#05140d"></circle><circle cx="548.4583438003747" cy="600.2552408018777" r="2" fill="#05140d"></circle><circle cx="636.1708846391485" cy="578.0329376963543" r="4" fill="#0f3d28"></circle><circle cx="407.09445978016674" cy="510.9868920683772" r="4" fill="#0f3d28"></circle><circle cx="652.8161833228245" cy="444.16751626508824" r="3" fill="#0f3d28"></circle><circle cx="448.460834979652" cy="451.1768277637358" r="4" fill="#1c1c1c"></circle><circle cx="330.182250556225" cy="600.3216715973313" r="2" fill="#196643"></circle><circle cx="280.64464294761984" cy="463.3874150543312" r="4" fill="#248f5e"></circle><circle cx="576.7983008068967" cy="392.49731486563303" r="2" fill="#0f3d28"></circle><circle cx="703.447401975056" cy="522.0600024582693" r="5" fill="#248f5e"></circle><circle cx="496.4729678560117" cy="568.2702226275554" r="1" fill="#05140d"></circle><circle cx="146.37241660079792" cy="680.3325941202246" r="4" fill="#99e6c3"></circle><circle cx="559.3626982201876" cy="565.7970818955467" r="2" fill="#1c1c1c"></circle><circle cx="579.7556796827042" cy="447.8606359999463" r="2" fill="#05140d"></circle><circle cx="429.5144699993955" cy="402.87613423573663" r="2" fill="#0f3d28"></circle><circle cx="434.79716339547304" cy="619.5729620451687" r="2" fill="#0f3d28"></circle><circle cx="414.8780483362784" cy="503.38600775226496" r="3" fill="#1c1c1c"></circle><circle cx="388.0467341726155" cy="536.4203385777365" r="3" fill="#05140d"></circle><circle cx="548.6627534701249" cy="474.00497892768465" r="4" fill="#1c1c1c"></circle><circle cx="639.3131193956433" cy="454.4245858983276" r="3" fill="#0f3d28"></circle><circle cx="423.3244102506078" cy="618.9076390322713" r="4" fill="#196643"></circle><circle cx="508.3259510181056" cy="403.1211321811253" r="3" fill="#05140d"></circle><circle cx="515.1990859368876" cy="549.365257584152" r="1" fill="#1c1c1c"></circle><circle cx="672.7269039924867" cy="566.7038142068347" r="4" fill="#248f5e"></circle><circle cx="594.1703048735465" cy="617.1880871132508" r="3" fill="#0f3d28"></circle><circle cx="540.9288138949923" cy="520.650276608947" r="2" fill="#1c1c1c"></circle><circle cx="557.685095220657" cy="821.9350273030014" r="2" fill="#99e6c3"></circle><circle cx="656.4151468401736" cy="531.2581518782899" r="5" fill="#0f3d28"></circle><circle cx="571.1981348287321" cy="492.79764492799234" r="3" fill="#1c1c1c"></circle><circle cx="568.5688015841613" cy="506.9861882175897" r="4" fill="#1c1c1c"></circle><circle cx="522.0251219681766" cy="661.8215780283863" r="2" fill="#196643"></circle><circle cx="501.17142391978075" cy="514.8859816992234" r="5" fill="#1c1c1c"></circle><circle cx="420.87553097113647" cy="392.84250928098766" r="5" fill="#0f3d28"></circle><circle cx="475.47311141605417" cy="573.9448283914265" r="2" fill="#1c1c1c"></circle><circle cx="634.6487089630864" cy="625.6635777016672" r="1" fill="#196643"></circle><circle cx="548.1495666204515" cy="554.0047435893675" r="4" fill="#1c1c1c"></circle><circle cx="415.02576796048527" cy="508.27785912421416" r="2" fill="#05140d"></circle><circle cx="406.6125256961603" cy="443.31731454653345" r="1" fill="#05140d"></circle><circle cx="589.4651717353211" cy="502.7510009548515" r="5" fill="#05140d"></circle><circle cx="451.40190945509215" cy="672.9959286322231" r="3" fill="#196643"></circle><circle cx="592.6871486848936" cy="612.7047977947452" r="5" fill="#196643"></circle><circle cx="425.01638820689743" cy="604.9930078936117" r="1" fill="#0f3d28"></circle><circle cx="659.5303925518183" cy="645.0106059586618" r="4" fill="#248f5e"></circle><circle cx="599.0204482314738" cy="462.15826984746576" r="2" fill="#05140d"></circle><circle cx="458.4047173648998" cy="390.2914201753166" r="2" fill="#1c1c1c"></circle><circle cx="454.36889559929966" cy="342.6078449543571" r="3" fill="#196643"></circle><circle cx="328.10954452610486" cy="488.7743925355903" r="4" fill="#196643"></circle><circle cx="403.3970044266124" cy="583.1175498957537" r="4" fill="#196643"></circle><circle cx="662.1402151058554" cy="546.0204888840809" r="4" fill="#196643"></circle><circle cx="465.14373484750735" cy="338.62896883763005" r="1" fill="#196643"></circle><circle cx="494.69586315352626" cy="587.1742143789215" r="3" fill="#05140d"></circle><circle cx="473.6999583114479" cy="566.7829111921995" r="5" fill="#05140d"></circle><circle cx="649.179882009056" cy="443.617124193259" r="3" fill="#0f3d28"></circle><circle cx="530.3732617314662" cy="502.69935225099766" r="4" fill="#1c1c1c"></circle></svg>