<svg width="1000" height="1000" id="mySVG"><circle cx="511.1762673278586" cy="424.0383338295893" r="5" fill="#1c1c1c"></circle><circle cx="480.0016711553133" cy="416.90854463356766" r="5" fill="#05140d"></circle><circle cx="620.4620065838099" cy="646.6206342127067" r="4" fill="#196643"></circle><circle cx="628.2295805873839" cy="378.48944876040287" r="5" fill="#196643"></circle><circle cx="467.6406623309856" cy="491.5923727036881" r="2" fill="#1c1c1c"></circle><circle cx="556.462035555501" cy="540.2721497604078" r="1" fill="#1c1c1c"></circle><circle cx="468.20543780063457" cy="593.2076321457125" r="2" fill="#05140d"></circle><circle cx="431.44827758862453" cy="647.2168088532575" r="1" fill="#196643"></circle><circle cx="542.5307344841146" cy="455.4826827058143" r="3" fill="#1c1c1c"></circle><circle cx="536.4172153166762" cy="661.9455795210944" r="5" fill="#196643"></circle><circle cx="426.75176282224936" cy="430.1463509558418" r="5" fill="#0f3d28"></circle><circle cx="718.6556719414921" cy="579.1357381418285" r="2" fill="#196643"></circle><circle cx="422.7991202268405" cy="544.2129515994263" r="5" fill="#1c1c1c"></circle><circle cx="688.3381750203109" cy="635.9463377460697" r="1" fill="#248f5e"></circle><circle cx="334.19984109227687" cy="505.7269651994345" r="5" fill="#196643"></circle><circle cx="428.0639737849468" cy="705.9087739529306" r="3" fill="#248f5e"></circle><circle cx="598.2474379061819" cy="367.7226181120394" r="1" fill="#196643"></circle><circle cx="599.5617485764152" cy="556.5470182098845" r="1" fill="#1c1c1c"></circle><circle cx="350.2067043512843" cy="481.3713858606254" r="3" fill="#05140d"></circle><circle cx="875.4946074471212" cy="610.0399944622847" r="1" fill="#99e6c3"></circle><circle cx="461.271884995974" cy="543.3618119502901" r="4" fill="#05140d"></circle><circle cx="624.6024018630147" cy="486.990538396249" r="1" fill="#0f3d28"></circle><circle cx="449.89737615470847" cy="424.36545721454473" r="3" fill="#05140d"></circle><circle cx="477.3724502990199" cy="443.30352890872865" r="3" fill="#1c1c1c"></circle><circle cx="457.60248571078534" cy="652.5093835663179" r="2" fill="#0f3d28"></circle><circle cx="527.2902552009094" cy="479.4326314703799" r="3" fill="#1c1c1c"></circle><circle cx="303.58456748897345" cy="492.25163056411947" r="5" fill="#196643"></circle><circle cx="616.4357024152017" cy="578.848677041568" r="2" fill="#196643"></circle><circle cx="489.17893454005105" cy="590.6466060700659" r="2" fill="#05140d"></circle><circle cx="603.3984241715636" cy="318.6955923174007" r="4" fill="#248f5e"></circle><circle cx="487.1057836262793" cy="455.449754288554" r="2" fill="#1c1c1c"></circle><circle cx="583.715169902801" cy="579.3127813648751" r="5" fill="#05140d"></circle><circle cx="360.69192669629933" cy="500.0688975422269" r="2" fill="#0f3d28"></circle><circle cx="359.4215204078122" cy="542.8169131508386" r="2" fill="#0f3d28"></circle><circle cx="436.18563697478066" cy="781.0970467694631" r="5" fill="#47d193"></circle><circle cx="457.9263139513585" cy="382.5433414440261" r="1" fill="#0f3d28"></circle><circle cx="492.06097241902825" cy="494.06453189147254" r="1" fill="#05140d"></circle><circle cx="725.685124153433" cy="631.6181583045958" r="3" fill="#47d193"></circle><circle cx="635.008111541288" cy="546.1126867710902" r="2" fill="#0f3d28"></circle><circle cx="544.1109132829665" cy="715.6584900953153" r="2" fill="#196643"></circle><circle cx="585.8462058660673" cy="593.1498613408658" r="3" fill="#196643"></circle><circle cx="409.8402920216235" cy="497.87297824197407" r="2" fill="#05140d"></circle><circle cx="612.3241924686594" cy="595.4089051517315" r="2" fill="#0f3d28"></circle><circle cx="542.6703546860306" cy="493.7480400646062" r="3" fill="#1c1c1c"></circle><circle cx="730.1236680094931" cy="715.60798795341" r="1" fill="#99e6c3"></circle><circle cx="293.29863891935184" cy="590.2565323240245" r="3" fill="#248f5e"></circle><circle cx="624.2325579802623" cy="284.53122232066943" r="2" fill="#47d193"></circle><circle cx="515.7249679715834" cy="681.3007920208705" r="1" fill="#248f5e"></circle><circle cx="441.8195812815477" cy="494.73722396180557" r="4" fill="#1c1c1c"></circle><circle cx="388.47857628279496" cy="375.341434843891" r="4" fill="#196643"></circle><circle cx="524.8013930004466" cy="601.7590688804214" r="3" fill="#0f3d28"></circle><circle cx="185.69295598272356" cy="783.4251238423287" r="5" fill="#99e6c3"></circle><circle cx="465.72654685060786" cy="320.6815127358785" r="5" fill="#196643"></circle><circle cx="282.89640535491645" cy="615.2780698404775" r="5" fill="#47d193"></circle><circle cx="322.2306963150611" cy="489.1752916773669" r="4" fill="#196643"></circle><circle cx="640.2568962458531" cy="589.642593314588" r="5" fill="#196643"></circle><circle cx="852.492918584345" cy="577.4797009966063" r="3" fill="#99e6c3"></circle><circle cx="617.7966804706685" cy="442.5797854726892" r="4" fill="#0f3d28"></circle><circle cx="366.9614496137368" cy="337.868419519601" r="5" fill="#248f5e"></circle><circle cx="419.77826249284726" cy="495.82667253454434" r="5" fill="#1c1c1c"></circle><circle cx="373.5684164481615" cy="736.8768702778951" r="1" fill="#47d193"></circle><circle cx="497.84305299446635" cy="536.3371023781791" r="4" fill="#1c1c1c"></circle><circle cx="663.0991499601971" cy="385.0602349844224" r="4" fill="#196643"></circle><circle cx="346.5849806750663" cy="349.66160021132566" r="1" fill="#2eb879"></circle><circle cx="460.95196177704383" cy="382.4845512414983" r="2" fill="#05140d"></circle><circle cx="815.0790384909376" cy="661.8487390833168" r="5" fill="#99e6c3"></circle><circle cx="623.2940509552146" cy="438.43351386372126" r="3" fill="#05140d"></circle><circle cx="334.11137300918256" cy="488.51197837422063" r="5" fill="#0f3d28"></circle><circle cx="651.224169645755" cy="447.80933716462243" r="5" fill="#0f3d28"></circle><circle cx="666.7665368913556" cy="492.0030991414027" r="1" fill="#196643"></circle><circle cx="781.8847343442083" cy="686.9606614525682" r="3" fill="#99e6c3"></circle><circle cx="303.16796937719585" cy="306.08141066192843" r="4" fill="#47d193"></circle><circle cx="402.6367055860199" cy="359.2804660975965" r="3" fill="#0f3d28"></circle><circle cx="499.3563744247186" cy="480.7977990385676" r="4" fill="#1c1c1c"></circle><circle cx="422.874881615651" cy="549.4954682608642" r="3" fill="#05140d"></circle><circle cx="399.7229188305056" cy="629.6254357612327" r="4" fill="#196643"></circle><circle cx="496.09557497945013" cy="462.90768246913944" r="5" fill="#05140d"></circle><circle cx="373.7061582695612" cy="359.33573904294474" r="5" fill="#196643"></circle><circle cx="352.7580280896193" cy="456.01689064169176" r="1" fill="#0f3d28"></circle><circle cx="692.0376758780454" cy="713.9688387832635" r="5" fill="#47d193"></circle><circle cx="487.6516300396532" cy="479.83566789705736" r="4" fill="#1c1c1c"></circle><circle cx="688.7843187655326" cy="178.98884311521715" r="2" fill="#99e6c3"></circle><circle cx="439.07417197038706" cy="504.7642690198102" r="5" fill="#1c1c1c"></circle><circle cx="582.6001383365802" cy="673.5888955497747" r="5" fill="#196643"></circle><circle cx="368.9235220016843" cy="401.32860403408534" r="4" fill="#196643"></circle><circle cx="507.741870647383" cy="700.2408412480597" r="4" fill="#248f5e"></circle><circle cx="632.1893445646243" cy="444.13107199104974" r="2" fill="#0f3d28"></circle><circle cx="562.4445678689198" cy="475.08391428891565" r="3" fill="#1c1c1c"></circle><circle cx="450.70649595087883" cy="506.20418846904664" r="2" fill="#05140d"></circle><circle cx="615.78759769535" cy="532.6160187496831" r="5" fill="#0f3d28"></circle><circle cx="612.6341393779146" cy="242.3926960386654" r="3" fill="#47d193"></circle><circle cx="342.9957463331949" cy="362.19004492893816" r="3" fill="#248f5e"></circle><circle cx="350.8365510381846" cy="533.2984172978431" r="4" fill="#0f3d28"></circle><circle cx="694.9341196900607" cy="689.9771047739031" r="3" fill="#2eb879"></circle><circle cx="432.6827970887578" cy="649.2540816390525" r="3" fill="#196643"></circle><circle cx="447.6568197633214" cy="405.4850574272494" r="5" fill="#05140d"></circle><circle cx="456.76141630443885" cy="619.034340289143" r="3" fill="#0f3d28"></circle><circle cx="530.3313768499991" cy="406.11810868623434" r="1" fill="#1c1c1c"></circle><circle cx="404.9812756794476" cy="289.9533708286721" r="2" fill="#248f5e"></circle><circle cx="454.4184033320796" cy="105.72571574107292" r="5" fill="#99e6c3"></circle><circle cx="503.44330154006434" cy="765.6227806835609" r="2" fill="#47d193"></circle><circle cx="401.85817499603866" cy="632.2470353537784" r="1" fill="#196643"></circle><circle cx="547.7120523905485" cy="641.5775104787162" r="2" fill="#0f3d28"></circle><circle cx="605.5486324150052" cy="422.99395989571366" r="4" fill="#0f3d28"></circle><circle cx="368.892975427412" cy="518.9389737588151" r="3" fill="#196643"></circle><circle cx="779.4543994842975" cy="514.7893542431925" r="4" fill="#47d193"></circle><circle cx="550.687787909877" cy="548.9173531846678" r="3" fill="#1c1c1c"></circle><circle cx="601.6580894282903" cy="391.2796309661664" r="1" fill="#0f3d28"></circle><circle cx="408.5518586658906" cy="490.9994429133881" r="5" fill="#05140d"></circle><circle cx="565.3073106132" cy="214.36471361638962" r="5" fill="#47d193"></circle><circle cx="667.1929220762806" cy="405.02003664021163" r="2" fill="#196643"></circle><circle cx="560.1638718575604" cy="299.18488399345165" r="1" fill="#248f5e"></circle><circle cx="388.3988325782119" cy="347.3542957750918" r="2" fill="#248f5e"></circle><circle cx="397.40888858037806" cy="343.4559066805954" r="5" fill="#196643"></circle><circle cx="608.0491999442879" cy="663.1206045408112" r="1" fill="#248f5e"></circle><circle cx="557.4082794820305" cy="356.7937430283589" r="4" fill="#0f3d28"></circle><circle cx="542.8457208175098" cy="629.0228482317793" r="3" fill="#0f3d28"></circle><circle cx="522.102300364146" cy="732.8540446327049" r="2" fill="#248f5e"></circle><circle cx="453.89246641382596" cy="636.0344580881981" r="4" fill="#0f3d28"></circle><circle cx="827.9248591368358" cy="591.9119956932509" r="1" fill="#99e6c3"></circle><circle cx="525.0419808103221" cy="342.84271254459054" r="4" fill="#0f3d28"></circle><circle cx="500.4102663913021" cy="489.6836817470091" r="4" fill="#1c1c1c"></circle><circle cx="463.5906404030313" cy="506.43162590140133" r="5" fill="#1c1c1c"></circle><circle cx="502.6496580127698" cy="535.4682878391395" r="3" fill="#1c1c1c"></circle><circle cx="387.51128414385204" cy="427.7451850593384" r="4" fill="#196643"></circle><circle cx="321.3565700145795" cy="661.1622648154921" r="3" fill="#47d193"></circle><circle cx="704.8621685758216" cy="558.1318317525809" r="5" fill="#248f5e"></circle><circle cx="558.0056583350114" cy="422.9182928310952" r="5" fill="#05140d"></circle><circle cx="444.6442308157592" cy="679.3912406502773" r="2" fill="#196643"></circle><circle cx="676.2624820977953" cy="429.2668172388596" r="2" fill="#196643"></circle><circle cx="520.1337352899496" cy="539.4031454894676" r="5" fill="#05140d"></circle><circle cx="405.0519356035548" cy="588.1378162250957" r="1" fill="#0f3d28"></circle><circle cx="483.3909228735644" cy="535.7189403275734" r="4" fill="#05140d"></circle><circle cx="438.3840693685338" cy="527.1016796695732" r="2" fill="#1c1c1c"></circle><circle cx="525.2898724240426" cy="484.11617540745897" r="3" fill="#1c1c1c"></circle><circle cx="511.6352485794404" cy="562.8819453122634" r="1" fill="#1c1c1c"></circle><circle cx="387.6490315691816" cy="444.89071859785884" r="5" fill="#196643"></circle><circle cx="389.90745158479433" cy="573.9470252233016" r="4" fill="#196643"></circle><circle cx="528.6109433756736" cy="484.668576050742" r="5" fill="#1c1c1c"></circle><circle cx="633.8798595914843" cy="375.01581311282916" r="5" fill="#196643"></circle><circle cx="524.3469733326227" cy="558.9873447647321" r="4" fill="#1c1c1c"></circle><circle cx="387.5958703289496" cy="423.399781878594" r="4" fill="#0f3d28"></circle><circle cx="785.7643194588663" cy="619.103256995395" r="2" fill="#47d193"></circle><circle cx="635.4016676823156" cy="673.1551042355943" r="2" fill="#248f5e"></circle><circle cx="417.06570634760357" cy="274.7088631471456" r="5" fill="#47d193"></circle><circle cx="525.9722125794242" cy="563.6101976125526" r="1" fill="#1c1c1c"></circle><circle cx="557.590404235506" cy="766.7709349641864" r="1" fill="#47d193"></circle><circle cx="554.6659332812775" cy="486.2632356519683" r="5" fill="#1c1c1c"></circle><circle cx="324.4131372299928" cy="355.7612455412326" r="5" fill="#248f5e"></circle><circle cx="697.8600442271119" cy="431.613769293548" r="2" fill="#248f5e"></circle><circle cx="788.2309619189276" cy="327.29491623657" r="3" fill="#47d193"></circle><circle cx="618.2344435822175" cy="633.8537306369055" r="5" fill="#196643"></circle><circle cx="740.1804606705622" cy="486.92284710620345" r="1" fill="#2eb879"></circle><circle cx="494.4723262154686" cy="395.60758247798964" r="2" fill="#05140d"></circle><circle cx="589.6685905201097" cy="500.11502767247634" r="2" fill="#05140d"></circle><circle cx="662.0132018598708" cy="627.1947720660199" r="3" fill="#196643"></circle><circle cx="459.91061265590713" cy="686.6086959541465" r="1" fill="#196643"></circle><circle cx="700.0669554485887" cy="498.9478419330721" r="5" fill="#248f5e"></circle><circle cx="265.7229886894029" cy="274.04296436324364" r="3" fill="#99e6c3"></circle><circle cx="504.23485548797845" cy="636.3480992472444" r="1" fill="#0f3d28"></circle><circle cx="533.6415956741156" cy="630.6834907692829" r="1" fill="#196643"></circle><circle cx="605.8343304387355" cy="491.27140171260703" r="3" fill="#05140d"></circle><circle cx="624.3956333687404" cy="571.9104565698847" r="5" fill="#0f3d28"></circle><circle cx="888.2513131414923" cy="765.5657329684971" r="2" fill="#99e6c3"></circle><circle cx="583.728152090603" cy="880.9916125136201" r="1" fill="#99e6c3"></circle><circle cx="418.95095896427387" cy="237.5791270711166" r="1" fill="#47d193"></circle><circle cx="512.8353775867946" cy="382.318176220216" r="1" fill="#0f3d28"></circle><circle cx="576.6418718760642" cy="385.3868013378524" r="3" fill="#0f3d28"></circle><circle cx="342.05692449652713" cy="561.4204396855899" r="5" fill="#196643"></circle><circle cx="654.6477241353971" cy="522.6255033425239" r="4" fill="#0f3d28"></circle><circle cx="661.9868682592145" cy="468.2710907894901" r="2" fill="#196643"></circle><circle cx="337.116213895305" cy="405.75757947585384" r="5" fill="#196643"></circle><circle cx="243.15249939649033" cy="532.5068594326756" r="5" fill="#2eb879"></circle><circle cx="346.0909002602263" cy="465.20923448716576" r="3" fill="#196643"></circle><circle cx="573.7083543504095" cy="349.2363802017759" r="4" fill="#196643"></circle><circle cx="707.9538513633022" cy="401.80486353309243" r="2" fill="#248f5e"></circle><circle cx="533.8101931754264" cy="424.02178565822794" r="2" fill="#05140d"></circle><circle cx="552.4698376244905" cy="629.1532537225271" r="5" fill="#196643"></circle><circle cx="111.97042946533679" cy="442.72517143386267" r="4" fill="#99e6c3"></circle><circle cx="364.6973866672325" cy="379.52455242103474" r="3" fill="#196643"></circle><circle cx="380.05343186230834" cy="652.5619335826805" r="3" fill="#196643"></circle><circle cx="572.8471404410534" cy="686.1850044057942" r="5" fill="#196643"></circle><circle cx="172.42200110416206" cy="409.7549731351678" r="4" fill="#99e6c3"></circle><circle cx="399.41227973630157" cy="350.83193459369056" r="3" fill="#0f3d28"></circle><circle cx="525.1998839899446" cy="191.77574250920782" r="4" fill="#99e6c3"></circle><circle cx="454.4313928384863" cy="409.25193661839194" r="1" fill="#05140d"></circle><circle cx="460.5573315623051" cy="656.9158988413984" r="1" fill="#196643"></circle><circle cx="800.4739562060735" cy="443.67497061600534" r="1" fill="#47d193"></circle><circle cx="598.2941482162169" cy="790.5818636818212" r="3" fill="#47d193"></circle><circle cx="453.2118899696945" cy="293.5822253304427" r="5" fill="#248f5e"></circle><circle cx="638.7726717643018" cy="651.713891594726" r="3" fill="#248f5e"></circle><circle cx="366.639385682632" cy="476.57985812691595" r="3" fill="#0f3d28"></circle><circle cx="478.32095843567583" cy="637.9462833028724" r="5" fill="#05140d"></circle><circle cx="573.5861599809327" cy="271.00969848958107" r="5" fill="#47d193"></circle><circle cx="566.330409381105" cy="596.4349622049799" r="5" fill="#05140d"></circle><circle cx="309.22147240099963" cy="437.64514344933303" r="2" fill="#248f5e"></circle><circle cx="505.0315715210774" cy="424.704412944198" r="4" fill="#1c1c1c"></circle><circle cx="391.5065095066475" cy="631.7056155553389" r="5" fill="#196643"></circle><circle cx="401.5285544439446" cy="752.596745606408" r="3" fill="#47d193"></circle><circle cx="604.3204569096115" cy="298.487223854504" r="4" fill="#248f5e"></circle><circle cx="421.31322634911777" cy="583.715652673708" r="4" fill="#0f3d28"></circle><circle cx="515.315000176456" cy="793.4255336240549" r="2" fill="#47d193"></circle><circle cx="333.35874372210617" cy="433.07577725216163" r="4" fill="#196643"></circle><circle cx="709.5972913561316" cy="565.7662176830461" r="5" fill="#248f5e"></circle><circle cx="450.9223124064202" cy="630.2039093670173" r="2" fill="#0f3d28"></circle><circle cx="597.4696501690033" cy="653.6640735368544" r="3" fill="#196643"></circle><circle cx="397.68293255186444" cy="554.2265816408662" r="2" fill="#1c1c1c"></circle><circle cx="483.7994541049909" cy="495.58812451639193" r="4" fill="#05140d"></circle><circle cx="665.9896640576972" cy="325.7636390505386" r="5" fill="#47d193"></circle><circle cx="389.36401298638503" cy="469.23682395937163" r="1" fill="#1c1c1c"></circle><circle cx="718.1090865529842" cy="711.6218212871124" r="3" fill="#47d193"></circle><circle cx="376.2699232131484" cy="599.677798887411" r="3" fill="#0f3d28"></circle><circle cx="499.7042141747707" cy="403.47853059298455" r="3" fill="#05140d"></circle><circle cx="379.6220717490985" cy="514.1395533557194" r="4" fill="#0f3d28"></circle><circle cx="280.51300114503374" cy="530.0598770572367" r="2" fill="#248f5e"></circle><circle cx="541.8171988146495" cy="408.2688828516571" r="5" fill="#1c1c1c"></circle><circle cx="186.4937325842031" cy="317.0967568156728" r="5" fill="#99e6c3"></circle><circle cx="744.1958293125673" cy="468.2737238166317" r="2" fill="#47d193"></circle><circle cx="727.0298941570873" cy="542.6278165005087" r="4" fill="#248f5e"></circle><circle cx="538.2889734536138" cy="440.01621729068876" r="1" fill="#1c1c1c"></circle><circle cx="345.3158817830671" cy="589.9747102045304" r="5" fill="#196643"></circle><circle cx="481.1121094077038" cy="643.5099857693772" r="2" fill="#0f3d28"></circle><circle cx="262.7623058868651" cy="330.88543529918456" r="2" fill="#47d193"></circle><circle cx="518.1418223196389" cy="540.7454847793746" r="4" fill="#1c1c1c"></circle><circle cx="237.06399408541984" cy="709.1813044958543" r="1" fill="#99e6c3"></circle><circle cx="255.90555547253987" cy="726.9367719838422" r="5" fill="#99e6c3"></circle><circle cx="549.1308722311178" cy="415.37488797479364" r="4" fill="#05140d"></circle><circle cx="467.0205880955021" cy="442.09109315041496" r="3" fill="#1c1c1c"></circle><circle cx="568.757811395652" cy="255.6283094689086" r="2" fill="#47d193"></circle><circle cx="470.9229915523383" cy="659.8576980843359" r="5" fill="#196643"></circle><circle cx="473.4198364707538" cy="507.64143161500715" r="5" fill="#1c1c1c"></circle><circle cx="694.8348991410444" cy="614.2279701683816" r="4" fill="#2eb879"></circle><circle cx="459.0351797443523" cy="351.0402147060796" r="4" fill="#0f3d28"></circle><circle cx="640.5366440950133" cy="526.6697349314804" r="3" fill="#0f3d28"></circle><circle cx="403.2302101163149" cy="562.9017896527585" r="2" fill="#05140d"></circle><circle cx="519.9676293303211" cy="754.5064900154993" r="4" fill="#47d193"></circle><circle cx="376.327138309332" cy="477.5784500049501" r="5" fill="#0f3d28"></circle><circle cx="576.569269728043" cy="392.85055550269885" r="2" fill="#0f3d28"></circle><circle cx="596.7100487178693" cy="538.246624001202" r="2" fill="#05140d"></circle><circle cx="690.3927756655096" cy="620.4106052687594" r="1" fill="#248f5e"></circle><circle cx="564.2397341691458" cy="267.564246984781" r="5" fill="#47d193"></circle><circle cx="389.4432622334142" cy="414.7647992446407" r="5" fill="#0f3d28"></circle><circle cx="309.9506921254874" cy="345.46910762446953" r="2" fill="#47d193"></circle><circle cx="606.2221085189606" cy="581.0489847205191" r="3" fill="#05140d"></circle><circle cx="311.215474649969" cy="607.4998395653466" r="4" fill="#196643"></circle><circle cx="578.5845334567198" cy="615.301793123638" r="5" fill="#0f3d28"></circle><circle cx="461.6924069613978" cy="559.256748027388" r="4" fill="#1c1c1c"></circle><circle cx="586.2259754779323" cy="501.8701575047534" r="1" fill="#05140d"></circle><circle cx="865.9270919428964" cy="738.2840946125104" r="5" fill="#99e6c3"></circle><circle cx="571.7274993192802" cy="419.8849405230282" r="4" fill="#05140d"></circle><circle cx="385.7218455117349" cy="285.2650068712426" r="2" fill="#47d193"></circle><circle cx="320.1038634063829" cy="532.5707374409394" r="5" fill="#196643"></circle><circle cx="588.0719648715922" cy="230.42152093430457" r="3" fill="#47d193"></circle><circle cx="532.0523204292895" cy="634.5129970937419" r="5" fill="#0f3d28"></circle><circle cx="671.3519771565267" cy="690.3799963610854" r="5" fill="#47d193"></circle><circle cx="659.4512325131365" cy="454.00718192910995" r="2" fill="#196643"></circle><circle cx="438.63119660709367" cy="325.8450180141286" r="4" fill="#196643"></circle><circle cx="640.4387921635323" cy="244.04376903051607" r="5" fill="#47d193"></circle><circle cx="448.20187379228537" cy="442.302288924785" r="5" fill="#05140d"></circle><circle cx="612.7260190931061" cy="732.3368904822643" r="5" fill="#2eb879"></circle><circle cx="357.9097865090582" cy="485.24404074756325" r="2" fill="#0f3d28"></circle><circle cx="410.72354562768214" cy="478.5460963215475" r="3" fill="#1c1c1c"></circle><circle cx="514.3718674235354" cy="463.48471263112157" r="5" fill="#05140d"></circle><circle cx="796.1805176386888" cy="538.8283289022748" r="4" fill="#47d193"></circle><circle cx="479.15641921190524" cy="560.5611134393937" r="5" fill="#1c1c1c"></circle><circle cx="327.8096933766792" cy="654.698219768335" r="5" fill="#196643"></circle><circle cx="652.3813218846478" cy="597.9505402073745" r="5" fill="#196643"></circle><circle cx="326.72244113483396" cy="777.4270232246477" r="4" fill="#99e6c3"></circle><circle cx="482.86595641704855" cy="294.3239339542842" r="2" fill="#248f5e"></circle><circle cx="538.3938482815875" cy="209.68956673707567" r="3" fill="#47d193"></circle><circle cx="540.424771398713" cy="689.6492359635724" r="2" fill="#196643"></circle><circle cx="485.0509794807245" cy="407.3681207746843" r="1" fill="#05140d"></circle><circle cx="271.97169640267794" cy="399.30928164347864" r="2" fill="#2eb879"></circle><circle cx="501.9645441428739" cy="402.6760448891403" r="2" fill="#05140d"></circle><circle cx="502.283687605092" cy="582.2212131764757" r="5" fill="#05140d"></circle><circle cx="283.7081634825107" cy="624.6054425655345" r="2" fill="#2eb879"></circle><circle cx="578.3864901771909" cy="460.07332932729463" r="1" fill="#0f3d28"></circle><circle cx="455.72624987680615" cy="341.6303578397209" r="3" fill="#196643"></circle><circle cx="593.3729960742223" cy="288.7291727680405" r="4" fill="#248f5e"></circle><circle cx="575.5739008152286" cy="634.2484716119822" r="5" fill="#0f3d28"></circle><circle cx="595.5901262196035" cy="574.8168662280768" r="5" fill="#0f3d28"></circle><circle cx="391.57936687769575" cy="442.0904978194809" r="4" fill="#196643"></circle><circle cx="562.3796258559827" cy="421.3476446326264" r="4" fill="#05140d"></circle><circle cx="525.9763643402958" cy="421.9085242923428" r="5" fill="#05140d"></circle><circle cx="558.3880363127029" cy="500.3123440262506" r="4" fill="#1c1c1c"></circle><circle cx="566.4729348057577" cy="566.9639538765198" r="4" fill="#1c1c1c"></circle><circle cx="619.059240685614" cy="379.0441487392917" r="3" fill="#196643"></circle><circle cx="379.32339061228896" cy="447.17815864921414" r="2" fill="#05140d"></circle><circle cx="459.1794177445447" cy="396.745759304124" r="1" fill="#05140d"></circle><circle cx="330.57223202744245" cy="472.10523237026337" r="3" fill="#196643"></circle><circle cx="377.5083188246848" cy="611.2516643107132" r="1" fill="#196643"></circle><circle cx="345.14555691754697" cy="485.0866336753327" r="5" fill="#196643"></circle><circle cx="647.2295873225779" cy="462.8543249086023" r="2" fill="#196643"></circle><circle cx="431.3187751721036" cy="171.13997604523695" r="4" fill="#99e6c3"></circle><circle cx="502.3727360668873" cy="396.13400787887247" r="1" fill="#05140d"></circle><circle cx="466.5922261906474" cy="396.32933936942527" r="5" fill="#05140d"></circle><circle cx="519.3888306395392" cy="616.3792549822844" r="4" fill="#05140d"></circle><circle cx="570.3972798482037" cy="320.5304445217417" r="5" fill="#196643"></circle><circle cx="477.7553225303911" cy="441.8928942129983" r="5" fill="#1c1c1c"></circle><circle cx="352.32687282938724" cy="208.67725691007382" r="1" fill="#47d193"></circle><circle cx="234.65819477281212" cy="534.3041314754662" r="2" fill="#47d193"></circle><circle cx="659.4984971621002" cy="433.2132569105667" r="2" fill="#196643"></circle><circle cx="584.5175767140985" cy="516.5174269460434" r="1" fill="#05140d"></circle><circle cx="349.5471657498747" cy="371.9000332449242" r="1" fill="#196643"></circle><circle cx="670.6268922169329" cy="439.06962816654107" r="1" fill="#196643"></circle><circle cx="706.4933523204984" cy="584.1451132558896" r="5" fill="#248f5e"></circle><circle cx="470.90107523384535" cy="508.43452031125" r="1" fill="#05140d"></circle><circle cx="395.9422241947003" cy="623.2410664889902" r="1" fill="#0f3d28"></circle><circle cx="709.7357497185703" cy="715.1788352123758" r="1" fill="#47d193"></circle><circle cx="565.6579914091135" cy="520.6484943668149" r="5" fill="#05140d"></circle><circle cx="179.04117825214126" cy="183.81303791235928" r="2" fill="#99e6c3"></circle><circle cx="479.01807546223966" cy="677.1886354842532" r="3" fill="#0f3d28"></circle><circle cx="577.8422288766184" cy="410.2067354784395" r="1" fill="#05140d"></circle><circle cx="619.4689610142248" cy="424.1463355710957" r="2" fill="#196643"></circle><circle cx="629.8932858805114" cy="685.8956271364056" r="2" fill="#248f5e"></circle><circle cx="736.6577105118101" cy="484.5152491577213" r="1" fill="#248f5e"></circle><circle cx="467.32200286753226" cy="441.2456379560335" r="3" fill="#05140d"></circle><circle cx="494.3988142501196" cy="468.3621296525423" r="4" fill="#1c1c1c"></circle><circle cx="721.7203432109978" cy="525.9365635278597" r="5" fill="#248f5e"></circle><circle cx="493.69527720309657" cy="227.02652242281533" r="1" fill="#47d193"></circle><circle cx="474.95880614943667" cy="443.591933303939" r="1" fill="#05140d"></circle><circle cx="523.9389385829988" cy="524.3236557741969" r="1" fill="#05140d"></circle><circle cx="557.5342206789022" cy="501.8006120382592" r="3" fill="#1c1c1c"></circle><circle cx="744.532597338404" cy="535.4949577042742" r="3" fill="#47d193"></circle><circle cx="670.401781059948" cy="225.35087279071593" r="2" fill="#99e6c3"></circle><circle cx="537.676702968027" cy="708.0033714416197" r="2" fill="#248f5e"></circle><circle cx="212.693901473849" cy="369.04726617325264" r="1" fill="#99e6c3"></circle><circle cx="404.2421866670454" cy="556.7346587911624" r="5" fill="#05140d"></circle><circle cx="463.05368879391654" cy="431.5916418510377" r="1" fill="#1c1c1c"></circle><circle cx="434.87318861059623" cy="538.2603899618854" r="4" fill="#1c1c1c"></circle><circle cx="513.4444575171086" cy="674.6521994338299" r="2" fill="#0f3d28"></circle><circle cx="449.56318050994815" cy="528.3679369727065" r="3" fill="#05140d"></circle><circle cx="585.5861704856757" cy="756.0567660102213" r="2" fill="#47d193"></circle><circle cx="528.7258925147962" cy="230.02493670547517" r="1" fill="#47d193"></circle><circle cx="573.5773982252449" cy="562.8596308055897" r="3" fill="#05140d"></circle><circle cx="219.88579325532896" cy="362.38500868114886" r="3" fill="#47d193"></circle><circle cx="497.58078560873554" cy="419.08187025018304" r="5" fill="#05140d"></circle><circle cx="188.7579541682873" cy="626.3225346817827" r="2" fill="#99e6c3"></circle><circle cx="491.44891380265517" cy="494.12151045682214" r="3" fill="#05140d"></circle><circle cx="312.64741010962587" cy="315.8386812699607" r="3" fill="#2eb879"></circle><circle cx="295.98460900471594" cy="338.89701863545355" r="3" fill="#47d193"></circle><circle cx="385.41453420804885" cy="632.2382582018207" r="3" fill="#196643"></circle><circle cx="605.5887514279905" cy="337.48388054871396" r="3" fill="#196643"></circle><circle cx="289.9472162867911" cy="644.8826340401567" r="1" fill="#47d193"></circle><circle cx="351.6047913157889" cy="631.8513276726204" r="3" fill="#0f3d28"></circle><circle cx="732.0401512455712" cy="396.22973364177193" r="2" fill="#47d193"></circle><circle cx="376.36134424106643" cy="566.3839000974493" r="4" fill="#0f3d28"></circle><circle cx="301.0794307514402" cy="483.4805214608134" r="2" fill="#0f3d28"></circle><circle cx="393.5556749731552" cy="473.7409943700495" r="2" fill="#05140d"></circle><circle cx="780.0914449763155" cy="560.1091135565734" r="3" fill="#47d193"></circle><circle cx="382.7421848231635" cy="512.3798957680079" r="2" fill="#05140d"></circle><circle cx="457.2735391904107" cy="527.5703068481292" r="4" fill="#1c1c1c"></circle><circle cx="413.04075302131844" cy="554.2145068973823" r="1" fill="#05140d"></circle><circle cx="501.1913174771575" cy="297.30266214059884" r="5" fill="#248f5e"></circle><circle cx="414.54863950508064" cy="478.39607304021945" r="5" fill="#05140d"></circle><circle cx="574.6179660079007" cy="465.4992315760635" r="5" fill="#1c1c1c"></circle><circle cx="441.9247100825922" cy="424.6395983673084" r="4" fill="#1c1c1c"></circle><circle cx="433.57360832823514" cy="637.5015061380517" r="1" fill="#0f3d28"></circle><circle cx="622.306946083367" cy="643.7233145416799" r="5" fill="#196643"></circle><circle cx="309.62547054054676" cy="665.1956191125805" r="1" fill="#47d193"></circle><circle cx="619.285771533511" cy="457.2369379676249" r="5" fill="#0f3d28"></circle><circle cx="461.6429230746262" cy="280.06601635093966" r="5" fill="#248f5e"></circle><circle cx="368.94277616423653" cy="647.8510731200372" r="2" fill="#196643"></circle><circle cx="624.3248888193386" cy="444.60289905624836" r="1" fill="#0f3d28"></circle><circle cx="521.305681998988" cy="492.3185188892155" r="3" fill="#1c1c1c"></circle><circle cx="903.11029997206" cy="766.8327854304785" r="2" fill="#99e6c3"></circle><circle cx="504.6214201001584" cy="617.6718368216171" r="2" fill="#05140d"></circle><circle cx="420.5114637996048" cy="420.9792920895492" r="4" fill="#05140d"></circle><circle cx="348.1669423684607" cy="506.09065369633146" r="2" fill="#0f3d28"></circle><circle cx="343.0357961124429" cy="665.951603147734" r="2" fill="#248f5e"></circle><circle cx="502.9187720193883" cy="693.6633714843227" r="4" fill="#196643"></circle><circle cx="395.3734330417838" cy="667.5251342006545" r="4" fill="#196643"></circle><circle cx="470.3420165850488" cy="675.1712144042457" r="4" fill="#196643"></circle><circle cx="551.1499756113785" cy="477.7298985021356" r="3" fill="#1c1c1c"></circle><circle cx="373.0908776002053" cy="364.42339718540927" r="4" fill="#196643"></circle><circle cx="490.8538422077994" cy="475.7771510972367" r="2" fill="#1c1c1c"></circle><circle cx="533.2867918236154" cy="384.097479660336" r="2" fill="#0f3d28"></circle><circle cx="359.3861847069643" cy="534.2152757667926" r="1" fill="#0f3d28"></circle><circle cx="591.639212064313" cy="609.9645408638144" r="3" fill="#0f3d28"></circle><circle cx="359.7125264098781" cy="309.37832295886915" r="1" fill="#248f5e"></circle><circle cx="472.5959204519593" cy="476.8032779771557" r="4" fill="#05140d"></circle><circle cx="273.46157654816295" cy="276.53778192752463" r="5" fill="#47d193"></circle><circle cx="670.9462104334292" cy="490.0947822184843" r="5" fill="#196643"></circle><circle cx="529.618439904858" cy="626.3841770609677" r="2" fill="#0f3d28"></circle><circle cx="551.904852010412" cy="698.0638273358177" r="5" fill="#248f5e"></circle><circle cx="454.0097746021158" cy="713.140839724962" r="2" fill="#248f5e"></circle><circle cx="603.7649095563455" cy="499.34991952393864" r="3" fill="#05140d"></circle><circle cx="409.4715740222187" cy="475.4325308431872" r="4" fill="#1c1c1c"></circle><circle cx="603.2877963406753" cy="711.1460962697274" r="1" fill="#248f5e"></circle><circle cx="548.7325897756571" cy="377.92900590725833" r="1" fill="#0f3d28"></circle><circle cx="408.02328936556125" cy="526.6982457265241" r="1" fill="#05140d"></circle><circle cx="537.1110324923516" cy="467.40947663392006" r="4" fill="#1c1c1c"></circle><circle cx="551.0695120283148" cy="452.8574730130004" r="4" fill="#1c1c1c"></circle><circle cx="534.1715166820661" cy="456.57591296116277" r="3" fill="#1c1c1c"></circle><circle cx="387.607513802712" cy="619.2000195233895" r="5" fill="#0f3d28"></circle><circle cx="650.8606152501886" cy="606.3752250010466" r="5" fill="#196643"></circle><circle cx="498.6393496848449" cy="632.338132931966" r="5" fill="#196643"></circle><circle cx="498.62966241900074" cy="675.8944969220727" r="4" fill="#0f3d28"></circle><circle cx="497.18951032564814" cy="557.2241391071608" r="4" fill="#05140d"></circle><circle cx="580.8277362179916" cy="663.5535127314278" r="3" fill="#248f5e"></circle><circle cx="660.3930060064558" cy="713.5741713778885" r="5" fill="#47d193"></circle><circle cx="687.6851919592331" cy="398.4900539297431" r="3" fill="#248f5e"></circle><circle cx="54.39753978141158" cy="127.82056803968726" r="1" fill="#99e6c3"></circle><circle cx="338.82302564825847" cy="174.12733601446564" r="1" fill="#99e6c3"></circle><circle cx="509.8178242118776" cy="533.6595943759314" r="1" fill="#1c1c1c"></circle><circle cx="506.055699563048" cy="290.77478530888175" r="1" fill="#248f5e"></circle><circle cx="272.3018714124205" cy="712.1871977927818" r="2" fill="#47d193"></circle><circle cx="444.5140143572999" cy="437.3176005172895" r="4" fill="#05140d"></circle><circle cx="283.12391752769497" cy="550.0705053273482" r="2" fill="#248f5e"></circle><circle cx="271.1842074016983" cy="579.5235570989773" r="5" fill="#47d193"></circle><circle cx="356.97676673709793" cy="692.3873257154264" r="4" fill="#248f5e"></circle><circle cx="678.211669424993" cy="306.0438744689642" r="5" fill="#47d193"></circle><circle cx="523.4440286125928" cy="419.1464088835085" r="4" fill="#05140d"></circle><circle cx="454.5210394158116" cy="332.5174171299947" r="5" fill="#196643"></circle><circle cx="529.6555277398224" cy="549.6869724353587" r="5" fill="#05140d"></circle><circle cx="353.88046306620066" cy="490.8280253319173" r="4" fill="#05140d"></circle><circle cx="545.1543431206067" cy="511.8451972711461" r="3" fill="#1c1c1c"></circle><circle cx="278.266300046097" cy="330.35354521807693" r="3" fill="#47d193"></circle><circle cx="295.1879214549649" cy="498.92129215491786" r="2" fill="#248f5e"></circle><circle cx="437.94033574450685" cy="693.7703164231227" r="3" fill="#248f5e"></circle><circle cx="342.1930482937887" cy="651.4765260992106" r="3" fill="#248f5e"></circle><circle cx="215.8978177961905" cy="332.80718463148844" r="4" fill="#99e6c3"></circle><circle cx="644.0180972582449" cy="371.2797942589733" r="5" fill="#196643"></circle><circle cx="478.6901634391716" cy="642.360707706224" r="5" fill="#0f3d28"></circle><circle cx="430.52460316517863" cy="418.5481176408507" r="1" fill="#05140d"></circle><circle cx="299.1122831297695" cy="213.1423879394032" r="3" fill="#99e6c3"></circle><circle cx="674.7496606934728" cy="574.7025894880285" r="4" fill="#0f3d28"></circle><circle cx="753.36785777639" cy="628.66897924818" r="2" fill="#47d193"></circle><circle cx="485.51499774463446" cy="368.8578445511936" r="3" fill="#0f3d28"></circle><circle cx="790.8669692148858" cy="167.120875492374" r="4" fill="#99e6c3"></circle><circle cx="331.4966299373541" cy="734.5494506171699" r="3" fill="#99e6c3"></circle><circle cx="685.1932537436705" cy="512.9194643457832" r="2" fill="#248f5e"></circle><circle cx="383.05694487464433" cy="444.3176536106877" r="2" fill="#05140d"></circle><circle cx="499.1642570147838" cy="611.3236617300664" r="5" fill="#1c1c1c"></circle><circle cx="411.03440186767057" cy="333.5077302505632" r="1" fill="#196643"></circle><circle cx="453.98725683491836" cy="780.9267567766883" r="5" fill="#47d193"></circle><circle cx="347.5825663461718" cy="654.8137871002589" r="5" fill="#2eb879"></circle><circle cx="573.1175958441478" cy="318.8185547215079" r="5" fill="#196643"></circle><circle cx="607.3800606639556" cy="442.76192044533923" r="1" fill="#0f3d28"></circle><circle cx="376.9603863965632" cy="675.7158827933881" r="2" fill="#248f5e"></circle><circle cx="657.6671059340595" cy="464.04232266906035" r="2" fill="#248f5e"></circle><circle cx="500.52252878964805" cy="365.1806335501534" r="5" fill="#0f3d28"></circle><circle cx="663.0273689168698" cy="113.33614376727877" r="4" fill="#99e6c3"></circle><circle cx="539.17248688151" cy="427.33418839430016" r="4" fill="#05140d"></circle><circle cx="377.28335577978237" cy="402.13620842307455" r="4" fill="#0f3d28"></circle><circle cx="614.4370402770992" cy="377.6209827905455" r="1" fill="#196643"></circle><circle cx="623.2635011767813" cy="537.6246065484969" r="1" fill="#0f3d28"></circle><circle cx="586.7422193497742" cy="328.25248366840145" r="1" fill="#196643"></circle><circle cx="551.1331668084916" cy="660.4168924114481" r="4" fill="#0f3d28"></circle><circle cx="415.92058269724066" cy="742.0154198008911" r="2" fill="#47d193"></circle><circle cx="527.3532210056255" cy="536.2749255052869" r="4" fill="#1c1c1c"></circle><circle cx="331.5937465115187" cy="604.3365629822136" r="4" fill="#196643"></circle><circle cx="823.7963433260152" cy="602.6075684553209" r="4" fill="#99e6c3"></circle><circle cx="465.7359075901637" cy="331.2046837701414" r="4" fill="#0f3d28"></circle><circle cx="492.78654396488616" cy="310.2074963569444" r="3" fill="#196643"></circle><circle cx="357.6520700447917" cy="747.4209426815053" r="4" fill="#47d193"></circle><circle cx="735.7562510985421" cy="524.6416651635536" r="4" fill="#248f5e"></circle><circle cx="472.2499759684118" cy="898.6318054311571" r="4" fill="#99e6c3"></circle><circle cx="532.6372830923597" cy="501.4229087570007" r="3" fill="#05140d"></circle><circle cx="577.7871583819087" cy="764.6239268389811" r="3" fill="#47d193"></circle><circle cx="432.8202663181187" cy="508.332088813428" r="4" fill="#1c1c1c"></circle><circle cx="374.05315290962227" cy="734.2446873725333" r="2" fill="#47d193"></circle><circle cx="572.1450384573451" cy="456.319690767887" r="5" fill="#05140d"></circle><circle cx="546.9224410370581" cy="540.1838506871259" r="5" fill="#05140d"></circle><circle cx="539.3612425224319" cy="574.0689318842425" r="5" fill="#05140d"></circle><circle cx="329.5192598756959" cy="731.1345801590049" r="1" fill="#47d193"></circle><circle cx="644.8579491810458" cy="561.9763817145517" r="1" fill="#05140d"></circle><circle cx="669.5438018341508" cy="609.8704555832717" r="2" fill="#248f5e"></circle><circle cx="844.1381402700515" cy="601.9786229626203" r="2" fill="#99e6c3"></circle><circle cx="654.9751323573039" cy="733.5484827044681" r="2" fill="#47d193"></circle><circle cx="428.40506283071414" cy="513.0709423258725" r="4" fill="#05140d"></circle><circle cx="305.90653474395265" cy="610.1962071619446" r="5" fill="#2eb879"></circle><circle cx="491.12586727721657" cy="446.5649389528375" r="4" fill="#1c1c1c"></circle><circle cx="532.424966938282" cy="496.47191754054967" r="3" fill="#1c1c1c"></circle><circle cx="507.36307699800795" cy="665.863368174127" r="3" fill="#196643"></circle><circle cx="411.1598408021924" cy="365.9928447141082" r="1" fill="#0f3d28"></circle><circle cx="344.0864448824568" cy="436.4932817606793" r="1" fill="#248f5e"></circle><circle cx="513.8145699736812" cy="361.9191382386422" r="3" fill="#0f3d28"></circle><circle cx="643.3488327830014" cy="811.4227876811252" r="4" fill="#99e6c3"></circle><circle cx="412.8303417178176" cy="633.1899503037183" r="5" fill="#05140d"></circle><circle cx="493.7305606747458" cy="352.7063630666611" r="3" fill="#0f3d28"></circle><circle cx="602.0205343212581" cy="497.1778552317511" r="1" fill="#0f3d28"></circle><circle cx="586.7901565254513" cy="302.2320389630513" r="2" fill="#248f5e"></circle><circle cx="250.70901796844547" cy="171.8722808080633" r="3" fill="#99e6c3"></circle><circle cx="348.24282448804536" cy="309.74460867330527" r="1" fill="#47d193"></circle><circle cx="472.59402220072144" cy="244.8608249289246" r="5" fill="#2eb879"></circle><circle cx="758.1012449741327" cy="499.81993891542504" r="3" fill="#47d193"></circle><circle cx="482.7238262364458" cy="269.56161336115133" r="5" fill="#248f5e"></circle><circle cx="547.4770463174169" cy="251.53348537408243" r="5" fill="#47d193"></circle><circle cx="482.21123576729696" cy="369.1158476810226" r="3" fill="#196643"></circle><circle cx="352.3296334105695" cy="485.62670257609557" r="5" fill="#0f3d28"></circle><circle cx="442.7877016256011" cy="499.6008312102279" r="5" fill="#1c1c1c"></circle><circle cx="529.0507028661478" cy="721.653476366857" r="2" fill="#196643"></circle><circle cx="559.9836800630867" cy="566.5876879610977" r="2" fill="#1c1c1c"></circle><circle cx="476.6507001968215" cy="774.0484180958786" r="4" fill="#47d193"></circle><circle cx="261.8979021104499" cy="462.7481059369303" r="2" fill="#47d193"></circle><circle cx="452.12002802877583" cy="527.6861583127966" r="3" fill="#1c1c1c"></circle><circle cx="577.9373840003637" cy="664.2744450987763" r="5" fill="#0f3d28"></circle><circle cx="329.3226250247517" cy="548.3269993270283" r="3" fill="#196643"></circle><circle cx="507.6023856701589" cy="519.9718607205496" r="5" fill="#1c1c1c"></circle><circle cx="382.8851762309518" cy="495.9232716395364" r="4" fill="#0f3d28"></circle><circle cx="403.698037406237" cy="528.7543811589211" r="5" fill="#05140d"></circle><circle cx="702.2825654981475" cy="385.36684343998513" r="4" fill="#248f5e"></circle><circle cx="490.6024547097743" cy="409.45429809244945" r="4" fill="#05140d"></circle><circle cx="408.35608233847006" cy="861.5034438884306" r="1" fill="#99e6c3"></circle><circle cx="363.99922203998614" cy="664.4336961762481" r="2" fill="#2eb879"></circle><circle cx="411.61462710252374" cy="370.60270000962873" r="4" fill="#05140d"></circle><circle cx="652.499223283835" cy="590.8177238610732" r="5" fill="#196643"></circle><circle cx="439.6746843192181" cy="533.9891482368578" r="1" fill="#1c1c1c"></circle><circle cx="430.7809750302166" cy="612.5453156627634" r="1" fill="#0f3d28"></circle><circle cx="491.5061465454636" cy="537.7355132838004" r="4" fill="#05140d"></circle><circle cx="344.3283112071598" cy="613.6849094148516" r="1" fill="#0f3d28"></circle><circle cx="256.0345382534005" cy="828.0507422707019" r="4" fill="#99e6c3"></circle><circle cx="430.5177854946976" cy="566.0607438545802" r="5" fill="#1c1c1c"></circle><circle cx="761.7137135059174" cy="517.5260579181232" r="4" fill="#47d193"></circle><circle cx="648.7282769585079" cy="438.5425754118031" r="5" fill="#196643"></circle><circle cx="498.65111508867375" cy="631.9860422402353" r="3" fill="#05140d"></circle><circle cx="466.8163007759541" cy="572.6413796877462" r="1" fill="#1c1c1c"></circle><circle cx="351.15644041042935" cy="378.25377721462064" r="2" fill="#196643"></circle><circle cx="436.0077885496099" cy="331.6348925926684" r="5" fill="#196643"></circle><circle cx="516.1037550307474" cy="575.0630635260856" r="2" fill="#1c1c1c"></circle><circle cx="330.19351346522205" cy="363.0297409309668" r="3" fill="#248f5e"></circle><circle cx="433.26419239931164" cy="467.8463433414737" r="5" fill="#1c1c1c"></circle><circle cx="717.574157368505" cy="407.0285588890278" r="5" fill="#248f5e"></circle><circle cx="451.4748203619442" cy="583.50595365633" r="1" fill="#05140d"></circle><circle cx="468.5023107043195" cy="374.888368081527" r="5" fill="#0f3d28"></circle><circle cx="614.8804343137557" cy="644.8494848036612" r="1" fill="#196643"></circle><circle cx="786.4867209046198" cy="542.0646339749287" r="3" fill="#47d193"></circle><circle cx="399.4974611045147" cy="275.7984597133519" r="1" fill="#47d193"></circle><circle cx="567.2570410670642" cy="409.1310468714457" r="3" fill="#05140d"></circle><circle cx="534.8084700745865" cy="757.1886801174458" r="2" fill="#47d193"></circle><circle cx="626.2918331445578" cy="483.2377398197182" r="5" fill="#0f3d28"></circle><circle cx="494.5629297130467" cy="674.8380036613385" r="2" fill="#196643"></circle><circle cx="688.6138112203969" cy="279.48347170742903" r="2" fill="#47d193"></circle><circle cx="588.9149807824824" cy="315.6390895081755" r="4" fill="#248f5e"></circle><circle cx="225.94531650606405" cy="550.4921806213617" r="2" fill="#47d193"></circle><circle cx="453.466890098026" cy="233.76956851925428" r="3" fill="#47d193"></circle><circle cx="545.1604874980025" cy="430.7714987963717" r="3" fill="#05140d"></circle><circle cx="364.24940541143354" cy="536.96470718548" r="3" fill="#0f3d28"></circle><circle cx="633.5924683918231" cy="614.0618418911836" r="1" fill="#196643"></circle><circle cx="563.0997791171961" cy="446.5580440066856" r="5" fill="#05140d"></circle><circle cx="340.87958258234323" cy="587.611721752723" r="4" fill="#248f5e"></circle><circle cx="528.1661869385487" cy="387.88592379885375" r="2" fill="#05140d"></circle><circle cx="636.5291985710386" cy="488.289340400829" r="5" fill="#0f3d28"></circle><circle cx="557.6097090879238" cy="540.1643516627048" r="2" fill="#1c1c1c"></circle><circle cx="614.5023558116246" cy="584.3387183198155" r="5" fill="#05140d"></circle><circle cx="660.2489274473945" cy="317.6913868520604" r="3" fill="#47d193"></circle><circle cx="635.698989534174" cy="582.9810890354156" r="3" fill="#196643"></circle><circle cx="457.23615287882524" cy="393.6132035668088" r="4" fill="#05140d"></circle><circle cx="440.55965071949544" cy="434.6796368449715" r="2" fill="#05140d"></circle><circle cx="651.0383228018989" cy="641.6088917682318" r="2" fill="#2eb879"></circle><circle cx="563.4471139347098" cy="473.593442875574" r="2" fill="#1c1c1c"></circle><circle cx="787.8156488061607" cy="801.315588135112" r="2" fill="#99e6c3"></circle><circle cx="344.5485719646206" cy="659.4717351116041" r="4" fill="#248f5e"></circle><circle cx="567.8177437696744" cy="315.60917715528524" r="4" fill="#248f5e"></circle><circle cx="677.0026070940894" cy="583.9761772315028" r="3" fill="#196643"></circle><circle cx="355.8287583471148" cy="667.5403081721687" r="5" fill="#248f5e"></circle><circle cx="407.4537163514642" cy="410.1787166782616" r="3" fill="#0f3d28"></circle><circle cx="493.9799477242391" cy="465.4709782676448" r="3" fill="#1c1c1c"></circle><circle cx="549.708957522057" cy="296.5164982868714" r="5" fill="#248f5e"></circle><circle cx="547.6835839150868" cy="601.3964351780526" r="2" fill="#0f3d28"></circle><circle cx="539.868843035277" cy="401.45327441447876" r="3" fill="#05140d"></circle><circle cx="244.90637127517422" cy="490.2360703921152" r="5" fill="#2eb879"></circle><circle cx="332.8194185659909" cy="520.6896120521224" r="3" fill="#0f3d28"></circle><circle cx="511.9035665614729" cy="264.0960237907142" r="5" fill="#196643"></circle><circle cx="508.1941907300626" cy="426.68614795496944" r="3" fill="#1c1c1c"></circle><circle cx="679.1651943047228" cy="498.73081158351016" r="1" fill="#196643"></circle><circle cx="457.74057759121314" cy="568.5385807672843" r="2" fill="#05140d"></circle><circle cx="212.36141765385486" cy="695.2693263628739" r="5" fill="#99e6c3"></circle><circle cx="559.4014775502848" cy="714.9791516193889" r="5" fill="#248f5e"></circle><circle cx="686.7126989038129" cy="427.994389887059" r="3" fill="#2eb879"></circle><circle cx="429.7309295250425" cy="682.0307839507307" r="5" fill="#196643"></circle><circle cx="464.2371106803223" cy="675.4333926517672" r="5" fill="#0f3d28"></circle><circle cx="368.91930076879146" cy="371.3606254598172" r="4" fill="#196643"></circle><circle cx="503.9873531731275" cy="516.0159914704728" r="1" fill="#1c1c1c"></circle><circle cx="167.68540339282833" cy="618.2805001387075" r="3" fill="#99e6c3"></circle><circle cx="560.6759920377574" cy="624.0820300268713" r="2" fill="#0f3d28"></circle><circle cx="356.23115549063385" cy="839.9217476296513" r="2" fill="#99e6c3"></circle><circle cx="306.861207627769" cy="719.31133068875" r="2" fill="#47d193"></circle><circle cx="477.5697055294776" cy="609.8254998509841" r="2" fill="#05140d"></circle><circle cx="403.5497139875362" cy="627.2883352622237" r="5" fill="#0f3d28"></circle><circle cx="574.0409972827939" cy="707.5327685191477" r="5" fill="#248f5e"></circle><circle cx="303.1479513511741" cy="294.76101501282926" r="1" fill="#47d193"></circle><circle cx="736.2345833167166" cy="500.76659631533374" r="4" fill="#2eb879"></circle><circle cx="607.6004417814141" cy="459.7472531001297" r="4" fill="#05140d"></circle><circle cx="476.1307796429482" cy="658.269575415383" r="1" fill="#196643"></circle><circle cx="542.3210413116475" cy="329.5288606467035" r="4" fill="#196643"></circle><circle cx="521.8513256293242" cy="679.5435955561327" r="2" fill="#0f3d28"></circle><circle cx="376.49425632578937" cy="634.5014617212887" r="2" fill="#196643"></circle><circle cx="227.5526992862729" cy="317.5527694784242" r="5" fill="#99e6c3"></circle><circle cx="231.17390510586245" cy="776.6817097079188" r="3" fill="#99e6c3"></circle><circle cx="493.5583379957573" cy="608.4171815721801" r="2" fill="#05140d"></circle><circle cx="369.4770288298305" cy="622.7013826661191" r="4" fill="#196643"></circle><circle cx="451.36075368575393" cy="331.2697187318012" r="5" fill="#196643"></circle><circle cx="223.65380429654965" cy="522.3540591157466" r="2" fill="#47d193"></circle><circle cx="706.5479022329187" cy="635.5144251434098" r="3" fill="#47d193"></circle><circle cx="561.9070211713009" cy="408.8694604175225" r="5" fill="#1c1c1c"></circle><circle cx="471.7544418530456" cy="477.36271233114894" r="3" fill="#05140d"></circle><circle cx="307.52283699342524" cy="456.0033106560107" r="5" fill="#196643"></circle><circle cx="306.61264175943535" cy="332.2818453773624" r="4" fill="#47d193"></circle><circle cx="499.7781965648177" cy="281.20658863943993" r="1" fill="#248f5e"></circle><circle cx="565.0336324144954" cy="649.9712535795703" r="1" fill="#196643"></circle><circle cx="367.63576064950854" cy="577.9515067008533" r="4" fill="#196643"></circle><circle cx="444.9807256169404" cy="476.52698685478794" r="4" fill="#1c1c1c"></circle><circle cx="363.3495926586083" cy="590.8457970099345" r="2" fill="#196643"></circle><circle cx="532.6084465807857" cy="708.3996467798297" r="2" fill="#196643"></circle><circle cx="241.85731502466024" cy="229.96000660266424" r="1" fill="#99e6c3"></circle><circle cx="649.4609287949361" cy="326.4316876256774" r="3" fill="#2eb879"></circle><circle cx="782.817382581722" cy="281.8121792985021" r="5" fill="#99e6c3"></circle><circle cx="442.9409761736086" cy="588.2420195352013" r="2" fill="#05140d"></circle><circle cx="601.2759738501945" cy="356.3648537570904" r="1" fill="#196643"></circle><circle cx="704.9594908076186" cy="287.89917590175673" r="2" fill="#47d193"></circle><circle cx="513.1800589508448" cy="811.5691717895688" r="3" fill="#47d193"></circle><circle cx="226.50675335011533" cy="403.87065264102444" r="3" fill="#47d193"></circle><circle cx="532.7559382041867" cy="132.39520508650094" r="5" fill="#99e6c3"></circle><circle cx="604.7412237402194" cy="616.2133746211122" r="4" fill="#0f3d28"></circle><circle cx="539.8463018991703" cy="509.47572045259994" r="2" fill="#1c1c1c"></circle><circle cx="318.4361404586732" cy="658.7955117782449" r="2" fill="#47d193"></circle><circle cx="574.137091418065" cy="322.51249348636736" r="1" fill="#196643"></circle><circle cx="483.3310670976944" cy="346.66914342948" r="2" fill="#0f3d28"></circle><circle cx="264.0597216110448" cy="557.0934207694562" r="2" fill="#47d193"></circle><circle cx="554.6388884810066" cy="470.19699648457066" r="3" fill="#1c1c1c"></circle><circle cx="336.8326025198769" cy="543.788644585336" r="1" fill="#196643"></circle><circle cx="519.6158644483312" cy="500.28384277384873" r="5" fill="#05140d"></circle><circle cx="341.39409705962476" cy="269.3333436551176" r="3" fill="#47d193"></circle><circle cx="368.7619301173029" cy="360.0495039108197" r="1" fill="#0f3d28"></circle><circle cx="630.9976016673633" cy="519.2092482604969" r="2" fill="#0f3d28"></circle><circle cx="424.48929228798704" cy="412.1282439079866" r="1" fill="#05140d"></circle><circle cx="640.6094897379695" cy="677.4651534981351" r="4" fill="#248f5e"></circle><circle cx="332.62394718794906" cy="372.241824935601" r="5" fill="#248f5e"></circle><circle cx="567.7039321351233" cy="348.5893841172035" r="2" fill="#196643"></circle><circle cx="514.6354221652624" cy="475.38706061968594" r="3" fill="#05140d"></circle><circle cx="535.7453761991974" cy="690.328500222915" r="3" fill="#196643"></circle><circle cx="448.27255489070205" cy="316.545670172933" r="3" fill="#196643"></circle><circle cx="811.1398951624857" cy="443.51709467113307" r="4" fill="#47d193"></circle><circle cx="695.8423897729756" cy="546.949929289471" r="5" fill="#248f5e"></circle><circle cx="570.562231071584" cy="644.2027663233329" r="1" fill="#196643"></circle><circle cx="686.6025130871782" cy="409.9012325335345" r="4" fill="#248f5e"></circle><circle cx="572.4115750825346" cy="475.16728989710833" r="1" fill="#1c1c1c"></circle><circle cx="688.0889042754206" cy="266.90830153088683" r="3" fill="#99e6c3"></circle><circle cx="305.7857245429012" cy="439.03928765474126" r="3" fill="#248f5e"></circle><circle cx="539.2834685848632" cy="444.6358554211921" r="2" fill="#1c1c1c"></circle><circle cx="628.6652793606984" cy="361.7572362940439" r="3" fill="#196643"></circle><circle cx="746.1858044675676" cy="412.710091473256" r="2" fill="#47d193"></circle><circle cx="626.1634792005026" cy="717.2134064171406" r="3" fill="#47d193"></circle><circle cx="334.20263529738406" cy="559.5579135226168" r="3" fill="#196643"></circle><circle cx="485.63355387860673" cy="396.1824732148117" r="4" fill="#05140d"></circle><circle cx="552.2877704786849" cy="574.0331262832531" r="1" fill="#05140d"></circle><circle cx="521.811047838145" cy="404.58270095733803" r="5" fill="#05140d"></circle><circle cx="261.21099648512376" cy="778.8494387785166" r="3" fill="#99e6c3"></circle><circle cx="565.2032562152572" cy="189.38959595711583" r="2" fill="#99e6c3"></circle><circle cx="691.9293099867809" cy="259.3273236735098" r="1" fill="#47d193"></circle><circle cx="269.86392291988193" cy="485.5154488703631" r="2" fill="#248f5e"></circle><circle cx="493.0559239912805" cy="362.82242392717575" r="4" fill="#0f3d28"></circle><circle cx="452.20483729601546" cy="367.06988824124244" r="4" fill="#0f3d28"></circle><circle cx="398.1531526303693" cy="601.8626112457479" r="1" fill="#05140d"></circle><circle cx="744.3864652188655" cy="429.327684582045" r="5" fill="#47d193"></circle><circle cx="577.8177909705017" cy="307.7585602571075" r="5" fill="#248f5e"></circle><circle cx="332.6397167007191" cy="96.01427577499123" r="1" fill="#99e6c3"></circle><circle cx="564.7755752320255" cy="344.56231018231387" r="1" fill="#196643"></circle><circle cx="459.8276239421145" cy="621.6717053035704" r="2" fill="#0f3d28"></circle><circle cx="768.3012194125256" cy="452.43361628804826" r="5" fill="#47d193"></circle><circle cx="449.17857603462323" cy="621.2883009469128" r="1" fill="#0f3d28"></circle><circle cx="476.9805001089922" cy="393.6484241051581" r="2" fill="#05140d"></circle><circle cx="549.4684572388693" cy="576.9264005594957" r="4" fill="#05140d"></circle><circle cx="601.3123144155419" cy="556.5814221283989" r="1" fill="#05140d"></circle><circle cx="414.63513719479505" cy="659.3203398379488" r="3" fill="#196643"></circle><circle cx="422.529973116587" cy="462.3799096964362" r="5" fill="#05140d"></circle><circle cx="660.4982037986713" cy="535.5023866049397" r="1" fill="#196643"></circle><circle cx="359.60665328432293" cy="686.2834135507777" r="5" fill="#2eb879"></circle><circle cx="421.33593574572" cy="563.9048491906693" r="2" fill="#05140d"></circle><circle cx="544.5233509843138" cy="695.5197617163893" r="2" fill="#248f5e"></circle><circle cx="520.5876616102859" cy="702.2113878806781" r="4" fill="#248f5e"></circle><circle cx="648.2908642698821" cy="438.84873584106464" r="5" fill="#196643"></circle><circle cx="399.53229037311024" cy="679.9489351795407" r="4" fill="#248f5e"></circle><circle cx="552.8203243801287" cy="585.0934243504981" r="5" fill="#05140d"></circle><circle cx="424.66029859402363" cy="545.0409824888205" r="2" fill="#05140d"></circle><circle cx="536.1596541734403" cy="630.9060847833232" r="1" fill="#05140d"></circle><circle cx="460.50998318832495" cy="714.0283789657358" r="4" fill="#248f5e"></circle><circle cx="603.4551693754829" cy="479.31317696494375" r="4" fill="#0f3d28"></circle><circle cx="591.851174659794" cy="398.2190414366622" r="3" fill="#05140d"></circle><circle cx="229.78407617198644" cy="222.028590237412" r="3" fill="#99e6c3"></circle><circle cx="644.0214842098965" cy="522.8894858910242" r="2" fill="#0f3d28"></circle><circle cx="459.6339333510265" cy="341.8976277160018" r="4" fill="#196643"></circle><circle cx="487.68265801234077" cy="447.64409406755897" r="2" fill="#1c1c1c"></circle><circle cx="458.06478723647194" cy="715.5999403834235" r="5" fill="#196643"></circle><circle cx="510.80221733548245" cy="622.4944965407153" r="2" fill="#0f3d28"></circle><circle cx="410.27303097553073" cy="472.41546979250745" r="1" fill="#05140d"></circle><circle cx="718.8138722408813" cy="666.3608294245157" r="1" fill="#2eb879"></circle><circle cx="381.08495336223336" cy="234.95092956820554" r="4" fill="#47d193"></circle><circle cx="345.99401546802176" cy="626.8611093537455" r="1" fill="#196643"></circle><circle cx="551.2941787345453" cy="504.2517167919519" r="4" fill="#1c1c1c"></circle><circle cx="529.8415031821061" cy="222.55729773736516" r="4" fill="#47d193"></circle><circle cx="494.62022154477773" cy="668.229631724819" r="5" fill="#196643"></circle><circle cx="545.392702756169" cy="396.1652152365899" r="5" fill="#05140d"></circle><circle cx="543.3020360078237" cy="445.6205270071692" r="3" fill="#1c1c1c"></circle><circle cx="509.2429172316729" cy="472.6143415773694" r="4" fill="#1c1c1c"></circle><circle cx="321.58053114053143" cy="546.7081675027786" r="5" fill="#196643"></circle><circle cx="582.7265909857055" cy="844.5670811318903" r="1" fill="#99e6c3"></circle><circle cx="544.7290064762304" cy="364.241704052961" r="2" fill="#0f3d28"></circle></svg>