<svg width="1000" height="1000" id="mySVG"><circle cx="672.5653524008173" cy="445.9755153571083" r="5" fill="#196643"></circle><circle cx="532.178888268166" cy="538.1521725074931" r="3" fill="#1c1c1c"></circle><circle cx="433.00018774089926" cy="531.942475126092" r="4" fill="#1c1c1c"></circle><circle cx="545.5464225797739" cy="616.7997598358327" r="2" fill="#0f3d28"></circle><circle cx="511.90752819375393" cy="417.8019580433273" r="3" fill="#05140d"></circle><circle cx="700.7525581622979" cy="345.7998846406033" r="4" fill="#47d193"></circle><circle cx="433.52451247378985" cy="423.6541106278911" r="4" fill="#05140d"></circle><circle cx="574.5249667091989" cy="443.12173197015153" r="5" fill="#0f3d28"></circle><circle cx="512.6438772434959" cy="548.4774431414937" r="5" fill="#1c1c1c"></circle><circle cx="445.2538072308322" cy="597.123377605508" r="3" fill="#05140d"></circle><circle cx="348.20178449912896" cy="221.46775579975707" r="4" fill="#47d193"></circle><circle cx="479.08921463230354" cy="430.9791582754886" r="3" fill="#1c1c1c"></circle><circle cx="243.76810275637376" cy="407.86485086710667" r="1" fill="#47d193"></circle><circle cx="517.5841209180567" cy="525.1687120730144" r="3" fill="#05140d"></circle><circle cx="422.468334431658" cy="555.5933802834169" r="1" fill="#05140d"></circle><circle cx="539.6164012123161" cy="548.510558377802" r="4" fill="#1c1c1c"></circle><circle cx="632.468489619332" cy="598.1564762907625" r="2" fill="#196643"></circle><circle cx="419.4434612494521" cy="433.09077287013577" r="2" fill="#1c1c1c"></circle><circle cx="513.2095888277014" cy="589.5731059354747" r="1" fill="#05140d"></circle><circle cx="628.4574658137471" cy="524.1138026109963" r="5" fill="#0f3d28"></circle><circle cx="490.9678749359655" cy="591.3776418169468" r="2" fill="#1c1c1c"></circle><circle cx="431.02266357829416" cy="682.0595099643754" r="3" fill="#196643"></circle><circle cx="545.5524295606867" cy="573.7390353683941" r="5" fill="#05140d"></circle><circle cx="574.0505355723704" cy="484.50132576652527" r="1" fill="#1c1c1c"></circle><circle cx="617.184384246223" cy="546.2900479159189" r="5" fill="#0f3d28"></circle><circle cx="674.2230283784058" cy="338.62255052986893" r="2" fill="#2eb879"></circle><circle cx="384.93768212848465" cy="425.4851557378308" r="3" fill="#0f3d28"></circle><circle cx="455.8440464981504" cy="409.10628780921076" r="1" fill="#05140d"></circle><circle cx="430.00559396441287" cy="396.9845004130763" r="4" fill="#0f3d28"></circle><circle cx="568.8379539890652" cy="535.7383489251491" r="4" fill="#05140d"></circle><circle cx="476.711543695708" cy="306.7727676608636" r="3" fill="#196643"></circle><circle cx="531.119137753347" cy="571.1847588964926" r="4" fill="#1c1c1c"></circle><circle cx="413.5417150109927" cy="491.405491646775" r="3" fill="#05140d"></circle><circle cx="723.6819313733138" cy="504.5431394848509" r="1" fill="#196643"></circle><circle cx="553.9583562929051" cy="627.6336045899147" r="5" fill="#0f3d28"></circle><circle cx="317.5144493387704" cy="559.3987753490361" r="4" fill="#0f3d28"></circle><circle cx="585.0424999324874" cy="435.0054329415413" r="1" fill="#05140d"></circle><circle cx="466.67007975427344" cy="579.6036325157579" r="5" fill="#05140d"></circle><circle cx="503.8103047552186" cy="330.9437449709177" r="4" fill="#196643"></circle><circle cx="681.2943609378974" cy="479.6797975261926" r="5" fill="#0f3d28"></circle><circle cx="605.1539745387422" cy="598.213266730908" r="3" fill="#0f3d28"></circle><circle cx="552.4244699899133" cy="417.5284032672302" r="1" fill="#05140d"></circle><circle cx="413.3832577590567" cy="677.1438503224715" r="4" fill="#196643"></circle><circle cx="462.55953254287107" cy="613.2693054491126" r="3" fill="#05140d"></circle><circle cx="521.9298200885552" cy="539.3176191259015" r="2" fill="#1c1c1c"></circle><circle cx="464.97593431625336" cy="472.82462318578695" r="3" fill="#05140d"></circle><circle cx="420.8055351399199" cy="542.85470705848" r="3" fill="#05140d"></circle><circle cx="415.2102299089045" cy="465.7286969880246" r="5" fill="#05140d"></circle><circle cx="577.9459651738197" cy="596.7896853199022" r="2" fill="#0f3d28"></circle><circle cx="547.6244796811038" cy="254.95682699051602" r="4" fill="#47d193"></circle><circle cx="374.59169092429704" cy="441.94032988629357" r="5" fill="#0f3d28"></circle><circle cx="572.091088421492" cy="512.142038303037" r="3" fill="#05140d"></circle><circle cx="584.6727844613624" cy="486.35632460223536" r="1" fill="#05140d"></circle><circle cx="454.88058084221194" cy="429.57802880832685" r="1" fill="#05140d"></circle><circle cx="433.57768320645516" cy="417.93220160081216" r="3" fill="#05140d"></circle><circle cx="477.8009723274015" cy="494.42096419040985" r="3" fill="#05140d"></circle><circle cx="453.2506948249604" cy="631.414735132869" r="4" fill="#05140d"></circle><circle cx="452.93708348014593" cy="578.0733062199706" r="4" fill="#05140d"></circle><circle cx="523.0499608101032" cy="598.3277238278862" r="5" fill="#0f3d28"></circle><circle cx="523.3015479059924" cy="463.9336939558989" r="1" fill="#1c1c1c"></circle><circle cx="449.346029565631" cy="429.5405935942191" r="5" fill="#05140d"></circle><circle cx="438.6287965710097" cy="498.07114541252616" r="5" fill="#1c1c1c"></circle><circle cx="416.8487393748277" cy="495.8883857479006" r="3" fill="#0f3d28"></circle><circle cx="450.27878743429676" cy="598.4208280934366" r="4" fill="#05140d"></circle><circle cx="386.1460629689418" cy="480.31343442508324" r="4" fill="#1c1c1c"></circle><circle cx="396.93253333712494" cy="583.7036430445337" r="2" fill="#0f3d28"></circle><circle cx="388.9769699614468" cy="516.2756205257274" r="5" fill="#05140d"></circle><circle cx="563.2578516086767" cy="337.39664939238185" r="1" fill="#196643"></circle><circle cx="512.5349403265047" cy="230.86768627010105" r="2" fill="#47d193"></circle><circle cx="523.9409879689582" cy="549.9729771751781" r="5" fill="#1c1c1c"></circle><circle cx="466.0705605305661" cy="470.3999032093297" r="3" fill="#1c1c1c"></circle><circle cx="586.3481741992753" cy="393.86829299090954" r="4" fill="#05140d"></circle><circle cx="659.5502916847105" cy="522.6411135353972" r="2" fill="#196643"></circle><circle cx="476.3789865505174" cy="623.8464475211866" r="1" fill="#196643"></circle><circle cx="487.2460913347825" cy="345.8363335955752" r="3" fill="#0f3d28"></circle><circle cx="426.61584956528975" cy="364.7049994299829" r="4" fill="#0f3d28"></circle><circle cx="523.5704379841163" cy="381.80031808299645" r="5" fill="#0f3d28"></circle><circle cx="412.0837589875838" cy="676.6683834827927" r="5" fill="#196643"></circle><circle cx="589.8526638256827" cy="502.60698982808765" r="5" fill="#05140d"></circle><circle cx="330.72429403719843" cy="497.56391974318825" r="3" fill="#196643"></circle><circle cx="638.2337966107322" cy="728.2395391350701" r="2" fill="#47d193"></circle><circle cx="521.6918073794254" cy="494.22182033829165" r="5" fill="#1c1c1c"></circle><circle cx="318.15041443855534" cy="548.7222029601545" r="3" fill="#0f3d28"></circle><circle cx="477.7919824020339" cy="465.2857775565159" r="4" fill="#1c1c1c"></circle><circle cx="571.9333180446868" cy="365.07562288519216" r="2" fill="#0f3d28"></circle><circle cx="398.06630658688783" cy="381.598966220133" r="1" fill="#0f3d28"></circle><circle cx="484.01932279606666" cy="555.6876234697958" r="5" fill="#1c1c1c"></circle><circle cx="561.495587036449" cy="479.6589944199905" r="2" fill="#1c1c1c"></circle><circle cx="484.5892940705494" cy="579.7076149055619" r="4" fill="#05140d"></circle><circle cx="637.3733423665229" cy="449.618956860423" r="1" fill="#0f3d28"></circle><circle cx="551.8783442555361" cy="665.3175250894814" r="4" fill="#0f3d28"></circle><circle cx="475.47212519700315" cy="420.246408215041" r="1" fill="#05140d"></circle><circle cx="506.5207134943863" cy="601.0367566317005" r="5" fill="#05140d"></circle><circle cx="621.8933833188587" cy="461.11316744363927" r="1" fill="#0f3d28"></circle><circle cx="368.3526887955237" cy="474.68559859939563" r="4" fill="#0f3d28"></circle><circle cx="623.4728664010602" cy="471.72148166012" r="1" fill="#0f3d28"></circle><circle cx="422.638874346094" cy="611.3626378414209" r="3" fill="#0f3d28"></circle><circle cx="628.3368914312495" cy="272.73585890005796" r="3" fill="#2eb879"></circle><circle cx="617.698146688586" cy="646.4759790080644" r="3" fill="#196643"></circle><circle cx="627.9127837553742" cy="532.9872849412352" r="5" fill="#196643"></circle><circle cx="288.28280160960924" cy="499.4467940109008" r="3" fill="#248f5e"></circle><circle cx="586.210509158869" cy="503.777181142294" r="2" fill="#05140d"></circle><circle cx="574.499629916854" cy="406.0997449685717" r="5" fill="#05140d"></circle><circle cx="517.5057137664314" cy="531.9692931270337" r="4" fill="#1c1c1c"></circle><circle cx="345.89093514876384" cy="467.21824659016187" r="1" fill="#0f3d28"></circle><circle cx="634.8481891484174" cy="543.6034480651263" r="4" fill="#05140d"></circle><circle cx="556.817400171279" cy="537.7777191035867" r="1" fill="#05140d"></circle><circle cx="549.4410526872913" cy="343.0959557768048" r="5" fill="#0f3d28"></circle><circle cx="400.8120812802281" cy="733.0833005551124" r="5" fill="#47d193"></circle><circle cx="366.7067285148156" cy="324.68761552433364" r="4" fill="#248f5e"></circle><circle cx="361.0489831951751" cy="372.07699290664925" r="3" fill="#196643"></circle><circle cx="446.3790688173793" cy="465.94408132228807" r="5" fill="#1c1c1c"></circle><circle cx="474.0758236985606" cy="658.3818791325655" r="5" fill="#196643"></circle><circle cx="611.1569724386289" cy="390.9668577402767" r="1" fill="#0f3d28"></circle><circle cx="464.16227354050534" cy="430.19748938951955" r="3" fill="#1c1c1c"></circle><circle cx="469.52246250776153" cy="519.876641016942" r="2" fill="#05140d"></circle><circle cx="385.00233449471" cy="611.7408167176116" r="3" fill="#196643"></circle><circle cx="553.0070315402892" cy="504.26378715799814" r="1" fill="#1c1c1c"></circle><circle cx="464.99007659411217" cy="593.0017485308656" r="3" fill="#05140d"></circle><circle cx="409.68483051988886" cy="557.8286992939939" r="4" fill="#05140d"></circle><circle cx="458.4792062460479" cy="748.0180853581088" r="3" fill="#47d193"></circle><circle cx="587.4416948703362" cy="395.2287082672566" r="3" fill="#0f3d28"></circle><circle cx="488.79308100377807" cy="615.7894058260397" r="5" fill="#05140d"></circle><circle cx="616.1528409606987" cy="532.9843348006559" r="1" fill="#0f3d28"></circle><circle cx="366.72010132939954" cy="539.7610330383225" r="2" fill="#0f3d28"></circle><circle cx="262.2060650510528" cy="601.4405073960595" r="2" fill="#47d193"></circle><circle cx="389.3927283275224" cy="498.72527422123244" r="1" fill="#0f3d28"></circle><circle cx="625.5992320442689" cy="248.00228837572496" r="3" fill="#47d193"></circle><circle cx="577.9595687209163" cy="496.7143344451486" r="5" fill="#1c1c1c"></circle><circle cx="622.8289865129566" cy="486.8268668737552" r="5" fill="#0f3d28"></circle><circle cx="473.47804671143723" cy="431.6711372842789" r="3" fill="#1c1c1c"></circle><circle cx="435.31133156241935" cy="543.3216439164256" r="3" fill="#1c1c1c"></circle><circle cx="548.6683549309801" cy="428.6325667308322" r="4" fill="#05140d"></circle><circle cx="464.16734145859033" cy="463.0432171309865" r="4" fill="#1c1c1c"></circle><circle cx="412.8726464242968" cy="357.1610558739284" r="4" fill="#248f5e"></circle><circle cx="459.96600959985983" cy="370.1133023293214" r="1" fill="#0f3d28"></circle><circle cx="481.2425407590088" cy="531.7562615116317" r="4" fill="#1c1c1c"></circle><circle cx="569.3374736967091" cy="426.36291882536375" r="4" fill="#0f3d28"></circle><circle cx="464.16006246812947" cy="550.6963242798822" r="2" fill="#1c1c1c"></circle><circle cx="518.8860855699569" cy="550.6337270103218" r="4" fill="#1c1c1c"></circle><circle cx="406.8822570852755" cy="409.52444641368527" r="4" fill="#0f3d28"></circle><circle cx="456.1354778636608" cy="462.5636499103563" r="5" fill="#05140d"></circle><circle cx="350.5709284133467" cy="592.5730028467505" r="3" fill="#196643"></circle><circle cx="393.69450239341813" cy="625.3417637255325" r="2" fill="#196643"></circle><circle cx="587.0126394969059" cy="495.2932742793163" r="5" fill="#05140d"></circle><circle cx="465.42176926711863" cy="550.742997455461" r="4" fill="#1c1c1c"></circle><circle cx="355.9881917994526" cy="498.94264935541213" r="2" fill="#196643"></circle><circle cx="622.1887889506476" cy="474.2736485394944" r="2" fill="#0f3d28"></circle><circle cx="601.6586146090622" cy="623.3789684932601" r="3" fill="#0f3d28"></circle><circle cx="486.2891547641252" cy="448.10922348418467" r="5" fill="#1c1c1c"></circle><circle cx="486.611268066814" cy="435.07208925762967" r="2" fill="#1c1c1c"></circle><circle cx="510.36255839206285" cy="558.9151650947028" r="5" fill="#1c1c1c"></circle><circle cx="396.5759143957916" cy="392.5639377397502" r="2" fill="#0f3d28"></circle><circle cx="817.4443437817255" cy="553.9735663412623" r="2" fill="#99e6c3"></circle><circle cx="433.06518160894" cy="427.42982134749803" r="3" fill="#05140d"></circle><circle cx="431.7787975432022" cy="646.3362090220505" r="5" fill="#196643"></circle><circle cx="447.53721269823814" cy="572.3989284865995" r="3" fill="#05140d"></circle><circle cx="523.1069475041187" cy="545.5778433295917" r="4" fill="#1c1c1c"></circle><circle cx="458.6407282834407" cy="510.6780077542836" r="4" fill="#1c1c1c"></circle><circle cx="408.6137269432101" cy="385.03645709114255" r="1" fill="#0f3d28"></circle><circle cx="686.275478027666" cy="719.1206814676993" r="4" fill="#47d193"></circle><circle cx="549.5653599743207" cy="397.6359805976805" r="1" fill="#05140d"></circle><circle cx="575.2396459069877" cy="445.15317445725697" r="2" fill="#05140d"></circle><circle cx="471.70536108660235" cy="564.6345967976811" r="1" fill="#05140d"></circle><circle cx="490.03913838231153" cy="601.3250110147808" r="2" fill="#05140d"></circle><circle cx="653.5798589295197" cy="647.8548876624404" r="5" fill="#248f5e"></circle><circle cx="569.1268193479656" cy="547.4214778574864" r="3" fill="#05140d"></circle><circle cx="467.7024819967235" cy="521.3647794301158" r="4" fill="#05140d"></circle><circle cx="564.9464719803944" cy="722.7406710931239" r="1" fill="#248f5e"></circle><circle cx="805.8708526682855" cy="663.7619583042558" r="3" fill="#99e6c3"></circle><circle cx="514.1310980863442" cy="439.17193728513644" r="2" fill="#1c1c1c"></circle><circle cx="368.32020744479075" cy="521.9432269157016" r="3" fill="#0f3d28"></circle><circle cx="536.1331698242277" cy="386.82085263133604" r="5" fill="#0f3d28"></circle><circle cx="596.7685332452496" cy="413.57818458626207" r="1" fill="#0f3d28"></circle><circle cx="586.6464375043903" cy="481.8892768668511" r="5" fill="#05140d"></circle><circle cx="477.1436817230264" cy="516.014670037766" r="4" fill="#1c1c1c"></circle><circle cx="476.46485289082887" cy="638.5675584033766" r="5" fill="#0f3d28"></circle><circle cx="552.5215818922193" cy="528.7185335365871" r="1" fill="#05140d"></circle><circle cx="532.8300989723913" cy="483.57627091067155" r="4" fill="#05140d"></circle><circle cx="631.0214559835549" cy="298.2433952705472" r="3" fill="#47d193"></circle><circle cx="636.7901995516283" cy="290.42529353032467" r="4" fill="#47d193"></circle><circle cx="473.76522781102636" cy="593.5174249711316" r="5" fill="#05140d"></circle><circle cx="381.7274151933945" cy="327.88024712611605" r="5" fill="#248f5e"></circle><circle cx="397.9566373466847" cy="544.3996130354597" r="5" fill="#05140d"></circle><circle cx="409.3062228151019" cy="375.62279793621" r="4" fill="#05140d"></circle><circle cx="481.7446849798293" cy="582.0276683602025" r="4" fill="#0f3d28"></circle><circle cx="661.644625655317" cy="595.3475516549198" r="5" fill="#196643"></circle><circle cx="531.6468993914489" cy="546.5738357876562" r="5" fill="#1c1c1c"></circle><circle cx="407.66025362219165" cy="634.7954539865102" r="5" fill="#196643"></circle><circle cx="322.2680832172541" cy="332.6783257764064" r="5" fill="#47d193"></circle><circle cx="658.4375327373103" cy="385.8840637000544" r="4" fill="#0f3d28"></circle><circle cx="433.00704000631004" cy="522.4898537631963" r="1" fill="#1c1c1c"></circle><circle cx="433.2075089606044" cy="431.29110055445426" r="2" fill="#05140d"></circle><circle cx="598.0764622767205" cy="672.3861107200105" r="3" fill="#196643"></circle><circle cx="660.0674300261012" cy="302.0368181884762" r="5" fill="#47d193"></circle><circle cx="468.03150130533726" cy="422.7850423808183" r="4" fill="#05140d"></circle><circle cx="667.5648325097798" cy="315.82013818495443" r="2" fill="#47d193"></circle><circle cx="603.5638270899406" cy="497.3044739219601" r="4" fill="#05140d"></circle><circle cx="568.0220802364834" cy="451.8773098841163" r="2" fill="#05140d"></circle><circle cx="639.7384131428171" cy="455.64286900921275" r="3" fill="#0f3d28"></circle><circle cx="333.0736330535767" cy="527.8357703976951" r="2" fill="#196643"></circle><circle cx="584.7453653394317" cy="446.21743657281667" r="4" fill="#1c1c1c"></circle><circle cx="468.17647310287975" cy="586.5890897723859" r="3" fill="#05140d"></circle><circle cx="379.19718002978857" cy="561.8728518935484" r="5" fill="#0f3d28"></circle><circle cx="340.2363865662457" cy="658.1785148235779" r="3" fill="#248f5e"></circle><circle cx="468.7932445396953" cy="431.5825798918937" r="1" fill="#05140d"></circle><circle cx="466.12175705798256" cy="244.8826767232165" r="5" fill="#47d193"></circle><circle cx="498.1854865357769" cy="468.45675877791615" r="1" fill="#05140d"></circle><circle cx="440.0052941376414" cy="474.9657417226832" r="4" fill="#1c1c1c"></circle><circle cx="487.95279249061065" cy="479.512913654567" r="3" fill="#05140d"></circle><circle cx="568.1935344030617" cy="448.2042120298307" r="3" fill="#05140d"></circle><circle cx="555.999443370185" cy="496.46478050469113" r="4" fill="#1c1c1c"></circle><circle cx="631.3377077955091" cy="422.25796124673667" r="2" fill="#0f3d28"></circle><circle cx="470.183778975549" cy="654.9885410021989" r="5" fill="#05140d"></circle><circle cx="573.8234311515674" cy="627.8261587861616" r="5" fill="#0f3d28"></circle><circle cx="206.72670323884427" cy="558.6190125336452" r="5" fill="#47d193"></circle><circle cx="407.3118184359099" cy="405.08491740056496" r="1" fill="#0f3d28"></circle><circle cx="403.1854465487088" cy="568.7123579035118" r="2" fill="#05140d"></circle><circle cx="362.9404203385527" cy="503.02312715573333" r="1" fill="#0f3d28"></circle><circle cx="557.6456758406367" cy="385.4321137090386" r="1" fill="#196643"></circle><circle cx="496.1349601314798" cy="471.96993796287364" r="5" fill="#1c1c1c"></circle><circle cx="162.13163039721667" cy="329.7941675957477" r="1" fill="#99e6c3"></circle><circle cx="518.8435843872574" cy="559.5561492623206" r="3" fill="#05140d"></circle><circle cx="455.64307923346445" cy="399.700526126424" r="4" fill="#05140d"></circle><circle cx="508.0085041289315" cy="502.3096502395199" r="1" fill="#1c1c1c"></circle><circle cx="232.28883970124468" cy="418.44254852176596" r="1" fill="#47d193"></circle><circle cx="453.40354226000125" cy="397.19074775408666" r="4" fill="#05140d"></circle><circle cx="348.82434751757" cy="608.2252653681551" r="2" fill="#196643"></circle><circle cx="498.3954773525307" cy="485.0596696003798" r="3" fill="#1c1c1c"></circle><circle cx="463.0165898443339" cy="601.8721020411217" r="5" fill="#05140d"></circle><circle cx="286.14741559947754" cy="671.1153807631703" r="1" fill="#47d193"></circle><circle cx="584.8188904301696" cy="405.8121397322527" r="3" fill="#05140d"></circle><circle cx="286.4320841147612" cy="450.69860098210626" r="1" fill="#248f5e"></circle><circle cx="579.4752707615633" cy="459.27291138818975" r="2" fill="#0f3d28"></circle><circle cx="621.4631898852924" cy="595.5505658490688" r="1" fill="#05140d"></circle><circle cx="499.69747702108646" cy="409.615817151561" r="2" fill="#05140d"></circle><circle cx="438.36335033031116" cy="608.6918340325009" r="5" fill="#0f3d28"></circle><circle cx="445.47712143004213" cy="594.4866329413582" r="5" fill="#05140d"></circle><circle cx="535.6092297244866" cy="383.4698881822297" r="5" fill="#0f3d28"></circle><circle cx="506.87888391414003" cy="412.71437454236866" r="5" fill="#05140d"></circle><circle cx="603.7400010468918" cy="515.9287349421853" r="5" fill="#05140d"></circle><circle cx="259.3864336934136" cy="292.0387074919416" r="3" fill="#47d193"></circle><circle cx="351.21655658757" cy="421.07513409000734" r="3" fill="#0f3d28"></circle><circle cx="502.3289788297562" cy="576.4459401288244" r="2" fill="#05140d"></circle><circle cx="423.17558627978195" cy="669.5250230505907" r="4" fill="#196643"></circle><circle cx="573.9106699651759" cy="454.87960573177077" r="1" fill="#05140d"></circle><circle cx="466.23009216374817" cy="556.6828466748935" r="3" fill="#1c1c1c"></circle><circle cx="651.7938935697427" cy="510.1920691239179" r="2" fill="#196643"></circle><circle cx="348.22963961031803" cy="590.7925846511721" r="1" fill="#196643"></circle><circle cx="563.7372286681215" cy="392.4486848557426" r="3" fill="#0f3d28"></circle><circle cx="335.985211358656" cy="336.67015092136484" r="2" fill="#248f5e"></circle><circle cx="492.46012445646176" cy="487.3600558528454" r="3" fill="#1c1c1c"></circle><circle cx="443.54857349580635" cy="467.0275807978762" r="2" fill="#05140d"></circle><circle cx="564.4324154358685" cy="451.34418228679823" r="3" fill="#05140d"></circle><circle cx="266.08847491553286" cy="347.2637850955491" r="2" fill="#47d193"></circle><circle cx="568.7497580119432" cy="480.1906232469428" r="1" fill="#1c1c1c"></circle><circle cx="519.9280662946067" cy="556.9226072234791" r="5" fill="#1c1c1c"></circle><circle cx="477.0100434741552" cy="630.8396865969365" r="5" fill="#0f3d28"></circle><circle cx="481.0389299661411" cy="509.96203371626217" r="5" fill="#1c1c1c"></circle><circle cx="502.53926746542913" cy="550.007366634736" r="3" fill="#1c1c1c"></circle><circle cx="207.19028193114946" cy="461.8908591422313" r="2" fill="#47d193"></circle><circle cx="448.65057574498456" cy="556.8108804437682" r="5" fill="#05140d"></circle><circle cx="450.4086043432693" cy="673.7648552082048" r="4" fill="#196643"></circle><circle cx="466.7584317119015" cy="563.3938172461019" r="5" fill="#1c1c1c"></circle><circle cx="395.1783531549809" cy="366.3808343031269" r="3" fill="#196643"></circle><circle cx="361.09742780824956" cy="676.0038439137531" r="2" fill="#248f5e"></circle><circle cx="446.6651661776529" cy="656.2908472559725" r="2" fill="#196643"></circle><circle cx="538.4164154613802" cy="623.0944306291573" r="4" fill="#0f3d28"></circle><circle cx="490.099185219664" cy="444.54324429069123" r="1" fill="#1c1c1c"></circle><circle cx="415.1752685922261" cy="364.27287089900494" r="5" fill="#248f5e"></circle><circle cx="523.6298822482238" cy="430.44780521849475" r="4" fill="#1c1c1c"></circle><circle cx="429.07265658749316" cy="391.3952080001374" r="4" fill="#196643"></circle><circle cx="447.03730584843856" cy="710.4927015426892" r="5" fill="#248f5e"></circle><circle cx="511.91684058865906" cy="290.0284395579931" r="3" fill="#2eb879"></circle><circle cx="232.78878120741416" cy="449.60535077155305" r="4" fill="#2eb879"></circle><circle cx="277.91944199218005" cy="481.1958613114441" r="5" fill="#248f5e"></circle><circle cx="335.5344730322156" cy="578.2386946977045" r="2" fill="#196643"></circle><circle cx="599.2306601403403" cy="653.0610729466898" r="1" fill="#196643"></circle><circle cx="515.8494645583554" cy="548.1866597406299" r="3" fill="#1c1c1c"></circle><circle cx="476.96797926712" cy="567.7811598506229" r="5" fill="#1c1c1c"></circle><circle cx="445.5578721183598" cy="461.1128017622411" r="2" fill="#05140d"></circle><circle cx="579.289143771915" cy="351.3578189502056" r="2" fill="#248f5e"></circle><circle cx="415.495649031268" cy="609.2620597842297" r="5" fill="#0f3d28"></circle><circle cx="462.5872927331134" cy="609.7191268074218" r="1" fill="#05140d"></circle><circle cx="459.76639835463305" cy="404.62865314180124" r="3" fill="#1c1c1c"></circle><circle cx="630.1177040103332" cy="358.7219960319039" r="5" fill="#196643"></circle><circle cx="613.8248250998716" cy="421.1033218488177" r="3" fill="#0f3d28"></circle><circle cx="465.03930905442115" cy="472.9895722942257" r="3" fill="#1c1c1c"></circle><circle cx="435.7987969812767" cy="598.4903764636384" r="4" fill="#05140d"></circle><circle cx="238.30954832118465" cy="579.7486691598324" r="5" fill="#47d193"></circle><circle cx="449.33640940855366" cy="554.8347511405973" r="1" fill="#1c1c1c"></circle><circle cx="594.6078592701806" cy="498.6110358682535" r="1" fill="#05140d"></circle><circle cx="496.94997913083176" cy="500.44254098183825" r="4" fill="#1c1c1c"></circle><circle cx="438.81769038169466" cy="489.45405310674533" r="4" fill="#1c1c1c"></circle><circle cx="621.2956091325234" cy="521.6747556864786" r="1" fill="#05140d"></circle><circle cx="417.59385586664024" cy="434.62694835387094" r="3" fill="#05140d"></circle><circle cx="451.55240614668855" cy="419.2008370134077" r="2" fill="#05140d"></circle><circle cx="573.1919913975565" cy="625.63705681197" r="5" fill="#0f3d28"></circle><circle cx="476.8123167903549" cy="284.5249667314956" r="5" fill="#248f5e"></circle><circle cx="393.46347038901524" cy="371.69059313107874" r="4" fill="#196643"></circle><circle cx="557.4088577027599" cy="393.03100260793474" r="2" fill="#0f3d28"></circle><circle cx="477.8770671687623" cy="517.6155688847215" r="5" fill="#05140d"></circle><circle cx="455.34587734964737" cy="552.3072276852558" r="3" fill="#1c1c1c"></circle><circle cx="519.9501390693447" cy="623.2661415601331" r="5" fill="#0f3d28"></circle><circle cx="495.5440517582385" cy="490.3105465412205" r="2" fill="#05140d"></circle><circle cx="509.43177542839817" cy="570.4499371537843" r="1" fill="#1c1c1c"></circle><circle cx="496.7330606079607" cy="472.5686925491508" r="1" fill="#05140d"></circle><circle cx="406.5635944346571" cy="463.0279136231325" r="3" fill="#05140d"></circle><circle cx="336.56056417997104" cy="575.0280993064421" r="1" fill="#196643"></circle><circle cx="426.42626015239404" cy="447.3565788121662" r="3" fill="#05140d"></circle><circle cx="603.0554122777182" cy="585.4155558613028" r="3" fill="#0f3d28"></circle><circle cx="431.11055170642317" cy="567.7985677182353" r="4" fill="#05140d"></circle><circle cx="506.86181402092836" cy="631.066598703701" r="1" fill="#196643"></circle><circle cx="482.63789686711533" cy="493.76931689405507" r="5" fill="#05140d"></circle><circle cx="548.008218937347" cy="473.1339311091624" r="4" fill="#1c1c1c"></circle><circle cx="470.8728846773463" cy="489.4644210360295" r="1" fill="#1c1c1c"></circle><circle cx="536.6685470765043" cy="543.111474966363" r="1" fill="#1c1c1c"></circle><circle cx="562.3267061982048" cy="453.9652810537089" r="2" fill="#05140d"></circle><circle cx="504.24154946858306" cy="604.7974827389419" r="3" fill="#05140d"></circle><circle cx="481.1881320259734" cy="447.5478082217609" r="3" fill="#1c1c1c"></circle><circle cx="497.00359799272326" cy="595.4134445750726" r="4" fill="#1c1c1c"></circle><circle cx="275.6874506135785" cy="432.17379457434697" r="5" fill="#196643"></circle><circle cx="437.095055523846" cy="560.2211150981777" r="4" fill="#05140d"></circle><circle cx="550.5300249190783" cy="537.7278871409538" r="1" fill="#1c1c1c"></circle><circle cx="324.6942164515731" cy="438.8671426127895" r="5" fill="#196643"></circle><circle cx="325.5528441563541" cy="605.2007717327547" r="5" fill="#248f5e"></circle><circle cx="550.8991075816789" cy="633.6761505324284" r="3" fill="#0f3d28"></circle><circle cx="547.7340865324206" cy="453.4063431547961" r="1" fill="#1c1c1c"></circle><circle cx="505.9507190286189" cy="501.57026789019835" r="3" fill="#1c1c1c"></circle><circle cx="390.9024986107961" cy="559.7250690419095" r="3" fill="#0f3d28"></circle><circle cx="337.05902050484156" cy="465.64290305711626" r="2" fill="#196643"></circle><circle cx="426.48472673481217" cy="578.7166194542615" r="5" fill="#05140d"></circle><circle cx="376.00838620816813" cy="681.8461662173463" r="4" fill="#248f5e"></circle><circle cx="544.7945760884222" cy="525.607612903456" r="5" fill="#05140d"></circle><circle cx="411.2477641339419" cy="502.47888554805354" r="5" fill="#05140d"></circle><circle cx="470.9129076996985" cy="611.3533864331486" r="5" fill="#05140d"></circle><circle cx="670.6448744630222" cy="423.05058891333096" r="5" fill="#196643"></circle><circle cx="382.3273992898756" cy="402.16101616290786" r="1" fill="#05140d"></circle><circle cx="529.1367125866592" cy="570.5611045769181" r="5" fill="#05140d"></circle><circle cx="584.6350999370276" cy="653.9720168719989" r="3" fill="#0f3d28"></circle><circle cx="582.1865219327993" cy="470.1408696048729" r="2" fill="#05140d"></circle><circle cx="614.529666141148" cy="544.8632478055025" r="2" fill="#0f3d28"></circle><circle cx="350.972095119041" cy="550.835954081157" r="3" fill="#0f3d28"></circle><circle cx="596.7832767979297" cy="593.6516041298247" r="5" fill="#0f3d28"></circle><circle cx="688.2948710459989" cy="244.83925851630266" r="5" fill="#47d193"></circle><circle cx="632.7141458997744" cy="632.3945650583328" r="1" fill="#196643"></circle><circle cx="479.7782005691496" cy="464.3629939332261" r="5" fill="#1c1c1c"></circle><circle cx="504.6577894240223" cy="372.5939075408037" r="5" fill="#0f3d28"></circle><circle cx="445.40593400338577" cy="417.1235043804407" r="2" fill="#05140d"></circle><circle cx="542.0314744241209" cy="590.4254533155729" r="4" fill="#1c1c1c"></circle><circle cx="654.7659009457429" cy="545.5522492795762" r="5" fill="#196643"></circle><circle cx="508.1632724423791" cy="699.574109451332" r="5" fill="#196643"></circle><circle cx="666.1353666807378" cy="483.3144937147992" r="1" fill="#0f3d28"></circle><circle cx="553.0268063776622" cy="492.30450081247767" r="2" fill="#1c1c1c"></circle><circle cx="440.24804417346456" cy="572.3584610623225" r="2" fill="#05140d"></circle><circle cx="587.4446308393815" cy="414.57358379665845" r="4" fill="#0f3d28"></circle><circle cx="337.2659387065469" cy="240.80207056926395" r="4" fill="#47d193"></circle><circle cx="398.94044901607685" cy="588.4112219841029" r="3" fill="#0f3d28"></circle><circle cx="650.45484048879" cy="666.5647617347785" r="5" fill="#248f5e"></circle><circle cx="329.6663890056089" cy="444.78895136614426" r="5" fill="#196643"></circle><circle cx="528.1863531219573" cy="578.2379050274938" r="2" fill="#05140d"></circle><circle cx="394.9951822172129" cy="550.1723595314074" r="3" fill="#1c1c1c"></circle><circle cx="465.2772949292904" cy="431.0342704084034" r="3" fill="#1c1c1c"></circle><circle cx="595.783798530546" cy="471.67315888142133" r="5" fill="#05140d"></circle><circle cx="548.1059056687493" cy="543.638462536049" r="5" fill="#1c1c1c"></circle><circle cx="651.2759570585628" cy="650.2271927655838" r="2" fill="#248f5e"></circle><circle cx="322.7804522385697" cy="332.22598312345025" r="1" fill="#47d193"></circle><circle cx="602.2121846839516" cy="447.999489631622" r="2" fill="#05140d"></circle><circle cx="326.1932143586405" cy="483.71003159439624" r="5" fill="#196643"></circle><circle cx="495.62581685412044" cy="612.7584324536444" r="2" fill="#05140d"></circle><circle cx="456.88069333820016" cy="541.4324501697959" r="1" fill="#1c1c1c"></circle><circle cx="492.69027421712275" cy="512.3057099581341" r="3" fill="#1c1c1c"></circle><circle cx="635.5816136609095" cy="334.1263559092473" r="2" fill="#248f5e"></circle><circle cx="624.2484107894667" cy="584.387209373658" r="1" fill="#0f3d28"></circle><circle cx="525.3143498695512" cy="424.0113589073729" r="2" fill="#05140d"></circle><circle cx="678.8691339935799" cy="512.9350533676934" r="2" fill="#196643"></circle><circle cx="598.4872661422844" cy="552.9633558628256" r="2" fill="#05140d"></circle><circle cx="729.5509814409061" cy="350.34520366558246" r="3" fill="#47d193"></circle><circle cx="499.870704377155" cy="620.859488184324" r="4" fill="#0f3d28"></circle><circle cx="463.8554201823181" cy="567.7501487171073" r="3" fill="#05140d"></circle><circle cx="437.71585606553276" cy="525.8414150008664" r="2" fill="#1c1c1c"></circle><circle cx="458.8790033606785" cy="301.3378369776382" r="4" fill="#248f5e"></circle><circle cx="484.0014098465559" cy="622.0414897120412" r="2" fill="#0f3d28"></circle><circle cx="663.7488003387366" cy="581.7051396096665" r="5" fill="#196643"></circle><circle cx="430.3933691674322" cy="485.7493793228258" r="1" fill="#05140d"></circle><circle cx="553.459061865673" cy="504.43996573543683" r="2" fill="#05140d"></circle><circle cx="471.675831186867" cy="464.6386657368699" r="1" fill="#1c1c1c"></circle><circle cx="436.0657757596971" cy="371.4412757132698" r="3" fill="#196643"></circle><circle cx="641.6499467719767" cy="517.7467620426914" r="5" fill="#0f3d28"></circle><circle cx="417.6645268222871" cy="436.7646198170594" r="1" fill="#05140d"></circle><circle cx="536.9409669205327" cy="426.8764163612898" r="3" fill="#05140d"></circle><circle cx="653.8629545198871" cy="479.57505970403855" r="4" fill="#0f3d28"></circle><circle cx="388.46511124934057" cy="489.9906994562782" r="3" fill="#05140d"></circle><circle cx="554.1616319762988" cy="429.4403929983849" r="1" fill="#05140d"></circle><circle cx="472.6688604087974" cy="599.2043627698877" r="4" fill="#05140d"></circle><circle cx="508.07318503862786" cy="592.500902533006" r="4" fill="#1c1c1c"></circle><circle cx="502.9453558400346" cy="605.2457704546912" r="3" fill="#05140d"></circle><circle cx="587.289820999487" cy="558.8742696602277" r="4" fill="#0f3d28"></circle><circle cx="551.460666490257" cy="566.3911700412142" r="5" fill="#05140d"></circle><circle cx="570.8402804119617" cy="421.69996635291415" r="5" fill="#1c1c1c"></circle><circle cx="356.00469370464504" cy="576.3000090223518" r="3" fill="#196643"></circle><circle cx="472.33273630016487" cy="485.9868996714588" r="1" fill="#1c1c1c"></circle><circle cx="624.0456189071771" cy="373.93789473190697" r="4" fill="#248f5e"></circle><circle cx="805.3367285756558" cy="346.3209699579516" r="5" fill="#99e6c3"></circle><circle cx="621.6152931466352" cy="565.9383705009037" r="3" fill="#0f3d28"></circle><circle cx="387.6894681434144" cy="517.4898600753443" r="3" fill="#05140d"></circle><circle cx="271.71928461209654" cy="332.9810374485145" r="3" fill="#99e6c3"></circle><circle cx="630.3167142764324" cy="358.1868666156598" r="2" fill="#196643"></circle><circle cx="610.5089570410059" cy="526.4927735257004" r="3" fill="#1c1c1c"></circle><circle cx="417.6062775526824" cy="350.70992642070473" r="3" fill="#196643"></circle><circle cx="453.1179457141658" cy="597.9832997801074" r="5" fill="#1c1c1c"></circle><circle cx="514.0507395654728" cy="396.672918246833" r="4" fill="#05140d"></circle><circle cx="258.91388716005355" cy="671.6205614947598" r="1" fill="#47d193"></circle><circle cx="520.2313770797118" cy="312.54297129402653" r="2" fill="#196643"></circle><circle cx="526.0122328108821" cy="593.8467609447373" r="5" fill="#0f3d28"></circle><circle cx="614.6131812000631" cy="580.880000236305" r="1" fill="#0f3d28"></circle><circle cx="516.8970081274225" cy="458.87339499839777" r="3" fill="#1c1c1c"></circle><circle cx="535.6570271293252" cy="536.4478238618443" r="3" fill="#1c1c1c"></circle><circle cx="510.54474534583727" cy="639.179257040862" r="1" fill="#0f3d28"></circle><circle cx="366.44485026647294" cy="503.4272631989939" r="3" fill="#0f3d28"></circle><circle cx="516.754168542607" cy="556.6029761048474" r="2" fill="#05140d"></circle><circle cx="511.2250366171806" cy="327.3234073769337" r="1" fill="#196643"></circle><circle cx="349.4839067814973" cy="491.93089041483825" r="3" fill="#05140d"></circle><circle cx="407.5386911444606" cy="311.10149790436486" r="4" fill="#248f5e"></circle><circle cx="530.3335039170793" cy="487.37149999612785" r="1" fill="#05140d"></circle><circle cx="476.57884601164864" cy="622.7203391276712" r="4" fill="#196643"></circle><circle cx="541.0878391528216" cy="668.3895633588122" r="4" fill="#196643"></circle><circle cx="560.3320980730539" cy="522.0019493666406" r="2" fill="#1c1c1c"></circle><circle cx="616.46472818118" cy="647.4456860055466" r="1" fill="#248f5e"></circle><circle cx="430.1865133163435" cy="473.73968186116696" r="1" fill="#1c1c1c"></circle><circle cx="549.9230833468696" cy="632.7580950778708" r="5" fill="#05140d"></circle><circle cx="554.314514911965" cy="496.44434228469083" r="3" fill="#1c1c1c"></circle><circle cx="531.9883471782518" cy="477.65022969795655" r="3" fill="#1c1c1c"></circle><circle cx="463.24055482007867" cy="481.7337391447675" r="2" fill="#1c1c1c"></circle><circle cx="629.0333775333537" cy="623.9511173022182" r="3" fill="#196643"></circle><circle cx="575.3807270844087" cy="389.70088932165544" r="2" fill="#05140d"></circle><circle cx="531.778119063922" cy="362.39312425328615" r="1" fill="#0f3d28"></circle><circle cx="548.3765131016639" cy="418.2384538220631" r="3" fill="#05140d"></circle><circle cx="507.4679610339015" cy="460.1207624588586" r="3" fill="#1c1c1c"></circle><circle cx="517.9378835261326" cy="491.58485101707686" r="5" fill="#1c1c1c"></circle><circle cx="462.1512138799368" cy="541.886256252887" r="2" fill="#05140d"></circle><circle cx="642.7568362598166" cy="542.6335308856126" r="3" fill="#0f3d28"></circle><circle cx="410.7250497530459" cy="619.4426581466004" r="4" fill="#0f3d28"></circle><circle cx="386.33913499904446" cy="704.83588904375" r="5" fill="#248f5e"></circle><circle cx="490.55062790387245" cy="543.0552598804684" r="4" fill="#05140d"></circle><circle cx="408.9630284778408" cy="600.0588306611729" r="3" fill="#0f3d28"></circle><circle cx="519.4244940188664" cy="210.8114430033943" r="2" fill="#47d193"></circle><circle cx="587.6493203632667" cy="487.9732413070273" r="5" fill="#05140d"></circle><circle cx="413.9714394671795" cy="440.4675161604678" r="3" fill="#05140d"></circle><circle cx="681.6214285773727" cy="639.03866742097" r="5" fill="#248f5e"></circle><circle cx="594.2458093310233" cy="514.4411254219971" r="4" fill="#05140d"></circle><circle cx="609.8181812327529" cy="435.13441698860515" r="1" fill="#0f3d28"></circle><circle cx="465.70767743722826" cy="685.0712150892225" r="2" fill="#196643"></circle><circle cx="653.3867976552106" cy="392.9385545691639" r="2" fill="#196643"></circle><circle cx="622.7432558606554" cy="336.4762034692005" r="5" fill="#2eb879"></circle><circle cx="498.8985409959401" cy="399.5159217285973" r="5" fill="#1c1c1c"></circle><circle cx="594.5761482152161" cy="419.40582617717405" r="4" fill="#05140d"></circle><circle cx="317.22574126963764" cy="467.8365682733052" r="2" fill="#196643"></circle><circle cx="512.9653097127061" cy="668.7210766152226" r="2" fill="#196643"></circle><circle cx="260.0676966143452" cy="637.8799563958106" r="4" fill="#47d193"></circle><circle cx="488.77084692708416" cy="727.0485896750298" r="5" fill="#248f5e"></circle><circle cx="547.826383797844" cy="440.6185299769694" r="5" fill="#05140d"></circle><circle cx="451.07190752431035" cy="598.4538075239863" r="5" fill="#05140d"></circle><circle cx="601.2180956584074" cy="465.2766700513846" r="5" fill="#05140d"></circle><circle cx="430.0715652632804" cy="617.6068897076664" r="1" fill="#0f3d28"></circle><circle cx="333.88382672338014" cy="578.2867708440351" r="4" fill="#0f3d28"></circle><circle cx="393.8045913829418" cy="613.0792705604275" r="1" fill="#0f3d28"></circle><circle cx="548.8338927642535" cy="573.7973569438554" r="2" fill="#05140d"></circle><circle cx="420.16143635422196" cy="465.091053834778" r="5" fill="#05140d"></circle><circle cx="596.6119666204343" cy="629.4998829440924" r="4" fill="#196643"></circle><circle cx="256.8625223074512" cy="535.6876220862954" r="5" fill="#47d193"></circle><circle cx="392.0873481293545" cy="445.1216063207254" r="2" fill="#0f3d28"></circle><circle cx="656.4143973985128" cy="521.3707424869899" r="3" fill="#0f3d28"></circle><circle cx="482.51045719647675" cy="562.9804954006686" r="4" fill="#1c1c1c"></circle><circle cx="500.7269436298985" cy="465.4449887730878" r="4" fill="#1c1c1c"></circle><circle cx="653.7542398035664" cy="606.0926148339635" r="2" fill="#196643"></circle><circle cx="507.48454697405793" cy="560.3684287259837" r="2" fill="#05140d"></circle><circle cx="701.2865606471232" cy="469.59699631174664" r="3" fill="#2eb879"></circle><circle cx="627.9554078782885" cy="539.4457762758738" r="5" fill="#0f3d28"></circle><circle cx="470.2871277958005" cy="536.0215620042467" r="1" fill="#05140d"></circle><circle cx="518.4943621548413" cy="497.16134005938136" r="1" fill="#1c1c1c"></circle><circle cx="565.096097128872" cy="537.2326731206789" r="4" fill="#1c1c1c"></circle><circle cx="459.9790788735666" cy="610.9614808534661" r="4" fill="#05140d"></circle><circle cx="467.6825137926501" cy="356.41843511154957" r="4" fill="#0f3d28"></circle><circle cx="440.3168790729762" cy="456.3390055932686" r="4" fill="#1c1c1c"></circle><circle cx="427.1858087584012" cy="443.65058102703574" r="1" fill="#05140d"></circle><circle cx="557.7054803107245" cy="434.32418954548575" r="3" fill="#05140d"></circle><circle cx="393.1529593373593" cy="548.8811447441288" r="1" fill="#05140d"></circle><circle cx="644.2430715934256" cy="473.93176734449406" r="2" fill="#0f3d28"></circle><circle cx="348.23351995008085" cy="412.6340693726904" r="5" fill="#196643"></circle><circle cx="402.86076187699075" cy="485.887537335277" r="1" fill="#05140d"></circle><circle cx="529.0933857373809" cy="403.2201800629279" r="3" fill="#05140d"></circle><circle cx="465.96432538665954" cy="488.98629928860646" r="4" fill="#1c1c1c"></circle><circle cx="406.9298326525623" cy="531.1500525383651" r="5" fill="#05140d"></circle><circle cx="517.821278335183" cy="561.4620428462176" r="5" fill="#05140d"></circle><circle cx="552.7704312859313" cy="639.943560522035" r="1" fill="#0f3d28"></circle><circle cx="314.296502420902" cy="590.9034944099974" r="1" fill="#248f5e"></circle><circle cx="382.65210713578097" cy="549.4606428548713" r="5" fill="#05140d"></circle><circle cx="604.2420088314859" cy="574.163845503656" r="5" fill="#0f3d28"></circle><circle cx="509.2755896035334" cy="466.53944774721975" r="4" fill="#1c1c1c"></circle></svg>