<svg width="1000" height="1000" id="mySVG"><circle cx="410.31940801532255" cy="622.3764797076897" r="2" fill="#0f3d28"></circle><circle cx="219.76696098801415" cy="292.34043024086003" r="3" fill="#99e6c3"></circle><circle cx="475.56686513847797" cy="556.046523625931" r="2" fill="#1c1c1c"></circle><circle cx="669.1099413821763" cy="469.34353332475587" r="3" fill="#196643"></circle><circle cx="270.506956643802" cy="593.9837998543609" r="4" fill="#47d193"></circle><circle cx="337.98709679246485" cy="444.07670379385735" r="3" fill="#196643"></circle><circle cx="305.5813092786073" cy="463.37724930370655" r="2" fill="#196643"></circle><circle cx="530.9626153869586" cy="940.2038345463361" r="4" fill="#99e6c3"></circle><circle cx="354.6124832471961" cy="475.86705473021937" r="5" fill="#196643"></circle><circle cx="857.483008478559" cy="411.68639761565987" r="3" fill="#99e6c3"></circle><circle cx="434.1061952150069" cy="602.255374252129" r="2" fill="#0f3d28"></circle><circle cx="420.3924909661497" cy="375.04909742040604" r="2" fill="#0f3d28"></circle><circle cx="329.1044026274741" cy="553.9730476034537" r="5" fill="#0f3d28"></circle><circle cx="487.47811308701705" cy="534.6150055418378" r="4" fill="#1c1c1c"></circle><circle cx="279.6418801556428" cy="394.9842363673218" r="3" fill="#47d193"></circle><circle cx="318.64325510423214" cy="541.5972153695415" r="5" fill="#196643"></circle><circle cx="673.8943840715888" cy="559.2893679524353" r="3" fill="#0f3d28"></circle><circle cx="471.25715755755226" cy="357.2483745383711" r="2" fill="#0f3d28"></circle><circle cx="391.4815814422366" cy="489.55353075876127" r="4" fill="#0f3d28"></circle><circle cx="622.0850418832866" cy="502.1330381505827" r="1" fill="#0f3d28"></circle><circle cx="271.44219544864814" cy="474.8674158354713" r="2" fill="#248f5e"></circle><circle cx="290.36229279925203" cy="957.2808554704125" r="1" fill="#99e6c3"></circle><circle cx="429.28116403924946" cy="537.2022486487049" r="1" fill="#1c1c1c"></circle><circle cx="311.1693467014594" cy="573.3466509751302" r="3" fill="#248f5e"></circle><circle cx="444.1809447285805" cy="800.7807262026311" r="2" fill="#47d193"></circle><circle cx="688.6792644623324" cy="685.5184866101227" r="2" fill="#47d193"></circle><circle cx="409.33082180117634" cy="613.2183307776318" r="4" fill="#0f3d28"></circle><circle cx="435.7025361601749" cy="317.65917734063726" r="5" fill="#0f3d28"></circle><circle cx="664.4835944272414" cy="497.02997883301595" r="2" fill="#196643"></circle><circle cx="615.0962447384761" cy="560.0950945847687" r="5" fill="#0f3d28"></circle><circle cx="635.7688806698408" cy="298.88710635454754" r="3" fill="#47d193"></circle><circle cx="628.851556124545" cy="546.7470687381953" r="2" fill="#0f3d28"></circle><circle cx="593.3071992878708" cy="344.1125183344708" r="3" fill="#0f3d28"></circle><circle cx="589.1896033526207" cy="785.3799427874852" r="2" fill="#47d193"></circle><circle cx="400.26158516195454" cy="429.9956472865558" r="1" fill="#05140d"></circle><circle cx="620.361717440293" cy="376.3482549394346" r="3" fill="#196643"></circle><circle cx="649.6481338822563" cy="728.3655630710849" r="5" fill="#47d193"></circle><circle cx="648.6671526182494" cy="415.7196510882969" r="4" fill="#196643"></circle><circle cx="597.5262164922367" cy="649.3498545964381" r="1" fill="#196643"></circle><circle cx="432.1809795431948" cy="442.6903193078932" r="4" fill="#05140d"></circle><circle cx="581.9356418774971" cy="442.3086108476688" r="2" fill="#05140d"></circle><circle cx="455.60052799329435" cy="617.6416091037603" r="3" fill="#0f3d28"></circle><circle cx="755.483538536967" cy="694.3607696757962" r="3" fill="#99e6c3"></circle><circle cx="546.6162738001682" cy="652.5315030609604" r="2" fill="#0f3d28"></circle><circle cx="481.9008000196672" cy="568.29089996078" r="2" fill="#1c1c1c"></circle><circle cx="448.35118467308445" cy="554.5347502711934" r="2" fill="#1c1c1c"></circle><circle cx="278.6792001589157" cy="486.59622701036335" r="3" fill="#248f5e"></circle><circle cx="762.6586214823192" cy="671.7247905410097" r="4" fill="#47d193"></circle><circle cx="478.78536318748456" cy="558.4130240716967" r="5" fill="#1c1c1c"></circle><circle cx="492.0139813870524" cy="320.89656973805484" r="5" fill="#196643"></circle><circle cx="417.39286669009783" cy="340.05189599931964" r="5" fill="#196643"></circle><circle cx="605.473846413834" cy="457.49197374465024" r="2" fill="#05140d"></circle><circle cx="618.9779254064513" cy="392.74106552188164" r="5" fill="#196643"></circle><circle cx="450.8951520849814" cy="588.5120778232042" r="1" fill="#05140d"></circle><circle cx="596.7369550946366" cy="176.7799677464683" r="5" fill="#99e6c3"></circle><circle cx="462.1768941576282" cy="362.5022119276124" r="4" fill="#05140d"></circle><circle cx="219.45096141168017" cy="411.63004757323444" r="1" fill="#47d193"></circle><circle cx="515.0247890132966" cy="193.67103080229572" r="2" fill="#47d193"></circle><circle cx="411.42342889131" cy="206.3973300455761" r="4" fill="#47d193"></circle><circle cx="483.662792762427" cy="523.8710686431542" r="5" fill="#1c1c1c"></circle><circle cx="761.2197894695216" cy="468.6496916699335" r="5" fill="#47d193"></circle><circle cx="505.0061215519" cy="333.1142349272263" r="4" fill="#196643"></circle><circle cx="481.9177710356359" cy="618.3953703634189" r="5" fill="#05140d"></circle><circle cx="549.2058097774128" cy="464.8594655776106" r="3" fill="#1c1c1c"></circle><circle cx="423.07481580524217" cy="403.88005181682854" r="5" fill="#0f3d28"></circle><circle cx="524.8311789891897" cy="517.7328785884096" r="4" fill="#1c1c1c"></circle><circle cx="516.1629912634343" cy="538.9781433863056" r="2" fill="#1c1c1c"></circle><circle cx="384.763306648792" cy="497.4810869840577" r="2" fill="#05140d"></circle><circle cx="524.9705332204624" cy="517.7822111085245" r="3" fill="#1c1c1c"></circle><circle cx="497.29001499972145" cy="443.4375840270236" r="1" fill="#1c1c1c"></circle><circle cx="397.6557579697883" cy="745.5204863213638" r="2" fill="#47d193"></circle><circle cx="302.20391047594967" cy="416.7885194559869" r="2" fill="#248f5e"></circle><circle cx="475.2965233476465" cy="520.924625963259" r="5" fill="#1c1c1c"></circle><circle cx="558.5523251552689" cy="519.632774443876" r="3" fill="#1c1c1c"></circle><circle cx="473.60725434986085" cy="324.0013789929254" r="4" fill="#196643"></circle><circle cx="645.9899132474167" cy="496.7600099243928" r="5" fill="#0f3d28"></circle><circle cx="662.3399917473123" cy="459.7458830143213" r="4" fill="#196643"></circle><circle cx="314.7599300746398" cy="555.1013404780211" r="5" fill="#196643"></circle><circle cx="613.762290295086" cy="707.7118100135363" r="5" fill="#248f5e"></circle><circle cx="739.1335628395962" cy="474.1183344978031" r="1" fill="#47d193"></circle><circle cx="544.8068473229446" cy="638.8587298480662" r="4" fill="#196643"></circle><circle cx="477.8278846470303" cy="492.5460121961884" r="4" fill="#05140d"></circle><circle cx="609.626143336253" cy="650.5807979306435" r="5" fill="#0f3d28"></circle><circle cx="670.563983013356" cy="848.8119610354008" r="1" fill="#99e6c3"></circle><circle cx="665.0408792271985" cy="587.4443938787897" r="5" fill="#0f3d28"></circle><circle cx="555.6145986295785" cy="404.871996352176" r="1" fill="#05140d"></circle><circle cx="257.60244301212634" cy="689.6880784277366" r="3" fill="#47d193"></circle><circle cx="218.30858537444453" cy="609.1451832997637" r="1" fill="#47d193"></circle><circle cx="558.544799239364" cy="379.1027775717817" r="5" fill="#0f3d28"></circle><circle cx="485.1283056596822" cy="503.0847798364278" r="3" fill="#1c1c1c"></circle><circle cx="264.19351788266715" cy="553.3308027576892" r="5" fill="#47d193"></circle><circle cx="527.634054511338" cy="881.7317721971513" r="2" fill="#99e6c3"></circle><circle cx="568.4231178201414" cy="702.3713532271775" r="1" fill="#248f5e"></circle><circle cx="501.23849999282646" cy="319.8828285768621" r="3" fill="#196643"></circle><circle cx="576.1775329255391" cy="265.02140921226476" r="5" fill="#47d193"></circle><circle cx="597.44579405117" cy="530.7828436943267" r="2" fill="#05140d"></circle><circle cx="484.79863478922107" cy="520.1822534472453" r="5" fill="#1c1c1c"></circle><circle cx="675.1649363204641" cy="170.033787077733" r="2" fill="#99e6c3"></circle><circle cx="446.77498505649686" cy="282.0316201682854" r="2" fill="#248f5e"></circle><circle cx="468.1968637434933" cy="280.5756508059181" r="1" fill="#248f5e"></circle><circle cx="683.4478236048619" cy="601.0071446184496" r="1" fill="#248f5e"></circle><circle cx="482.15730074605807" cy="314.4373762471032" r="2" fill="#196643"></circle><circle cx="386.094171989049" cy="372.4223572934826" r="2" fill="#196643"></circle><circle cx="547.3042046732262" cy="519.8647205652326" r="4" fill="#05140d"></circle><circle cx="357.3361655826082" cy="433.2449127751408" r="2" fill="#0f3d28"></circle><circle cx="685.0801925263279" cy="607.1687029053021" r="1" fill="#248f5e"></circle><circle cx="580.7226181837941" cy="413.80647744554614" r="4" fill="#05140d"></circle><circle cx="489.18717899659424" cy="452.04444900624014" r="4" fill="#1c1c1c"></circle><circle cx="576.9581667165457" cy="593.0008575007354" r="4" fill="#05140d"></circle><circle cx="406.48552227929576" cy="623.527716106301" r="3" fill="#0f3d28"></circle><circle cx="505.79436733327185" cy="235.11300131297395" r="2" fill="#47d193"></circle><circle cx="328.60713001787593" cy="118.10409839234876" r="2" fill="#99e6c3"></circle><circle cx="394.0887900725636" cy="612.1805806887764" r="4" fill="#0f3d28"></circle><circle cx="619.6143485888248" cy="542.5682877143178" r="1" fill="#05140d"></circle><circle cx="435.77521397861875" cy="708.0184642902292" r="2" fill="#248f5e"></circle><circle cx="620.280261658551" cy="361.4425462368037" r="5" fill="#248f5e"></circle><circle cx="292.02442124354764" cy="572.538958402528" r="3" fill="#248f5e"></circle><circle cx="362.1641827996268" cy="317.3749573477029" r="1" fill="#248f5e"></circle><circle cx="670.6823736836043" cy="596.6531140654579" r="1" fill="#248f5e"></circle><circle cx="399.3057403551513" cy="311.2251562617488" r="1" fill="#196643"></circle><circle cx="376.11216725542545" cy="744.0918836988844" r="1" fill="#47d193"></circle><circle cx="547.9794274429338" cy="555.018837222815" r="5" fill="#1c1c1c"></circle><circle cx="409.62824193661925" cy="397.64874836940385" r="5" fill="#196643"></circle><circle cx="431.1928182972258" cy="395.46558006430047" r="2" fill="#0f3d28"></circle><circle cx="600.655283473072" cy="746.2762953743315" r="3" fill="#47d193"></circle><circle cx="378.35842219077847" cy="579.263131806395" r="2" fill="#0f3d28"></circle><circle cx="728.013872914944" cy="398.7931213979572" r="5" fill="#47d193"></circle><circle cx="416.99566668545054" cy="501.9449993104092" r="2" fill="#05140d"></circle><circle cx="312.9720048327072" cy="664.7252007919645" r="5" fill="#47d193"></circle><circle cx="615.6442804289824" cy="386.93241064371665" r="5" fill="#196643"></circle><circle cx="453.74261123079145" cy="480.91998280496404" r="3" fill="#1c1c1c"></circle><circle cx="514.5783868708419" cy="636.744914984627" r="3" fill="#196643"></circle><circle cx="658.0247606403548" cy="487.51992130101326" r="4" fill="#0f3d28"></circle><circle cx="328.1877745427015" cy="355.13974517492943" r="1" fill="#248f5e"></circle><circle cx="606.9922128097472" cy="589.4632488202574" r="3" fill="#05140d"></circle><circle cx="497.3439137984926" cy="630.6782493812327" r="2" fill="#0f3d28"></circle><circle cx="409.0258317396615" cy="471.757632574955" r="4" fill="#1c1c1c"></circle><circle cx="466.75986345338265" cy="584.2119524567269" r="4" fill="#05140d"></circle><circle cx="425.42799852939356" cy="456.26160546141136" r="4" fill="#05140d"></circle><circle cx="770.8474114188409" cy="570.0774005723755" r="3" fill="#47d193"></circle><circle cx="427.14890038982446" cy="237.38004444803164" r="2" fill="#47d193"></circle><circle cx="359.9663507385992" cy="270.1378658579681" r="1" fill="#47d193"></circle><circle cx="428.926773811141" cy="474.2327975110038" r="1" fill="#1c1c1c"></circle><circle cx="510.49497792444146" cy="577.3655227426539" r="5" fill="#05140d"></circle><circle cx="485.3014598440617" cy="316.4590985306696" r="1" fill="#0f3d28"></circle><circle cx="468.38070428198324" cy="465.9977752283546" r="3" fill="#05140d"></circle><circle cx="365.29595282648586" cy="482.27492159495745" r="1" fill="#05140d"></circle><circle cx="330.89363409129237" cy="406.6287470608288" r="5" fill="#196643"></circle><circle cx="460.6277399759176" cy="643.2219060802577" r="2" fill="#0f3d28"></circle><circle cx="606.6648744152187" cy="325.4375187348351" r="3" fill="#248f5e"></circle><circle cx="536.2705527061521" cy="390.88402075889536" r="3" fill="#05140d"></circle><circle cx="381.8889224236254" cy="734.875735429838" r="5" fill="#47d193"></circle><circle cx="407.8842422500152" cy="325.44365976671537" r="1" fill="#196643"></circle><circle cx="736.8675932667487" cy="667.5298870828244" r="4" fill="#47d193"></circle><circle cx="634.651283196323" cy="518.5859304687732" r="2" fill="#05140d"></circle><circle cx="524.9797317292232" cy="439.0698420497398" r="5" fill="#1c1c1c"></circle><circle cx="502.4968758360407" cy="565.0088131088174" r="2" fill="#1c1c1c"></circle><circle cx="461.85552997750665" cy="502.5474117723556" r="4" fill="#1c1c1c"></circle><circle cx="456.6739747002828" cy="643.0129134380979" r="1" fill="#196643"></circle><circle cx="529.5662301155861" cy="432.35365365551894" r="4" fill="#1c1c1c"></circle><circle cx="521.4195935363192" cy="471.2682134006286" r="5" fill="#1c1c1c"></circle><circle cx="739.3006129810693" cy="327.96358412412326" r="3" fill="#47d193"></circle><circle cx="518.5797795184445" cy="437.80421169968497" r="5" fill="#1c1c1c"></circle><circle cx="472.64823634701725" cy="524.832837604625" r="5" fill="#1c1c1c"></circle><circle cx="375.8283362880929" cy="530.4244903885414" r="5" fill="#0f3d28"></circle><circle cx="575.6337024030911" cy="385.465942983099" r="4" fill="#0f3d28"></circle><circle cx="402.9374561417142" cy="464.1401306979169" r="4" fill="#0f3d28"></circle><circle cx="374.3441554978913" cy="466.6882154378074" r="1" fill="#0f3d28"></circle><circle cx="284.01556468825646" cy="774.8257626637971" r="4" fill="#99e6c3"></circle><circle cx="445.7783165647309" cy="336.57479732315534" r="2" fill="#196643"></circle><circle cx="631.8551248659359" cy="436.4265494077823" r="5" fill="#0f3d28"></circle><circle cx="396.3263298778552" cy="567.7676489112246" r="3" fill="#0f3d28"></circle><circle cx="411.41907850876515" cy="379.04412404982446" r="3" fill="#0f3d28"></circle><circle cx="591.507777769448" cy="491.51578212303514" r="3" fill="#05140d"></circle><circle cx="451.45410289841175" cy="612.1448593205287" r="2" fill="#0f3d28"></circle><circle cx="535.5963690750689" cy="516.11265881553" r="1" fill="#05140d"></circle><circle cx="304.94322447054816" cy="666.5230046739098" r="5" fill="#47d193"></circle><circle cx="549.0838313900241" cy="376.6634129501978" r="1" fill="#0f3d28"></circle><circle cx="668.4461010077388" cy="343.7868671513944" r="3" fill="#248f5e"></circle><circle cx="349.42204530760216" cy="577.203865563815" r="2" fill="#196643"></circle><circle cx="345.81992732798574" cy="453.92453581919443" r="5" fill="#196643"></circle><circle cx="617.0618890438642" cy="485.1699768426081" r="3" fill="#05140d"></circle><circle cx="525.2755444927186" cy="570.2131391823848" r="3" fill="#05140d"></circle><circle cx="598.6489441483685" cy="357.6150351023345" r="4" fill="#196643"></circle><circle cx="438.8392975638654" cy="529.3026559920861" r="1" fill="#05140d"></circle><circle cx="324.22598541472075" cy="658.6901938182023" r="3" fill="#248f5e"></circle><circle cx="622.7285617231126" cy="560.6776518821986" r="2" fill="#0f3d28"></circle><circle cx="528.8279094272076" cy="292.33048921414644" r="5" fill="#248f5e"></circle><circle cx="615.8057358986312" cy="843.443773900372" r="2" fill="#99e6c3"></circle><circle cx="565.5993373828582" cy="344.1056619385231" r="3" fill="#196643"></circle><circle cx="533.9034059419581" cy="569.2478627390794" r="3" fill="#1c1c1c"></circle><circle cx="244.70997457724252" cy="274.16524339965963" r="1" fill="#99e6c3"></circle><circle cx="473.2742460276673" cy="486.64868840818957" r="2" fill="#05140d"></circle><circle cx="180.35902154324214" cy="506.2268527910471" r="3" fill="#47d193"></circle><circle cx="589.5040640569669" cy="401.5175137235984" r="4" fill="#0f3d28"></circle><circle cx="610.2879154015493" cy="478.7710758826342" r="5" fill="#0f3d28"></circle><circle cx="489.8976104482637" cy="349.85960824809246" r="5" fill="#0f3d28"></circle><circle cx="657.7483270542364" cy="486.04308494013964" r="5" fill="#0f3d28"></circle><circle cx="235.49197410936677" cy="459.4940844973859" r="2" fill="#47d193"></circle><circle cx="722.086985957651" cy="524.6417629635866" r="4" fill="#248f5e"></circle><circle cx="422.6417159184897" cy="307.91641853277486" r="4" fill="#248f5e"></circle><circle cx="422.69476687089787" cy="600.0054542749797" r="3" fill="#05140d"></circle><circle cx="485.0678634120149" cy="178.53658818644521" r="2" fill="#99e6c3"></circle><circle cx="610.1407194036731" cy="483.0036414031573" r="4" fill="#05140d"></circle><circle cx="564.0443291465654" cy="467.1227304237235" r="3" fill="#1c1c1c"></circle><circle cx="478.55213137407986" cy="323.8790597311043" r="3" fill="#196643"></circle><circle cx="467.8887419775293" cy="241.3276954262663" r="4" fill="#47d193"></circle><circle cx="565.0924852634525" cy="431.90217950691067" r="3" fill="#05140d"></circle><circle cx="501.1347776685987" cy="274.0481739390855" r="4" fill="#248f5e"></circle><circle cx="396.4195804104112" cy="426.66937249712896" r="4" fill="#0f3d28"></circle><circle cx="216.22399420583832" cy="739.0951088991528" r="4" fill="#99e6c3"></circle><circle cx="650.7358933101339" cy="688.4837348253263" r="3" fill="#47d193"></circle><circle cx="483.0845134399375" cy="575.2802471096021" r="2" fill="#1c1c1c"></circle><circle cx="664.0417041803055" cy="422.7454730627551" r="1" fill="#248f5e"></circle><circle cx="443.76127154859097" cy="456.28064721729476" r="3" fill="#1c1c1c"></circle><circle cx="328.95780923252244" cy="321.7391289285763" r="4" fill="#47d193"></circle><circle cx="422.80868203500495" cy="258.80226565853354" r="1" fill="#47d193"></circle><circle cx="311.2931243233999" cy="413.9731307878705" r="2" fill="#248f5e"></circle><circle cx="521.5126122444423" cy="589.2607159003054" r="4" fill="#05140d"></circle><circle cx="420.56820333676364" cy="607.8923973989356" r="5" fill="#0f3d28"></circle><circle cx="366.08041155746525" cy="540.919825873705" r="4" fill="#0f3d28"></circle><circle cx="426.06519917370576" cy="453.0315818499879" r="2" fill="#05140d"></circle><circle cx="401.79282452516895" cy="439.6968728278483" r="5" fill="#05140d"></circle><circle cx="619.7114885037784" cy="298.67348982851126" r="1" fill="#248f5e"></circle><circle cx="443.9534157917078" cy="463.87698589073716" r="1" fill="#1c1c1c"></circle><circle cx="637.3552042901198" cy="435.9515333042874" r="1" fill="#05140d"></circle><circle cx="328.76127735839555" cy="702.8727478310011" r="1" fill="#47d193"></circle><circle cx="448.15344493945906" cy="429.63319974869165" r="1" fill="#05140d"></circle><circle cx="430.85875180672167" cy="708.9038170333034" r="4" fill="#248f5e"></circle><circle cx="313.6771417038696" cy="596.7947890399776" r="2" fill="#248f5e"></circle><circle cx="414.11810895656333" cy="823.9810921703103" r="1" fill="#99e6c3"></circle><circle cx="416.4923266280284" cy="587.1521357487826" r="4" fill="#05140d"></circle><circle cx="385.20470628297505" cy="616.1860459219689" r="4" fill="#196643"></circle><circle cx="580.3848413072466" cy="458.8193818598829" r="2" fill="#1c1c1c"></circle><circle cx="563.0259561506871" cy="419.12495853574427" r="3" fill="#05140d"></circle><circle cx="282.42699674214373" cy="413.1250191179832" r="2" fill="#248f5e"></circle><circle cx="332.0788355305509" cy="414.43569940178236" r="4" fill="#196643"></circle><circle cx="733.9834536963292" cy="336.0192034817436" r="5" fill="#47d193"></circle><circle cx="536.2384814672389" cy="340.97275578340555" r="4" fill="#196643"></circle><circle cx="561.5738223358919" cy="662.8650448816626" r="1" fill="#196643"></circle><circle cx="643.0569372337693" cy="433.05250132290297" r="5" fill="#0f3d28"></circle><circle cx="672.954735461893" cy="403.9410434055031" r="2" fill="#0f3d28"></circle><circle cx="500.2439544982016" cy="459.7824362344955" r="2" fill="#05140d"></circle><circle cx="649.9028248475097" cy="804.177999142926" r="4" fill="#99e6c3"></circle><circle cx="700.7544170544609" cy="624.3775155837159" r="3" fill="#248f5e"></circle><circle cx="699.6587364930974" cy="578.2706157619698" r="4" fill="#248f5e"></circle><circle cx="485.1947085189992" cy="484.57440406357176" r="2" fill="#1c1c1c"></circle><circle cx="780.9269695124212" cy="602.5408608012614" r="4" fill="#47d193"></circle><circle cx="516.0930500936018" cy="428.41706021616903" r="4" fill="#05140d"></circle><circle cx="522.3921604594434" cy="405.0354170351043" r="3" fill="#05140d"></circle><circle cx="509.0449049888682" cy="547.7483431094487" r="3" fill="#1c1c1c"></circle><circle cx="491.15943713106685" cy="392.56488513136526" r="2" fill="#05140d"></circle><circle cx="555.6572791383837" cy="821.3789109278928" r="3" fill="#99e6c3"></circle><circle cx="614.8204739044406" cy="678.3144639557636" r="1" fill="#248f5e"></circle><circle cx="479.3859697434418" cy="346.8903017374241" r="1" fill="#0f3d28"></circle><circle cx="600.7639310477686" cy="387.4876580401573" r="3" fill="#05140d"></circle><circle cx="497.1729349736421" cy="378.6074607085684" r="3" fill="#0f3d28"></circle><circle cx="213.09256654348843" cy="747.9519753845854" r="1" fill="#99e6c3"></circle><circle cx="519.4535984514036" cy="190.91947243345192" r="2" fill="#47d193"></circle><circle cx="576.4585623274822" cy="542.6201711362587" r="2" fill="#1c1c1c"></circle><circle cx="623.0989551347468" cy="352.29974288418015" r="2" fill="#196643"></circle><circle cx="300.6631816386163" cy="221.87803463823718" r="2" fill="#99e6c3"></circle><circle cx="565.3609414206553" cy="284.0266870105627" r="1" fill="#248f5e"></circle><circle cx="478.83245920016435" cy="354.7683061524957" r="1" fill="#05140d"></circle><circle cx="363.1715342919251" cy="721.0200803094706" r="2" fill="#47d193"></circle><circle cx="323.41312231181246" cy="667.4941346221444" r="2" fill="#47d193"></circle><circle cx="731.2897647106863" cy="830.9120457763314" r="3" fill="#99e6c3"></circle><circle cx="449.4658024546886" cy="259.72063175379776" r="1" fill="#47d193"></circle><circle cx="390.93687436770847" cy="374.23091138433335" r="2" fill="#0f3d28"></circle><circle cx="664.9169317106971" cy="413.16020082929373" r="4" fill="#0f3d28"></circle><circle cx="576.1787266245625" cy="397.8593575002625" r="5" fill="#196643"></circle><circle cx="464.58046349578456" cy="459.83934359717364" r="1" fill="#1c1c1c"></circle><circle cx="427.05149243126107" cy="404.835061626463" r="5" fill="#0f3d28"></circle><circle cx="257.141039255319" cy="604.9009787536734" r="2" fill="#47d193"></circle><circle cx="731.9401339895308" cy="521.3122282387316" r="4" fill="#248f5e"></circle><circle cx="537.954486583712" cy="308.54386731520015" r="4" fill="#196643"></circle><circle cx="434.0370273617968" cy="348.3964533041851" r="1" fill="#196643"></circle><circle cx="654.4866399454671" cy="463.0149616351362" r="3" fill="#0f3d28"></circle><circle cx="580.8501835220852" cy="483.6739359571574" r="1" fill="#05140d"></circle><circle cx="433.01554395238867" cy="342.02415620642205" r="1" fill="#248f5e"></circle><circle cx="396.3115900641861" cy="402.12749802739216" r="5" fill="#0f3d28"></circle><circle cx="527.9314617584271" cy="444.5996937678776" r="4" fill="#05140d"></circle><circle cx="469.48923936700913" cy="524.3367869565884" r="4" fill="#1c1c1c"></circle><circle cx="369.49663383793455" cy="127.71219719141106" r="1" fill="#99e6c3"></circle><circle cx="440.61262952907373" cy="386.8004723166307" r="4" fill="#0f3d28"></circle><circle cx="513.3477522661378" cy="383.6509752902663" r="2" fill="#05140d"></circle><circle cx="719.0944570709523" cy="616.2866784743779" r="4" fill="#47d193"></circle><circle cx="627.2702582694315" cy="504.5661936435187" r="1" fill="#0f3d28"></circle><circle cx="537.8642093670164" cy="698.8816999361555" r="2" fill="#248f5e"></circle><circle cx="406.2166436868835" cy="462.9753322005623" r="3" fill="#05140d"></circle><circle cx="562.5892606761581" cy="617.4401235186685" r="4" fill="#0f3d28"></circle><circle cx="645.5344066858376" cy="461.02877159479146" r="4" fill="#0f3d28"></circle><circle cx="649.2171849987662" cy="496.7953114803255" r="5" fill="#0f3d28"></circle><circle cx="466.7039298436944" cy="534.8089414917034" r="5" fill="#1c1c1c"></circle><circle cx="289.6057023494816" cy="624.2176778574467" r="4" fill="#47d193"></circle><circle cx="441.2710583988006" cy="586.4635058093637" r="1" fill="#1c1c1c"></circle><circle cx="766.4202852057276" cy="334.0542883097648" r="5" fill="#47d193"></circle><circle cx="601.5113516784008" cy="550.9025881647908" r="1" fill="#0f3d28"></circle><circle cx="568.1677219497658" cy="423.9758604359613" r="1" fill="#05140d"></circle><circle cx="805.3014925622745" cy="543.33505205642" r="3" fill="#47d193"></circle><circle cx="341.42980208997574" cy="521.2160128000111" r="3" fill="#0f3d28"></circle><circle cx="507.57324735756134" cy="431.3791085858902" r="4" fill="#1c1c1c"></circle><circle cx="261.0281972832947" cy="577.9060529983249" r="1" fill="#47d193"></circle><circle cx="207.19575409645142" cy="394.10093598313944" r="4" fill="#47d193"></circle><circle cx="550.1981874815242" cy="495.05445224841526" r="5" fill="#05140d"></circle><circle cx="612.0768784740961" cy="377.93637333487584" r="5" fill="#196643"></circle><circle cx="407.26866538240563" cy="769.1123629013554" r="4" fill="#99e6c3"></circle><circle cx="843.7960813796053" cy="456.9634704739878" r="2" fill="#99e6c3"></circle><circle cx="399.97999296636675" cy="520.1147135693936" r="4" fill="#05140d"></circle><circle cx="626.3520143954863" cy="398.5700267589258" r="4" fill="#196643"></circle><circle cx="554.264440591992" cy="584.0260104474571" r="1" fill="#05140d"></circle><circle cx="415.1145091617158" cy="495.3097379897366" r="5" fill="#0f3d28"></circle><circle cx="474.8097006602027" cy="432.74674948617434" r="4" fill="#1c1c1c"></circle><circle cx="501.69471242827166" cy="428.98156908674633" r="2" fill="#1c1c1c"></circle><circle cx="415.28346047784487" cy="403.4904111477503" r="5" fill="#05140d"></circle><circle cx="629.8347515434367" cy="653.4746246002258" r="1" fill="#248f5e"></circle><circle cx="553.8850903573253" cy="705.8185318604744" r="4" fill="#248f5e"></circle><circle cx="383.6273721763987" cy="415.18331470477256" r="3" fill="#0f3d28"></circle><circle cx="389.8982027839174" cy="359.2104518803691" r="3" fill="#196643"></circle><circle cx="480.4968214860673" cy="735.4413421300783" r="5" fill="#2eb879"></circle><circle cx="607.3019520815573" cy="539.1316906985608" r="2" fill="#05140d"></circle><circle cx="800.792957951037" cy="776.6193306849614" r="2" fill="#99e6c3"></circle><circle cx="289.42756462912587" cy="318.74273138022124" r="1" fill="#47d193"></circle><circle cx="472.80645500009604" cy="676.5152364690832" r="5" fill="#248f5e"></circle><circle cx="533.5978002703353" cy="423.0909034606623" r="1" fill="#05140d"></circle><circle cx="560.756179239568" cy="401.1917223927562" r="1" fill="#0f3d28"></circle><circle cx="659.3720122959843" cy="559.7309086960299" r="4" fill="#0f3d28"></circle><circle cx="624.8878298880622" cy="544.3136542521955" r="4" fill="#196643"></circle><circle cx="372.9958804773785" cy="431.1397324314433" r="1" fill="#0f3d28"></circle><circle cx="482.78207896355667" cy="375.21856443975685" r="1" fill="#0f3d28"></circle><circle cx="416.4204326670541" cy="428.99939732101564" r="5" fill="#05140d"></circle><circle cx="451.775624568193" cy="589.287379371347" r="1" fill="#1c1c1c"></circle><circle cx="439.7689513319574" cy="412.19328490258937" r="5" fill="#1c1c1c"></circle><circle cx="492.1176304774596" cy="721.4299025465964" r="3" fill="#248f5e"></circle><circle cx="547.2521522044772" cy="540.0779590981946" r="2" fill="#1c1c1c"></circle><circle cx="372.51549102891784" cy="510.1786459424545" r="3" fill="#196643"></circle><circle cx="463.24232074451055" cy="555.5684119684912" r="4" fill="#1c1c1c"></circle><circle cx="791.993274658528" cy="310.28767942575666" r="1" fill="#99e6c3"></circle><circle cx="484.9730630706194" cy="727.6112425646589" r="3" fill="#248f5e"></circle><circle cx="574.1685463798287" cy="508.4175462364073" r="4" fill="#1c1c1c"></circle><circle cx="540.2132314157836" cy="255.21262000776673" r="2" fill="#2eb879"></circle><circle cx="551.7219503623885" cy="248.85809574483767" r="2" fill="#47d193"></circle><circle cx="483.17867505699684" cy="475.11946112713673" r="4" fill="#1c1c1c"></circle><circle cx="190.10787965550503" cy="377.2683342258564" r="3" fill="#99e6c3"></circle><circle cx="455.8566559208413" cy="831.4533501029421" r="3" fill="#99e6c3"></circle><circle cx="463.58250147356" cy="382.8073666355074" r="4" fill="#0f3d28"></circle><circle cx="216.22941948316782" cy="667.6356193271738" r="1" fill="#99e6c3"></circle><circle cx="564.476190946501" cy="474.9652301674855" r="4" fill="#05140d"></circle><circle cx="772.7940016735175" cy="757.813558020037" r="2" fill="#99e6c3"></circle><circle cx="607.914794189181" cy="470.6152400209837" r="4" fill="#05140d"></circle><circle cx="491.43932789285486" cy="612.6019536405691" r="1" fill="#05140d"></circle><circle cx="779.2464004036153" cy="572.4044724636283" r="1" fill="#47d193"></circle><circle cx="646.0982522137459" cy="436.6962165915639" r="2" fill="#0f3d28"></circle><circle cx="395.06219589717057" cy="588.9248225223811" r="5" fill="#0f3d28"></circle><circle cx="312.3106644975361" cy="626.2075785640408" r="4" fill="#248f5e"></circle><circle cx="766.8133730869228" cy="682.7908373885191" r="5" fill="#99e6c3"></circle><circle cx="505.8753056690716" cy="231.236246537745" r="1" fill="#47d193"></circle><circle cx="408.48755702265476" cy="224.84023899010765" r="3" fill="#47d193"></circle><circle cx="389.4932583467965" cy="696.8649358136652" r="1" fill="#248f5e"></circle><circle cx="430.3379526475504" cy="497.5324601644465" r="5" fill="#1c1c1c"></circle><circle cx="779.3169655283102" cy="394.1665428145633" r="4" fill="#47d193"></circle><circle cx="383.9376031960261" cy="849.5296365111611" r="5" fill="#99e6c3"></circle><circle cx="507.7335591389459" cy="419.15214157545506" r="2" fill="#05140d"></circle><circle cx="467.4095268396948" cy="704.1211435425464" r="1" fill="#2eb879"></circle><circle cx="662.6917645210347" cy="453.61508475014074" r="5" fill="#196643"></circle><circle cx="469.1996303190616" cy="292.33319715833005" r="4" fill="#196643"></circle><circle cx="636.031964518435" cy="448.3258262016129" r="4" fill="#0f3d28"></circle><circle cx="569.6697246197646" cy="552.9338224417825" r="2" fill="#05140d"></circle><circle cx="368.90677712987133" cy="363.21951962533495" r="4" fill="#196643"></circle><circle cx="412.88132575139736" cy="337.6639373320121" r="3" fill="#196643"></circle><circle cx="417.4098545665994" cy="518.5149241405888" r="3" fill="#0f3d28"></circle><circle cx="545.407069241702" cy="661.8024805703274" r="2" fill="#196643"></circle><circle cx="539.9646404297587" cy="372.00792695833576" r="1" fill="#0f3d28"></circle><circle cx="353.8024538139235" cy="463.3969698583272" r="3" fill="#0f3d28"></circle><circle cx="327.70952275369416" cy="520.6824624613309" r="2" fill="#248f5e"></circle><circle cx="436.37452271478674" cy="574.7105573152961" r="1" fill="#1c1c1c"></circle><circle cx="521.2879694736524" cy="771.9925932437795" r="5" fill="#47d193"></circle><circle cx="426.829034515505" cy="553.7790132033506" r="3" fill="#05140d"></circle><circle cx="557.909521139925" cy="530.2916424633358" r="3" fill="#1c1c1c"></circle><circle cx="521.2435876081191" cy="346.79544758473776" r="3" fill="#0f3d28"></circle><circle cx="656.0754159765888" cy="673.3698325627538" r="1" fill="#248f5e"></circle><circle cx="667.736666585835" cy="648.4176630146751" r="3" fill="#248f5e"></circle><circle cx="574.7168939456058" cy="629.6567718535541" r="4" fill="#0f3d28"></circle><circle cx="458.0985381655494" cy="436.3761535696805" r="2" fill="#05140d"></circle><circle cx="627.0886400355473" cy="641.7931415670424" r="1" fill="#196643"></circle><circle cx="545.6600710889562" cy="540.1668519866454" r="4" fill="#1c1c1c"></circle><circle cx="469.50962087418367" cy="405.32481917037114" r="5" fill="#05140d"></circle><circle cx="426.9457181528751" cy="594.788541875421" r="1" fill="#05140d"></circle><circle cx="589.0979949947714" cy="271.5239550366882" r="5" fill="#47d193"></circle><circle cx="454.5511653381287" cy="422.1265330717344" r="3" fill="#0f3d28"></circle><circle cx="431.6406963210869" cy="479.9113419264648" r="3" fill="#1c1c1c"></circle><circle cx="613.9827319760999" cy="345.0081996645908" r="4" fill="#196643"></circle><circle cx="468.16284491669217" cy="265.0363417031032" r="4" fill="#248f5e"></circle><circle cx="665.0318008834474" cy="615.2288306207541" r="3" fill="#248f5e"></circle><circle cx="303.85277219267493" cy="620.6259359282533" r="3" fill="#248f5e"></circle><circle cx="483.38123522215744" cy="306.6220195548652" r="1" fill="#196643"></circle><circle cx="342.6714665435554" cy="725.4775088525455" r="2" fill="#47d193"></circle><circle cx="555.5914326488478" cy="675.5349595117389" r="4" fill="#196643"></circle><circle cx="610.9385863486748" cy="176.37117418695215" r="5" fill="#47d193"></circle><circle cx="505.2337380407532" cy="683.1824862733822" r="5" fill="#196643"></circle><circle cx="272.6005548895979" cy="680.4569509108852" r="2" fill="#47d193"></circle><circle cx="350.3984349286975" cy="862.8959033524061" r="3" fill="#99e6c3"></circle><circle cx="142.7660067528285" cy="545.3254770132742" r="3" fill="#99e6c3"></circle><circle cx="420.60713947963325" cy="480.27224299441286" r="3" fill="#1c1c1c"></circle><circle cx="290.7911482574487" cy="460.70643153653765" r="3" fill="#248f5e"></circle><circle cx="641.2036704642828" cy="455.4475691051045" r="3" fill="#0f3d28"></circle><circle cx="534.3216657500209" cy="184.44582321010733" r="3" fill="#47d193"></circle><circle cx="328.8332250545899" cy="430.331653636152" r="5" fill="#248f5e"></circle><circle cx="605.2862879102559" cy="540.760317845478" r="2" fill="#05140d"></circle><circle cx="807.0343602852457" cy="698.3932803532036" r="1" fill="#99e6c3"></circle><circle cx="522.0042013097466" cy="493.7236175095262" r="2" fill="#1c1c1c"></circle><circle cx="646.2773582261523" cy="334.5151008008967" r="4" fill="#248f5e"></circle><circle cx="604.3861937206146" cy="609.0326338301192" r="5" fill="#0f3d28"></circle><circle cx="455.7908229490332" cy="257.3915826961932" r="1" fill="#47d193"></circle><circle cx="577.4062653691117" cy="581.4136645578296" r="3" fill="#05140d"></circle><circle cx="408.83840342831473" cy="271.6352645475379" r="4" fill="#47d193"></circle><circle cx="448.7290557043161" cy="511.0518541681088" r="2" fill="#1c1c1c"></circle><circle cx="577.0817415645595" cy="710.6443128589923" r="2" fill="#248f5e"></circle><circle cx="468.06778851176284" cy="709.3832578164352" r="1" fill="#248f5e"></circle><circle cx="305.77156578241704" cy="196.03516476738008" r="1" fill="#99e6c3"></circle><circle cx="514.3631060560408" cy="479.63103244079736" r="4" fill="#1c1c1c"></circle><circle cx="398.86403449362666" cy="518.1945348506915" r="4" fill="#05140d"></circle><circle cx="675.3592703060156" cy="640.1533459484107" r="2" fill="#248f5e"></circle><circle cx="458.64234198581784" cy="928.736383389672" r="1" fill="#99e6c3"></circle><circle cx="458.25783461422515" cy="373.2097679793589" r="1" fill="#0f3d28"></circle><circle cx="454.47704475156615" cy="506.3619767990571" r="4" fill="#05140d"></circle><circle cx="230.96244964145444" cy="615.6175070576211" r="1" fill="#47d193"></circle><circle cx="498.8182654185385" cy="631.801664835009" r="3" fill="#0f3d28"></circle><circle cx="637.8222904884129" cy="547.4558242947295" r="3" fill="#0f3d28"></circle><circle cx="695.7961506374612" cy="710.8917914270107" r="1" fill="#47d193"></circle><circle cx="310.1696668054027" cy="373.2482499306135" r="3" fill="#2eb879"></circle><circle cx="235.40642109926642" cy="559.3162217065212" r="2" fill="#47d193"></circle><circle cx="395.8263597239191" cy="487.27048744368403" r="2" fill="#05140d"></circle><circle cx="362.9425904923114" cy="271.57743856085585" r="4" fill="#2eb879"></circle><circle cx="640.0904150400969" cy="411.2806652569527" r="1" fill="#0f3d28"></circle><circle cx="665.2709560154138" cy="445.71524107789133" r="4" fill="#196643"></circle><circle cx="624.2279793057203" cy="193.83219869809324" r="3" fill="#99e6c3"></circle><circle cx="476.1956845916006" cy="739.1128769941442" r="4" fill="#47d193"></circle><circle cx="645.349797566083" cy="591.6059606973486" r="2" fill="#196643"></circle><circle cx="500.10990560099555" cy="753.4616113015281" r="2" fill="#47d193"></circle><circle cx="403.41270370508596" cy="209.9030039710044" r="5" fill="#47d193"></circle><circle cx="382.87843467923653" cy="705.5208607814313" r="2" fill="#248f5e"></circle><circle cx="468.42451140391245" cy="462.20545048749375" r="2" fill="#05140d"></circle><circle cx="430.02404761296447" cy="768.1953788558403" r="5" fill="#47d193"></circle><circle cx="427.9197467795561" cy="528.9643306916773" r="5" fill="#1c1c1c"></circle><circle cx="414.4641085351622" cy="394.3733071775762" r="1" fill="#0f3d28"></circle><circle cx="659.5386888062774" cy="421.3541635672035" r="3" fill="#196643"></circle><circle cx="519.4573922826371" cy="278.470952174923" r="2" fill="#248f5e"></circle><circle cx="359.35754055234133" cy="493.71574367817925" r="5" fill="#0f3d28"></circle><circle cx="636.7459596473683" cy="616.452267040281" r="2" fill="#0f3d28"></circle><circle cx="673.010403700867" cy="505.1048614126364" r="2" fill="#0f3d28"></circle><circle cx="466.1889110001432" cy="511.27640997372487" r="2" fill="#05140d"></circle><circle cx="866.0692399340762" cy="333.2758733935219" r="4" fill="#99e6c3"></circle><circle cx="589.9357971431158" cy="447.52913998987566" r="5" fill="#05140d"></circle><circle cx="421.0339631732987" cy="394.84433222412514" r="5" fill="#0f3d28"></circle><circle cx="245.77597620775046" cy="339.8502190072953" r="4" fill="#47d193"></circle><circle cx="387.3565509260951" cy="349.7051073962002" r="3" fill="#196643"></circle><circle cx="366.91575266905716" cy="482.4105536763885" r="1" fill="#0f3d28"></circle><circle cx="463.11695310484345" cy="426.92935762561535" r="2" fill="#05140d"></circle><circle cx="614.3838002715258" cy="469.9408822144798" r="1" fill="#0f3d28"></circle><circle cx="328.19502033446184" cy="348.61304028920205" r="5" fill="#248f5e"></circle><circle cx="647.9498885785803" cy="496.8164928011625" r="5" fill="#0f3d28"></circle><circle cx="467.5862091751871" cy="566.3768154577078" r="5" fill="#1c1c1c"></circle><circle cx="272.6279583766934" cy="474.2903736705474" r="3" fill="#248f5e"></circle><circle cx="526.903840875032" cy="466.0740417753691" r="1" fill="#1c1c1c"></circle><circle cx="762.5568658158279" cy="438.78725400830194" r="3" fill="#47d193"></circle><circle cx="454.0156038122196" cy="468.0989768992405" r="3" fill="#1c1c1c"></circle><circle cx="445.66671268699605" cy="864.0449574838951" r="3" fill="#99e6c3"></circle><circle cx="471.0588508226682" cy="495.2858322646826" r="1" fill="#1c1c1c"></circle><circle cx="499.47182819359256" cy="641.4353282850802" r="5" fill="#196643"></circle><circle cx="786.3506995216444" cy="503.9912865614034" r="3" fill="#47d193"></circle><circle cx="548.4902687420398" cy="434.4155769190249" r="4" fill="#05140d"></circle><circle cx="280.34098303529674" cy="562.3725265887572" r="2" fill="#248f5e"></circle><circle cx="333.3131086121339" cy="597.4764533701596" r="1" fill="#196643"></circle><circle cx="531.5592244247732" cy="393.72481753429605" r="2" fill="#1c1c1c"></circle><circle cx="622.9414838186019" cy="334.4485449342916" r="5" fill="#196643"></circle><circle cx="460.3851348838526" cy="693.1270648748704" r="2" fill="#196643"></circle><circle cx="676.166628199055" cy="409.8522399144452" r="3" fill="#196643"></circle><circle cx="501.878580141966" cy="487.424690879009" r="3" fill="#1c1c1c"></circle><circle cx="466.2351764588892" cy="466.650794593166" r="1" fill="#1c1c1c"></circle><circle cx="512.8390479795291" cy="534.2426782904379" r="5" fill="#1c1c1c"></circle><circle cx="408.11431557119533" cy="328.27366963524224" r="1" fill="#196643"></circle><circle cx="736.3220578494413" cy="501.95492783950255" r="5" fill="#196643"></circle><circle cx="467.11532272285535" cy="798.799571556297" r="2" fill="#47d193"></circle><circle cx="420.53310709841287" cy="525.3368382029525" r="1" fill="#05140d"></circle><circle cx="750.9444983848291" cy="582.8322764544708" r="4" fill="#47d193"></circle><circle cx="542.4135737692703" cy="256.3300666934957" r="4" fill="#47d193"></circle><circle cx="366.91145326854917" cy="577.0827864336627" r="2" fill="#0f3d28"></circle><circle cx="398.37225133220903" cy="653.9030074274465" r="3" fill="#196643"></circle><circle cx="466.2736411917769" cy="428.79320576062617" r="1" fill="#1c1c1c"></circle><circle cx="528.4449064872093" cy="573.3462240003134" r="5" fill="#1c1c1c"></circle><circle cx="290.88812431911174" cy="552.1979150122681" r="4" fill="#248f5e"></circle><circle cx="498.6014846685487" cy="538.235362533265" r="3" fill="#05140d"></circle><circle cx="389.18796403335796" cy="519.1894680744948" r="3" fill="#05140d"></circle><circle cx="482.446105438083" cy="368.754682689839" r="2" fill="#0f3d28"></circle><circle cx="391.3529718243687" cy="540.6199591825891" r="2" fill="#05140d"></circle><circle cx="502.26456824487883" cy="488.0655588311239" r="3" fill="#1c1c1c"></circle><circle cx="310.74172192236654" cy="278.2284992412373" r="5" fill="#47d193"></circle><circle cx="209.05317097454554" cy="506.43904935500234" r="3" fill="#47d193"></circle><circle cx="215.20801814742651" cy="407.4007706795629" r="5" fill="#47d193"></circle><circle cx="538.9211535064373" cy="336.4081708978491" r="4" fill="#248f5e"></circle><circle cx="402.2706047547945" cy="399.19210099666407" r="5" fill="#0f3d28"></circle><circle cx="382.45845996959645" cy="560.1194436309879" r="2" fill="#0f3d28"></circle><circle cx="457.5448169469113" cy="365.12042760132465" r="3" fill="#05140d"></circle><circle cx="547.6867230261597" cy="442.36742556445154" r="3" fill="#1c1c1c"></circle><circle cx="351.87673183085457" cy="497.00620306241984" r="2" fill="#0f3d28"></circle><circle cx="528.2767019952386" cy="488.8634412743577" r="2" fill="#1c1c1c"></circle><circle cx="570.9775642500575" cy="576.045078523897" r="4" fill="#0f3d28"></circle><circle cx="657.1614166814909" cy="394.4987457292639" r="3" fill="#196643"></circle><circle cx="632.2297096951675" cy="723.8008332666802" r="5" fill="#47d193"></circle><circle cx="725.1928516217642" cy="427.8316796157179" r="4" fill="#248f5e"></circle><circle cx="360.44262057876125" cy="646.4542015597149" r="4" fill="#248f5e"></circle><circle cx="274.44334176627956" cy="576.6555236737115" r="3" fill="#248f5e"></circle><circle cx="665.6273537942511" cy="681.7320016208296" r="1" fill="#47d193"></circle><circle cx="258.32237213325163" cy="694.4348446636907" r="1" fill="#47d193"></circle><circle cx="440.2063865582161" cy="323.21893108111874" r="3" fill="#248f5e"></circle><circle cx="303.991652352948" cy="687.472143902576" r="2" fill="#47d193"></circle><circle cx="733.2779364682899" cy="420.5660462540825" r="3" fill="#47d193"></circle><circle cx="291.73794216711144" cy="327.6014896882501" r="3" fill="#47d193"></circle><circle cx="531.7535307900638" cy="430.00673562273437" r="2" fill="#05140d"></circle><circle cx="521.3346674454023" cy="455.2136971290587" r="3" fill="#1c1c1c"></circle><circle cx="530.908801188544" cy="477.92048473573675" r="2" fill="#1c1c1c"></circle><circle cx="436.6257240420344" cy="712.1328074337052" r="3" fill="#248f5e"></circle><circle cx="482.1400932636683" cy="553.9675787202518" r="3" fill="#1c1c1c"></circle><circle cx="418.44298297299895" cy="431.0295484647201" r="4" fill="#05140d"></circle><circle cx="182.44871184577232" cy="538.805497968646" r="2" fill="#47d193"></circle><circle cx="658.9840108397061" cy="399.49516562054" r="5" fill="#0f3d28"></circle><circle cx="480.0698358737326" cy="487.76915731874675" r="5" fill="#1c1c1c"></circle><circle cx="391.2944547634935" cy="502.2400875430048" r="4" fill="#0f3d28"></circle><circle cx="465.8840241847895" cy="436.2215384519841" r="4" fill="#1c1c1c"></circle><circle cx="462.94380193550705" cy="728.4002173677426" r="4" fill="#248f5e"></circle><circle cx="434.4446597908655" cy="519.2307391397193" r="2" fill="#1c1c1c"></circle><circle cx="541.5896312040326" cy="622.0457621843237" r="2" fill="#0f3d28"></circle><circle cx="359.4611440909247" cy="722.4426757236845" r="2" fill="#47d193"></circle><circle cx="534.9034812438865" cy="565.4577379422958" r="5" fill="#1c1c1c"></circle><circle cx="632.0346888571372" cy="656.5600913863159" r="3" fill="#248f5e"></circle><circle cx="384.30293966933436" cy="666.7924905832349" r="3" fill="#248f5e"></circle><circle cx="487.4162680018514" cy="640.307286272907" r="2" fill="#0f3d28"></circle><circle cx="707.6059702892917" cy="593.5718432141271" r="2" fill="#248f5e"></circle><circle cx="521.4417293814583" cy="486.7617338650647" r="3" fill="#1c1c1c"></circle><circle cx="403.9355901984837" cy="693.4575251086744" r="4" fill="#248f5e"></circle><circle cx="471.8036247513395" cy="322.99739274095487" r="1" fill="#196643"></circle><circle cx="528.9671988946267" cy="701.1438846923892" r="2" fill="#248f5e"></circle><circle cx="279.58590256532887" cy="655.5724506289373" r="2" fill="#47d193"></circle><circle cx="566.9113074362625" cy="438.37460869115506" r="5" fill="#05140d"></circle><circle cx="515.5850686439871" cy="375.79236328481255" r="2" fill="#0f3d28"></circle><circle cx="520.6899163892006" cy="399.38781083526055" r="1" fill="#1c1c1c"></circle><circle cx="494.709968425593" cy="404.76523316212115" r="3" fill="#05140d"></circle><circle cx="651.2312762414986" cy="737.6256294315924" r="2" fill="#47d193"></circle><circle cx="613.5586310199517" cy="415.3963237907304" r="3" fill="#0f3d28"></circle><circle cx="576.2993398432635" cy="579.9958998851248" r="4" fill="#05140d"></circle><circle cx="609.2537148496319" cy="339.8360037809528" r="3" fill="#0f3d28"></circle><circle cx="442.2005755898821" cy="560.0898785478921" r="1" fill="#05140d"></circle><circle cx="689.089441082219" cy="376.8853002323458" r="1" fill="#248f5e"></circle><circle cx="419.8845073884729" cy="490.54532767653404" r="4" fill="#05140d"></circle><circle cx="394.82069113158923" cy="643.2256752299817" r="4" fill="#196643"></circle><circle cx="371.22658878386017" cy="94.64956420822983" r="5" fill="#99e6c3"></circle><circle cx="511.84651839101184" cy="852.7707968506015" r="1" fill="#99e6c3"></circle><circle cx="478.8222317087679" cy="826.6682319420752" r="4" fill="#99e6c3"></circle><circle cx="405.23848816945934" cy="507.8645878505744" r="2" fill="#05140d"></circle><circle cx="468.05310534182047" cy="298.99516608253487" r="5" fill="#248f5e"></circle><circle cx="310.4624818173531" cy="515.375420221581" r="4" fill="#196643"></circle><circle cx="586.1301942237644" cy="606.5223156109304" r="5" fill="#0f3d28"></circle><circle cx="351.4672360278414" cy="587.9644879756156" r="1" fill="#196643"></circle><circle cx="487.9328780661199" cy="437.38219289413297" r="1" fill="#05140d"></circle><circle cx="354.16225542270587" cy="516.8393502709406" r="5" fill="#0f3d28"></circle><circle cx="524.8953551856999" cy="415.8740471750444" r="4" fill="#05140d"></circle><circle cx="498.31514136511987" cy="640.6379440142491" r="5" fill="#0f3d28"></circle><circle cx="494.59798260849" cy="817.5519948563813" r="1" fill="#47d193"></circle><circle cx="379.59777527966725" cy="659.24408386382" r="1" fill="#196643"></circle><circle cx="310.430647224328" cy="551.9140812079141" r="1" fill="#196643"></circle><circle cx="437.67880997530773" cy="524.6017330778888" r="4" fill="#1c1c1c"></circle><circle cx="510.94606615278656" cy="627.6953710739534" r="1" fill="#05140d"></circle><circle cx="634.1636349897556" cy="503.8650035101645" r="2" fill="#0f3d28"></circle><circle cx="512.5366748382038" cy="572.5283437928161" r="5" fill="#1c1c1c"></circle><circle cx="550.67836971826" cy="376.7405455113341" r="5" fill="#0f3d28"></circle><circle cx="491.22641492965613" cy="605.357832209233" r="2" fill="#05140d"></circle><circle cx="502.90331252971373" cy="742.1832489094759" r="1" fill="#47d193"></circle><circle cx="515.5372412023225" cy="524.5141335109922" r="1" fill="#1c1c1c"></circle><circle cx="696.5489388827634" cy="499.04021299757756" r="2" fill="#196643"></circle><circle cx="647.2666729779011" cy="379.25299828133615" r="4" fill="#196643"></circle><circle cx="580.2907410528757" cy="390.246346787373" r="3" fill="#196643"></circle><circle cx="332.95233989731037" cy="595.0374042133092" r="2" fill="#196643"></circle><circle cx="502.7040057075262" cy="590.7928087750051" r="2" fill="#05140d"></circle><circle cx="617.5700296046842" cy="426.5416776939756" r="3" fill="#0f3d28"></circle><circle cx="611.2919715217712" cy="596.5965742274058" r="3" fill="#0f3d28"></circle><circle cx="516.3601979347642" cy="348.92016729649015" r="5" fill="#0f3d28"></circle><circle cx="513.6349482942587" cy="385.8995754350299" r="2" fill="#05140d"></circle><circle cx="305.93244663628946" cy="403.58911597812323" r="5" fill="#248f5e"></circle><circle cx="657.2576913355637" cy="507.8299956462434" r="1" fill="#0f3d28"></circle><circle cx="518.8745006625537" cy="531.3034868946321" r="1" fill="#1c1c1c"></circle><circle cx="600.9132429808781" cy="446.93342199956714" r="1" fill="#05140d"></circle><circle cx="475.2171037149143" cy="459.6738718519437" r="1" fill="#05140d"></circle><circle cx="670.509850187957" cy="309.80444719112336" r="4" fill="#47d193"></circle><circle cx="564.5699079866291" cy="381.61938529800375" r="3" fill="#0f3d28"></circle><circle cx="733.0443343145876" cy="593.4387232521201" r="2" fill="#47d193"></circle><circle cx="364.07588681410095" cy="658.7249136439311" r="2" fill="#248f5e"></circle><circle cx="467.416979924213" cy="638.5830312720208" r="4" fill="#196643"></circle><circle cx="167.717762658762" cy="523.2477051033283" r="4" fill="#99e6c3"></circle><circle cx="846.1448299408272" cy="647.6966365736744" r="2" fill="#99e6c3"></circle><circle cx="571.7189502963759" cy="657.0501622756061" r="1" fill="#196643"></circle><circle cx="539.8182549565553" cy="334.0141480153702" r="2" fill="#196643"></circle><circle cx="581.4710856619437" cy="576.5224829236064" r="5" fill="#1c1c1c"></circle><circle cx="534.2428177405692" cy="337.7802882863683" r="3" fill="#196643"></circle><circle cx="681.7967277135978" cy="567.6997380032933" r="4" fill="#196643"></circle><circle cx="702.0050371676167" cy="991.058636832593" r="1" fill="#99e6c3"></circle><circle cx="285.1744536670311" cy="351.45096039795703" r="2" fill="#47d193"></circle><circle cx="478.4172334964351" cy="448.6413240517717" r="1" fill="#1c1c1c"></circle><circle cx="692.7135122403186" cy="443.28934616990205" r="5" fill="#2eb879"></circle><circle cx="280.654083835978" cy="517.9317288064024" r="3" fill="#2eb879"></circle><circle cx="773.2401359658082" cy="392.26087144493675" r="1" fill="#47d193"></circle><circle cx="458.64398186638806" cy="632.1378904917408" r="4" fill="#05140d"></circle><circle cx="341.62495057699476" cy="612.339943447633" r="1" fill="#248f5e"></circle><circle cx="721.1165247891868" cy="426.5797558583748" r="3" fill="#248f5e"></circle><circle cx="532.9522716133134" cy="316.3122115767591" r="1" fill="#248f5e"></circle><circle cx="626.2123521425618" cy="400.4585435539847" r="1" fill="#196643"></circle><circle cx="600.6929526185547" cy="561.3022958115849" r="1" fill="#05140d"></circle><circle cx="550.5663293877319" cy="412.6652616429516" r="1" fill="#1c1c1c"></circle><circle cx="424.3434342688845" cy="304.6318344198591" r="4" fill="#248f5e"></circle><circle cx="595.0816703303013" cy="582.8663708700828" r="2" fill="#0f3d28"></circle><circle cx="643.3372652117027" cy="542.1667405617021" r="2" fill="#0f3d28"></circle><circle cx="359.52504621635296" cy="286.90787377211245" r="3" fill="#2eb879"></circle><circle cx="492.8586758795579" cy="490.3498802849554" r="2" fill="#1c1c1c"></circle><circle cx="522.6000822713147" cy="513.8647155106395" r="4" fill="#05140d"></circle><circle cx="594.5847237831005" cy="408.2186244289335" r="3" fill="#0f3d28"></circle><circle cx="527.5849533718475" cy="442.72717640510615" r="4" fill="#1c1c1c"></circle><circle cx="205.34075059178252" cy="415.87538477063043" r="3" fill="#47d193"></circle><circle cx="656.0825963502796" cy="565.1837446764554" r="5" fill="#196643"></circle><circle cx="372.712431074519" cy="570.0120848424175" r="5" fill="#0f3d28"></circle><circle cx="707.3608177864977" cy="351.736714775882" r="4" fill="#47d193"></circle><circle cx="552.4379661415047" cy="227.21508779792327" r="5" fill="#47d193"></circle><circle cx="344.15709380155704" cy="653.3930544265206" r="1" fill="#196643"></circle><circle cx="369.75171066802045" cy="647.5369531097583" r="1" fill="#0f3d28"></circle><circle cx="571.3053008639266" cy="259.2478618959657" r="3" fill="#47d193"></circle><circle cx="353.85191961239434" cy="643.011011175088" r="5" fill="#248f5e"></circle><circle cx="526.5384703011157" cy="430.48651899204566" r="2" fill="#1c1c1c"></circle><circle cx="405.90155647318414" cy="490.6075079219305" r="2" fill="#05140d"></circle><circle cx="382.5842032029533" cy="237.16607669744826" r="1" fill="#47d193"></circle><circle cx="527.8004930514368" cy="648.5415674557024" r="3" fill="#0f3d28"></circle><circle cx="297.9448350426568" cy="448.76487225651573" r="3" fill="#248f5e"></circle><circle cx="878.9600779231995" cy="314.47101037102027" r="3" fill="#99e6c3"></circle><circle cx="605.7922383954951" cy="442.6258796542745" r="4" fill="#0f3d28"></circle><circle cx="380.7552868364689" cy="464.56220787561267" r="2" fill="#0f3d28"></circle><circle cx="516.9022581197912" cy="404.0632021894048" r="4" fill="#05140d"></circle><circle cx="554.5921540431249" cy="593.3728672269599" r="2" fill="#0f3d28"></circle><circle cx="449.2582938114493" cy="489.26005230955906" r="3" fill="#1c1c1c"></circle><circle cx="373.22082198205874" cy="487.4118880333588" r="3" fill="#0f3d28"></circle><circle cx="574.1301623513671" cy="445.71755241063585" r="5" fill="#05140d"></circle><circle cx="416.9918756157418" cy="321.7859942923029" r="2" fill="#196643"></circle><circle cx="739.5732839408839" cy="371.2757139830081" r="2" fill="#47d193"></circle><circle cx="259.1187902953749" cy="400.94976502627816" r="5" fill="#47d193"></circle><circle cx="683.87301981276" cy="445.699759605448" r="3" fill="#196643"></circle><circle cx="600.3088165820443" cy="409.87251300995473" r="2" fill="#0f3d28"></circle><circle cx="507.0271551497516" cy="831.4187031108283" r="2" fill="#99e6c3"></circle><circle cx="442.7573685988733" cy="480.2911433901609" r="1" fill="#1c1c1c"></circle><circle cx="459.45487887843035" cy="465.41870583168327" r="5" fill="#1c1c1c"></circle><circle cx="342.20310112588174" cy="550.1757560400084" r="5" fill="#196643"></circle><circle cx="503.80267398457727" cy="712.9206118453312" r="5" fill="#248f5e"></circle><circle cx="529.40644969767" cy="411.3690379941812" r="5" fill="#05140d"></circle><circle cx="576.2810031377047" cy="369.2819883280906" r="2" fill="#0f3d28"></circle><circle cx="618.9309860904694" cy="446.0665378976491" r="4" fill="#0f3d28"></circle><circle cx="472.3101722111488" cy="544.4508920789626" r="4" fill="#05140d"></circle><circle cx="473.5041111777085" cy="324.72432391378" r="1" fill="#196643"></circle><circle cx="604.2589180691239" cy="610.8835583514872" r="2" fill="#0f3d28"></circle><circle cx="503.62564390485875" cy="690.078845873527" r="3" fill="#196643"></circle><circle cx="333.5270908212128" cy="444.9508380015331" r="2" fill="#196643"></circle><circle cx="233.22582089278853" cy="609.6037736780196" r="5" fill="#47d193"></circle><circle cx="586.4649609573701" cy="480.92972808774186" r="4" fill="#1c1c1c"></circle><circle cx="604.4848954935619" cy="536.2854282417767" r="5" fill="#1c1c1c"></circle><circle cx="640.7893127365871" cy="661.8712323844882" r="1" fill="#248f5e"></circle><circle cx="717.3463863620269" cy="475.4322673045327" r="1" fill="#248f5e"></circle><circle cx="233.19259080075415" cy="551.9837991728189" r="3" fill="#2eb879"></circle><circle cx="520.2998684170227" cy="700.0880454482842" r="5" fill="#196643"></circle><circle cx="464.0934863711946" cy="689.6514791398185" r="3" fill="#196643"></circle><circle cx="587.4909217096896" cy="536.8940051333188" r="1" fill="#05140d"></circle><circle cx="390.251324512594" cy="295.4253732848865" r="1" fill="#248f5e"></circle><circle cx="179.90782182862205" cy="363.9831740465958" r="5" fill="#99e6c3"></circle><circle cx="383.6786612113377" cy="453.2710272933469" r="5" fill="#0f3d28"></circle><circle cx="646.7641222437821" cy="310.0742539962608" r="2" fill="#47d193"></circle><circle cx="703.1923304183688" cy="710.8084271190678" r="1" fill="#47d193"></circle><circle cx="729.9129474658882" cy="346.699119596473" r="2" fill="#47d193"></circle><circle cx="362.2733816128618" cy="573.3030810273774" r="5" fill="#196643"></circle><circle cx="586.9564757850914" cy="546.9143053925367" r="2" fill="#05140d"></circle><circle cx="399.86977150573114" cy="916.7603216349517" r="5" fill="#99e6c3"></circle><circle cx="570.6976604846137" cy="620.6883778113715" r="1" fill="#05140d"></circle><circle cx="608.8629518045259" cy="501.25618861892406" r="1" fill="#05140d"></circle><circle cx="493.3014048705664" cy="617.9402902300608" r="3" fill="#1c1c1c"></circle><circle cx="483.36086910657036" cy="490.14893818204405" r="5" fill="#1c1c1c"></circle><circle cx="644.6294021501981" cy="611.4415997686759" r="4" fill="#0f3d28"></circle><circle cx="575.3357538743371" cy="368.61766027921027" r="5" fill="#05140d"></circle><circle cx="614.7734866892773" cy="480.8709050222466" r="4" fill="#05140d"></circle><circle cx="405.0397853771758" cy="249.1538329716259" r="5" fill="#47d193"></circle><circle cx="654.6777732353323" cy="424.97284682708016" r="2" fill="#0f3d28"></circle><circle cx="491.47955412890803" cy="323.13658998454855" r="1" fill="#196643"></circle><circle cx="344.1801368826909" cy="607.4191433845741" r="3" fill="#196643"></circle><circle cx="233.80488285792973" cy="352.82677467703587" r="2" fill="#47d193"></circle><circle cx="611.0481321985354" cy="283.4376791039015" r="4" fill="#47d193"></circle><circle cx="337.66004405410604" cy="619.5699975774648" r="3" fill="#248f5e"></circle><circle cx="475.3251546487319" cy="616.1477658331547" r="4" fill="#05140d"></circle><circle cx="362.75414972926563" cy="413.06633001555457" r="3" fill="#196643"></circle></svg>