<svg width="1000" height="1000" id="mySVG"><circle cx="596.390465594229" cy="469.4575935106424" r="5" fill="#05140d"></circle><circle cx="139.4545679897065" cy="398.1435499444198" r="5" fill="#99e6c3"></circle><circle cx="538.2091696132788" cy="267.2089039420035" r="5" fill="#248f5e"></circle><circle cx="589.4351752674173" cy="297.74376580860644" r="1" fill="#248f5e"></circle><circle cx="415.1169674128969" cy="85.49198572884791" r="4" fill="#99e6c3"></circle><circle cx="597.8024745366074" cy="340.48983190327255" r="4" fill="#196643"></circle><circle cx="179.94162516353543" cy="662.0663919875847" r="5" fill="#99e6c3"></circle><circle cx="620.069035499609" cy="560.3045554973813" r="5" fill="#196643"></circle><circle cx="427.81951689304645" cy="420.44467111885444" r="2" fill="#05140d"></circle><circle cx="430.7981239966549" cy="511.684649914596" r="5" fill="#05140d"></circle><circle cx="337.8171955787956" cy="335.3724845219888" r="2" fill="#248f5e"></circle><circle cx="596.4001815708012" cy="497.5266752296742" r="3" fill="#05140d"></circle><circle cx="119.85071361105497" cy="448.80012465892645" r="1" fill="#99e6c3"></circle><circle cx="547.8376391905673" cy="749.8717262842899" r="2" fill="#47d193"></circle><circle cx="483.0736770190695" cy="538.0762689020249" r="1" fill="#1c1c1c"></circle><circle cx="553.7205389118718" cy="725.2620272975475" r="5" fill="#248f5e"></circle><circle cx="596.1707903771158" cy="488.9542537938049" r="1" fill="#05140d"></circle><circle cx="592.4338607822311" cy="785.3877920051029" r="1" fill="#47d193"></circle><circle cx="504.1951842226434" cy="477.04164983985646" r="2" fill="#1c1c1c"></circle><circle cx="313.0052907813222" cy="461.09311959586205" r="4" fill="#196643"></circle><circle cx="404.12265433150014" cy="374.9051650546174" r="5" fill="#0f3d28"></circle><circle cx="523.0132480853266" cy="529.5653145240901" r="3" fill="#05140d"></circle><circle cx="446.7253877512479" cy="415.38134371402384" r="3" fill="#05140d"></circle><circle cx="467.7877748117572" cy="622.1340934955653" r="3" fill="#0f3d28"></circle><circle cx="467.1902321045266" cy="594.2047033124394" r="5" fill="#05140d"></circle><circle cx="521.2947510131855" cy="513.4269371157407" r="5" fill="#05140d"></circle><circle cx="433.370036090609" cy="498.9476693567264" r="3" fill="#05140d"></circle><circle cx="508.4141313536764" cy="437.01894645772853" r="4" fill="#1c1c1c"></circle><circle cx="408.3184714518608" cy="418.6202054665553" r="1" fill="#0f3d28"></circle><circle cx="305.6493763940796" cy="390.6808782800846" r="4" fill="#248f5e"></circle><circle cx="525.3411507890637" cy="479.23514422479644" r="1" fill="#1c1c1c"></circle><circle cx="542.3462151138724" cy="504.63629345900415" r="4" fill="#05140d"></circle><circle cx="620.6934163598992" cy="393.3425398768655" r="1" fill="#0f3d28"></circle><circle cx="620.7296731939452" cy="351.8125867974791" r="2" fill="#0f3d28"></circle><circle cx="460.17191140273377" cy="105.14420419214196" r="3" fill="#99e6c3"></circle><circle cx="355.46825716148464" cy="453.2462180234611" r="3" fill="#0f3d28"></circle><circle cx="452.97133495066225" cy="320.10928974906574" r="5" fill="#196643"></circle><circle cx="145.48626028512808" cy="477.37753870642956" r="4" fill="#99e6c3"></circle><circle cx="524.4518319830204" cy="359.37915970513933" r="4" fill="#0f3d28"></circle><circle cx="541.6361503386993" cy="661.6734675801088" r="5" fill="#196643"></circle><circle cx="607.8035121132211" cy="602.3174365182033" r="5" fill="#0f3d28"></circle><circle cx="469.63797392699024" cy="382.6898160972022" r="3" fill="#0f3d28"></circle><circle cx="317.9833292480551" cy="332.4952967094618" r="3" fill="#47d193"></circle><circle cx="512.4883335077914" cy="881.277301428052" r="3" fill="#99e6c3"></circle><circle cx="330.0806839455208" cy="480.92059022222077" r="4" fill="#196643"></circle><circle cx="447.0884024995854" cy="679.135341813671" r="5" fill="#0f3d28"></circle><circle cx="585.055409007404" cy="294.5582873048855" r="5" fill="#248f5e"></circle><circle cx="442.2330597756336" cy="568.1147807178904" r="2" fill="#05140d"></circle><circle cx="543.3707707102323" cy="198.20613867466204" r="3" fill="#47d193"></circle><circle cx="642.3681851461953" cy="619.1629986995478" r="4" fill="#196643"></circle><circle cx="541.7142865063404" cy="620.4118077887588" r="3" fill="#0f3d28"></circle><circle cx="590.7114439033581" cy="437.74187330618076" r="2" fill="#05140d"></circle><circle cx="320.998381133628" cy="415.21941583886303" r="5" fill="#196643"></circle><circle cx="331.9403348256276" cy="580.5813415868349" r="2" fill="#196643"></circle><circle cx="415.7486117298583" cy="446.5264125364136" r="1" fill="#05140d"></circle><circle cx="334.75536092506275" cy="490.4688093086945" r="2" fill="#196643"></circle><circle cx="393.3093855449096" cy="317.6613561010579" r="2" fill="#196643"></circle><circle cx="393.03512586525255" cy="635.9878782703906" r="4" fill="#248f5e"></circle><circle cx="509.6769381001442" cy="633.9228451185492" r="1" fill="#0f3d28"></circle><circle cx="520.9950374712992" cy="318.7582518122364" r="1" fill="#196643"></circle><circle cx="297.30718601000666" cy="451.8735081694329" r="4" fill="#2eb879"></circle><circle cx="363.07643086918245" cy="754.7542870272866" r="3" fill="#47d193"></circle><circle cx="345.42733277095437" cy="265.0569075432707" r="4" fill="#47d193"></circle><circle cx="518.879510059452" cy="564.7200815193817" r="4" fill="#1c1c1c"></circle><circle cx="136.90027003034743" cy="461.23036593341277" r="5" fill="#99e6c3"></circle><circle cx="438.90632568226937" cy="374.2170905604666" r="3" fill="#0f3d28"></circle><circle cx="579.2389539075449" cy="754.740772628229" r="2" fill="#47d193"></circle><circle cx="455.3869703104577" cy="204.9127695825835" r="4" fill="#47d193"></circle><circle cx="374.08795087216816" cy="247.5117493114485" r="4" fill="#47d193"></circle><circle cx="443.58277923455614" cy="309.60257743909506" r="2" fill="#196643"></circle><circle cx="565.4794236770074" cy="564.8043174596667" r="3" fill="#05140d"></circle><circle cx="560.27983763977" cy="730.2654916778424" r="2" fill="#248f5e"></circle><circle cx="217.030384648103" cy="565.6004624822679" r="5" fill="#47d193"></circle><circle cx="429.10879841185147" cy="596.323673041511" r="4" fill="#05140d"></circle><circle cx="497.48524512078495" cy="453.4397780432526" r="2" fill="#05140d"></circle><circle cx="403.1028048311154" cy="616.8115287271326" r="4" fill="#0f3d28"></circle><circle cx="714.694388611457" cy="465.29415823024317" r="2" fill="#248f5e"></circle><circle cx="403.29468017440405" cy="438.2325160363994" r="2" fill="#05140d"></circle><circle cx="703.3765747372395" cy="344.012185658867" r="4" fill="#47d193"></circle><circle cx="377.67571054668883" cy="533.7714996419109" r="1" fill="#0f3d28"></circle><circle cx="624.261917384477" cy="487.9335876240943" r="3" fill="#0f3d28"></circle><circle cx="495.1785248172636" cy="637.4339137714769" r="2" fill="#0f3d28"></circle><circle cx="394.83123985808834" cy="495.3061104983865" r="2" fill="#05140d"></circle><circle cx="414.2848043824233" cy="499.152518721781" r="1" fill="#05140d"></circle><circle cx="700.0911737059381" cy="482.0133783037075" r="4" fill="#248f5e"></circle><circle cx="585.2619721896803" cy="322.5662986075421" r="1" fill="#196643"></circle><circle cx="572.9156227819652" cy="276.85913350622457" r="4" fill="#2eb879"></circle><circle cx="492.49609403748775" cy="430.3497511593962" r="4" fill="#1c1c1c"></circle><circle cx="424.1539315842444" cy="466.6770650958662" r="5" fill="#05140d"></circle><circle cx="691.4125969846326" cy="382.12640085176025" r="4" fill="#248f5e"></circle><circle cx="679.0401013463925" cy="642.8325905335304" r="1" fill="#248f5e"></circle><circle cx="500.20113996936556" cy="546.8221348127148" r="4" fill="#1c1c1c"></circle><circle cx="510.288876561243" cy="519.4437415311174" r="5" fill="#1c1c1c"></circle><circle cx="493.56414153053066" cy="594.6981490329167" r="3" fill="#05140d"></circle><circle cx="766.2200126360736" cy="550.8856906491498" r="5" fill="#47d193"></circle><circle cx="465.079458500046" cy="739.0727303182325" r="4" fill="#2eb879"></circle><circle cx="515.193999864527" cy="442.43806715236786" r="3" fill="#05140d"></circle><circle cx="717.8741691120604" cy="689.151172070536" r="2" fill="#47d193"></circle><circle cx="545.0263159540161" cy="392.5642565763304" r="2" fill="#0f3d28"></circle><circle cx="516.0250658371764" cy="619.1091806149061" r="2" fill="#0f3d28"></circle><circle cx="477.64458552005567" cy="317.97757232292656" r="3" fill="#196643"></circle><circle cx="286.2290611376967" cy="685.1358146404202" r="1" fill="#47d193"></circle><circle cx="419.92035333746117" cy="436.4946088201769" r="4" fill="#05140d"></circle><circle cx="473.10443563212715" cy="588.9243516358756" r="5" fill="#05140d"></circle><circle cx="605.5482403103148" cy="438.97612433683406" r="3" fill="#05140d"></circle><circle cx="510.0318846303306" cy="555.2439435262644" r="1" fill="#1c1c1c"></circle><circle cx="698.8439265120262" cy="483.9969985773141" r="5" fill="#196643"></circle><circle cx="227.84347099623704" cy="543.3257605702347" r="5" fill="#47d193"></circle><circle cx="526.9814460304846" cy="518.8556349426448" r="1" fill="#05140d"></circle><circle cx="305.1509055709805" cy="334.56037451708136" r="1" fill="#47d193"></circle><circle cx="354.3501088155008" cy="573.8801055960671" r="5" fill="#196643"></circle><circle cx="391.9326090215148" cy="511.1133445990049" r="3" fill="#0f3d28"></circle><circle cx="426.9218507538253" cy="582.8753590750744" r="4" fill="#05140d"></circle><circle cx="588.4113257767555" cy="471.60383196107784" r="3" fill="#05140d"></circle><circle cx="486.3642239593605" cy="304.2378737024093" r="5" fill="#196643"></circle><circle cx="670.0221579604408" cy="441.4444029428838" r="4" fill="#0f3d28"></circle><circle cx="675.5467386174033" cy="622.6383429858552" r="3" fill="#248f5e"></circle><circle cx="549.7776209000446" cy="537.7247650767127" r="4" fill="#1c1c1c"></circle><circle cx="500.8268225585842" cy="347.43112409261704" r="3" fill="#0f3d28"></circle><circle cx="965.8488391011645" cy="492.2163977985021" r="4" fill="#99e6c3"></circle><circle cx="432.85315786846087" cy="719.273745880815" r="2" fill="#248f5e"></circle><circle cx="460.58458983014077" cy="446.1079420307822" r="5" fill="#1c1c1c"></circle><circle cx="441.3984820052541" cy="549.6953694013722" r="2" fill="#1c1c1c"></circle><circle cx="494.84334676620244" cy="284.6596001768469" r="1" fill="#248f5e"></circle><circle cx="589.3445105152507" cy="826.8525743196899" r="5" fill="#99e6c3"></circle><circle cx="507.81986772790407" cy="633.3433871345057" r="2" fill="#196643"></circle><circle cx="713.1241578178249" cy="383.1014067165374" r="5" fill="#2eb879"></circle><circle cx="817.7530256841728" cy="455.48772655615676" r="1" fill="#99e6c3"></circle><circle cx="431.1084482510158" cy="462.1444493569601" r="3" fill="#1c1c1c"></circle><circle cx="730.1199824724475" cy="757.7399013749875" r="2" fill="#47d193"></circle><circle cx="284.40514360950897" cy="433.4751984140099" r="2" fill="#248f5e"></circle><circle cx="464.580615271709" cy="674.5370321164924" r="2" fill="#196643"></circle><circle cx="564.2705600932288" cy="541.8070534155684" r="2" fill="#1c1c1c"></circle><circle cx="538.5779102938438" cy="526.4417800436829" r="5" fill="#1c1c1c"></circle><circle cx="437.7938755562302" cy="484.63257161722584" r="2" fill="#1c1c1c"></circle><circle cx="470.63138506440845" cy="595.3381437657054" r="4" fill="#05140d"></circle><circle cx="330.6291499725297" cy="670.3667015493692" r="2" fill="#47d193"></circle><circle cx="504.88290779192863" cy="352.0613118596592" r="2" fill="#0f3d28"></circle><circle cx="545.8435742452511" cy="313.6235180679861" r="4" fill="#248f5e"></circle><circle cx="366.22334023931853" cy="316.8200544007875" r="2" fill="#2eb879"></circle><circle cx="609.4252062325534" cy="577.8330155510216" r="2" fill="#0f3d28"></circle><circle cx="515.3419973515942" cy="390.5515241009824" r="3" fill="#05140d"></circle><circle cx="545.9803446118416" cy="384.81033361001107" r="3" fill="#0f3d28"></circle><circle cx="576.3690572004963" cy="505.44556825192" r="4" fill="#1c1c1c"></circle><circle cx="607.896954383744" cy="487.23934169171656" r="3" fill="#05140d"></circle><circle cx="329.3717422745224" cy="357.92230987945544" r="3" fill="#248f5e"></circle><circle cx="491.9492772896458" cy="63.83250862507856" r="3" fill="#99e6c3"></circle><circle cx="666.9846715488727" cy="435.9441275329482" r="2" fill="#248f5e"></circle><circle cx="449.4882623902639" cy="556.7680331650722" r="3" fill="#1c1c1c"></circle><circle cx="380.43227893687674" cy="679.4471545687167" r="1" fill="#248f5e"></circle><circle cx="633.6382967999765" cy="478.14583304431625" r="2" fill="#0f3d28"></circle><circle cx="438.68812235684965" cy="680.4580346018598" r="1" fill="#196643"></circle><circle cx="168.42498899133813" cy="809.9245364104804" r="2" fill="#99e6c3"></circle><circle cx="826.2572745496589" cy="687.2563153191238" r="4" fill="#99e6c3"></circle><circle cx="491.8198885228241" cy="533.490808071433" r="1" fill="#1c1c1c"></circle><circle cx="479.47932459727616" cy="524.4538205983463" r="3" fill="#1c1c1c"></circle><circle cx="436.69871888254636" cy="564.3972036890459" r="3" fill="#05140d"></circle><circle cx="499.60180275667796" cy="642.7798821711973" r="2" fill="#196643"></circle><circle cx="373.68797987670257" cy="320.57070532350195" r="3" fill="#248f5e"></circle><circle cx="325.65155714540333" cy="545.2861988454273" r="1" fill="#196643"></circle><circle cx="260.8859848242788" cy="260.1813540246444" r="2" fill="#99e6c3"></circle><circle cx="779.8177878444592" cy="543.8619827222592" r="1" fill="#47d193"></circle><circle cx="639.3525119393356" cy="458.18240816307423" r="2" fill="#0f3d28"></circle><circle cx="438.7634441646993" cy="543.0146747574709" r="4" fill="#1c1c1c"></circle><circle cx="757.760461697744" cy="796.185862969877" r="5" fill="#99e6c3"></circle><circle cx="670.6996864313404" cy="420.3630915418296" r="4" fill="#196643"></circle><circle cx="533.449784746615" cy="800.0773126995441" r="2" fill="#47d193"></circle><circle cx="690.2478179146017" cy="512.3557032247555" r="2" fill="#196643"></circle><circle cx="621.1044385197586" cy="346.4377173469413" r="1" fill="#196643"></circle><circle cx="623.1479947614624" cy="307.7652506401698" r="2" fill="#248f5e"></circle><circle cx="609.2912342279669" cy="517.3995114006991" r="2" fill="#05140d"></circle><circle cx="452.12255418905295" cy="624.6585109869987" r="1" fill="#196643"></circle><circle cx="502.5668305397495" cy="463.96402444279715" r="4" fill="#1c1c1c"></circle><circle cx="425.25417994079123" cy="501.89590744575906" r="4" fill="#1c1c1c"></circle><circle cx="345.3050216631883" cy="792.5989167640347" r="2" fill="#99e6c3"></circle><circle cx="486.8032254911869" cy="344.8205506537429" r="3" fill="#0f3d28"></circle><circle cx="446.8470702759696" cy="459.0705251513977" r="3" fill="#1c1c1c"></circle><circle cx="374.0786284769897" cy="472.7957453147874" r="1" fill="#0f3d28"></circle><circle cx="728.3365737818291" cy="750.8044586471437" r="4" fill="#99e6c3"></circle><circle cx="404.99539334325226" cy="1023.8606161594342" r="1" fill="#99e6c3"></circle><circle cx="654.0203418271001" cy="543.5987188054515" r="3" fill="#196643"></circle><circle cx="827.0587316713002" cy="709.9769213182835" r="1" fill="#99e6c3"></circle><circle cx="415.10918905463296" cy="623.0731227877908" r="4" fill="#0f3d28"></circle><circle cx="415.46573550593325" cy="214.51368663117728" r="2" fill="#47d193"></circle><circle cx="567.4606761064554" cy="337.5926389848406" r="3" fill="#196643"></circle><circle cx="775.7998056905601" cy="543.9799894227936" r="3" fill="#47d193"></circle><circle cx="562.7033969050073" cy="416.369111339067" r="3" fill="#1c1c1c"></circle><circle cx="681.8588105242771" cy="534.8324383300283" r="3" fill="#196643"></circle><circle cx="182.1237862981938" cy="451.2393481109344" r="4" fill="#99e6c3"></circle><circle cx="350.86090784219493" cy="517.3155198391468" r="1" fill="#196643"></circle><circle cx="367.159698142042" cy="584.0402195645861" r="5" fill="#0f3d28"></circle><circle cx="467.4993688251197" cy="310.47865052218515" r="2" fill="#248f5e"></circle><circle cx="423.0797777574594" cy="519.1356484629404" r="5" fill="#1c1c1c"></circle><circle cx="503.6206143794132" cy="454.22099370507766" r="2" fill="#1c1c1c"></circle><circle cx="386.53071361760306" cy="431.0707549498281" r="4" fill="#05140d"></circle><circle cx="633.1572256723158" cy="515.8639075986042" r="4" fill="#0f3d28"></circle><circle cx="349.25749026893317" cy="345.669485133516" r="2" fill="#248f5e"></circle><circle cx="390.2206979748079" cy="446.90351026387225" r="4" fill="#0f3d28"></circle><circle cx="364.42459592501126" cy="314.7938113882751" r="5" fill="#248f5e"></circle><circle cx="483.6881844339683" cy="290.6569896735439" r="5" fill="#248f5e"></circle><circle cx="349.56675749880105" cy="632.7080726940228" r="3" fill="#248f5e"></circle><circle cx="208.73453911915493" cy="420.1597489915591" r="3" fill="#47d193"></circle><circle cx="438.0428394865763" cy="723.2177033410101" r="5" fill="#248f5e"></circle><circle cx="563.1931759696852" cy="760.4336140344515" r="3" fill="#47d193"></circle><circle cx="706.5742702228898" cy="427.77984792810486" r="1" fill="#248f5e"></circle><circle cx="362.6297359362657" cy="486.3557218819786" r="3" fill="#0f3d28"></circle><circle cx="629.0543106441368" cy="414.4817918245775" r="5" fill="#0f3d28"></circle><circle cx="467.0730733735474" cy="552.6803954032109" r="4" fill="#1c1c1c"></circle><circle cx="486.21114355455" cy="831.341085310298" r="5" fill="#99e6c3"></circle><circle cx="367.24523578071035" cy="628.0215786672193" r="4" fill="#196643"></circle><circle cx="274.95819758683024" cy="840.4543996861568" r="2" fill="#99e6c3"></circle><circle cx="878.1583468766728" cy="360.33471966891585" r="3" fill="#99e6c3"></circle><circle cx="483.7955184382201" cy="308.2007167455417" r="3" fill="#196643"></circle><circle cx="311.37215760195056" cy="457.8128787878196" r="5" fill="#248f5e"></circle><circle cx="681.0765339801128" cy="365.09809055044195" r="3" fill="#248f5e"></circle><circle cx="530.8459362845574" cy="402.45458335857364" r="5" fill="#05140d"></circle><circle cx="511.22141583821195" cy="445.08634980198605" r="2" fill="#05140d"></circle><circle cx="706.121533339724" cy="406.880715588982" r="5" fill="#248f5e"></circle><circle cx="476.64832773725936" cy="601.9556624994008" r="5" fill="#0f3d28"></circle><circle cx="308.3024150438382" cy="539.0274684723227" r="2" fill="#196643"></circle><circle cx="390.69999854417017" cy="460.36890824914803" r="3" fill="#05140d"></circle><circle cx="658.4613286188287" cy="354.68534212845043" r="5" fill="#248f5e"></circle><circle cx="407.1944884480739" cy="277.81722183361103" r="1" fill="#47d193"></circle><circle cx="418.8443748966536" cy="560.2184882136168" r="4" fill="#0f3d28"></circle><circle cx="573.0460214175141" cy="732.0767277084462" r="4" fill="#47d193"></circle><circle cx="583.1369546000227" cy="719.2582749643088" r="2" fill="#196643"></circle><circle cx="461.2221137860107" cy="413.10183346058136" r="4" fill="#05140d"></circle><circle cx="686.8717028565193" cy="843.3970518471064" r="2" fill="#99e6c3"></circle><circle cx="540.7844896682582" cy="643.975991326147" r="4" fill="#0f3d28"></circle><circle cx="427.5232704824302" cy="567.557678365925" r="5" fill="#05140d"></circle><circle cx="729.7611391077068" cy="858.7169133737038" r="3" fill="#99e6c3"></circle><circle cx="414.9596951711922" cy="565.7033679604808" r="2" fill="#05140d"></circle><circle cx="568.3096987098652" cy="613.9619606383736" r="4" fill="#0f3d28"></circle><circle cx="817.8451675351389" cy="457.96331837670976" r="1" fill="#99e6c3"></circle><circle cx="539.167763625793" cy="258.4889258891927" r="1" fill="#47d193"></circle><circle cx="231.16466709802273" cy="425.3790677682532" r="5" fill="#47d193"></circle><circle cx="502.66714833774057" cy="665.3590182694302" r="4" fill="#196643"></circle><circle cx="381.62709449964376" cy="623.7458562702401" r="4" fill="#196643"></circle><circle cx="328.1869361572721" cy="504.97184696708337" r="4" fill="#196643"></circle><circle cx="581.8288906065023" cy="256.05580010106956" r="3" fill="#47d193"></circle><circle cx="336.8121675340255" cy="680.1272424171435" r="5" fill="#47d193"></circle><circle cx="379.615085419906" cy="576.8517909596603" r="1" fill="#0f3d28"></circle><circle cx="425.4531868136876" cy="151.34263095885382" r="3" fill="#99e6c3"></circle><circle cx="660.6202650412284" cy="488.24553549677387" r="1" fill="#196643"></circle><circle cx="594.7333130306004" cy="523.7258865393077" r="2" fill="#05140d"></circle><circle cx="741.0939901632927" cy="431.9384102610407" r="2" fill="#47d193"></circle><circle cx="503.4949632780097" cy="362.68124903848116" r="4" fill="#0f3d28"></circle><circle cx="310.67453746685584" cy="372.4015912056704" r="5" fill="#2eb879"></circle><circle cx="479.2906265941803" cy="559.0932579648027" r="2" fill="#1c1c1c"></circle><circle cx="589.9456401656794" cy="678.1706248426724" r="5" fill="#196643"></circle><circle cx="606.4185062389566" cy="426.90028481958973" r="3" fill="#0f3d28"></circle><circle cx="370.86982816323916" cy="574.9004144710065" r="4" fill="#0f3d28"></circle><circle cx="367.97469732109846" cy="412.4125401107222" r="2" fill="#0f3d28"></circle><circle cx="419.7374759618359" cy="418.30611653207967" r="3" fill="#05140d"></circle><circle cx="777.6811560259979" cy="590.0183988820171" r="4" fill="#47d193"></circle><circle cx="768.2518484134209" cy="229.44103585141175" r="2" fill="#99e6c3"></circle><circle cx="315.50312330966904" cy="623.372252963361" r="5" fill="#248f5e"></circle><circle cx="576.648263564151" cy="498.9189177826571" r="2" fill="#05140d"></circle><circle cx="448.44432935630334" cy="272.8911920002447" r="1" fill="#248f5e"></circle><circle cx="582.366506158751" cy="488.5610198662434" r="4" fill="#05140d"></circle><circle cx="336.9020563156571" cy="481.9973864268502" r="3" fill="#196643"></circle><circle cx="682.6361961003824" cy="393.3079853234352" r="5" fill="#248f5e"></circle><circle cx="555.0833947496105" cy="530.0857560187586" r="4" fill="#1c1c1c"></circle><circle cx="544.1017035272131" cy="511.1270386829744" r="5" fill="#1c1c1c"></circle><circle cx="620.3902657681955" cy="382.6085710584807" r="2" fill="#196643"></circle><circle cx="501.37872344372823" cy="457.8574218719893" r="3" fill="#05140d"></circle><circle cx="661.9018613213977" cy="292.3611980958714" r="4" fill="#2eb879"></circle><circle cx="146.01109014988162" cy="716.2590087389334" r="4" fill="#99e6c3"></circle><circle cx="626.9412326524628" cy="581.9322478724096" r="1" fill="#05140d"></circle><circle cx="607.3828280729194" cy="335.73498922995594" r="2" fill="#196643"></circle><circle cx="559.630419453707" cy="503.2847430947857" r="3" fill="#1c1c1c"></circle><circle cx="274.1438261447646" cy="503.74474036750115" r="5" fill="#248f5e"></circle><circle cx="207.3376796500457" cy="440.955527512153" r="4" fill="#47d193"></circle><circle cx="549.4033371593184" cy="436.0855196286251" r="1" fill="#05140d"></circle><circle cx="652.7993397629132" cy="504.3890719881667" r="2" fill="#196643"></circle><circle cx="658.9923465924658" cy="728.1770823389544" r="5" fill="#47d193"></circle><circle cx="677.6232133875005" cy="537.8944730621893" r="4" fill="#196643"></circle><circle cx="576.0810104242994" cy="227.75790927724847" r="5" fill="#99e6c3"></circle><circle cx="403.6469707669024" cy="498.07256778850746" r="1" fill="#05140d"></circle><circle cx="337.0672341825321" cy="634.6375102717383" r="2" fill="#248f5e"></circle><circle cx="792.5268203834912" cy="227.0119766128317" r="5" fill="#99e6c3"></circle><circle cx="475.2815756081179" cy="480.9822648822891" r="2" fill="#1c1c1c"></circle><circle cx="601.6693594865305" cy="670.1136261168276" r="3" fill="#248f5e"></circle><circle cx="401.0766915377867" cy="464.41062490472274" r="5" fill="#05140d"></circle><circle cx="191.5504819955496" cy="362.2347095025735" r="2" fill="#99e6c3"></circle><circle cx="478.57091951958" cy="503.6190046479017" r="4" fill="#05140d"></circle><circle cx="256.68553598536505" cy="526.912673111348" r="5" fill="#47d193"></circle><circle cx="381.3497618128473" cy="579.3474470788879" r="4" fill="#0f3d28"></circle><circle cx="463.0272706946949" cy="478.4619362366421" r="3" fill="#1c1c1c"></circle><circle cx="627.5074722874098" cy="341.87500855405403" r="2" fill="#248f5e"></circle><circle cx="570.3414025419534" cy="596.1233433448865" r="3" fill="#05140d"></circle><circle cx="593.7832726533339" cy="603.5222305742336" r="3" fill="#0f3d28"></circle><circle cx="624.2464007718685" cy="459.72200504011766" r="3" fill="#0f3d28"></circle><circle cx="801.5193213928414" cy="576.6713518589563" r="5" fill="#47d193"></circle><circle cx="366.3038223613953" cy="502.5033362871924" r="2" fill="#196643"></circle><circle cx="595.5417602009444" cy="388.54834250554785" r="2" fill="#0f3d28"></circle><circle cx="606.3304351944121" cy="691.6277428956222" r="2" fill="#248f5e"></circle><circle cx="384.52855809879236" cy="707.8292906411922" r="2" fill="#248f5e"></circle><circle cx="554.979630048479" cy="554.0845293142775" r="3" fill="#1c1c1c"></circle><circle cx="432.99110120634214" cy="615.3713468388264" r="5" fill="#0f3d28"></circle><circle cx="494.10793109003055" cy="304.19289399354955" r="2" fill="#196643"></circle><circle cx="354.69717418919186" cy="377.75399526313214" r="5" fill="#196643"></circle><circle cx="309.29742635781406" cy="761.4088977437968" r="5" fill="#99e6c3"></circle><circle cx="685.5435779615194" cy="496.9672079249946" r="4" fill="#196643"></circle><circle cx="475.25109586336384" cy="659.668260937566" r="4" fill="#196643"></circle><circle cx="189.03343065694742" cy="615.4459175571684" r="1" fill="#99e6c3"></circle><circle cx="202.55370802577977" cy="735.1239734000744" r="1" fill="#99e6c3"></circle><circle cx="524.7734389683577" cy="363.13161423928494" r="1" fill="#0f3d28"></circle><circle cx="519.8890708959618" cy="251.58775464582723" r="1" fill="#47d193"></circle><circle cx="481.6197860297192" cy="465.69928620134124" r="3" fill="#1c1c1c"></circle><circle cx="319.3724457883922" cy="874.2111101978276" r="1" fill="#99e6c3"></circle><circle cx="576.3267932631612" cy="456.6424341705138" r="2" fill="#05140d"></circle><circle cx="558.0917903737293" cy="373.4507075609064" r="2" fill="#0f3d28"></circle><circle cx="325.4360980205198" cy="466.0726500014322" r="2" fill="#196643"></circle><circle cx="431.6849159457" cy="618.4037144386205" r="5" fill="#196643"></circle><circle cx="619.4989471582041" cy="432.43847391902136" r="1" fill="#0f3d28"></circle><circle cx="353.4616183810348" cy="682.6882273581515" r="4" fill="#248f5e"></circle><circle cx="623.1502880332952" cy="827.9652106950948" r="4" fill="#47d193"></circle><circle cx="623.7244140186987" cy="393.1776144814143" r="3" fill="#196643"></circle><circle cx="328.3238997647932" cy="391.1953082806666" r="2" fill="#248f5e"></circle><circle cx="886.7687032562394" cy="542.1574491703335" r="1" fill="#99e6c3"></circle><circle cx="366.3042266473948" cy="763.7446159853971" r="1" fill="#47d193"></circle><circle cx="674.1080940342605" cy="424.4519936056882" r="5" fill="#248f5e"></circle><circle cx="432.5140392611054" cy="432.4525829061346" r="5" fill="#05140d"></circle><circle cx="287.48999559658006" cy="347.2606262509816" r="5" fill="#47d193"></circle><circle cx="462.4709211683677" cy="511.1258751645996" r="4" fill="#1c1c1c"></circle><circle cx="321.4527847538327" cy="414.8354213881068" r="5" fill="#196643"></circle><circle cx="565.5118956021649" cy="588.558454815905" r="2" fill="#05140d"></circle><circle cx="463.3257345168904" cy="622.638132292747" r="3" fill="#0f3d28"></circle><circle cx="330.20670979639465" cy="584.6930962613739" r="3" fill="#196643"></circle><circle cx="524.5560054446053" cy="672.1058636008352" r="3" fill="#196643"></circle><circle cx="537.5827999074057" cy="249.10389184729058" r="5" fill="#2eb879"></circle><circle cx="448.2170567611996" cy="397.9538083422447" r="2" fill="#0f3d28"></circle><circle cx="689.205103368698" cy="410.08830448556955" r="2" fill="#2eb879"></circle><circle cx="573.7268183067023" cy="521.5849584925479" r="4" fill="#1c1c1c"></circle><circle cx="597.1707676735066" cy="401.0570520220731" r="3" fill="#0f3d28"></circle><circle cx="606.1044419370824" cy="391.5100139055666" r="2" fill="#0f3d28"></circle><circle cx="503.1604936869781" cy="46.33584927410459" r="3" fill="#99e6c3"></circle><circle cx="457.3590667794879" cy="132.92755352865709" r="4" fill="#99e6c3"></circle><circle cx="674.6730064477384" cy="212.59233800983037" r="1" fill="#99e6c3"></circle><circle cx="707.7412329370327" cy="284.6876900462298" r="3" fill="#47d193"></circle><circle cx="639.8393935343497" cy="785.1179759982867" r="3" fill="#47d193"></circle><circle cx="577.4183781835737" cy="712.0647802111484" r="2" fill="#2eb879"></circle><circle cx="269.0806214021692" cy="673.7068950792418" r="1" fill="#47d193"></circle><circle cx="550.2405958632049" cy="459.21588262035095" r="1" fill="#1c1c1c"></circle><circle cx="350.19199014541795" cy="370.9655512265765" r="5" fill="#0f3d28"></circle><circle cx="399.5214213414866" cy="563.8567639331316" r="3" fill="#05140d"></circle><circle cx="533.0366951121526" cy="341.2169943847713" r="3" fill="#196643"></circle><circle cx="341.7358773746365" cy="438.4639028975689" r="2" fill="#248f5e"></circle><circle cx="669.692079962201" cy="382.2931143454662" r="3" fill="#248f5e"></circle><circle cx="334.502106756163" cy="350.47188260077417" r="3" fill="#196643"></circle><circle cx="637.9179286559679" cy="526.3179774482081" r="5" fill="#0f3d28"></circle><circle cx="435.7967384018318" cy="473.3217230199083" r="1" fill="#1c1c1c"></circle><circle cx="599.0107427738761" cy="557.1954736129258" r="3" fill="#1c1c1c"></circle><circle cx="505.4525992020544" cy="217.80788557234393" r="4" fill="#47d193"></circle><circle cx="559.7076837895839" cy="562.2142490890624" r="2" fill="#05140d"></circle><circle cx="789.9706333683794" cy="943.9127388406109" r="5" fill="#99e6c3"></circle><circle cx="494.71529706888856" cy="488.0882074927627" r="5" fill="#1c1c1c"></circle><circle cx="539.6476203267819" cy="600.6117134960461" r="1" fill="#05140d"></circle><circle cx="483.05329101827965" cy="399.3405417395691" r="5" fill="#05140d"></circle><circle cx="370.29069816761705" cy="261.16902167019884" r="5" fill="#2eb879"></circle><circle cx="462.6298790305665" cy="563.6470669430933" r="3" fill="#1c1c1c"></circle><circle cx="513.5668604563259" cy="650.3981028433379" r="4" fill="#0f3d28"></circle><circle cx="345.9865473831892" cy="777.9831711077844" r="4" fill="#47d193"></circle><circle cx="661.6849455918257" cy="422.9494004055002" r="4" fill="#196643"></circle><circle cx="636.0085193835806" cy="637.4399572533744" r="4" fill="#196643"></circle><circle cx="382.3763243236757" cy="486.787409406722" r="2" fill="#05140d"></circle><circle cx="509.74827020271664" cy="511.30053086369486" r="3" fill="#05140d"></circle><circle cx="671.3211322418055" cy="472.64544953019566" r="4" fill="#196643"></circle><circle cx="295.39884809934506" cy="646.5246150828414" r="1" fill="#47d193"></circle><circle cx="852.9461582834481" cy="563.3097628762957" r="4" fill="#99e6c3"></circle><circle cx="868.453334577968" cy="427.4248411766086" r="3" fill="#99e6c3"></circle><circle cx="278.3234604647747" cy="515.1163012313459" r="5" fill="#248f5e"></circle><circle cx="378.54606594986456" cy="544.1922296939839" r="2" fill="#196643"></circle><circle cx="519.5973709689416" cy="617.8518965579354" r="4" fill="#0f3d28"></circle><circle cx="397.5713166754065" cy="565.0637377976975" r="5" fill="#0f3d28"></circle><circle cx="614.8885406877787" cy="484.53791497660336" r="2" fill="#05140d"></circle><circle cx="645.3110508913979" cy="493.18497363739345" r="3" fill="#0f3d28"></circle><circle cx="359.2347521595707" cy="587.9476603333856" r="2" fill="#196643"></circle><circle cx="458.0041740465319" cy="543.3128547255916" r="3" fill="#1c1c1c"></circle><circle cx="824.932576007144" cy="378.64926707689915" r="5" fill="#99e6c3"></circle><circle cx="715.938909135399" cy="503.8407493571268" r="4" fill="#248f5e"></circle><circle cx="646.8507675931371" cy="473.47465068184795" r="2" fill="#0f3d28"></circle><circle cx="482.9489020229636" cy="752.5409160550031" r="1" fill="#2eb879"></circle><circle cx="368.9828888943331" cy="550.6095865727509" r="1" fill="#0f3d28"></circle><circle cx="110.20603764083432" cy="520.6109419522508" r="3" fill="#99e6c3"></circle><circle cx="541.0707110615302" cy="529.0794849416295" r="5" fill="#1c1c1c"></circle><circle cx="647.0463728817135" cy="425.1308649842371" r="2" fill="#196643"></circle><circle cx="436.72796333221345" cy="462.69615086503063" r="2" fill="#1c1c1c"></circle><circle cx="244.03523580356512" cy="670.9281288915645" r="3" fill="#47d193"></circle><circle cx="626.2775344015987" cy="538.4045318534878" r="5" fill="#0f3d28"></circle><circle cx="302.6232252021572" cy="583.2981358503769" r="5" fill="#248f5e"></circle><circle cx="255.13850787930463" cy="605.2416973613392" r="2" fill="#47d193"></circle><circle cx="449.34172855263887" cy="607.7355414080916" r="1" fill="#1c1c1c"></circle><circle cx="803.9556842929865" cy="274.2375290125393" r="4" fill="#99e6c3"></circle><circle cx="434.5366155432436" cy="555.9047131642877" r="1" fill="#0f3d28"></circle><circle cx="308.31295510816415" cy="320.7459299245186" r="4" fill="#47d193"></circle><circle cx="573.6450816169977" cy="543.6328031208217" r="2" fill="#1c1c1c"></circle><circle cx="561.750404409218" cy="655.378092930965" r="3" fill="#196643"></circle><circle cx="687.108101487336" cy="645.6211584278838" r="1" fill="#248f5e"></circle><circle cx="551.5785906669512" cy="556.6687795843554" r="5" fill="#1c1c1c"></circle><circle cx="623.8619308583358" cy="459.43575141903386" r="3" fill="#0f3d28"></circle><circle cx="448.4171252140073" cy="512.6125850472533" r="4" fill="#05140d"></circle><circle cx="488.5779680516942" cy="336.7798168526838" r="2" fill="#196643"></circle><circle cx="476.67863988306226" cy="292.96243492405574" r="5" fill="#248f5e"></circle><circle cx="382.85251381558544" cy="532.6950352481646" r="4" fill="#05140d"></circle><circle cx="495.11595365654756" cy="805.5594710184101" r="4" fill="#47d193"></circle><circle cx="392.0708741522285" cy="752.6885021574532" r="5" fill="#47d193"></circle><circle cx="503.789407397395" cy="622.5863240011331" r="2" fill="#0f3d28"></circle><circle cx="517.9391604103397" cy="376.45145050990266" r="2" fill="#0f3d28"></circle><circle cx="731.8995778905295" cy="427.43775559967975" r="5" fill="#47d193"></circle><circle cx="764.6754642243914" cy="246.6032534312695" r="5" fill="#99e6c3"></circle><circle cx="518.4798017428176" cy="605.0627474308758" r="3" fill="#0f3d28"></circle><circle cx="504.14850301215324" cy="511.34622044888744" r="2" fill="#1c1c1c"></circle><circle cx="594.6019849714255" cy="245.37042987370594" r="3" fill="#47d193"></circle><circle cx="590.7244895686074" cy="404.41495192856365" r="1" fill="#0f3d28"></circle><circle cx="733.5907841644616" cy="330.23903166197937" r="2" fill="#47d193"></circle><circle cx="668.1682007115442" cy="416.92304852207667" r="2" fill="#196643"></circle><circle cx="499.23092988224613" cy="357.6919237546906" r="2" fill="#0f3d28"></circle><circle cx="561.196467463277" cy="598.9132037074756" r="5" fill="#05140d"></circle><circle cx="617.9427737317133" cy="414.84704571630994" r="1" fill="#05140d"></circle><circle cx="335.34527763783024" cy="565.2845797216398" r="2" fill="#196643"></circle><circle cx="659.7303498910834" cy="520.6154508534692" r="4" fill="#196643"></circle><circle cx="434.32476559978073" cy="552.3905842284432" r="4" fill="#05140d"></circle><circle cx="288.0383336193737" cy="670.4425254162903" r="1" fill="#47d193"></circle><circle cx="388.09192346218896" cy="296.79096097235606" r="4" fill="#248f5e"></circle><circle cx="745.9039977575417" cy="429.800877655748" r="3" fill="#47d193"></circle><circle cx="773.2137063906277" cy="570.8385975109663" r="4" fill="#47d193"></circle><circle cx="300.5204490503198" cy="489.6903487512828" r="4" fill="#196643"></circle><circle cx="694.2648742004154" cy="220.0130959989956" r="3" fill="#47d193"></circle><circle cx="517.1039225615241" cy="255.6802348301175" r="2" fill="#47d193"></circle><circle cx="222.30712583079656" cy="376.6568924781957" r="1" fill="#47d193"></circle><circle cx="405.23993603340034" cy="505.4150001618752" r="5" fill="#0f3d28"></circle><circle cx="436.8476682793568" cy="194.89074714065111" r="3" fill="#99e6c3"></circle><circle cx="534.6377129135506" cy="532.0958059638325" r="5" fill="#1c1c1c"></circle><circle cx="325.1092738234827" cy="478.51447592863207" r="2" fill="#196643"></circle><circle cx="340.7197361272371" cy="416.57474163403634" r="4" fill="#196643"></circle><circle cx="446.8267209063349" cy="536.1648268066048" r="1" fill="#1c1c1c"></circle><circle cx="773.2601310876688" cy="687.9696509665354" r="3" fill="#47d193"></circle><circle cx="683.7784946386855" cy="452.1983792458262" r="5" fill="#196643"></circle><circle cx="665.2377067443915" cy="352.57588712214203" r="3" fill="#248f5e"></circle><circle cx="373.7500336364465" cy="430.4062326301346" r="2" fill="#196643"></circle><circle cx="476.0122311295102" cy="486.00721893991073" r="3" fill="#1c1c1c"></circle><circle cx="226.34746096593267" cy="548.2692395197802" r="4" fill="#47d193"></circle><circle cx="387.70556342703236" cy="470.5050442691664" r="3" fill="#05140d"></circle><circle cx="519.9711207374846" cy="783.165138711145" r="3" fill="#47d193"></circle><circle cx="215.6801333630632" cy="507.36887610304035" r="1" fill="#47d193"></circle><circle cx="278.8758457051026" cy="489.4777566973238" r="5" fill="#248f5e"></circle><circle cx="269.91825094619384" cy="313.3357517194514" r="3" fill="#47d193"></circle><circle cx="393.0111998123874" cy="392.1009687280004" r="1" fill="#0f3d28"></circle><circle cx="385.02754178224154" cy="269.770588633269" r="4" fill="#47d193"></circle><circle cx="450.64722668970415" cy="373.5428188329456" r="2" fill="#0f3d28"></circle><circle cx="694.992337954482" cy="478.8663957553762" r="1" fill="#248f5e"></circle><circle cx="390.356793159982" cy="586.539495859811" r="4" fill="#0f3d28"></circle><circle cx="440.67517530835227" cy="553.2047274652873" r="2" fill="#1c1c1c"></circle><circle cx="516.4870368735566" cy="638.0156217114087" r="5" fill="#0f3d28"></circle><circle cx="313.6467427354014" cy="378.69589780042054" r="5" fill="#196643"></circle><circle cx="317.42482709733576" cy="584.8272107982489" r="4" fill="#248f5e"></circle><circle cx="402.56418817182816" cy="699.0318706693126" r="5" fill="#248f5e"></circle><circle cx="601.8501478145141" cy="700.9826630861169" r="2" fill="#2eb879"></circle><circle cx="483.0496276161171" cy="374.2489113734388" r="3" fill="#0f3d28"></circle><circle cx="359.56220049817995" cy="469.05599923096963" r="5" fill="#0f3d28"></circle><circle cx="428.40482234505896" cy="472.9236050057336" r="3" fill="#1c1c1c"></circle><circle cx="372.68133633948753" cy="343.1846467781364" r="4" fill="#248f5e"></circle><circle cx="529.6784380104292" cy="889.2833324126407" r="3" fill="#99e6c3"></circle><circle cx="582.4365504283968" cy="742.8330705975998" r="2" fill="#47d193"></circle><circle cx="592.7942642484638" cy="501.7032572634555" r="2" fill="#1c1c1c"></circle><circle cx="648.0082299953445" cy="214.60098367567548" r="3" fill="#47d193"></circle><circle cx="275.55376425602844" cy="315.8234794895994" r="3" fill="#47d193"></circle><circle cx="261.82336284846997" cy="486.11665073822394" r="2" fill="#248f5e"></circle><circle cx="579.2184854465692" cy="591.5407454125906" r="3" fill="#0f3d28"></circle><circle cx="638.2390218499181" cy="765.7371303904333" r="3" fill="#99e6c3"></circle><circle cx="432.3038275894071" cy="433.6989377569751" r="4" fill="#05140d"></circle><circle cx="666.6560130565603" cy="444.0314580250473" r="4" fill="#0f3d28"></circle><circle cx="569.914586228044" cy="451.4948636380716" r="5" fill="#1c1c1c"></circle><circle cx="209.47671227314612" cy="806.5598724304992" r="5" fill="#99e6c3"></circle><circle cx="693.7210590804507" cy="350.5176609799979" r="5" fill="#47d193"></circle><circle cx="509.97565183256427" cy="531.750114045195" r="2" fill="#1c1c1c"></circle><circle cx="553.2049229605101" cy="765.8573501134333" r="2" fill="#47d193"></circle><circle cx="647.7323022015124" cy="542.4252606841281" r="5" fill="#0f3d28"></circle><circle cx="488.68712087859956" cy="319.487801239172" r="2" fill="#196643"></circle><circle cx="550.3747751877221" cy="399.50234268150587" r="4" fill="#0f3d28"></circle><circle cx="364.49097268760283" cy="307.96539687402253" r="5" fill="#248f5e"></circle><circle cx="349.40045801908303" cy="583.2122831817167" r="3" fill="#196643"></circle><circle cx="539.3070643878237" cy="512.0764133769738" r="1" fill="#1c1c1c"></circle><circle cx="510.7676632508839" cy="641.9792148425475" r="3" fill="#0f3d28"></circle><circle cx="425.75830203627135" cy="410.7873404220699" r="5" fill="#05140d"></circle><circle cx="239.76915014979198" cy="667.1003065502489" r="4" fill="#99e6c3"></circle><circle cx="480.8484787333324" cy="457.81246461804034" r="2" fill="#05140d"></circle><circle cx="540.2375056715251" cy="609.4317361161278" r="4" fill="#05140d"></circle><circle cx="778.2794569603493" cy="660.2127450489452" r="4" fill="#99e6c3"></circle><circle cx="604.5958076297132" cy="485.55041149874245" r="1" fill="#05140d"></circle><circle cx="402.80530639911296" cy="763.7073422272139" r="4" fill="#47d193"></circle><circle cx="493.5037336648169" cy="525.2114987314811" r="1" fill="#1c1c1c"></circle><circle cx="372.88455978338453" cy="354.35651646901727" r="2" fill="#196643"></circle><circle cx="516.8453674957271" cy="549.1066327596435" r="2" fill="#05140d"></circle><circle cx="655.9650813220458" cy="474.3253951260586" r="5" fill="#0f3d28"></circle><circle cx="543.8615733991986" cy="426.89272413313904" r="3" fill="#1c1c1c"></circle><circle cx="520.2057733928551" cy="398.151742075124" r="3" fill="#1c1c1c"></circle><circle cx="363.535497639356" cy="644.6444693959938" r="2" fill="#196643"></circle><circle cx="520.1576368788736" cy="497.2833080567496" r="2" fill="#1c1c1c"></circle><circle cx="661.899989838352" cy="331.74494017756626" r="1" fill="#248f5e"></circle><circle cx="609.1528536905735" cy="341.1586176898271" r="1" fill="#196643"></circle><circle cx="471.204731404777" cy="637.3509242223465" r="5" fill="#0f3d28"></circle><circle cx="627.4163518514163" cy="619.11336424822" r="1" fill="#196643"></circle><circle cx="388.164018846" cy="500.34683889319274" r="3" fill="#05140d"></circle><circle cx="663.0637125948865" cy="559.3310686764114" r="5" fill="#196643"></circle><circle cx="453.64950869254426" cy="878.7217917995335" r="4" fill="#99e6c3"></circle><circle cx="411.3777050002777" cy="351.9259819810445" r="2" fill="#196643"></circle><circle cx="641.315344163214" cy="595.7522258896878" r="5" fill="#196643"></circle><circle cx="566.7706877767988" cy="559.2530698959519" r="1" fill="#05140d"></circle><circle cx="644.5280076786934" cy="511.1272586275902" r="2" fill="#0f3d28"></circle><circle cx="370.4222655607057" cy="431.94099379934835" r="2" fill="#0f3d28"></circle><circle cx="601.4826217294308" cy="637.783413675809" r="3" fill="#248f5e"></circle><circle cx="372.04854311639946" cy="391.40401606615603" r="2" fill="#196643"></circle><circle cx="254.8528960848983" cy="524.6646040550698" r="5" fill="#47d193"></circle><circle cx="189.86116870904573" cy="447.20477590762687" r="3" fill="#47d193"></circle><circle cx="921.6769260162687" cy="462.10801532906737" r="3" fill="#99e6c3"></circle><circle cx="584.6337138858001" cy="570.2756186118697" r="3" fill="#05140d"></circle><circle cx="509.0894112279146" cy="282.4932904556912" r="4" fill="#248f5e"></circle><circle cx="600.0640175273637" cy="262.7120935556287" r="1" fill="#47d193"></circle><circle cx="621.6865139206025" cy="384.4115560479587" r="3" fill="#196643"></circle><circle cx="584.5593357593748" cy="490.0281480295239" r="3" fill="#05140d"></circle><circle cx="361.27271407519174" cy="666.0278438849491" r="1" fill="#248f5e"></circle><circle cx="595.7844526700981" cy="776.2828783642212" r="5" fill="#47d193"></circle><circle cx="305.32973375174504" cy="405.9088751577698" r="4" fill="#248f5e"></circle><circle cx="649.1287304789826" cy="369.25426805265624" r="5" fill="#248f5e"></circle><circle cx="552.4472281217361" cy="476.181729489223" r="4" fill="#1c1c1c"></circle><circle cx="703.9089059265191" cy="324.17662986293317" r="3" fill="#47d193"></circle><circle cx="491.38393804614054" cy="439.0605755187096" r="4" fill="#05140d"></circle><circle cx="504.2173127709545" cy="600.4978571429697" r="2" fill="#05140d"></circle><circle cx="442.609701982397" cy="770.25457280845" r="3" fill="#47d193"></circle><circle cx="538.3390030453344" cy="492.53548378362683" r="4" fill="#1c1c1c"></circle><circle cx="410.8079457740589" cy="641.6679316807069" r="4" fill="#196643"></circle><circle cx="510.33221648563006" cy="537.2495599127931" r="3" fill="#1c1c1c"></circle><circle cx="713.2099216832647" cy="403.60045732086724" r="5" fill="#248f5e"></circle><circle cx="525.7228936156289" cy="278.41800465596145" r="5" fill="#248f5e"></circle><circle cx="427.8316636065575" cy="555.2092917364075" r="2" fill="#05140d"></circle><circle cx="493.9173913535708" cy="250.91839621567067" r="3" fill="#47d193"></circle><circle cx="480.69301082953046" cy="708.1507133479093" r="3" fill="#248f5e"></circle><circle cx="518.772938108809" cy="223.5723935875924" r="2" fill="#47d193"></circle><circle cx="662.1013776443372" cy="420.7082104063962" r="2" fill="#248f5e"></circle><circle cx="591.0867128901164" cy="430.27638974769854" r="1" fill="#05140d"></circle><circle cx="588.0041680252552" cy="249.58766907744007" r="1" fill="#47d193"></circle><circle cx="511.9033009115507" cy="963.7300043642672" r="1" fill="#99e6c3"></circle><circle cx="354.40525030744595" cy="440.40946581819543" r="4" fill="#0f3d28"></circle><circle cx="255.560010317408" cy="777.7385625628096" r="4" fill="#99e6c3"></circle><circle cx="273.7763124060572" cy="530.5176304776144" r="4" fill="#2eb879"></circle><circle cx="412.68803756332767" cy="313.79660246039555" r="5" fill="#248f5e"></circle><circle cx="619.1590532702047" cy="456.7043738429923" r="1" fill="#0f3d28"></circle><circle cx="626.6828423247973" cy="427.37096618270203" r="1" fill="#196643"></circle><circle cx="463.91007772603336" cy="515.3432855567424" r="4" fill="#1c1c1c"></circle><circle cx="411.28495090669895" cy="656.9719899962713" r="3" fill="#196643"></circle><circle cx="568.2667745212513" cy="476.3290216157283" r="5" fill="#1c1c1c"></circle><circle cx="575.3210692021593" cy="621.9983670323012" r="2" fill="#0f3d28"></circle><circle cx="311.94990821427814" cy="646.8094791511458" r="1" fill="#248f5e"></circle><circle cx="791.071759766857" cy="380.3761309358816" r="2" fill="#47d193"></circle><circle cx="571.0070801019294" cy="397.97204965066254" r="4" fill="#0f3d28"></circle><circle cx="674.31144809001" cy="577.0445382295168" r="3" fill="#196643"></circle><circle cx="653.2153971534384" cy="676.1392976469449" r="4" fill="#248f5e"></circle><circle cx="498.57400228705546" cy="458.6324793364532" r="1" fill="#1c1c1c"></circle><circle cx="387.93790653888226" cy="652.5491772938798" r="1" fill="#196643"></circle><circle cx="528.094882921696" cy="137.8090409951967" r="5" fill="#99e6c3"></circle><circle cx="420.07217167748604" cy="446.5577026231272" r="4" fill="#05140d"></circle><circle cx="630.4146118592298" cy="653.9279055781674" r="3" fill="#248f5e"></circle><circle cx="440.13736833768303" cy="399.86413648157304" r="1" fill="#05140d"></circle><circle cx="480.6173970128294" cy="554.7852410766227" r="3" fill="#1c1c1c"></circle><circle cx="399.716773059243" cy="673.0826611227455" r="2" fill="#2eb879"></circle><circle cx="624.5884524665562" cy="609.6103734153" r="2" fill="#196643"></circle><circle cx="166.07272001008897" cy="667.999909537361" r="5" fill="#99e6c3"></circle><circle cx="455.46196266649406" cy="455.6759686145733" r="2" fill="#05140d"></circle><circle cx="260.1731406597861" cy="527.0945083090423" r="5" fill="#47d193"></circle><circle cx="676.314413323413" cy="419.23271310823327" r="5" fill="#196643"></circle><circle cx="458.0791971893687" cy="778.9854942063995" r="3" fill="#47d193"></circle><circle cx="215.2959916040743" cy="554.9462435443162" r="4" fill="#47d193"></circle><circle cx="236.54991164281728" cy="601.9743627514226" r="3" fill="#47d193"></circle><circle cx="427.30709484275553" cy="392.03957120936013" r="4" fill="#0f3d28"></circle><circle cx="424.45735909451275" cy="531.2123311606912" r="2" fill="#05140d"></circle><circle cx="315.0743133432355" cy="559.0601640349745" r="3" fill="#196643"></circle><circle cx="408.2016413139356" cy="881.9354413944682" r="2" fill="#99e6c3"></circle><circle cx="533.2073106117844" cy="540.8646777716674" r="3" fill="#1c1c1c"></circle><circle cx="314.53409675570805" cy="555.7705192551362" r="4" fill="#248f5e"></circle><circle cx="301.7268785205745" cy="240.19639266809543" r="5" fill="#99e6c3"></circle><circle cx="438.50177219165334" cy="519.8377431462435" r="3" fill="#1c1c1c"></circle><circle cx="566.5332576054261" cy="556.9452850340857" r="1" fill="#05140d"></circle><circle cx="427.72415712373083" cy="547.656027291562" r="4" fill="#05140d"></circle><circle cx="613.3793841748477" cy="637.4236048598605" r="1" fill="#196643"></circle><circle cx="465.48260839260615" cy="421.0512306546307" r="2" fill="#1c1c1c"></circle><circle cx="581.4758583660237" cy="451.13777720207565" r="5" fill="#05140d"></circle><circle cx="315.53625384480614" cy="533.472390766487" r="1" fill="#196643"></circle><circle cx="515.9995578342599" cy="744.4318970607407" r="1" fill="#2eb879"></circle><circle cx="276.4280127213385" cy="602.3591314750629" r="1" fill="#47d193"></circle><circle cx="479.85347586657105" cy="475.8901843334707" r="1" fill="#1c1c1c"></circle><circle cx="596.0391201592697" cy="728.2845856272905" r="1" fill="#2eb879"></circle><circle cx="494.8534517849287" cy="603.3766248144497" r="4" fill="#1c1c1c"></circle><circle cx="94.64577842725623" cy="389.7103860224514" r="1" fill="#99e6c3"></circle><circle cx="549.2163063020612" cy="173.26262709407575" r="4" fill="#99e6c3"></circle><circle cx="525.976841978763" cy="588.748795822823" r="5" fill="#05140d"></circle><circle cx="648.3009351394169" cy="476.76720561136864" r="5" fill="#0f3d28"></circle><circle cx="393.84004209603205" cy="216.4731316138616" r="1" fill="#47d193"></circle><circle cx="586.5661100789846" cy="494.8599329023733" r="5" fill="#1c1c1c"></circle><circle cx="383.4919593060617" cy="566.364441719621" r="1" fill="#0f3d28"></circle><circle cx="424.4927807887115" cy="393.8665850652751" r="4" fill="#0f3d28"></circle><circle cx="570.5764790649216" cy="285.1269791029945" r="4" fill="#248f5e"></circle><circle cx="644.2447596390571" cy="774.9715628334625" r="5" fill="#47d193"></circle><circle cx="653.4457813036682" cy="542.4822874991161" r="5" fill="#0f3d28"></circle><circle cx="557.5712467222013" cy="678.8875331933298" r="4" fill="#196643"></circle><circle cx="321.5557060494896" cy="402.24036069925063" r="1" fill="#248f5e"></circle><circle cx="362.86049151403483" cy="472.2559955607899" r="3" fill="#196643"></circle><circle cx="678.8821461209202" cy="551.4866653456371" r="3" fill="#248f5e"></circle><circle cx="565.7182347539899" cy="395.83405718560607" r="5" fill="#0f3d28"></circle><circle cx="290.58866412885493" cy="496.2754415029347" r="1" fill="#248f5e"></circle><circle cx="800.5850918884264" cy="333.8509011504951" r="4" fill="#99e6c3"></circle><circle cx="503.7200008691685" cy="552.5619245802558" r="4" fill="#1c1c1c"></circle><circle cx="343.15763301995185" cy="789.9208453734525" r="4" fill="#99e6c3"></circle><circle cx="674.0652013173859" cy="449.04265681937676" r="5" fill="#196643"></circle><circle cx="639.2318364468724" cy="555.316558594965" r="3" fill="#0f3d28"></circle><circle cx="208.05667041767987" cy="577.7608581779763" r="4" fill="#47d193"></circle><circle cx="396.031501367326" cy="541.657292168379" r="4" fill="#05140d"></circle><circle cx="397.16367083700993" cy="504.44766713395705" r="2" fill="#05140d"></circle><circle cx="544.2568575549675" cy="489.3474589123789" r="5" fill="#1c1c1c"></circle><circle cx="518.3418178116424" cy="350.8843284052066" r="4" fill="#0f3d28"></circle><circle cx="545.4655134844487" cy="264.37762542759873" r="2" fill="#248f5e"></circle><circle cx="501.80770873126363" cy="462.8998348447575" r="4" fill="#1c1c1c"></circle><circle cx="778.4402625027625" cy="522.5216364197856" r="5" fill="#2eb879"></circle><circle cx="487.19507353759377" cy="400.5953842305061" r="5" fill="#05140d"></circle><circle cx="193.0072473786957" cy="91.38669797273673" r="2" fill="#99e6c3"></circle><circle cx="552.641448258403" cy="594.8409389420751" r="1" fill="#05140d"></circle><circle cx="627.7522139533505" cy="497.0711163593619" r="5" fill="#0f3d28"></circle><circle cx="734.7650307301286" cy="636.750305446772" r="2" fill="#2eb879"></circle><circle cx="323.8277554011295" cy="689.893663476362" r="3" fill="#47d193"></circle><circle cx="805.1076334969637" cy="516.9144848158124" r="1" fill="#47d193"></circle><circle cx="279.69043193604614" cy="497.35287575990856" r="1" fill="#196643"></circle><circle cx="345.28954257959793" cy="422.0897618845973" r="5" fill="#196643"></circle><circle cx="474.2979649813925" cy="725.1759052394059" r="1" fill="#248f5e"></circle><circle cx="672.4377187552373" cy="441.89415734668296" r="5" fill="#196643"></circle><circle cx="266.62264390542634" cy="814.9211550267987" r="5" fill="#99e6c3"></circle><circle cx="486.31563623647156" cy="428.8850514697952" r="2" fill="#1c1c1c"></circle><circle cx="696.5384259603576" cy="122.60667796589678" r="1" fill="#99e6c3"></circle><circle cx="713.4375981036724" cy="691.1383739362064" r="1" fill="#47d193"></circle><circle cx="467.46750098261725" cy="417.73218045707733" r="1" fill="#1c1c1c"></circle><circle cx="835.3203826223327" cy="661.3182461618267" r="1" fill="#99e6c3"></circle><circle cx="606.5558008658697" cy="474.49043960845165" r="2" fill="#05140d"></circle><circle cx="702.0012157659193" cy="484.30894040178026" r="3" fill="#248f5e"></circle><circle cx="648.3451950507687" cy="216.92990092525474" r="1" fill="#47d193"></circle><circle cx="487.71372134677557" cy="272.0547353191729" r="5" fill="#196643"></circle><circle cx="456.21780630719337" cy="423.44820178514254" r="3" fill="#05140d"></circle><circle cx="325.61596135200045" cy="556.4958209227592" r="1" fill="#196643"></circle><circle cx="583.6269402340847" cy="538.9501995924992" r="2" fill="#05140d"></circle><circle cx="562.8542773235404" cy="673.7168176463341" r="3" fill="#196643"></circle><circle cx="393.2158231933203" cy="340.6521982435218" r="5" fill="#0f3d28"></circle><circle cx="463.119469376808" cy="490.2775701796844" r="1" fill="#05140d"></circle><circle cx="393.7493181677644" cy="605.6505467256148" r="1" fill="#0f3d28"></circle><circle cx="667.4028994189164" cy="130.24504017481877" r="3" fill="#99e6c3"></circle><circle cx="482.3453842285861" cy="576.1447518172911" r="5" fill="#1c1c1c"></circle><circle cx="326.20476126415326" cy="444.23054948626304" r="4" fill="#248f5e"></circle><circle cx="368.73290918180226" cy="538.8615047401704" r="5" fill="#0f3d28"></circle><circle cx="466.9064042116162" cy="504.2560545390267" r="3" fill="#1c1c1c"></circle><circle cx="207.19789125847404" cy="441.31881491545454" r="1" fill="#47d193"></circle><circle cx="416.29013191450974" cy="663.1364041664082" r="4" fill="#196643"></circle><circle cx="343.4531670877505" cy="378.3058564190404" r="1" fill="#0f3d28"></circle><circle cx="477.37088167736954" cy="482.8197996559535" r="1" fill="#05140d"></circle><circle cx="395.4408721387298" cy="466.90718166520975" r="2" fill="#1c1c1c"></circle><circle cx="651.4526942159283" cy="409.29184996916774" r="4" fill="#196643"></circle><circle cx="453.0855532078839" cy="440.8745328840581" r="5" fill="#1c1c1c"></circle><circle cx="550.2442245591272" cy="281.0748209113374" r="5" fill="#248f5e"></circle><circle cx="501.38891918083834" cy="548.1160301388802" r="5" fill="#1c1c1c"></circle><circle cx="543.1607013361735" cy="260.3972602148725" r="2" fill="#47d193"></circle><circle cx="666.1542387899931" cy="739.4936298951493" r="4" fill="#47d193"></circle><circle cx="328.94062229367785" cy="324.67294080725367" r="3" fill="#2eb879"></circle><circle cx="614.3056539485127" cy="333.36911545269663" r="4" fill="#248f5e"></circle><circle cx="692.4422600633047" cy="632.804822668139" r="5" fill="#196643"></circle><circle cx="384.9129205699386" cy="534.8711678347836" r="5" fill="#0f3d28"></circle><circle cx="612.922472687358" cy="917.8007573882364" r="2" fill="#99e6c3"></circle><circle cx="432.1664522252685" cy="444.80848395893787" r="2" fill="#05140d"></circle><circle cx="390.56415591392016" cy="539.3685511467963" r="2" fill="#05140d"></circle><circle cx="609.4483370447573" cy="646.1814156752741" r="4" fill="#196643"></circle><circle cx="471.1025931646219" cy="429.075970636936" r="2" fill="#1c1c1c"></circle><circle cx="401.96463868816846" cy="527.7007368556674" r="3" fill="#05140d"></circle><circle cx="238.62518253839255" cy="366.1654966689879" r="3" fill="#47d193"></circle><circle cx="376.1278201420258" cy="700.4114282387827" r="3" fill="#248f5e"></circle><circle cx="600.1219133637871" cy="623.8636265667711" r="2" fill="#0f3d28"></circle><circle cx="435.0503382721931" cy="497.42883448847067" r="5" fill="#1c1c1c"></circle><circle cx="361.915156154034" cy="336.15404923317544" r="5" fill="#248f5e"></circle><circle cx="229.48147402171844" cy="169.25828000371018" r="3" fill="#99e6c3"></circle><circle cx="383.08734034044477" cy="776.4794842338097" r="1" fill="#47d193"></circle><circle cx="526.0382453593298" cy="354.2595383484811" r="4" fill="#0f3d28"></circle><circle cx="655.9671415719426" cy="325.9057378529144" r="5" fill="#248f5e"></circle><circle cx="441.0506603947099" cy="886.4823398377746" r="4" fill="#99e6c3"></circle><circle cx="388.51944440016393" cy="801.2719040170346" r="5" fill="#47d193"></circle><circle cx="438.9256561316258" cy="692.905801566011" r="5" fill="#248f5e"></circle><circle cx="436.5222263736483" cy="455.864479895711" r="1" fill="#1c1c1c"></circle><circle cx="477.7906793786803" cy="574.8654153153849" r="3" fill="#1c1c1c"></circle><circle cx="408.9770560553027" cy="678.7820750418041" r="1" fill="#248f5e"></circle><circle cx="402.60936039452923" cy="501.3648739579132" r="5" fill="#1c1c1c"></circle><circle cx="360.0476994409016" cy="519.5475878705873" r="3" fill="#0f3d28"></circle><circle cx="318.31290703722317" cy="586.6722462783033" r="1" fill="#248f5e"></circle><circle cx="665.567220780294" cy="366.5024538163407" r="1" fill="#248f5e"></circle><circle cx="516.0259538834562" cy="577.4113102714215" r="4" fill="#1c1c1c"></circle><circle cx="414.41013730188786" cy="308.01056640379113" r="1" fill="#248f5e"></circle><circle cx="541.3415963668299" cy="571.2380448295405" r="4" fill="#05140d"></circle><circle cx="628.0170978904497" cy="433.69467321882644" r="1" fill="#0f3d28"></circle><circle cx="394.94892735587416" cy="514.1613247069342" r="2" fill="#05140d"></circle><circle cx="381.65029229037873" cy="366.33867579404955" r="3" fill="#196643"></circle><circle cx="648.5531874457434" cy="393.43571785223793" r="2" fill="#196643"></circle><circle cx="678.6305756980584" cy="499.28585680241326" r="4" fill="#196643"></circle><circle cx="426.9382119531992" cy="792.4496253644901" r="4" fill="#47d193"></circle><circle cx="543.2589074337894" cy="564.5922991947136" r="3" fill="#1c1c1c"></circle><circle cx="390.5678511917379" cy="348.7411350524269" r="1" fill="#196643"></circle><circle cx="439.1162032505464" cy="330.49336397379363" r="1" fill="#196643"></circle><circle cx="144.86834830821158" cy="194.5310092404252" r="2" fill="#99e6c3"></circle><circle cx="677.3016614428743" cy="539.322505956415" r="4" fill="#196643"></circle><circle cx="217.2784458746715" cy="664.7537574478071" r="4" fill="#47d193"></circle><circle cx="574.1907511654574" cy="813.3886008926695" r="5" fill="#99e6c3"></circle><circle cx="273.5356743475405" cy="714.6915988155458" r="5" fill="#47d193"></circle><circle cx="528.8891012129634" cy="231.75034333003288" r="4" fill="#47d193"></circle><circle cx="437.83550012520993" cy="424.23345150716153" r="3" fill="#05140d"></circle><circle cx="539.3767630448829" cy="611.861064649112" r="2" fill="#05140d"></circle><circle cx="764.1903033224378" cy="381.9270184971638" r="3" fill="#47d193"></circle><circle cx="617.5029395279903" cy="539.8102230450964" r="5" fill="#0f3d28"></circle><circle cx="355.92291338109584" cy="463.8572900006994" r="2" fill="#0f3d28"></circle><circle cx="271.97912982793287" cy="346.9144960104658" r="4" fill="#47d193"></circle><circle cx="410.0811499279393" cy="374.4515503672509" r="5" fill="#0f3d28"></circle><circle cx="312.39306584854694" cy="497.14988585412465" r="2" fill="#196643"></circle><circle cx="716.7690602065301" cy="406.4802302436911" r="5" fill="#196643"></circle><circle cx="673.9811714306713" cy="232.44086538768806" r="1" fill="#99e6c3"></circle><circle cx="367.23276611926536" cy="535.7239546495256" r="1" fill="#0f3d28"></circle><circle cx="388.28520796125724" cy="469.78694621446994" r="5" fill="#0f3d28"></circle><circle cx="665.290233605555" cy="522.6114722427752" r="1" fill="#196643"></circle><circle cx="630.8535544637862" cy="728.300972051887" r="2" fill="#47d193"></circle><circle cx="323.4140309234808" cy="457.50790284991086" r="1" fill="#248f5e"></circle><circle cx="452.10335932752736" cy="145.23735745975972" r="2" fill="#99e6c3"></circle><circle cx="476.60430315226654" cy="923.9864195725586" r="3" fill="#99e6c3"></circle><circle cx="648.4723086973481" cy="391.79153335101813" r="1" fill="#196643"></circle><circle cx="598.7204475754672" cy="191.08210249613012" r="5" fill="#99e6c3"></circle><circle cx="678.6756533967429" cy="518.3028608034555" r="4" fill="#196643"></circle><circle cx="663.9210156954662" cy="613.4036519211181" r="1" fill="#196643"></circle><circle cx="537.1226532578273" cy="341.66050189753" r="3" fill="#196643"></circle><circle cx="691.8988188276817" cy="300.40411431709947" r="1" fill="#47d193"></circle><circle cx="716.2123299083245" cy="606.6315908693493" r="5" fill="#47d193"></circle><circle cx="538.6874796933471" cy="446.19504944685525" r="3" fill="#1c1c1c"></circle><circle cx="945.5118442874365" cy="545.8898511847437" r="4" fill="#99e6c3"></circle><circle cx="517.2399308574214" cy="410.32313370203207" r="1" fill="#05140d"></circle><circle cx="553.4867442491989" cy="505.5794324226485" r="4" fill="#1c1c1c"></circle><circle cx="548.6018287002175" cy="394.57007808764956" r="2" fill="#05140d"></circle><circle cx="368.9627435887048" cy="614.106873788826" r="5" fill="#196643"></circle><circle cx="469.24267204135975" cy="663.6426199542893" r="5" fill="#196643"></circle><circle cx="569.5041273048212" cy="357.0968666266978" r="4" fill="#0f3d28"></circle><circle cx="703.6671288880651" cy="470.81551252887255" r="4" fill="#248f5e"></circle><circle cx="585.0085046270981" cy="317.48071302772826" r="4" fill="#196643"></circle></svg>