<svg width="1000" height="1000" id="mySVG"><circle cx="375.3084786423738" cy="628.7568928041788" r="3" fill="#0f3d28"></circle><circle cx="663.2430260469872" cy="647.6117873943101" r="1" fill="#248f5e"></circle><circle cx="658.776810588819" cy="267.77593131407167" r="5" fill="#47d193"></circle><circle cx="622.822782448226" cy="671.8342867843251" r="5" fill="#248f5e"></circle><circle cx="629.6589845297189" cy="645.371072258559" r="4" fill="#248f5e"></circle><circle cx="610.7486642843891" cy="476.0636188119759" r="4" fill="#05140d"></circle><circle cx="456.62724204559527" cy="271.49630902647016" r="5" fill="#248f5e"></circle><circle cx="862.5726316880061" cy="666.0011694351563" r="2" fill="#99e6c3"></circle><circle cx="431.80958254760145" cy="500.5504181040483" r="4" fill="#1c1c1c"></circle><circle cx="314.8993234729734" cy="496.8030331722427" r="4" fill="#196643"></circle><circle cx="599.4726367279219" cy="352.9911291500299" r="3" fill="#196643"></circle><circle cx="580.5968504514424" cy="434.4636089545672" r="2" fill="#05140d"></circle><circle cx="282.9289341796763" cy="553.9497317324028" r="1" fill="#248f5e"></circle><circle cx="585.8999562250145" cy="626.7877307068037" r="1" fill="#0f3d28"></circle><circle cx="318.7146755520773" cy="504.63476723805644" r="4" fill="#248f5e"></circle><circle cx="422.2303993785699" cy="682.962675437715" r="5" fill="#196643"></circle><circle cx="443.8853323186571" cy="267.4920374269494" r="4" fill="#248f5e"></circle><circle cx="583.5309678729249" cy="345.36334563978477" r="3" fill="#196643"></circle><circle cx="600.891729931517" cy="689.8231767945093" r="5" fill="#2eb879"></circle><circle cx="441.42952158460366" cy="326.02460120715136" r="1" fill="#196643"></circle><circle cx="554.7463750332146" cy="204.2766818710573" r="5" fill="#47d193"></circle><circle cx="333.6321203012345" cy="261.7214925010278" r="5" fill="#47d193"></circle><circle cx="343.9488523183028" cy="208.7422872928613" r="1" fill="#99e6c3"></circle><circle cx="185.01774133477068" cy="447.15103171994895" r="5" fill="#47d193"></circle><circle cx="457.4090113035038" cy="260.5940330846641" r="3" fill="#47d193"></circle><circle cx="354.79452385212755" cy="709.6182420227515" r="5" fill="#47d193"></circle><circle cx="531.6930899521832" cy="667.0687235725283" r="5" fill="#196643"></circle><circle cx="616.6265721189524" cy="711.7738673708833" r="2" fill="#47d193"></circle><circle cx="546.6078634319083" cy="514.8066165108598" r="3" fill="#1c1c1c"></circle><circle cx="424.2107725235497" cy="651.9821047811936" r="5" fill="#196643"></circle><circle cx="384.0608676205709" cy="661.0916962898249" r="4" fill="#196643"></circle><circle cx="387.2403098938553" cy="429.3589458105957" r="3" fill="#196643"></circle><circle cx="521.4716649167177" cy="512.5710640798457" r="4" fill="#05140d"></circle><circle cx="500.07676984716653" cy="571.2627627689808" r="4" fill="#1c1c1c"></circle><circle cx="811.3647004211238" cy="480.82773796850927" r="4" fill="#47d193"></circle><circle cx="471.94194388798195" cy="581.4917050446147" r="4" fill="#05140d"></circle><circle cx="228.10554704929092" cy="397.6693384867549" r="3" fill="#47d193"></circle><circle cx="719.9510834728063" cy="315.00888739624463" r="4" fill="#47d193"></circle><circle cx="569.5852781589317" cy="560.4552830796907" r="4" fill="#05140d"></circle><circle cx="562.4007617341368" cy="705.8313143841617" r="1" fill="#248f5e"></circle><circle cx="330.9026736472606" cy="676.7642665163338" r="5" fill="#47d193"></circle><circle cx="383.65837635469325" cy="348.7825497790974" r="5" fill="#196643"></circle><circle cx="558.4981463840971" cy="510.4116436068518" r="5" fill="#1c1c1c"></circle><circle cx="581.2377650187398" cy="430.14203242873504" r="2" fill="#05140d"></circle><circle cx="467.9752605594339" cy="678.7313369559629" r="5" fill="#196643"></circle><circle cx="755.9028621743036" cy="473.71472279396426" r="4" fill="#2eb879"></circle><circle cx="333.9725432283688" cy="597.4386744012438" r="5" fill="#196643"></circle><circle cx="528.3349780556065" cy="312.8190024839647" r="4" fill="#196643"></circle><circle cx="387.3724329539019" cy="383.2385358324019" r="4" fill="#196643"></circle><circle cx="345.78546544407834" cy="658.7669623086899" r="4" fill="#248f5e"></circle><circle cx="257.200232288801" cy="577.5363887914177" r="2" fill="#47d193"></circle><circle cx="494.4125261513196" cy="308.3671595946179" r="5" fill="#196643"></circle><circle cx="398.67288811568073" cy="431.21941422660393" r="5" fill="#0f3d28"></circle><circle cx="291.04676226633603" cy="642.5787206851872" r="4" fill="#47d193"></circle><circle cx="328.61782503451155" cy="676.7814756068242" r="5" fill="#47d193"></circle><circle cx="471.29799826232687" cy="512.0736994287154" r="4" fill="#1c1c1c"></circle><circle cx="449.11381614821005" cy="256.11012163362966" r="1" fill="#2eb879"></circle><circle cx="496.4817165515344" cy="366.3249679990328" r="5" fill="#0f3d28"></circle><circle cx="894.0239853779547" cy="681.5402484672125" r="2" fill="#99e6c3"></circle><circle cx="489.829369015507" cy="587.478913404954" r="5" fill="#05140d"></circle><circle cx="284.5810258046657" cy="489.9501830809661" r="2" fill="#248f5e"></circle><circle cx="402.1645235069761" cy="421.62179970900536" r="2" fill="#05140d"></circle><circle cx="668.3306190271331" cy="227.83117672662615" r="1" fill="#99e6c3"></circle><circle cx="746.1125251035293" cy="624.0976995559993" r="5" fill="#47d193"></circle><circle cx="638.0979613705781" cy="617.3031395507988" r="3" fill="#196643"></circle><circle cx="468.34784017275496" cy="440.79672186454746" r="1" fill="#05140d"></circle><circle cx="565.2689342216894" cy="495.3060434230007" r="3" fill="#1c1c1c"></circle><circle cx="332.1147679072975" cy="413.60451436549954" r="1" fill="#248f5e"></circle><circle cx="409.931731540697" cy="624.1034092793268" r="5" fill="#0f3d28"></circle><circle cx="465.5399430839544" cy="695.7160032997253" r="2" fill="#196643"></circle><circle cx="385.88158386409634" cy="456.6710374996263" r="2" fill="#0f3d28"></circle><circle cx="332.6858238174246" cy="495.28742759655586" r="3" fill="#248f5e"></circle><circle cx="187.4728173260309" cy="512.7761458402586" r="1" fill="#47d193"></circle><circle cx="336.95176442476446" cy="334.1064348580923" r="2" fill="#248f5e"></circle><circle cx="324.77147405968515" cy="344.46776701178226" r="5" fill="#196643"></circle><circle cx="469.3875733949401" cy="512.2011130765803" r="4" fill="#05140d"></circle><circle cx="416.99419480639256" cy="557.9649275822347" r="4" fill="#0f3d28"></circle><circle cx="771.4589628842209" cy="566.8578515442532" r="5" fill="#47d193"></circle><circle cx="374.3177178643583" cy="521.414090681425" r="2" fill="#0f3d28"></circle><circle cx="533.5537015744464" cy="743.5265434820353" r="1" fill="#47d193"></circle><circle cx="526.2306335149514" cy="369.3336572957106" r="4" fill="#05140d"></circle><circle cx="508.79775816879356" cy="429.4007632482542" r="4" fill="#1c1c1c"></circle><circle cx="423.4937463210744" cy="622.8585641004157" r="4" fill="#0f3d28"></circle><circle cx="535.7788311762447" cy="633.2620185425546" r="5" fill="#0f3d28"></circle><circle cx="592.9702147573969" cy="115.30041548799181" r="3" fill="#99e6c3"></circle><circle cx="372.7876603766472" cy="312.83912950616985" r="4" fill="#2eb879"></circle><circle cx="422.57444916790985" cy="634.3860234445889" r="3" fill="#05140d"></circle><circle cx="303.8736955551583" cy="882.6640492127515" r="4" fill="#99e6c3"></circle><circle cx="253.35035155436793" cy="697.2605331422805" r="5" fill="#47d193"></circle><circle cx="361.8204453179269" cy="286.79707880756496" r="2" fill="#47d193"></circle><circle cx="673.5425760591559" cy="629.9425229339226" r="2" fill="#196643"></circle><circle cx="348.6582258942866" cy="750.508253745669" r="5" fill="#99e6c3"></circle><circle cx="630.1540973389859" cy="451.6615383683007" r="4" fill="#0f3d28"></circle><circle cx="229.669621840251" cy="364.4007044305862" r="3" fill="#47d193"></circle><circle cx="472.8452542877817" cy="392.7719424233924" r="3" fill="#05140d"></circle><circle cx="795.8641373967547" cy="418.7151871218443" r="5" fill="#47d193"></circle><circle cx="525.9941272908466" cy="351.76160405868904" r="3" fill="#196643"></circle><circle cx="578.3124329702151" cy="506.68478134528414" r="2" fill="#1c1c1c"></circle><circle cx="675.8428284789509" cy="704.67998576922" r="2" fill="#47d193"></circle><circle cx="489.9527387227317" cy="527.6375516722104" r="1" fill="#1c1c1c"></circle><circle cx="479.51851442777524" cy="586.9771142513565" r="4" fill="#05140d"></circle><circle cx="217.9947319878484" cy="379.4131775930957" r="2" fill="#47d193"></circle><circle cx="640.3360216127586" cy="226.48456352878736" r="3" fill="#47d193"></circle><circle cx="674.8809561585996" cy="470.4272573581362" r="2" fill="#196643"></circle><circle cx="568.4642714855541" cy="499.50821767986486" r="2" fill="#05140d"></circle><circle cx="713.4324102105752" cy="483.75145585218866" r="3" fill="#2eb879"></circle><circle cx="445.31860422171053" cy="670.3325095076614" r="4" fill="#196643"></circle><circle cx="443.7275301974523" cy="581.1903101104339" r="3" fill="#0f3d28"></circle><circle cx="606.2836464061038" cy="232.87106143051977" r="4" fill="#47d193"></circle><circle cx="708.9211773510871" cy="236.57416117643072" r="2" fill="#99e6c3"></circle><circle cx="572.6588801801335" cy="442.00074009819053" r="2" fill="#05140d"></circle><circle cx="666.1050194261536" cy="627.2155462858927" r="5" fill="#248f5e"></circle><circle cx="497.7917281899331" cy="239.64817258093893" r="2" fill="#2eb879"></circle><circle cx="625.114345997559" cy="159.58284121016874" r="4" fill="#99e6c3"></circle><circle cx="316.686626357799" cy="853.7459485553902" r="2" fill="#99e6c3"></circle><circle cx="361.35155470853357" cy="290.422731527063" r="1" fill="#47d193"></circle><circle cx="381.84489388656687" cy="584.7062500068757" r="2" fill="#0f3d28"></circle><circle cx="596.4482509854321" cy="365.6239112913648" r="2" fill="#196643"></circle><circle cx="657.1831924543842" cy="507.56938032193443" r="4" fill="#196643"></circle><circle cx="422.9176879922621" cy="520.5015025298588" r="2" fill="#05140d"></circle><circle cx="387.6934567329872" cy="644.4581062799003" r="3" fill="#196643"></circle><circle cx="536.1781791318075" cy="601.8245851362547" r="2" fill="#05140d"></circle><circle cx="450.65256598453794" cy="337.5320086550279" r="3" fill="#248f5e"></circle><circle cx="496.3706754117293" cy="322.18316523633735" r="3" fill="#196643"></circle><circle cx="616.279873210063" cy="262.5591993235999" r="2" fill="#47d193"></circle><circle cx="515.7368303245318" cy="412.86445428762545" r="2" fill="#05140d"></circle><circle cx="227.0760378998241" cy="316.8593318820733" r="2" fill="#99e6c3"></circle><circle cx="352.95864720517625" cy="747.0957893803414" r="1" fill="#47d193"></circle><circle cx="409.3170317929171" cy="537.0109990557391" r="1" fill="#05140d"></circle><circle cx="428.87014973608404" cy="241.95508379818705" r="1" fill="#47d193"></circle><circle cx="412.51629797976307" cy="531.1407550228985" r="3" fill="#05140d"></circle><circle cx="596.689118935312" cy="509.6476724402354" r="2" fill="#1c1c1c"></circle><circle cx="426.2246279572364" cy="306.06372863198067" r="4" fill="#248f5e"></circle><circle cx="498.69863293655993" cy="683.6041980916167" r="1" fill="#248f5e"></circle><circle cx="369.56437495246405" cy="487.83387845260785" r="3" fill="#0f3d28"></circle><circle cx="487.92977003686576" cy="602.1522507876288" r="3" fill="#1c1c1c"></circle><circle cx="540.0890429413263" cy="500.5964290879197" r="3" fill="#1c1c1c"></circle><circle cx="263.8013658868763" cy="624.2926228848332" r="1" fill="#47d193"></circle><circle cx="421.33524077363785" cy="701.7243441897513" r="1" fill="#248f5e"></circle><circle cx="528.862544405898" cy="383.6937528344513" r="5" fill="#05140d"></circle><circle cx="545.6390921152015" cy="595.5692165993038" r="4" fill="#05140d"></circle><circle cx="270.3900871616736" cy="512.1342488407296" r="2" fill="#248f5e"></circle><circle cx="342.3186703981261" cy="548.4175195091494" r="4" fill="#196643"></circle><circle cx="590.3721978607299" cy="574.2785314200473" r="1" fill="#05140d"></circle><circle cx="598.3117780980994" cy="511.18513369370544" r="3" fill="#05140d"></circle><circle cx="654.0465533122886" cy="511.51965985164486" r="1" fill="#0f3d28"></circle><circle cx="816.1854494334292" cy="477.37577081057054" r="5" fill="#47d193"></circle><circle cx="698.4549950264122" cy="609.0977008801592" r="4" fill="#248f5e"></circle><circle cx="519.06622967849" cy="284.55422276857934" r="4" fill="#248f5e"></circle><circle cx="667.2772761750807" cy="500.5935007091577" r="4" fill="#0f3d28"></circle><circle cx="627.2795328125942" cy="735.773306817072" r="3" fill="#47d193"></circle><circle cx="406.9141152574714" cy="631.7450327473165" r="3" fill="#196643"></circle><circle cx="570.7737750561421" cy="359.9808176749947" r="3" fill="#05140d"></circle><circle cx="438.8300140156308" cy="594.121760501017" r="4" fill="#05140d"></circle><circle cx="593.3501106194051" cy="624.1970812671119" r="2" fill="#196643"></circle><circle cx="528.3726376300558" cy="205.38251816186937" r="5" fill="#47d193"></circle><circle cx="490.6381683259702" cy="643.150796382856" r="1" fill="#0f3d28"></circle><circle cx="486.5244810157951" cy="533.864742408082" r="1" fill="#1c1c1c"></circle><circle cx="830.2717234114092" cy="337.37012331218034" r="1" fill="#99e6c3"></circle><circle cx="658.0269644762681" cy="589.7808022764019" r="5" fill="#196643"></circle><circle cx="699.7809773899512" cy="456.0330453355131" r="3" fill="#248f5e"></circle><circle cx="561.275703212155" cy="707.6486436538434" r="5" fill="#196643"></circle><circle cx="662.6434226528252" cy="489.56266737935147" r="3" fill="#196643"></circle><circle cx="271.99654973087314" cy="636.5479504776577" r="5" fill="#47d193"></circle><circle cx="508.6253931919159" cy="344.677958232253" r="3" fill="#0f3d28"></circle><circle cx="490.6782320820852" cy="215.24018324752126" r="4" fill="#47d193"></circle><circle cx="506.7082139826315" cy="457.6896663641943" r="4" fill="#1c1c1c"></circle><circle cx="308.1865720352029" cy="579.958917340946" r="5" fill="#248f5e"></circle><circle cx="251.50042865428446" cy="344.8546966120756" r="4" fill="#47d193"></circle><circle cx="600.7279953106762" cy="282.6051427850344" r="1" fill="#248f5e"></circle><circle cx="258.9007814677277" cy="444.17798542516783" r="5" fill="#2eb879"></circle><circle cx="548.3334478708764" cy="413.77062958666625" r="4" fill="#05140d"></circle><circle cx="264.83238335351984" cy="518.3494594274018" r="2" fill="#196643"></circle><circle cx="424.0052661718968" cy="655.3083435920274" r="5" fill="#196643"></circle><circle cx="525.3614610882354" cy="468.4029140983706" r="3" fill="#1c1c1c"></circle><circle cx="477.65689949652614" cy="552.4686465269032" r="3" fill="#05140d"></circle><circle cx="625.6330942123722" cy="288.15230429535086" r="2" fill="#47d193"></circle><circle cx="681.7560570373203" cy="325.42478441660694" r="2" fill="#47d193"></circle><circle cx="828.9622155090655" cy="581.4331040496718" r="5" fill="#99e6c3"></circle><circle cx="496.78720215477813" cy="358.3854174371515" r="3" fill="#0f3d28"></circle><circle cx="383.4646348398079" cy="296.8004879169856" r="5" fill="#2eb879"></circle><circle cx="434.29078849017424" cy="410.10367162311616" r="2" fill="#0f3d28"></circle><circle cx="534.6527859944142" cy="236.42490753715424" r="1" fill="#47d193"></circle><circle cx="380.36979747807976" cy="645.3753396084078" r="3" fill="#0f3d28"></circle><circle cx="393.07418093486183" cy="449.4949135015937" r="2" fill="#05140d"></circle><circle cx="454.3062883521169" cy="535.8345954345481" r="5" fill="#1c1c1c"></circle><circle cx="642.2138641490035" cy="646.8200947545881" r="2" fill="#248f5e"></circle><circle cx="319.7096802700472" cy="419.1046640884166" r="1" fill="#196643"></circle><circle cx="404.4754158889012" cy="450.95545568913076" r="4" fill="#0f3d28"></circle><circle cx="664.8841658867038" cy="531.4235251778381" r="5" fill="#248f5e"></circle><circle cx="452.94121367940886" cy="458.3300781972605" r="4" fill="#1c1c1c"></circle><circle cx="444.0954645627893" cy="487.79921470166363" r="5" fill="#05140d"></circle><circle cx="517.6409927134946" cy="516.0347821381324" r="3" fill="#1c1c1c"></circle><circle cx="591.2849807918865" cy="454.8129621071929" r="3" fill="#0f3d28"></circle><circle cx="465.8069712507701" cy="412.71915683341854" r="1" fill="#05140d"></circle><circle cx="564.3544933107075" cy="478.0554370331907" r="5" fill="#1c1c1c"></circle><circle cx="436.258055049708" cy="297.7088806045227" r="2" fill="#248f5e"></circle><circle cx="501.6777572594323" cy="255.27233196674243" r="5" fill="#47d193"></circle><circle cx="347.7268230463885" cy="302.04125041566454" r="5" fill="#47d193"></circle><circle cx="543.5116881049473" cy="561.1655166779468" r="5" fill="#1c1c1c"></circle><circle cx="254.33294040439458" cy="252.28265680108586" r="1" fill="#99e6c3"></circle><circle cx="661.7518846359386" cy="432.12587008617163" r="3" fill="#196643"></circle><circle cx="193.5046535393912" cy="479.07059339330306" r="5" fill="#47d193"></circle><circle cx="365.53193449610177" cy="613.8124395927076" r="1" fill="#196643"></circle><circle cx="490.9563610235824" cy="455.130342182017" r="2" fill="#1c1c1c"></circle><circle cx="414.8808697521137" cy="595.4877741761148" r="3" fill="#0f3d28"></circle><circle cx="302.85382789547424" cy="419.4588996459988" r="1" fill="#248f5e"></circle><circle cx="319.4679179213625" cy="269.8795986783493" r="3" fill="#47d193"></circle><circle cx="509.3709314822739" cy="686.8369262254465" r="4" fill="#248f5e"></circle><circle cx="403.5593742234592" cy="382.9341743244198" r="1" fill="#0f3d28"></circle><circle cx="676.5095944976985" cy="714.8095517973898" r="2" fill="#47d193"></circle><circle cx="585.5763478030498" cy="258.1357661587141" r="2" fill="#2eb879"></circle><circle cx="458.3199546128137" cy="599.4809339016402" r="4" fill="#0f3d28"></circle><circle cx="439.18490593771696" cy="719.1056190029334" r="2" fill="#248f5e"></circle><circle cx="541.8562963918449" cy="828.2768584163665" r="5" fill="#99e6c3"></circle><circle cx="589.5146310957327" cy="496.20329313442664" r="2" fill="#05140d"></circle><circle cx="622.6206021242097" cy="477.81046189569236" r="4" fill="#0f3d28"></circle><circle cx="726.2824978576087" cy="541.6158108790246" r="3" fill="#248f5e"></circle><circle cx="628.6932376946928" cy="280.9951213925164" r="1" fill="#47d193"></circle><circle cx="425.6416002099065" cy="323.6010831321722" r="1" fill="#196643"></circle><circle cx="448.4829834116001" cy="974.9080355098763" r="1" fill="#99e6c3"></circle><circle cx="657.1464548551528" cy="272.28201514792227" r="5" fill="#47d193"></circle><circle cx="685.698557379598" cy="484.15181648921265" r="1" fill="#196643"></circle><circle cx="478.1086380023099" cy="457.7606287087601" r="3" fill="#1c1c1c"></circle><circle cx="578.3744313317248" cy="550.6639796805819" r="5" fill="#05140d"></circle><circle cx="263.96513648342375" cy="497.50758686938076" r="3" fill="#248f5e"></circle><circle cx="580.4073620279052" cy="626.5994168921554" r="3" fill="#196643"></circle><circle cx="574.3768713163295" cy="597.29094791918" r="5" fill="#196643"></circle><circle cx="305.2661938075472" cy="308.5527457738526" r="2" fill="#2eb879"></circle><circle cx="281.24536615137265" cy="609.8425375100137" r="5" fill="#47d193"></circle><circle cx="344.812362490769" cy="546.4737046501591" r="3" fill="#196643"></circle><circle cx="354.03763300774244" cy="663.2485983564037" r="3" fill="#248f5e"></circle><circle cx="489.18438064726257" cy="418.8205589570133" r="2" fill="#05140d"></circle><circle cx="343.4579991318567" cy="576.0027726408978" r="4" fill="#196643"></circle><circle cx="211.20752303079502" cy="484.80400612759934" r="2" fill="#47d193"></circle><circle cx="399.94294982717935" cy="542.4102899839322" r="4" fill="#0f3d28"></circle><circle cx="547.6015838157472" cy="490.66213048197267" r="4" fill="#1c1c1c"></circle><circle cx="625.5902078058356" cy="697.8301026053764" r="5" fill="#248f5e"></circle><circle cx="615.9414121783902" cy="458.5798830960909" r="4" fill="#0f3d28"></circle><circle cx="501.75346966287566" cy="625.1772384529145" r="2" fill="#0f3d28"></circle><circle cx="531.5676209101654" cy="302.6808625736087" r="1" fill="#0f3d28"></circle><circle cx="388.39322054991914" cy="612.0364787988952" r="2" fill="#05140d"></circle><circle cx="547.88063723251" cy="727.3773614566859" r="3" fill="#248f5e"></circle><circle cx="629.0450928266205" cy="525.2728684149881" r="3" fill="#0f3d28"></circle><circle cx="732.586396411602" cy="435.2522897752263" r="1" fill="#47d193"></circle><circle cx="366.0561377188851" cy="547.8208312791498" r="1" fill="#0f3d28"></circle><circle cx="326.5047718087853" cy="631.9032469261713" r="4" fill="#248f5e"></circle><circle cx="420.9403251090555" cy="683.7312198498762" r="2" fill="#248f5e"></circle><circle cx="306.1648166779378" cy="595.0721100508159" r="5" fill="#248f5e"></circle><circle cx="368.7194063769467" cy="616.6512254737876" r="4" fill="#0f3d28"></circle><circle cx="414.0555110993427" cy="598.1696609916531" r="1" fill="#0f3d28"></circle><circle cx="429.56213905353974" cy="599.5460882448492" r="4" fill="#0f3d28"></circle><circle cx="518.0454192715488" cy="618.7990157777608" r="4" fill="#0f3d28"></circle><circle cx="628.8778186115818" cy="580.9240833280691" r="2" fill="#05140d"></circle><circle cx="757.6094273737672" cy="628.5050903386727" r="2" fill="#47d193"></circle><circle cx="542.0308632952651" cy="476.34476281360986" r="5" fill="#05140d"></circle><circle cx="346.4533109579978" cy="386.3297732998545" r="1" fill="#196643"></circle><circle cx="477.07105478603114" cy="546.4610654876072" r="3" fill="#1c1c1c"></circle><circle cx="525.7826221223316" cy="114.61670769196581" r="1" fill="#99e6c3"></circle><circle cx="499.8357352075785" cy="670.3523954694033" r="3" fill="#196643"></circle><circle cx="561.048082944013" cy="689.9698121207149" r="5" fill="#0f3d28"></circle><circle cx="403.3613816406458" cy="447.39321816052006" r="5" fill="#0f3d28"></circle><circle cx="469.94007620385815" cy="735.8433823137216" r="1" fill="#248f5e"></circle><circle cx="615.8047417333191" cy="679.9481726044198" r="4" fill="#248f5e"></circle><circle cx="524.058541858317" cy="447.8469153367904" r="5" fill="#05140d"></circle><circle cx="647.0203516518814" cy="328.24290868786187" r="2" fill="#248f5e"></circle><circle cx="459.7138987991708" cy="358.3233621071364" r="3" fill="#196643"></circle><circle cx="503.857119426828" cy="472.0982011694008" r="3" fill="#05140d"></circle><circle cx="843.416393587793" cy="425.7171480074901" r="5" fill="#99e6c3"></circle><circle cx="830.119945691446" cy="537.6520548437235" r="5" fill="#99e6c3"></circle><circle cx="433.6824434918686" cy="699.1097149618034" r="4" fill="#248f5e"></circle><circle cx="573.8669643263993" cy="397.2152372253379" r="5" fill="#0f3d28"></circle><circle cx="604.3234934378629" cy="634.125568246646" r="2" fill="#196643"></circle><circle cx="415.7944505634475" cy="833.5717567857037" r="5" fill="#99e6c3"></circle><circle cx="620.425865931741" cy="389.32426388842237" r="1" fill="#196643"></circle><circle cx="927.5529441608851" cy="426.35139164898885" r="2" fill="#99e6c3"></circle><circle cx="336.8914371893454" cy="535.3660622550334" r="5" fill="#196643"></circle><circle cx="508.4798689180271" cy="631.8377058478007" r="4" fill="#0f3d28"></circle><circle cx="499.44014687888546" cy="313.2538776386057" r="5" fill="#248f5e"></circle><circle cx="758.2129701250587" cy="231.26588672479272" r="1" fill="#99e6c3"></circle><circle cx="381.3608368171264" cy="424.1161127901039" r="5" fill="#0f3d28"></circle><circle cx="388.7841621253566" cy="481.82301988129484" r="4" fill="#05140d"></circle><circle cx="524.7232172213899" cy="495.99611734406744" r="1" fill="#05140d"></circle><circle cx="666.9163841102337" cy="669.6783681823879" r="3" fill="#248f5e"></circle><circle cx="320.1544112849142" cy="225.50246622735852" r="2" fill="#99e6c3"></circle><circle cx="830.7710174759806" cy="575.114369005933" r="1" fill="#99e6c3"></circle><circle cx="368.4490078008106" cy="615.9287544485468" r="2" fill="#0f3d28"></circle><circle cx="168.91652653021896" cy="512.0205057544249" r="5" fill="#47d193"></circle><circle cx="493.95243575462683" cy="289.9676665305901" r="5" fill="#248f5e"></circle><circle cx="513.9501821183391" cy="715.4008956732091" r="1" fill="#248f5e"></circle><circle cx="347.62852847164294" cy="610.903867953524" r="1" fill="#196643"></circle><circle cx="642.1328187646312" cy="490.18756213639125" r="5" fill="#196643"></circle><circle cx="459.66006746283546" cy="496.2858192446715" r="1" fill="#1c1c1c"></circle><circle cx="720.920934813587" cy="659.6941458227349" r="4" fill="#47d193"></circle><circle cx="741.1190827355663" cy="497.75719224705443" r="3" fill="#47d193"></circle><circle cx="595.4228295181006" cy="458.1412240773148" r="5" fill="#0f3d28"></circle><circle cx="471.65239285422126" cy="485.67905863566307" r="5" fill="#1c1c1c"></circle><circle cx="591.6170186027117" cy="505.5639077109658" r="1" fill="#1c1c1c"></circle><circle cx="227.14801660423382" cy="600.1966241291507" r="3" fill="#47d193"></circle><circle cx="368.51474467684807" cy="341.2870967092369" r="4" fill="#248f5e"></circle><circle cx="444.4629112067074" cy="576.4716120785181" r="3" fill="#05140d"></circle><circle cx="354.7773648408284" cy="371.1076732205423" r="2" fill="#196643"></circle><circle cx="203.48525392638822" cy="450.85428200811816" r="1" fill="#47d193"></circle><circle cx="438.7540931513986" cy="575.4689356980238" r="5" fill="#1c1c1c"></circle><circle cx="291.3266523903625" cy="239.63133926966646" r="3" fill="#99e6c3"></circle><circle cx="365.1045715628221" cy="579.4233407824538" r="3" fill="#0f3d28"></circle><circle cx="539.2024069100556" cy="524.3711274120703" r="5" fill="#05140d"></circle><circle cx="466.8367117728483" cy="599.6203094794682" r="5" fill="#1c1c1c"></circle><circle cx="636.4266660720349" cy="599.0460533331341" r="2" fill="#196643"></circle><circle cx="364.7919467414117" cy="514.8456735463079" r="1" fill="#196643"></circle><circle cx="757.1117636824208" cy="471.09910178192484" r="2" fill="#47d193"></circle><circle cx="496.0758344396281" cy="465.40762438083607" r="5" fill="#05140d"></circle><circle cx="358.5919757540454" cy="353.50193049840806" r="3" fill="#2eb879"></circle><circle cx="538.7349508324547" cy="449.58124825292714" r="3" fill="#1c1c1c"></circle><circle cx="340.4238189660645" cy="654.4800140617314" r="5" fill="#248f5e"></circle><circle cx="414.23500240679635" cy="549.9234629168068" r="1" fill="#05140d"></circle><circle cx="399.08070040278363" cy="819.3577884784913" r="1" fill="#99e6c3"></circle><circle cx="523.4155558482137" cy="306.792827932895" r="1" fill="#196643"></circle><circle cx="478.15499785280446" cy="275.3995932629634" r="5" fill="#248f5e"></circle><circle cx="363.7625467171358" cy="462.81473202082583" r="4" fill="#0f3d28"></circle><circle cx="745.1888410391068" cy="596.1249947780325" r="1" fill="#47d193"></circle><circle cx="663.2365058586238" cy="638.3892322447105" r="5" fill="#248f5e"></circle><circle cx="733.1101576966981" cy="490.2819456836039" r="1" fill="#248f5e"></circle><circle cx="389.59614857243076" cy="805.0256269191826" r="5" fill="#99e6c3"></circle><circle cx="456.80161539642427" cy="583.952599876518" r="1" fill="#05140d"></circle><circle cx="678.5714546521288" cy="530.8806901472578" r="3" fill="#196643"></circle><circle cx="562.3521767574042" cy="302.8125792363003" r="3" fill="#248f5e"></circle><circle cx="258.76879818612383" cy="531.5248691002888" r="1" fill="#47d193"></circle><circle cx="528.7642909028305" cy="495.55818920097823" r="1" fill="#1c1c1c"></circle><circle cx="644.7020231893661" cy="440.0400094477684" r="3" fill="#05140d"></circle><circle cx="540.7571985616961" cy="502.2977313351537" r="4" fill="#1c1c1c"></circle><circle cx="624.7091457882093" cy="448.932920478023" r="4" fill="#196643"></circle><circle cx="296.981182313153" cy="573.885660065784" r="4" fill="#196643"></circle><circle cx="494.6548779597795" cy="446.7851879374846" r="5" fill="#1c1c1c"></circle><circle cx="602.6714657887946" cy="671.7068762990878" r="4" fill="#248f5e"></circle><circle cx="310.7868223588272" cy="162.1762817493264" r="5" fill="#99e6c3"></circle><circle cx="343.3874765548842" cy="488.72654437863457" r="4" fill="#0f3d28"></circle><circle cx="503.99955443286063" cy="613.1075352732056" r="4" fill="#05140d"></circle><circle cx="471.85927358333686" cy="597.3517730756896" r="4" fill="#05140d"></circle><circle cx="394.07060584175434" cy="633.284458443964" r="5" fill="#248f5e"></circle><circle cx="794.721904010768" cy="440.3150634389218" r="4" fill="#47d193"></circle><circle cx="448.60546764805224" cy="256.5329183946592" r="4" fill="#47d193"></circle><circle cx="559.6474856978268" cy="443.6838464611103" r="1" fill="#05140d"></circle><circle cx="507.26713685390797" cy="450.81652321490185" r="5" fill="#1c1c1c"></circle><circle cx="566.7817560511205" cy="618.8856870698344" r="1" fill="#0f3d28"></circle><circle cx="364.58584546450845" cy="430.5355643574709" r="3" fill="#0f3d28"></circle><circle cx="640.0601376586947" cy="523.2924880222905" r="5" fill="#196643"></circle><circle cx="542.7074425023152" cy="361.07325260051624" r="2" fill="#0f3d28"></circle><circle cx="360.64709836651014" cy="358.8187617401582" r="2" fill="#196643"></circle><circle cx="709.1830618697595" cy="586.1548080263678" r="2" fill="#196643"></circle><circle cx="578.6882245285883" cy="537.078204216829" r="1" fill="#0f3d28"></circle><circle cx="543.7261391047509" cy="301.6182572264144" r="3" fill="#2eb879"></circle><circle cx="643.150926406105" cy="526.0189604314654" r="5" fill="#0f3d28"></circle><circle cx="426.2460188061201" cy="683.0135589221761" r="2" fill="#196643"></circle><circle cx="803.7901438791004" cy="435.7046574879341" r="2" fill="#47d193"></circle><circle cx="481.63480442379665" cy="425.80699767590585" r="5" fill="#1c1c1c"></circle><circle cx="200.69936955961447" cy="475.8641061483213" r="1" fill="#47d193"></circle><circle cx="607.7139486733582" cy="776.75659876138" r="2" fill="#47d193"></circle><circle cx="574.741610786178" cy="302.0674376455041" r="5" fill="#196643"></circle><circle cx="376.28065403822654" cy="611.2895004527215" r="2" fill="#196643"></circle><circle cx="731.3260311498882" cy="782.8962402393456" r="1" fill="#99e6c3"></circle><circle cx="596.8650213653386" cy="654.541933660714" r="5" fill="#196643"></circle><circle cx="495.99237424455566" cy="440.95280047610777" r="4" fill="#1c1c1c"></circle><circle cx="381.5965845829768" cy="260.06887018127776" r="1" fill="#47d193"></circle><circle cx="441.89727279394737" cy="632.2779015738007" r="5" fill="#0f3d28"></circle><circle cx="561.175330081819" cy="546.2254260463952" r="4" fill="#1c1c1c"></circle><circle cx="185.57592356935902" cy="361.93940297448864" r="2" fill="#47d193"></circle><circle cx="540.4625313170993" cy="393.99983556011045" r="5" fill="#05140d"></circle><circle cx="480.73281742539626" cy="687.3528074294218" r="3" fill="#196643"></circle><circle cx="407.5060225639087" cy="609.3138427430612" r="3" fill="#0f3d28"></circle><circle cx="584.1707280776653" cy="552.419964384824" r="4" fill="#05140d"></circle><circle cx="689.4983928183714" cy="437.27515802874615" r="2" fill="#196643"></circle><circle cx="562.1645481502142" cy="472.6692447929635" r="3" fill="#1c1c1c"></circle><circle cx="498.37785159595296" cy="540.1093920342082" r="1" fill="#1c1c1c"></circle><circle cx="515.2836898926647" cy="827.3862053741266" r="1" fill="#99e6c3"></circle><circle cx="331.89364830243886" cy="491.42527803475355" r="3" fill="#196643"></circle><circle cx="388.93682174467983" cy="824.4118176797776" r="1" fill="#99e6c3"></circle><circle cx="461.4474431562084" cy="377.72510735144226" r="2" fill="#0f3d28"></circle><circle cx="801.3715585347328" cy="293.2450324005794" r="2" fill="#99e6c3"></circle><circle cx="547.4451460980865" cy="638.0685388129134" r="2" fill="#0f3d28"></circle><circle cx="251.60623545673207" cy="569.1362414692829" r="4" fill="#47d193"></circle><circle cx="336.0922105313817" cy="256.79624440361783" r="5" fill="#47d193"></circle><circle cx="504.2879620479438" cy="538.8089020276922" r="4" fill="#1c1c1c"></circle><circle cx="288.3774251454236" cy="392.9948792351544" r="2" fill="#2eb879"></circle><circle cx="627.4745290829385" cy="623.9639780639797" r="3" fill="#196643"></circle><circle cx="241.97937350035852" cy="570.1982076916006" r="1" fill="#47d193"></circle><circle cx="515.5809431303142" cy="738.7797304725947" r="3" fill="#248f5e"></circle><circle cx="712.9464130510448" cy="496.5987601209204" r="4" fill="#248f5e"></circle><circle cx="734.3259137333055" cy="428.50757882157285" r="5" fill="#47d193"></circle><circle cx="435.0460608936236" cy="421.06415252748286" r="3" fill="#05140d"></circle><circle cx="644.1431240495328" cy="446.4618201380746" r="3" fill="#196643"></circle><circle cx="904.4248245793253" cy="529.8237582095442" r="5" fill="#99e6c3"></circle><circle cx="299.1459962522074" cy="711.5995560601864" r="5" fill="#99e6c3"></circle><circle cx="521.9992519042355" cy="632.6082905485378" r="3" fill="#196643"></circle><circle cx="494.9275817761521" cy="527.6279282790406" r="2" fill="#1c1c1c"></circle><circle cx="834.1030842201121" cy="608.9652845584751" r="2" fill="#99e6c3"></circle><circle cx="453.97521861286873" cy="578.4828526269532" r="3" fill="#05140d"></circle><circle cx="286.8029523566311" cy="714.7412784761831" r="4" fill="#47d193"></circle><circle cx="535.4772625534234" cy="507.5971260743116" r="3" fill="#05140d"></circle><circle cx="667.8822022109459" cy="469.8912688552746" r="5" fill="#196643"></circle><circle cx="504.69087286835133" cy="461.9398994516815" r="3" fill="#1c1c1c"></circle><circle cx="385.98074812863916" cy="425.72738272089424" r="4" fill="#0f3d28"></circle><circle cx="786.004885134066" cy="438.88423012360903" r="1" fill="#47d193"></circle><circle cx="603.5501552126997" cy="517.3462123842119" r="5" fill="#05140d"></circle><circle cx="524.019064897338" cy="440.2148452961623" r="4" fill="#1c1c1c"></circle><circle cx="452.93748368678075" cy="673.4544914859449" r="2" fill="#0f3d28"></circle><circle cx="798.4215632216077" cy="541.1026420362324" r="5" fill="#47d193"></circle><circle cx="178.89765891555078" cy="692.9879081098766" r="4" fill="#99e6c3"></circle><circle cx="335.6843715492755" cy="307.3433562727717" r="1" fill="#47d193"></circle><circle cx="462.9924313134264" cy="801.2927456194326" r="1" fill="#47d193"></circle><circle cx="552.5859261596635" cy="469.6925789649534" r="1" fill="#1c1c1c"></circle><circle cx="609.7430888406249" cy="459.2434330511022" r="2" fill="#05140d"></circle><circle cx="697.4387820654576" cy="588.7272539052165" r="3" fill="#248f5e"></circle><circle cx="766.262897038451" cy="475.87447721359763" r="5" fill="#47d193"></circle><circle cx="253.35039671031495" cy="319.2296775826743" r="5" fill="#47d193"></circle><circle cx="250.2666629851038" cy="554.1473697746472" r="3" fill="#47d193"></circle><circle cx="490.8514785141626" cy="332.73568828749046" r="4" fill="#196643"></circle><circle cx="685.0835442016939" cy="405.210103184493" r="5" fill="#248f5e"></circle><circle cx="753.4424155052386" cy="533.9770905813575" r="3" fill="#47d193"></circle><circle cx="783.1835979391569" cy="603.0568791793329" r="2" fill="#47d193"></circle><circle cx="601.1656970810013" cy="524.6855477448191" r="2" fill="#05140d"></circle><circle cx="537.1640693607482" cy="319.24414494272764" r="2" fill="#196643"></circle><circle cx="639.8271409953793" cy="561.276433683156" r="5" fill="#0f3d28"></circle><circle cx="573.4981867136696" cy="816.5501890036492" r="5" fill="#99e6c3"></circle><circle cx="477.7616858067137" cy="675.7985948343076" r="3" fill="#248f5e"></circle><circle cx="589.0419287410693" cy="564.446482919337" r="3" fill="#0f3d28"></circle><circle cx="624.0592508784503" cy="556.3918705081894" r="3" fill="#0f3d28"></circle><circle cx="387.3196727179025" cy="456.26832839641213" r="1" fill="#0f3d28"></circle><circle cx="435.05294265270356" cy="282.90598336071224" r="5" fill="#248f5e"></circle><circle cx="444.771093917377" cy="532.9319485419162" r="2" fill="#05140d"></circle><circle cx="454.99981491767227" cy="693.0548216170982" r="4" fill="#0f3d28"></circle><circle cx="460.2572899043313" cy="320.2012294535824" r="4" fill="#196643"></circle><circle cx="480.15191731396027" cy="502.7324320102803" r="1" fill="#1c1c1c"></circle><circle cx="611.2838973025434" cy="189.75205734315898" r="1" fill="#99e6c3"></circle><circle cx="523.110128693807" cy="646.1318802144526" r="3" fill="#0f3d28"></circle><circle cx="530.5163508445227" cy="542.2900921976351" r="4" fill="#1c1c1c"></circle><circle cx="284.8977336107765" cy="537.5482166596697" r="3" fill="#248f5e"></circle><circle cx="359.8381592598872" cy="549.418697325604" r="3" fill="#196643"></circle><circle cx="504.86499231260376" cy="650.7419836885955" r="3" fill="#0f3d28"></circle><circle cx="764.2936601063091" cy="509.8655615279724" r="1" fill="#47d193"></circle><circle cx="536.3491225266903" cy="686.6196619540951" r="3" fill="#196643"></circle><circle cx="576.5536763609895" cy="477.2585064024939" r="1" fill="#1c1c1c"></circle><circle cx="295.5484842291493" cy="522.8223947006188" r="5" fill="#248f5e"></circle><circle cx="621.8070639445939" cy="333.14562542376615" r="2" fill="#196643"></circle><circle cx="707.5404898039787" cy="381.56528478210646" r="3" fill="#196643"></circle><circle cx="276.01792295738653" cy="478.56164727632876" r="3" fill="#248f5e"></circle><circle cx="516.2466176282127" cy="366.7714364545421" r="2" fill="#0f3d28"></circle><circle cx="444.5113369999235" cy="627.9073494021249" r="1" fill="#196643"></circle><circle cx="455.3560386862385" cy="499.00980058638567" r="3" fill="#1c1c1c"></circle><circle cx="405.5542355991735" cy="515.3357003225933" r="5" fill="#05140d"></circle><circle cx="282.4243921425466" cy="645.3913442104074" r="3" fill="#47d193"></circle><circle cx="537.3614943770758" cy="631.681403283419" r="5" fill="#0f3d28"></circle><circle cx="382.87684187877994" cy="505.3601875680442" r="3" fill="#05140d"></circle><circle cx="471.8006657790172" cy="536.7466846293394" r="4" fill="#1c1c1c"></circle><circle cx="351.85168632791334" cy="487.43100777792694" r="4" fill="#0f3d28"></circle><circle cx="545.9670941202752" cy="416.40545248807734" r="1" fill="#1c1c1c"></circle><circle cx="434.4232904068034" cy="596.2099380739764" r="2" fill="#05140d"></circle><circle cx="298.744322934982" cy="781.6605752174314" r="5" fill="#99e6c3"></circle><circle cx="295.90112963518976" cy="239.29156378694165" r="3" fill="#99e6c3"></circle><circle cx="533.304087610558" cy="632.5869548980418" r="3" fill="#0f3d28"></circle><circle cx="472.4434807165562" cy="638.4219135271164" r="1" fill="#0f3d28"></circle><circle cx="705.3005101470837" cy="708.2820471119853" r="4" fill="#47d193"></circle><circle cx="497.55133374099006" cy="325.4037343894902" r="2" fill="#0f3d28"></circle><circle cx="444.3121015192015" cy="155.92522344156032" r="4" fill="#99e6c3"></circle><circle cx="710.3183998992945" cy="505.4233268166262" r="2" fill="#248f5e"></circle><circle cx="603.9135656565973" cy="492.7274874444589" r="1" fill="#0f3d28"></circle><circle cx="565.570996539144" cy="641.0917613951992" r="3" fill="#196643"></circle><circle cx="562.0011932556476" cy="463.42968934540886" r="4" fill="#1c1c1c"></circle><circle cx="403.17246157075675" cy="509.26709472022594" r="1" fill="#05140d"></circle><circle cx="643.484344859701" cy="542.4092229674153" r="2" fill="#0f3d28"></circle><circle cx="378.8786130090273" cy="450.3528983535896" r="1" fill="#196643"></circle><circle cx="813.5418377706609" cy="741.4195932386529" r="1" fill="#99e6c3"></circle><circle cx="381.0929477685965" cy="574.7785589621715" r="1" fill="#196643"></circle><circle cx="752.1359586327529" cy="398.05690482108525" r="3" fill="#2eb879"></circle><circle cx="625.5637137954799" cy="264.26335085212884" r="1" fill="#47d193"></circle><circle cx="757.6546178009776" cy="688.3915430713738" r="4" fill="#47d193"></circle><circle cx="437.07101689621237" cy="670.0364655899456" r="5" fill="#196643"></circle><circle cx="666.7694255726745" cy="674.2222296743467" r="4" fill="#47d193"></circle><circle cx="536.5673285786239" cy="560.9375803135321" r="1" fill="#1c1c1c"></circle><circle cx="638.3054579782954" cy="598.6697445858371" r="3" fill="#196643"></circle><circle cx="649.0348630134115" cy="513.4709421929607" r="1" fill="#0f3d28"></circle><circle cx="454.5583999966766" cy="523.2731803638618" r="2" fill="#05140d"></circle><circle cx="506.1764344444449" cy="521.0328438647537" r="3" fill="#1c1c1c"></circle><circle cx="692.3950546678975" cy="429.6583349241199" r="4" fill="#248f5e"></circle><circle cx="529.5386225135862" cy="571.835284254043" r="5" fill="#1c1c1c"></circle><circle cx="399.9808932803444" cy="448.585482815653" r="4" fill="#05140d"></circle><circle cx="673.099399257686" cy="411.27509665841154" r="3" fill="#196643"></circle><circle cx="279.21791769483474" cy="604.4828364835186" r="2" fill="#47d193"></circle><circle cx="766.4121223984473" cy="170.01797884415606" r="2" fill="#99e6c3"></circle><circle cx="432.27659628527175" cy="226.66923309272113" r="5" fill="#47d193"></circle><circle cx="344.79891651044625" cy="393.93194811390475" r="4" fill="#196643"></circle><circle cx="481.17115320768596" cy="470.0226047632974" r="4" fill="#1c1c1c"></circle><circle cx="358.4341253426409" cy="573.7598233164324" r="3" fill="#196643"></circle><circle cx="515.4883433228567" cy="443.69649904128835" r="3" fill="#1c1c1c"></circle><circle cx="487.20336319736094" cy="678.0086908352915" r="3" fill="#196643"></circle><circle cx="429.83484184603907" cy="578.1815426010974" r="4" fill="#05140d"></circle><circle cx="754.7216820824945" cy="601.7302742282652" r="4" fill="#47d193"></circle><circle cx="348.08119021297284" cy="610.275909237147" r="4" fill="#196643"></circle><circle cx="413.4450574943387" cy="539.6258475451492" r="5" fill="#05140d"></circle><circle cx="525.5873318489042" cy="544.7446516861834" r="5" fill="#1c1c1c"></circle><circle cx="484.5406939517477" cy="453.61054528544577" r="5" fill="#1c1c1c"></circle><circle cx="653.1888920124102" cy="539.627108706658" r="4" fill="#0f3d28"></circle><circle cx="648.6657805581968" cy="402.84316844712424" r="3" fill="#196643"></circle><circle cx="494.1847222154652" cy="712.9091134145725" r="1" fill="#248f5e"></circle><circle cx="471.7056891863687" cy="447.9455847341845" r="5" fill="#1c1c1c"></circle><circle cx="524.8198242326906" cy="716.936201873772" r="2" fill="#248f5e"></circle><circle cx="470.5759952377294" cy="290.8768637408406" r="5" fill="#248f5e"></circle><circle cx="723.7857735662715" cy="353.8163823247091" r="4" fill="#47d193"></circle><circle cx="828.6694032234604" cy="488.97641476009545" r="2" fill="#99e6c3"></circle><circle cx="425.9428503428137" cy="551.665106167755" r="2" fill="#0f3d28"></circle><circle cx="332.9469054038809" cy="493.98966769905013" r="3" fill="#196643"></circle><circle cx="678.0334288144074" cy="182.58494789563446" r="3" fill="#99e6c3"></circle><circle cx="489.2879562374273" cy="447.2304736924935" r="3" fill="#1c1c1c"></circle><circle cx="397.8006961842745" cy="349.4863824605711" r="3" fill="#196643"></circle><circle cx="681.5135506808474" cy="466.29137306403993" r="1" fill="#196643"></circle><circle cx="428.9315043729764" cy="732.3383640426302" r="4" fill="#47d193"></circle><circle cx="501.8788521135086" cy="296.0671666502924" r="2" fill="#248f5e"></circle><circle cx="612.0645493698701" cy="586.3204179527331" r="3" fill="#196643"></circle><circle cx="230.55353022683533" cy="716.8441346866706" r="1" fill="#99e6c3"></circle><circle cx="159.56207532789608" cy="766.5319339861599" r="4" fill="#99e6c3"></circle><circle cx="359.019622519274" cy="573.7902919872382" r="4" fill="#05140d"></circle><circle cx="702.2675419442937" cy="544.101462069953" r="3" fill="#2eb879"></circle><circle cx="490.8478328857309" cy="253.75900078037526" r="1" fill="#47d193"></circle><circle cx="535.5833853888613" cy="644.936234272242" r="1" fill="#0f3d28"></circle><circle cx="280.580640307443" cy="441.0726078503057" r="4" fill="#248f5e"></circle><circle cx="581.5138528217853" cy="825.4639063337901" r="4" fill="#99e6c3"></circle><circle cx="364.45341771893595" cy="691.0554548933784" r="4" fill="#248f5e"></circle><circle cx="496.3471498288735" cy="195.40602505944406" r="5" fill="#47d193"></circle><circle cx="529.76674446052" cy="449.6377301309026" r="4" fill="#1c1c1c"></circle><circle cx="451.6840250794179" cy="812.4510383420738" r="2" fill="#47d193"></circle><circle cx="590.0050947270026" cy="430.29498073679054" r="1" fill="#05140d"></circle><circle cx="690.7990024862191" cy="561.3155588552655" r="4" fill="#248f5e"></circle><circle cx="688.7560209469517" cy="422.5942550545907" r="1" fill="#196643"></circle><circle cx="480.801258318525" cy="250.99111587223138" r="2" fill="#47d193"></circle><circle cx="511.38457716244653" cy="627.0053216345083" r="5" fill="#0f3d28"></circle><circle cx="322.5702122262519" cy="645.3818204528293" r="1" fill="#196643"></circle><circle cx="565.4341130636726" cy="544.1557263252093" r="1" fill="#1c1c1c"></circle><circle cx="546.8992057182234" cy="713.5504052617894" r="1" fill="#2eb879"></circle><circle cx="737.9304615724413" cy="807.0295348976481" r="2" fill="#99e6c3"></circle><circle cx="541.7832928075238" cy="636.400906881926" r="4" fill="#0f3d28"></circle><circle cx="650.7349394602279" cy="493.5038582037792" r="5" fill="#0f3d28"></circle><circle cx="558.6118487849053" cy="506.52691017522267" r="3" fill="#1c1c1c"></circle><circle cx="785.7192165921997" cy="602.403061707866" r="5" fill="#47d193"></circle><circle cx="624.1031147938038" cy="559.8042844608506" r="4" fill="#0f3d28"></circle><circle cx="767.3298647450977" cy="578.8510642928153" r="5" fill="#47d193"></circle><circle cx="691.1660265135765" cy="424.0809002043634" r="2" fill="#248f5e"></circle><circle cx="328.2162057618801" cy="182.320618199058" r="3" fill="#99e6c3"></circle><circle cx="293.1406212193211" cy="634.9758289768706" r="4" fill="#47d193"></circle><circle cx="301.4026945297543" cy="451.2999355588378" r="4" fill="#248f5e"></circle><circle cx="670.1806323942492" cy="686.7069818641967" r="4" fill="#47d193"></circle><circle cx="309.3271893211147" cy="826.1410500355455" r="2" fill="#99e6c3"></circle><circle cx="349.1716009325224" cy="506.87607246486516" r="2" fill="#0f3d28"></circle><circle cx="429.83747316428196" cy="596.4515378202972" r="2" fill="#05140d"></circle><circle cx="418.7739986937427" cy="660.2637741867266" r="5" fill="#196643"></circle><circle cx="511.9407296389256" cy="750.3616965491549" r="4" fill="#2eb879"></circle><circle cx="265.2109307063637" cy="337.07082832826063" r="3" fill="#47d193"></circle><circle cx="579.4092038110238" cy="518.9009580148307" r="2" fill="#1c1c1c"></circle><circle cx="582.9142526368944" cy="269.5581523993708" r="3" fill="#47d193"></circle><circle cx="434.28195898666337" cy="344.76994375280276" r="1" fill="#248f5e"></circle><circle cx="566.8862649170525" cy="857.0416474168692" r="4" fill="#99e6c3"></circle><circle cx="606.9337017302578" cy="540.4660437586845" r="4" fill="#0f3d28"></circle><circle cx="669.7988311222566" cy="484.63865353663783" r="1" fill="#196643"></circle><circle cx="733.2114478784822" cy="537.8838073188939" r="1" fill="#248f5e"></circle><circle cx="543.3094496665336" cy="403.4032741571078" r="3" fill="#05140d"></circle><circle cx="280.7611985094402" cy="501.5046232170919" r="3" fill="#248f5e"></circle><circle cx="470.68924803715277" cy="425.824804009759" r="5" fill="#1c1c1c"></circle><circle cx="508.6050348464708" cy="671.2484491575424" r="4" fill="#0f3d28"></circle><circle cx="667.6555693053912" cy="482.46891230264305" r="4" fill="#196643"></circle><circle cx="504.5005890420167" cy="639.8989130423798" r="4" fill="#0f3d28"></circle><circle cx="650.3630965986722" cy="312.3266823312158" r="1" fill="#47d193"></circle><circle cx="419.7919765957512" cy="256.10142719475346" r="3" fill="#47d193"></circle><circle cx="531.8121818448122" cy="252.55218986882414" r="5" fill="#47d193"></circle><circle cx="494.5108816370164" cy="544.4683750704984" r="1" fill="#1c1c1c"></circle><circle cx="258.37043421903337" cy="290.5663228189982" r="3" fill="#47d193"></circle><circle cx="508.3233792727422" cy="451.1255829536079" r="1" fill="#05140d"></circle><circle cx="412.20126076774073" cy="388.61548177002163" r="4" fill="#0f3d28"></circle><circle cx="548.4580026966663" cy="885.9970449520642" r="2" fill="#99e6c3"></circle><circle cx="585.6475130859528" cy="500.52039831435474" r="1" fill="#05140d"></circle><circle cx="118.06737559505171" cy="558.7698487940437" r="5" fill="#99e6c3"></circle><circle cx="403.42523753082673" cy="380.9245990406022" r="3" fill="#0f3d28"></circle><circle cx="376.53198285905916" cy="529.3264453582701" r="4" fill="#196643"></circle><circle cx="584.9543686010952" cy="409.0440254153009" r="2" fill="#0f3d28"></circle><circle cx="351.17052661860055" cy="484.19602458913664" r="4" fill="#0f3d28"></circle><circle cx="545.8235577597532" cy="834.7513025929235" r="1" fill="#99e6c3"></circle><circle cx="436.9124380102069" cy="323.31989505749743" r="5" fill="#196643"></circle><circle cx="567.7513553477633" cy="373.452166350784" r="3" fill="#0f3d28"></circle><circle cx="429.6151584752487" cy="334.7052235862805" r="3" fill="#196643"></circle><circle cx="309.4727329653296" cy="518.1316055973027" r="5" fill="#196643"></circle><circle cx="439.87294215387544" cy="755.9184812444108" r="5" fill="#47d193"></circle><circle cx="461.3625748655722" cy="364.2261374223455" r="4" fill="#0f3d28"></circle><circle cx="522.983185124007" cy="539.7731027320602" r="1" fill="#1c1c1c"></circle><circle cx="533.1025001058531" cy="417.14348110040714" r="4" fill="#05140d"></circle><circle cx="446.86187987899524" cy="401.73918721146595" r="5" fill="#05140d"></circle><circle cx="417.1127509191125" cy="425.48795917321576" r="5" fill="#05140d"></circle><circle cx="60.06533739127951" cy="377.13487403264867" r="4" fill="#99e6c3"></circle><circle cx="549.1328181580787" cy="416.47619976066136" r="5" fill="#05140d"></circle><circle cx="464.4201048971857" cy="647.7489241343242" r="2" fill="#0f3d28"></circle><circle cx="443.0269850675067" cy="743.124206837108" r="4" fill="#47d193"></circle><circle cx="280.25803734335676" cy="512.5000334422423" r="5" fill="#248f5e"></circle><circle cx="459.01185584118514" cy="658.3856740010617" r="2" fill="#196643"></circle><circle cx="568.3602064406919" cy="575.9465688749613" r="3" fill="#05140d"></circle><circle cx="497.0318078634103" cy="307.86556932650353" r="2" fill="#196643"></circle><circle cx="455.51541205749413" cy="659.2674431052671" r="3" fill="#248f5e"></circle><circle cx="570.1198126506769" cy="440.418826337944" r="2" fill="#0f3d28"></circle><circle cx="570.0984524341804" cy="572.8159394730488" r="1" fill="#05140d"></circle><circle cx="633.0490242953204" cy="540.6418893290866" r="4" fill="#0f3d28"></circle><circle cx="408.36766936088463" cy="18.468147489613273" r="5" fill="#99e6c3"></circle><circle cx="548.105875242691" cy="536.8668065783354" r="1" fill="#1c1c1c"></circle><circle cx="688.0263316243437" cy="498.3000780761046" r="5" fill="#196643"></circle><circle cx="628.4607591204197" cy="370.4975146850483" r="4" fill="#196643"></circle><circle cx="433.82633462901964" cy="744.0020879607682" r="2" fill="#47d193"></circle><circle cx="415.7473084018774" cy="561.4989715771345" r="2" fill="#0f3d28"></circle><circle cx="342.85158600235826" cy="581.3535222744556" r="4" fill="#196643"></circle><circle cx="413.8490231063133" cy="589.565107874926" r="4" fill="#0f3d28"></circle><circle cx="378.8947267523952" cy="557.9460412018949" r="5" fill="#05140d"></circle><circle cx="494.9390738581104" cy="339.84329744599074" r="5" fill="#196643"></circle><circle cx="413.41945832439126" cy="627.8895994497578" r="5" fill="#05140d"></circle><circle cx="285.2140179805058" cy="751.6781971313491" r="3" fill="#99e6c3"></circle><circle cx="468.5100509550818" cy="566.294485274881" r="5" fill="#1c1c1c"></circle><circle cx="305.6433276516318" cy="539.21181310441" r="3" fill="#196643"></circle><circle cx="726.5758605752083" cy="529.826370779579" r="5" fill="#248f5e"></circle><circle cx="668.2411643791845" cy="559.8706030341726" r="2" fill="#196643"></circle><circle cx="557.6696168646014" cy="168.24091100999317" r="5" fill="#99e6c3"></circle><circle cx="555.0568803976004" cy="517.0251934602736" r="4" fill="#05140d"></circle><circle cx="511.09253839368586" cy="638.818057584768" r="3" fill="#0f3d28"></circle><circle cx="775.5808049762948" cy="476.25889069890667" r="4" fill="#47d193"></circle><circle cx="566.8447183068891" cy="672.4870362533529" r="4" fill="#196643"></circle><circle cx="269.4038106112084" cy="507.212174471512" r="2" fill="#196643"></circle><circle cx="476.5600014088558" cy="629.9317642420139" r="3" fill="#0f3d28"></circle><circle cx="498.39945831389264" cy="521.8293722784431" r="4" fill="#1c1c1c"></circle><circle cx="695.6381803598296" cy="574.1403865772406" r="2" fill="#248f5e"></circle><circle cx="653.2101720465173" cy="282.49213414411736" r="3" fill="#47d193"></circle><circle cx="384.71357853865317" cy="340.4019882103414" r="5" fill="#196643"></circle><circle cx="340.97630651168356" cy="494.25441418954705" r="3" fill="#0f3d28"></circle><circle cx="585.6400539284327" cy="522.1466309631945" r="1" fill="#1c1c1c"></circle><circle cx="445.78336431971167" cy="549.8689504030281" r="1" fill="#1c1c1c"></circle><circle cx="197.6747990926226" cy="213.41479662818955" r="2" fill="#99e6c3"></circle><circle cx="639.1375405539643" cy="557.6659318398716" r="5" fill="#0f3d28"></circle><circle cx="267.70721086306094" cy="681.6254483081728" r="3" fill="#47d193"></circle><circle cx="597.1142451076898" cy="502.48726881976864" r="3" fill="#1c1c1c"></circle><circle cx="391.1663177301882" cy="703.2009674926326" r="1" fill="#248f5e"></circle><circle cx="566.3370195561051" cy="389.95085795904293" r="5" fill="#0f3d28"></circle><circle cx="472.5974610741842" cy="562.1304527310964" r="2" fill="#05140d"></circle><circle cx="362.4883684232814" cy="638.3941204572718" r="2" fill="#196643"></circle><circle cx="342.49506458051474" cy="481.4061733276758" r="3" fill="#05140d"></circle><circle cx="300.3170428936636" cy="226.923569384114" r="3" fill="#47d193"></circle><circle cx="641.3138952320614" cy="818.1526772322153" r="2" fill="#99e6c3"></circle><circle cx="488.20345864176375" cy="416.1888905226471" r="4" fill="#05140d"></circle><circle cx="403.15802969344946" cy="534.2588302669042" r="1" fill="#05140d"></circle><circle cx="299.9867421140733" cy="428.78926074481825" r="5" fill="#248f5e"></circle><circle cx="558.5992498244983" cy="483.4284720011949" r="4" fill="#1c1c1c"></circle><circle cx="684.4713612209299" cy="567.5238269119245" r="4" fill="#196643"></circle><circle cx="282.82150162456253" cy="379.18095777960997" r="1" fill="#47d193"></circle><circle cx="174.9613896212931" cy="585.3522146469179" r="5" fill="#99e6c3"></circle><circle cx="409.84947947150084" cy="444.53554896824517" r="4" fill="#0f3d28"></circle><circle cx="490.3462339163245" cy="768.693200892525" r="1" fill="#47d193"></circle><circle cx="614.7741298686697" cy="538.5199026448004" r="1" fill="#0f3d28"></circle><circle cx="435.16055136247917" cy="598.9283607880103" r="1" fill="#1c1c1c"></circle><circle cx="529.1282850730496" cy="376.52822697137015" r="3" fill="#196643"></circle><circle cx="288.02092321956616" cy="863.4884443489191" r="1" fill="#99e6c3"></circle><circle cx="573.6899721232882" cy="637.0461891041133" r="2" fill="#0f3d28"></circle><circle cx="446.85238485367876" cy="596.8706806986468" r="3" fill="#0f3d28"></circle><circle cx="469.7417898634072" cy="337.44224400106475" r="1" fill="#196643"></circle><circle cx="543.7190247208703" cy="555.1734883209979" r="2" fill="#1c1c1c"></circle><circle cx="538.3741290577084" cy="561.3520953510694" r="1" fill="#05140d"></circle><circle cx="506.91861145595453" cy="662.6134036922219" r="4" fill="#248f5e"></circle><circle cx="570.6109640221869" cy="428.0353403610157" r="1" fill="#05140d"></circle><circle cx="534.645204669243" cy="605.894796390049" r="1" fill="#05140d"></circle><circle cx="765.4681295493128" cy="808.6628015722263" r="3" fill="#99e6c3"></circle><circle cx="417.22548068238774" cy="344.39650354722244" r="2" fill="#196643"></circle><circle cx="507.6229239979073" cy="392.35698990206197" r="5" fill="#1c1c1c"></circle><circle cx="399.77310643207704" cy="449.1704991330064" r="1" fill="#0f3d28"></circle><circle cx="471.432419194156" cy="651.8156692231362" r="3" fill="#0f3d28"></circle><circle cx="568.291971711176" cy="632.513445537411" r="3" fill="#0f3d28"></circle><circle cx="204.5278818433854" cy="594.7827952942145" r="2" fill="#47d193"></circle><circle cx="172.70536797329294" cy="362.8148788926355" r="1" fill="#99e6c3"></circle><circle cx="659.8873686781191" cy="682.5561828176856" r="4" fill="#47d193"></circle><circle cx="465.6499220924766" cy="760.5220043640916" r="3" fill="#47d193"></circle><circle cx="550.3751785047396" cy="641.2092504430335" r="1" fill="#0f3d28"></circle><circle cx="599.9620899704058" cy="212.27617275073976" r="2" fill="#47d193"></circle><circle cx="570.2055057247803" cy="639.6750556398348" r="1" fill="#05140d"></circle><circle cx="485.0107793969543" cy="291.78431525578935" r="5" fill="#248f5e"></circle><circle cx="618.8842679707387" cy="704.1067894712049" r="1" fill="#248f5e"></circle><circle cx="621.2513748019018" cy="330.8349732676078" r="3" fill="#248f5e"></circle><circle cx="380.533817889785" cy="401.9517440204486" r="2" fill="#196643"></circle><circle cx="199.13359795935202" cy="270.0542697374547" r="5" fill="#99e6c3"></circle><circle cx="433.46659528124854" cy="784.4460602279562" r="1" fill="#47d193"></circle><circle cx="245.85326070059122" cy="687.2763668825146" r="1" fill="#47d193"></circle><circle cx="517.56770315431" cy="393.24795743034605" r="3" fill="#05140d"></circle><circle cx="516.0916816933542" cy="556.564770714022" r="1" fill="#1c1c1c"></circle><circle cx="368.94485638576384" cy="727.0321820223285" r="1" fill="#47d193"></circle><circle cx="489.36886557720266" cy="511.4377479781757" r="2" fill="#05140d"></circle><circle cx="461.33752801903137" cy="541.913083592829" r="4" fill="#1c1c1c"></circle><circle cx="433.5812877497115" cy="558.9964266416555" r="4" fill="#05140d"></circle><circle cx="339.36803856889185" cy="522.9532485812621" r="4" fill="#196643"></circle><circle cx="652.241995443352" cy="307.68039379229197" r="3" fill="#2eb879"></circle><circle cx="847.4268492004667" cy="496.06807293004147" r="1" fill="#99e6c3"></circle><circle cx="339.23979163433137" cy="550.8432351753792" r="1" fill="#196643"></circle><circle cx="545.1679653582878" cy="216.28506784301095" r="4" fill="#47d193"></circle><circle cx="423.9726123825859" cy="495.31608574664006" r="5" fill="#05140d"></circle><circle cx="467.791775774729" cy="643.1258632665034" r="2" fill="#0f3d28"></circle><circle cx="676.1157705327371" cy="693.863512750323" r="3" fill="#47d193"></circle><circle cx="624.5104243832536" cy="566.2470135469937" r="4" fill="#0f3d28"></circle><circle cx="391.7349320534957" cy="354.3531526805609" r="4" fill="#196643"></circle><circle cx="325.1306744125859" cy="530.7827942728279" r="4" fill="#248f5e"></circle><circle cx="508.281650608494" cy="449.4572419213544" r="1" fill="#1c1c1c"></circle><circle cx="293.7442478543825" cy="141.9430379599724" r="2" fill="#99e6c3"></circle><circle cx="525.2494183214615" cy="538.3300418057189" r="4" fill="#1c1c1c"></circle><circle cx="327.21352243691996" cy="659.0897829411946" r="4" fill="#196643"></circle><circle cx="657.2083464864668" cy="601.3064398572773" r="4" fill="#196643"></circle><circle cx="557.5318769569586" cy="612.7126698681388" r="2" fill="#0f3d28"></circle><circle cx="449.93972407647226" cy="481.571048728237" r="4" fill="#05140d"></circle><circle cx="250.7659347693145" cy="588.6277123409185" r="1" fill="#47d193"></circle><circle cx="450.2966256579251" cy="453.45567585365745" r="2" fill="#1c1c1c"></circle><circle cx="348.05430852287753" cy="358.9251861334594" r="2" fill="#248f5e"></circle><circle cx="535.2543863756315" cy="611.345911884449" r="4" fill="#05140d"></circle><circle cx="743.3954250436016" cy="253.36923752979615" r="2" fill="#99e6c3"></circle><circle cx="479.5886993910434" cy="571.0389892330923" r="4" fill="#1c1c1c"></circle><circle cx="465.5154357109986" cy="438.5221191504187" r="1" fill="#1c1c1c"></circle><circle cx="517.1833514879099" cy="590.9982172719174" r="5" fill="#05140d"></circle><circle cx="249.88353728892903" cy="529.8225216647585" r="2" fill="#47d193"></circle><circle cx="493.1726436272398" cy="407.0878319248544" r="4" fill="#05140d"></circle><circle cx="456.063282231932" cy="475.748230514064" r="3" fill="#1c1c1c"></circle><circle cx="588.149878876152" cy="232.5663462813162" r="3" fill="#47d193"></circle><circle cx="461.82866542630745" cy="533.6977183272529" r="1" fill="#1c1c1c"></circle><circle cx="491.91848456962686" cy="283.5591583064322" r="2" fill="#248f5e"></circle><circle cx="523.6616159641356" cy="535.893526662882" r="5" fill="#1c1c1c"></circle><circle cx="643.1811133286287" cy="559.5625332926876" r="2" fill="#0f3d28"></circle><circle cx="546.0416038867552" cy="713.5501174702786" r="2" fill="#248f5e"></circle><circle cx="639.5127689646501" cy="285.5393972662403" r="5" fill="#47d193"></circle><circle cx="590.6821558104558" cy="585.3364505942584" r="3" fill="#0f3d28"></circle><circle cx="757.9391063067276" cy="541.471196670875" r="4" fill="#47d193"></circle><circle cx="356.8882153290127" cy="446.15272447071413" r="2" fill="#0f3d28"></circle><circle cx="656.4281536019612" cy="355.53757229275544" r="2" fill="#2eb879"></circle><circle cx="644.9440258295881" cy="324.11874063330197" r="1" fill="#248f5e"></circle><circle cx="433.82128675482164" cy="610.1602373477338" r="1" fill="#05140d"></circle><circle cx="592.1068303905522" cy="660.8445026415861" r="5" fill="#248f5e"></circle><circle cx="404.465959276703" cy="439.1634852088844" r="3" fill="#1c1c1c"></circle><circle cx="506.55208145114386" cy="494.5612696321778" r="1" fill="#05140d"></circle><circle cx="437.48698879643604" cy="231.95578822216152" r="2" fill="#47d193"></circle><circle cx="504.5317408416304" cy="364.4399091540282" r="5" fill="#0f3d28"></circle><circle cx="637.9592012782377" cy="416.6020735413199" r="5" fill="#196643"></circle><circle cx="395.58682848809985" cy="765.950684529709" r="5" fill="#47d193"></circle><circle cx="540.177570106619" cy="765.0915043742766" r="3" fill="#47d193"></circle><circle cx="537.5152445381821" cy="254.81585245105947" r="5" fill="#47d193"></circle><circle cx="386.6275801401891" cy="354.84248630179883" r="4" fill="#196643"></circle><circle cx="445.04117273237995" cy="591.1815769320809" r="2" fill="#05140d"></circle><circle cx="374.47824549393874" cy="650.3254974295783" r="4" fill="#196643"></circle><circle cx="638.4505574072485" cy="584.3006808494315" r="2" fill="#196643"></circle><circle cx="477.53951162094063" cy="686.1899453953154" r="5" fill="#196643"></circle></svg>